<?xml version="1.0" encoding="utf-8"?>
<!-- Generator: Adobe Illustrator 17.0.0, SVG Export Plug-In . SVG Version: 6.00 Build 0)  -->
<!DOCTYPE svg PUBLIC "-//W3C//DTD SVG 1.1//EN" "http://www.w3.org/Graphics/SVG/1.1/DTD/svg11.dtd">
<svg version="1.1" id="Layer_1" xmlns="http://www.w3.org/2000/svg" xmlns:xlink="http://www.w3.org/1999/xlink" x="0px" y="0px"
	 width="30px" height="30px" viewBox="0 0 30 30" enable-background="new 0 0 30 30" xml:space="preserve">
<g>
	<rect x="0" y="0" fill="none" width="30" height="30"/>
	<g>
		<path fill="#4C6FE7" d="M25.276,6.56H4.673c-1.269,0-2.3,0.992-2.3,2.212v12.407c0,1.22,1.032,2.212,2.3,2.212h20.603
			c1.269,0,2.3-0.992,2.3-2.212V8.772C27.576,7.552,26.544,6.56,25.276,6.56z M26.576,21.179c0,0.668-0.583,1.212-1.3,1.212H4.673
			c-0.717,0-1.3-0.543-1.3-1.212V8.772c0-0.668,0.583-1.212,1.3-1.212h20.603c0.717,0,1.3,0.543,1.3,1.212V21.179z"/>
		<path fill="#4C6FE7" d="M24.72,12.082H6.615c-0.276,0-0.5,0.224-0.5,0.5s0.224,0.5,0.5,0.5H24.72c0.276,0,0.5-0.224,0.5-0.5
			S24.997,12.082,24.72,12.082z"/>
		<path fill="#4C6FE7" d="M21.551,14.496H6.669c-0.276,0-0.5,0.224-0.5,0.5s0.224,0.5,0.5,0.5h14.882c0.276,0,0.5-0.224,0.5-0.5
			S21.827,14.496,21.551,14.496z"/>
		<path fill="#4C6FE7" d="M18.362,16.857H6.669c-0.276,0-0.5,0.224-0.5,0.5s0.224,0.5,0.5,0.5h11.694c0.276,0,0.5-0.224,0.5-0.5
			S18.639,16.857,18.362,16.857z"/>
	</g>
</g>
</svg>
