<?xml version="1.0" encoding="utf-8"?>
<!-- Generator: Adobe Illustrator 17.0.0, SVG Export Plug-In . SVG Version: 6.00 Build 0)  -->
<!DOCTYPE svg PUBLIC "-//W3C//DTD SVG 1.1//EN" "http://www.w3.org/Graphics/SVG/1.1/DTD/svg11.dtd">
<svg version="1.1" id="Layer_1" xmlns="http://www.w3.org/2000/svg" xmlns:xlink="http://www.w3.org/1999/xlink" x="0px" y="0px"
	 width="147.714px" height="148.877px" viewBox="0 0 147.714 148.877" enable-background="new 0 0 147.714 148.877"
	 xml:space="preserve">
<g>
	<polygon fill="#3F47E1" points="0,50.401 14.345,40.708 134.919,40.321 147.714,50.401 145.387,71.724 68.235,115.922 	"/>
	<g>
		<path fill="#FFFFFF" d="M139.572,99.251c0,3.212-2.604,5.815-5.815,5.815H13.957c-3.212,0-5.815-2.604-5.815-5.815V5.815
			C8.142,2.604,10.745,0,13.957,0h119.799c3.212,0,5.815,2.604,5.815,5.815V99.251z"/>
		<path fill="#E3F1FC" d="M83.379,24.037c0,1.713-1.389,3.102-3.102,3.102H54.084c-1.713,0-3.102-1.389-3.102-3.102l0,0
			c0-1.713,1.389-3.102,3.102-3.102h26.193C81.99,20.936,83.379,22.324,83.379,24.037L83.379,24.037z"/>
		<path fill="#E3F1FC" d="M123.288,44.973c0,1.713-1.389,3.102-3.102,3.102H29.465c-1.713,0-3.102-1.389-3.102-3.102l0,0
			c0-1.713,1.389-3.102,3.102-3.102h90.722C121.9,41.872,123.288,43.26,123.288,44.973L123.288,44.973z"/>
		<path fill="#E3F1FC" d="M123.288,56.604c0,1.713-1.389,3.102-3.102,3.102H29.465c-1.713,0-3.102-1.389-3.102-3.102l0,0
			c0-1.713,1.389-3.102,3.102-3.102h90.722C121.9,53.503,123.288,54.891,123.288,56.604L123.288,56.604z"/>
		<path fill="#E3F1FC" d="M123.288,68.235c0,1.713-1.389,3.102-3.102,3.102H29.465c-1.713,0-3.102-1.389-3.102-3.102l0,0
			c0-1.713,1.389-3.102,3.102-3.102h90.722C121.9,65.134,123.288,66.522,123.288,68.235L123.288,68.235z"/>
		<path fill="#E3F1FC" d="M123.288,79.866c0,1.713-1.389,3.102-3.102,3.102H29.465c-1.713,0-3.102-1.389-3.102-3.102l0,0
			c0-1.713,1.389-3.102,3.102-3.102h90.722C121.9,76.764,123.288,78.153,123.288,79.866L123.288,79.866z"/>
		<g>
			<g>
				<path fill="#E3F1FC" d="M34.537,32.281c-5.382,0-9.76-4.378-9.76-9.76s4.378-9.76,9.76-9.76c5.381,0,9.76,4.378,9.76,9.76
					S39.919,32.281,34.537,32.281z"/>
			</g>
			<g>
				<g>
					<path fill="#FFFFFF" d="M34.056,20.822c0-1.126,0.829-2.042,1.849-2.045v0l0.003,0l0.003,0v0
						c1.02,0.003,1.849,0.919,1.849,2.045l0.006,4.962c0,0.277-0.224,0.5-0.5,0.5c-0.277,0-0.5-0.224-0.5-0.5l-0.006-4.962
						c0-0.575-0.382-1.042-0.851-1.044c-0.469,0.002-0.851,0.469-0.851,1.044v3.418c0,1.213-0.817,2.042-1.838,2.045v0l-0.003,0
						l-0.003,0v0c-1.02-0.003-1.849-0.919-1.849-2.045l-0.006-3.102c0-0.277,0.224-0.5,0.5-0.5c0.277,0,0.5,0.224,0.5,0.5
						l0.006,3.102c0,0.575,0.382,1.042,0.851,1.044c0.469-0.002,0.839-0.402,0.839-1.044V20.822z"/>
				</g>
				<circle fill="#FFFFFF" cx="31.863" cy="19.311" r="0.553"/>
			</g>
		</g>
	</g>
	<path fill="#0E8EEA" d="M5.815,148.877h136.083c3.212,0,5.815-2.604,5.815-5.816v-92.66L5.815,148.877z"/>
	<path fill="#379FEF" d="M141.898,148.877H5.815c-3.212,0-5.815-2.604-5.815-5.816v-92.66L141.898,148.877z"/>
</g>
</svg>
