<?xml version="1.0" encoding="utf-8"?>
<!-- Generator: Adobe Illustrator 17.0.0, SVG Export Plug-In . SVG Version: 6.00 Build 0)  -->
<!DOCTYPE svg PUBLIC "-//W3C//DTD SVG 1.1//EN" "http://www.w3.org/Graphics/SVG/1.1/DTD/svg11.dtd">
<svg version="1.1" id="Layer_1" xmlns="http://www.w3.org/2000/svg" xmlns:xlink="http://www.w3.org/1999/xlink" x="0px" y="0px"
	 width="30px" height="30px" viewBox="0 0 30 30" enable-background="new 0 0 30 30" xml:space="preserve">
<g>
	<g>
		<g>
			<rect x="0" y="0" fill="none" width="30" height="30"/>
		</g>
	</g>
	<path fill="#4C6FE7" d="M25.61,23.042c-0.348-4.502-3.64-8.182-7.924-9.292c1.933-0.984,3.262-2.988,3.262-5.301
		C20.949,5.169,18.28,2.5,15,2.5S9.051,5.169,9.051,8.449c0,2.313,1.33,4.317,3.262,5.301c-4.284,1.11-7.576,4.79-7.924,9.292
		l-0.019,0.241l0.177,0.164C7.39,26.089,11.102,27.544,15,27.544s7.61-1.455,10.452-4.098l0.177-0.164L25.61,23.042z M10.051,8.449
		C10.051,5.72,12.271,3.5,15,3.5s4.949,2.22,4.949,4.949s-2.22,4.949-4.949,4.949S10.051,11.178,10.051,8.449z M15,26.544
		c-3.562,0-6.959-1.3-9.592-3.666c0.495-4.775,4.661-8.48,9.592-8.48s9.097,3.705,9.592,8.48C21.959,25.244,18.563,26.544,15,26.544
		z"/>
</g>
</svg>
