<?xml version="1.0" encoding="utf-8"?>
<!-- Generator: Adobe Illustrator 17.0.0, SVG Export Plug-In . SVG Version: 6.00 Build 0)  -->
<!DOCTYPE svg PUBLIC "-//W3C//DTD SVG 1.1//EN" "http://www.w3.org/Graphics/SVG/1.1/DTD/svg11.dtd">
<svg version="1.1" id="Layer_1" xmlns="http://www.w3.org/2000/svg" xmlns:xlink="http://www.w3.org/1999/xlink" x="0px" y="0px"
	 width="30px" height="30px" viewBox="0 0 30 30" enable-background="new 0 0 30 30" xml:space="preserve">
<g>
	<rect x="0" y="0" fill="none" width="30" height="30"/>
	<g>
		<path fill="#4C6FE7" d="M25.737,5.97H4.28c-1.036,0-1.875,0.798-1.875,1.783v14.459c0,0.985,0.84,1.783,1.875,1.783h21.457
			c1.036,0,1.875-0.798,1.875-1.783V7.753C27.612,6.768,26.773,5.97,25.737,5.97z M26.612,22.212c0,0.432-0.393,0.783-0.875,0.783
			H4.28c-0.483,0-0.875-0.351-0.875-0.783V7.753c0-0.432,0.393-0.783,0.875-0.783h21.457c0.483,0,0.875,0.351,0.875,0.783V22.212z"
			/>
		<path fill="#4C6FE7" d="M23.763,9.202l-8.764,5.216L6.239,9.205C6.002,9.064,5.695,9.142,5.554,9.379
			C5.413,9.616,5.49,9.924,5.728,10.065l9.015,5.365c0.079,0.047,0.167,0.07,0.256,0.07s0.177-0.023,0.256-0.07l9.02-5.368
			c0.237-0.141,0.315-0.448,0.174-0.686C24.307,9.139,24,9.06,23.763,9.202z"/>
	</g>
</g>
</svg>
