<?xml version="1.0" encoding="utf-8"?>
<!-- Generator: Adobe Illustrator 17.0.0, SVG Export Plug-In . SVG Version: 6.00 Build 0)  -->
<!DOCTYPE svg PUBLIC "-//W3C//DTD SVG 1.1//EN" "http://www.w3.org/Graphics/SVG/1.1/DTD/svg11.dtd">
<svg version="1.1" id="Layer_1" xmlns="http://www.w3.org/2000/svg" xmlns:xlink="http://www.w3.org/1999/xlink" x="0px" y="0px"
	 width="1311.862px" height="127.662px" viewBox="0 0 1311.862 127.662" enable-background="new 0 0 1311.862 127.662"
	 xml:space="preserve">
<g>
	<rect x="1068.68" y="62.986" fill="#F2EDDF" width="99.829" height="2"/>
	<rect x="839.68" y="62.986" fill="#F2EDDF" width="115.419" height="2"/>
	<rect x="591.1" y="62.986" fill="#F2EDDF" width="120" height="2"/>
	<rect x="363.766" y="62.986" fill="#F2EDDF" width="132.043" height="2"/>
	<rect x="147.62" y="62.986" fill="#F2EDDF" width="95.814" height="2"/>
	<g>
		<path fill="#379FEF" d="M303.577,117.346c37.262-13.52,48.263-37.383,48.263-53.116c0-10.615,0-34.785,0-34.785
			c-30.599-6.431-44.612-14.096-48.263-16.45c-3.651,2.354-17.664,10.019-48.263,16.45c0,0,0,24.17,0,34.785
			C255.313,79.963,266.315,103.826,303.577,117.346z"/>
		<g>
			<g>
				<path fill="#FFD349" d="M316.932,61.787c-1.145,0-2.072-0.928-2.072-2.072v-5.134c0-6.222-5.062-11.284-11.283-11.284
					s-11.283,5.062-11.283,11.284v5.051c0,1.145-0.928,2.072-2.072,2.072s-2.072-0.928-2.072-2.072v-5.051
					c0-8.507,6.921-15.428,15.428-15.428s15.428,6.921,15.428,15.428v5.134C319.004,60.86,318.076,61.787,316.932,61.787z"/>
				<g>
					<g>
						<path fill="#F7F5EF" d="M284.037,61.974c0-1.722,1.468-3.118,3.279-3.118h32.53c1.811,0,3.279,1.396,3.279,3.118v23.741
							c0,1.722-1.468,3.118-3.279,3.118h-32.53c-1.811,0-3.279-1.396-3.279-3.118V61.974z"/>
					</g>
				</g>
			</g>
		</g>
		<g>
			<path fill="#3599E6" d="M323.125,61.974v23.741c0,1.722-1.468,3.118-3.279,3.118h-27.292l-14.825,14.825
				c1.675,1.277,3.461,2.528,5.363,3.747c0.02,0.013,0.041,0.025,0.06,0.038c0.88,0.563,1.788,1.117,2.718,1.666
				c0.198,0.116,0.402,0.231,0.602,0.347c0.765,0.443,1.545,0.881,2.344,1.313c0.283,0.153,0.57,0.305,0.857,0.456
				c0.742,0.392,1.499,0.778,2.269,1.161c0.332,0.164,0.664,0.329,1.001,0.491c0.765,0.369,1.549,0.732,2.343,1.091
				c0.348,0.158,0.692,0.317,1.045,0.472c0.858,0.378,1.74,0.747,2.631,1.112c0.302,0.124,0.595,0.251,0.9,0.373
				c1.209,0.484,2.444,0.959,3.714,1.42c37.261-13.519,48.263-37.382,48.263-53.116c0-10.231,0-33.043,0-34.682l-29.982,29.982
				C322.624,60.1,323.125,60.977,323.125,61.974z"/>
			<path fill="#F0EEE8" d="M323.125,85.715V61.974c0-0.997-0.501-1.874-1.267-2.445l-29.304,29.304h27.292
				C321.657,88.833,323.125,87.437,323.125,85.715z"/>
		</g>
		<path fill="none" d="M303.577,117.346c37.262-13.52,48.263-37.383,48.263-53.116c0-10.615,0-34.785,0-34.785
			c-30.599-6.431-44.612-14.096-48.263-16.45c-3.651,2.354-17.664,10.019-48.263,16.45c0,0,0,24.17,0,34.785
			C255.313,79.963,266.315,103.826,303.577,117.346z"/>
	</g>
	<g>
		<g>
			<g>
				<path fill="#379FEF" d="M826.217,21.594c0-3.946-3.542-7.145-7.91-7.145H730.3c-4.369,0-7.91,3.199-7.91,7.145v14.638h103.827
					L826.217,21.594L826.217,21.594z"/>
			</g>
			<g>
				<path fill="#F2EDDF" d="M722.39,36.232v75.069c0,3.946,3.542,7.145,7.91,7.145h88.006c4.369,0,7.91-3.199,7.91-7.145V36.232
					H722.39z"/>
			</g>
		</g>
		<path fill="#198DE6" d="M750.677,26.359c-1.018,0-1.843-0.825-1.843-1.842V10.916c0-1.018,0.825-1.842,1.843-1.842
			s1.843,0.825,1.843,1.842v13.601C752.52,25.534,751.695,26.359,750.677,26.359z"/>
		<g>
			<circle fill="#D9D4C8" cx="741.008" cy="52.472" r="2.843"/>
		</g>
		<g>
			<circle fill="#198DE6" cx="750.677" cy="24.516" r="4.367"/>
		</g>
		<path fill="#198DE6" d="M798.206,26.359c-1.018,0-1.843-0.825-1.843-1.842V10.916c0-1.018,0.825-1.842,1.843-1.842
			s1.843,0.825,1.843,1.842v13.601C800.049,25.534,799.224,26.359,798.206,26.359z"/>
		<g>
			<circle fill="#198DE6" cx="798.206" cy="24.516" r="4.367"/>
		</g>
		<g>
			<circle fill="#379FEF" cx="774.294" cy="52.472" r="2.608"/>
			<circle fill="#379FEF" cx="790.938" cy="52.472" r="2.608"/>
			<path fill="#FFD349" d="M757.651,47.509c-2.736,0-4.962,2.226-4.962,4.962s2.226,4.962,4.962,4.962s4.962-2.226,4.962-4.962
				S760.388,47.509,757.651,47.509z"/>
			<circle fill="#379FEF" cx="741.008" cy="68.589" r="2.608"/>
			<circle fill="#379FEF" cx="757.651" cy="68.589" r="2.608"/>
			<circle fill="#379FEF" cx="774.294" cy="68.589" r="2.608"/>
			<circle fill="#379FEF" cx="790.938" cy="68.589" r="2.608"/>
			<circle fill="#379FEF" cx="807.581" cy="52.472" r="2.608"/>
			<circle fill="#379FEF" cx="807.581" cy="68.589" r="2.608"/>
			<circle fill="#379FEF" cx="741.008" cy="84.706" r="2.608"/>
			<circle fill="#379FEF" cx="757.651" cy="84.706" r="2.608"/>
			<circle fill="#379FEF" cx="741.008" cy="100.824" r="2.608"/>
			<circle fill="#379FEF" cx="757.651" cy="100.824" r="2.608"/>
			<circle fill="#379FEF" cx="774.294" cy="84.706" r="2.608"/>
			<circle fill="#379FEF" cx="790.938" cy="84.706" r="2.608"/>
			<circle fill="#379FEF" cx="807.581" cy="84.706" r="2.608"/>
			<circle fill="#379FEF" cx="774.294" cy="100.824" r="2.608"/>
		</g>
		<g>
			<g>
				<path fill="#E8E3D6" d="M737.554,67.826h-3.355c-0.415,0-0.75,0.336-0.75,0.75s0.335,0.75,0.75,0.75h3.347
					c-0.05-0.238-0.079-0.484-0.079-0.737C737.467,68.327,737.5,68.072,737.554,67.826z"/>
				<path fill="#E8E3D6" d="M770.847,67.826h-9.741c0.054,0.246,0.087,0.5,0.087,0.763c0,0.253-0.029,0.499-0.079,0.737h9.729
					c-0.051-0.239-0.09-0.483-0.09-0.737C770.753,68.326,770.792,68.073,770.847,67.826z"/>
				<path fill="#E8E3D6" d="M787.483,67.826h-9.734c0.004,0.017,0.011,0.032,0.015,0.049c0.047,0.23,0.072,0.469,0.072,0.714
					c0,0.253-0.029,0.499-0.079,0.737h9.719c-0.05-0.238-0.079-0.484-0.079-0.737C787.396,68.327,787.43,68.072,787.483,67.826z"/>
				<path fill="#E8E3D6" d="M804.127,67.826h-9.735c0.055,0.246,0.087,0.5,0.087,0.763c0,0.253-0.029,0.499-0.079,0.737h9.719
					c-0.05-0.238-0.079-0.484-0.079-0.737C804.04,68.327,804.073,68.072,804.127,67.826z"/>
				<path fill="#E8E3D6" d="M814.801,67.826h-3.768c0.055,0.246,0.089,0.5,0.089,0.763c0,0.254-0.033,0.499-0.084,0.737h3.763
					c0.414,0,0.75-0.336,0.75-0.75S815.215,67.826,814.801,67.826z"/>
				<path fill="#E8E3D6" d="M754.197,67.826h-9.741c0.055,0.246,0.093,0.5,0.093,0.763c0,0.254-0.039,0.499-0.09,0.737h9.729
					c-0.05-0.238-0.079-0.484-0.079-0.737C754.11,68.327,754.143,68.072,754.197,67.826z"/>
				<path fill="#E8E3D6" d="M804.154,83.856h-9.789c0.011,0.047,0.033,0.089,0.042,0.136c0.047,0.23,0.072,0.469,0.072,0.714
					c0,0.223-0.028,0.439-0.068,0.65h9.694c-0.039-0.211-0.065-0.427-0.065-0.65C804.04,84.412,804.086,84.13,804.154,83.856z"/>
				<path fill="#E8E3D6" d="M814.801,83.856h-3.793c0.012,0.047,0.033,0.089,0.042,0.136c0.047,0.23,0.072,0.469,0.072,0.714
					c0,0.223-0.026,0.439-0.065,0.65h3.744c0.414,0,0.75-0.336,0.75-0.75S815.215,83.856,814.801,83.856z"/>
				<path fill="#E8E3D6" d="M737.581,83.856h-3.382c-0.415,0-0.75,0.336-0.75,0.75s0.335,0.75,0.75,0.75h3.333
					c-0.039-0.211-0.065-0.427-0.065-0.65C737.467,84.412,737.513,84.13,737.581,83.856z"/>
				<path fill="#E8E3D6" d="M787.468,83.993c0.01-0.047,0.031-0.09,0.042-0.136h-9.795c0.07,0.273,0.121,0.555,0.121,0.85
					c0,0.223-0.026,0.439-0.065,0.65h9.691c-0.039-0.211-0.065-0.427-0.065-0.65C787.396,84.462,787.421,84.223,787.468,83.993z"/>
				<path fill="#E8E3D6" d="M754.138,84.255c0.017-0.136,0.044-0.268,0.077-0.399h-9.78c0.011,0.047,0.033,0.089,0.042,0.136
					c0.047,0.23,0.072,0.469,0.072,0.714c0,0.183-0.014,0.364-0.041,0.539c-0.006,0.038-0.019,0.073-0.026,0.111h9.692
					c-0.04-0.211-0.065-0.427-0.065-0.65C754.11,84.553,754.12,84.403,754.138,84.255z"/>
				<path fill="#E8E3D6" d="M770.825,83.993c0.01-0.047,0.031-0.09,0.042-0.136h-9.78c0.032,0.131,0.059,0.263,0.077,0.399
					c0.019,0.148,0.028,0.298,0.028,0.451c0,0.223-0.025,0.439-0.064,0.65h9.691c-0.04-0.211-0.066-0.427-0.066-0.65
					C770.753,84.462,770.778,84.223,770.825,83.993z"/>
				<g opacity="0.9">
					<path fill="#E8E3D6" d="M781.571,99.974h-3.84c0.067,0.272,0.104,0.556,0.104,0.85c0,0.224-0.033,0.439-0.076,0.65h3.84
						c-0.067-0.272-0.104-0.556-0.104-0.85C781.495,100.4,781.528,100.185,781.571,99.974z"/>
				</g>
				<path fill="#E8E3D6" d="M737.583,99.974h-3.384c-0.415,0-0.75,0.336-0.75,0.75s0.335,0.75,0.75,0.75h3.333
					c-0.039-0.211-0.065-0.428-0.065-0.65C737.467,100.528,737.515,100.247,737.583,99.974z"/>
				<path fill="#E8E3D6" d="M770.786,100.342c0.018-0.125,0.046-0.247,0.077-0.368h-9.784c0.068,0.273,0.114,0.555,0.114,0.85
					c0,0.223-0.026,0.439-0.065,0.65h9.707c-0.04-0.213-0.081-0.426-0.081-0.65C770.753,100.66,770.765,100.499,770.786,100.342z"/>
				<path fill="#E8E3D6" d="M754.224,99.974h-9.784c0.03,0.121,0.059,0.242,0.077,0.368c0.021,0.157,0.033,0.318,0.033,0.482
					c0,0.225-0.041,0.438-0.081,0.65h9.707c-0.039-0.211-0.065-0.428-0.065-0.65C754.11,100.529,754.156,100.247,754.224,99.974z"/>
				<path fill="#E8E3D6" d="M764.35,52.472c0,0.254-0.017,0.504-0.044,0.75h6.532c-0.053-0.242-0.083-0.492-0.083-0.75
					c0-0.259,0.037-0.507,0.089-0.75h-6.538c0.002,0.022,0.007,0.043,0.01,0.065C764.338,52.012,764.35,52.24,764.35,52.472z"/>
				<path fill="#E8E3D6" d="M777.836,52.472c0,0.26-0.042,0.508-0.099,0.75h9.743c-0.003-0.013-0.009-0.024-0.012-0.037
					c-0.047-0.23-0.072-0.469-0.072-0.714s0.025-0.483,0.072-0.714c0.003-0.013,0.009-0.024,0.011-0.036h-9.727
					c0.003,0.012,0.009,0.024,0.011,0.036C777.811,51.988,777.836,52.227,777.836,52.472z"/>
				<path fill="#E8E3D6" d="M794.396,53.222h9.736c-0.054-0.242-0.092-0.491-0.092-0.75s0.039-0.507,0.092-0.75h-9.742
					c0.053,0.242,0.089,0.491,0.089,0.75C794.479,52.73,794.448,52.98,794.396,53.222z"/>
				<path fill="#E8E3D6" d="M811.039,53.222h3.762c0.414,0,0.75-0.336,0.75-0.75s-0.336-0.75-0.75-0.75h-3.762
					c0.052,0.242,0.083,0.492,0.083,0.75S811.091,52.98,811.039,53.222z"/>
			</g>
		</g>
		<path fill="none" d="M722.39,36.232v75.069c0,3.946,3.542,7.145,7.91,7.145h88.006c4.369,0,7.91-3.199,7.91-7.145V36.232H722.39z"
			/>
	</g>
	<g>
		<path fill="#EBE6D7" d="M826.217,111.302V36.233h-0.498l-15.613,15.613c0.05,0.202,0.084,0.409,0.084,0.627
			c0,1.44-1.168,2.608-2.608,2.608c-0.217,0-0.425-0.034-0.627-0.084L793.53,68.422c0.004,0.057,0.017,0.11,0.017,0.168
			c0,1.44-1.168,2.608-2.608,2.608c-0.057,0-0.111-0.013-0.168-0.017l-12.677,12.677h9.417c-0.011,0.046-0.032,0.089-0.042,0.136
			c-0.047,0.23-0.072,0.469-0.071,0.714c0,0.223,0.026,0.439,0.065,0.65h-9.691c0.039-0.211,0.065-0.427,0.065-0.65
			c0-0.184-0.024-0.362-0.056-0.537l-0.917,0.917c-0.167,1.133-1.056,2.021-2.189,2.189l-12.698,12.698h8.886
			c-0.031,0.121-0.059,0.243-0.077,0.368c-0.021,0.157-0.033,0.318-0.032,0.482c0,0.224,0.041,0.437,0.081,0.65h-9.707
			c0.039-0.211,0.065-0.427,0.065-0.65c0-0.021-0.004-0.041-0.005-0.062l-1.203,1.203c-0.255,0.52-0.674,0.939-1.194,1.194
			l-15.287,15.287h74.801C822.676,118.447,826.217,115.248,826.217,111.302z M804.128,67.827c-0.054,0.246-0.087,0.501-0.087,0.763
			c0,0.253,0.029,0.499,0.079,0.737h-9.719c0.05-0.238,0.079-0.484,0.079-0.737c0-0.263-0.032-0.517-0.087-0.763H804.128z
			 M790.939,82.099c1.44,0,2.608,1.168,2.608,2.608s-1.168,2.608-2.608,2.608s-2.608-1.168-2.608-2.608
			S789.499,82.099,790.939,82.099z M774.295,103.433c-1.44,0-2.608-1.168-2.608-2.608s1.168-2.608,2.608-2.608
			s2.608,1.168,2.608,2.608S775.735,103.433,774.295,103.433z M777.76,101.475c0.043-0.211,0.076-0.426,0.076-0.65
			c0-0.294-0.037-0.578-0.104-0.85h3.84c-0.043,0.211-0.076,0.426-0.076,0.65c0,0.294,0.037,0.578,0.104,0.85H777.76z
			 M794.903,107.547c-0.129,0.074-0.261,0.142-0.394,0.209c-1.045,0.523-2.22,0.824-3.468,0.824c-0.805,0-1.582-0.123-2.312-0.35
			c-0.243-0.075-0.482-0.163-0.714-0.261c-0.466-0.197-0.907-0.438-1.321-0.717c-0.828-0.559-1.541-1.273-2.1-2.1
			c-0.279-0.414-0.52-0.856-0.717-1.321c-0.098-0.232-0.185-0.471-0.261-0.714c-0.227-0.73-0.35-1.507-0.35-2.312
			c0-0.268,0.014-0.534,0.04-0.795c0.054-0.523,0.159-1.03,0.31-1.517c0.984-3.164,3.936-5.462,7.424-5.462
			c1.927,0,3.687,0.705,5.045,1.866c1.668,1.426,2.729,3.541,2.729,5.907C798.814,103.69,797.238,106.203,794.903,107.547z
			 M804.106,85.357h-9.694c0.04-0.211,0.068-0.427,0.068-0.65c0-0.245-0.025-0.484-0.072-0.714
			c-0.009-0.047-0.031-0.089-0.042-0.136h9.789c-0.068,0.274-0.114,0.556-0.114,0.85C804.041,84.93,804.067,85.146,804.106,85.357z
			 M807.582,87.315c-1.44,0-2.608-1.168-2.608-2.608s1.168-2.608,2.608-2.608s2.608,1.168,2.608,2.608
			S809.022,87.315,807.582,87.315z M807.582,71.198c-1.44,0-2.608-1.168-2.608-2.608s1.168-2.608,2.608-2.608
			s2.608,1.168,2.608,2.608S809.022,71.198,807.582,71.198z M814.802,85.357h-3.744c0.039-0.211,0.065-0.427,0.065-0.65
			c0-0.245-0.025-0.484-0.072-0.714c-0.009-0.047-0.03-0.089-0.042-0.136h3.793c0.414,0,0.75,0.336,0.75,0.75
			S815.216,85.357,814.802,85.357z M814.802,69.327h-3.763c0.051-0.238,0.084-0.483,0.084-0.737c0-0.263-0.034-0.517-0.089-0.763
			h3.768c0.414,0,0.75,0.336,0.75,0.75S815.216,69.327,814.802,69.327z M814.802,53.223h-3.762c0.052-0.242,0.083-0.492,0.083-0.75
			s-0.031-0.508-0.083-0.75h3.762c0.414,0,0.75,0.336,0.75,0.75S815.216,53.223,814.802,53.223z"/>
		<path fill="#3495E0" d="M790.939,71.198c1.44,0,2.608-1.168,2.608-2.608c0-0.057-0.013-0.111-0.017-0.168l-2.759,2.759
			C790.828,71.185,790.882,71.198,790.939,71.198z"/>
		<path fill="#3495E0" d="M807.582,55.081c1.44,0,2.608-1.168,2.608-2.608c0-0.217-0.034-0.425-0.084-0.627l-3.15,3.15
			C807.157,55.047,807.365,55.081,807.582,55.081z"/>
		<circle fill="#3495E0" cx="807.582" cy="68.59" r="2.608"/>
		<path fill="#3495E0" d="M776.865,85.088l-2.189,2.189C775.809,87.109,776.697,86.221,776.865,85.088z"/>
		<circle fill="#3495E0" cx="790.939" cy="84.707" r="2.608"/>
		<circle fill="#3495E0" cx="807.582" cy="84.707" r="2.608"/>
		<circle fill="#3495E0" cx="774.295" cy="100.825" r="2.608"/>
		<path fill="#DEDACD" d="M794.401,69.327h9.719c-0.05-0.238-0.079-0.484-0.079-0.737c0-0.262,0.033-0.517,0.087-0.763h-9.735
			c0.055,0.246,0.087,0.5,0.087,0.763C794.48,68.843,794.451,69.089,794.401,69.327z"/>
		<path fill="#DEDACD" d="M814.802,67.827h-3.768c0.055,0.246,0.089,0.5,0.089,0.763c0,0.254-0.033,0.499-0.084,0.737h3.763
			c0.414,0,0.75-0.336,0.75-0.75S815.216,67.827,814.802,67.827z"/>
		<path fill="#DEDACD" d="M794.366,83.857c0.011,0.047,0.033,0.089,0.042,0.136c0.047,0.23,0.072,0.469,0.072,0.714
			c0,0.223-0.028,0.439-0.068,0.65h9.694c-0.039-0.211-0.065-0.427-0.065-0.65c0-0.294,0.046-0.576,0.114-0.85H794.366z"/>
		<path fill="#DEDACD" d="M814.802,83.857h-3.793c0.012,0.047,0.033,0.089,0.042,0.136c0.047,0.23,0.072,0.469,0.072,0.714
			c0,0.223-0.026,0.439-0.065,0.65h3.744c0.414,0,0.75-0.336,0.75-0.75S815.216,83.857,814.802,83.857z"/>
		<path fill="#DEDACD" d="M777.837,84.708c0,0.223-0.026,0.439-0.065,0.65h9.691c-0.039-0.211-0.065-0.427-0.065-0.65
			c-0.001-0.245,0.024-0.484,0.071-0.714c0.01-0.047,0.031-0.09,0.042-0.136h-9.417l-0.313,0.313
			C777.813,84.346,777.837,84.524,777.837,84.708z"/>
		<path fill="#DEDACD" d="M781.572,99.975h-3.84c0.067,0.272,0.104,0.556,0.104,0.85c0,0.224-0.033,0.439-0.076,0.65h3.84
			c-0.067-0.272-0.104-0.556-0.104-0.85C781.496,100.401,781.529,100.186,781.572,99.975z"/>
		<path fill="#DEDACD" d="M761.194,100.825c0,0.223-0.026,0.439-0.065,0.65h9.707c-0.04-0.213-0.081-0.426-0.081-0.65
			c-0.001-0.164,0.011-0.325,0.032-0.482c0.018-0.125,0.046-0.247,0.077-0.368h-8.886l-0.788,0.788
			C761.19,100.784,761.194,100.804,761.194,100.825z"/>
		<path fill="#DEDACD" d="M814.802,51.723h-3.762c0.052,0.242,0.083,0.492,0.083,0.75s-0.031,0.508-0.083,0.75h3.762
			c0.414,0,0.75-0.336,0.75-0.75S815.216,51.723,814.802,51.723z"/>
		<path fill="#FFD349" d="M796.085,94.897c-1.358-1.161-3.118-1.866-5.045-1.866c-3.488,0-6.44,2.298-7.424,5.462
			c-0.151,0.487-0.256,0.994-0.31,1.517c-0.026,0.261-0.04,0.527-0.04,0.795c0,0.805,0.123,1.582,0.35,2.312
			c0.076,0.243,0.163,0.482,0.261,0.714c0.197,0.465,0.438,0.907,0.717,1.321c0.559,0.827,1.272,1.541,2.1,2.1
			c0.414,0.279,0.855,0.52,1.321,0.717c0.232,0.098,0.471,0.186,0.714,0.261c0.73,0.227,1.507,0.35,2.312,0.35
			c1.248,0,2.423-0.301,3.468-0.824c0.133-0.067,0.265-0.135,0.394-0.209c2.335-1.344,3.911-3.857,3.911-6.743
			C798.814,98.438,797.753,96.323,796.085,94.897z M791.533,104.206v0.5c0,0.272-0.221,0.493-0.494,0.493s-0.494-0.221-0.494-0.493
			v-0.514c-0.719-0.122-1.338-0.488-1.671-1.041c-0.141-0.233-0.065-0.536,0.168-0.677c0.233-0.141,0.536-0.066,0.677,0.168
			c0.227,0.376,0.745,0.619,1.32,0.619c0.774,0,1.427-0.452,1.427-0.988c0-0.406-0.059-0.588-1.559-1.006
			c-1.378-0.385-2.281-0.728-2.281-1.957c0-0.951,0.825-1.746,1.92-1.933v-0.476c0-0.272,0.221-0.493,0.494-0.493
			s0.494,0.221,0.494,0.493v0.49c0.719,0.122,1.338,0.488,1.671,1.041c0.141,0.233,0.065,0.536-0.168,0.677
			c-0.233,0.14-0.537,0.065-0.677-0.168c-0.226-0.376-0.744-0.619-1.319-0.619c-0.774,0-1.427,0.453-1.427,0.989
			c0,0.406,0.06,0.588,1.559,1.006c1.378,0.383,2.281,0.727,2.281,1.956C793.454,103.224,792.629,104.019,791.533,104.206z"/>
		<path fill="#379FEF" d="M791.173,100.317c-1.499-0.418-1.559-0.6-1.559-1.006c0-0.536,0.653-0.989,1.427-0.989
			c0.575,0,1.093,0.243,1.319,0.619c0.14,0.233,0.444,0.308,0.677,0.168c0.233-0.141,0.309-0.444,0.168-0.677
			c-0.333-0.553-0.952-0.919-1.671-1.041v-0.49c0-0.272-0.221-0.493-0.494-0.493s-0.494,0.221-0.494,0.493v0.476
			c-1.095,0.187-1.92,0.982-1.92,1.933c0,1.229,0.903,1.572,2.281,1.957c1.5,0.418,1.559,0.6,1.559,1.006
			c0,0.536-0.653,0.988-1.427,0.988c-0.575,0-1.093-0.243-1.32-0.619c-0.141-0.234-0.444-0.309-0.677-0.168
			c-0.233,0.141-0.309,0.444-0.168,0.677c0.333,0.553,0.952,0.919,1.671,1.041v0.514c0,0.272,0.221,0.493,0.494,0.493
			s0.494-0.221,0.494-0.493v-0.5c1.096-0.187,1.921-0.982,1.921-1.933C793.454,101.044,792.551,100.7,791.173,100.317z"/>
	</g>
	<g>
		<g>
			<g>
				<path fill="#F7F5EF" d="M1051.769,6.159C1051.769,6.159,1051.769,6.16,1051.769,6.159c0,1.16-0.94,2.099-2.099,2.099
					s-2.099-0.94-2.099-2.099c0,0,0,0,0-0.001h-3.643c0,0,0,0,0,0.001c0,1.159-0.94,2.099-2.099,2.099s-2.099-0.94-2.099-2.099
					c0,0,0,0,0-0.001h-3.643c0,0,0,0,0,0.001c0,1.159-0.94,2.099-2.099,2.099s-2.099-0.94-2.099-2.099c0,0,0,0,0-0.001h-3.643
					c0,0,0,0,0,0.001c0,1.159-0.94,2.099-2.099,2.099s-2.099-0.94-2.099-2.099c0,0,0,0,0-0.001h-3.643c0,0,0,0,0,0.001
					c0,1.159-0.94,2.099-2.099,2.099s-2.099-0.94-2.099-2.099c0,0,0,0,0-0.001h-3.643c0,0,0,0,0,0.001
					c0,1.159-0.94,2.099-2.099,2.099s-2.099-0.94-2.099-2.099c0,0,0,0,0-0.001h-3.643c0,0,0,0,0,0.001
					c0,1.159-0.94,2.099-2.099,2.099s-2.099-0.94-2.099-2.099c0,0,0,0,0-0.001h-3.643c0,0,0,0,0,0.001
					c0,1.159-0.94,2.099-2.099,2.099s-2.099-0.94-2.099-2.099c0,0,0,0,0-0.001h-3.643c0,0,0,0,0,0.001
					c0,1.159-0.939,2.099-2.099,2.099s-2.099-0.94-2.099-2.099c0,0,0,0,0-0.001H981.2c0,0,0,0,0,0.001
					c0,1.159-0.939,2.099-2.099,2.099s-2.099-0.94-2.099-2.099c0,0,0,0,0-0.001h-3.643c0,0,0,0,0,0.001
					c0,1.159-0.939,2.099-2.099,2.099c-1.159,0-2.099-0.94-2.099-2.099c0,0,0,0,0-0.001h-2.037v29.679v53.656h86.674V35.839V6.159
					H1051.769z"/>
			</g>
			<polygon fill="#F2EDDF" points="1053.286,6.159 1053.286,88.975 967.65,88.975 967.65,6.159 966.612,6.159 966.612,90.013 
				1054.324,90.013 1054.324,6.159 			"/>
			<path fill="#FFD349" d="M966.641,88.961v30.141c0,2.861,2.319,5.179,5.179,5.179h59.746h17.551c2.86,0,5.179-2.319,5.179-5.179
				v-14.988V88.961H966.641z"/>
			<path fill="#FFD349" d="M1022.969,44.803h-19.349c-0.472,0-0.854-0.383-0.854-0.854s0.382-0.854,0.854-0.854h19.349
				c0.472,0,0.854,0.383,0.854,0.854S1023.44,44.803,1022.969,44.803z"/>
			<path fill="#FFD349" d="M1015.801,49.666h-12.181c-0.472,0-0.854-0.383-0.854-0.854s0.382-0.854,0.854-0.854h12.181
				c0.472,0,0.854,0.383,0.854,0.854S1016.272,49.666,1015.801,49.666z"/>
			<path fill="#FFD349" d="M1041.435,44.449h-10.22c-0.472,0-0.854-0.383-0.854-0.854s0.382-0.854,0.854-0.854h10.22
				c0.472,0,0.854,0.383,0.854,0.854S1041.907,44.449,1041.435,44.449z"/>
			<path fill="#FFD349" d="M1022.969,68.826h-19.349c-0.472,0-0.854-0.383-0.854-0.854s0.382-0.854,0.854-0.854h19.349
				c0.472,0,0.854,0.383,0.854,0.854S1023.44,68.826,1022.969,68.826z"/>
			<path fill="#FFD349" d="M1015.801,73.69h-12.181c-0.472,0-0.854-0.383-0.854-0.854s0.382-0.854,0.854-0.854h12.181
				c0.472,0,0.854,0.383,0.854,0.854S1016.272,73.69,1015.801,73.69z"/>
			<path fill="#FFD349" d="M1041.435,68.472h-10.22c-0.472,0-0.854-0.383-0.854-0.854s0.382-0.854,0.854-0.854h10.22
				c0.472,0,0.854,0.383,0.854,0.854S1041.907,68.472,1041.435,68.472z"/>
			<g>
				<path fill="#F2EDDF" d="M1008.252,31.148c-1.553,0-2.835-1.263-2.859-2.815v-10.25c0-0.621,0.535-1.126,1.194-1.126h8.053
					c0.658,0,1.194,0.505,1.194,1.126v8.276c0,0.276-0.224,0.5-0.5,0.5s-0.5-0.224-0.5-0.5v-8.276c0-0.06-0.083-0.126-0.194-0.126
					h-8.053c-0.111,0-0.194,0.067-0.194,0.126v10.242c0.015,1.002,0.849,1.823,1.859,1.823c1.025,0,1.859-0.834,1.859-1.859
					c0-0.276,0.224-0.5,0.5-0.5h8.454c0.276,0,0.5,0.224,0.5,0.5s-0.224,0.5-0.5,0.5h-7.998
					C1010.831,30.128,1009.658,31.148,1008.252,31.148z"/>
				<path fill="#F2EDDF" d="M1013.217,20.073h-5.206c-0.276,0-0.5-0.224-0.5-0.5s0.224-0.5,0.5-0.5h5.206c0.276,0,0.5,0.224,0.5,0.5
					S1013.493,20.073,1013.217,20.073z"/>
				<path fill="#F2EDDF" d="M1013.217,22.421h-5.206c-0.276,0-0.5-0.224-0.5-0.5s0.224-0.5,0.5-0.5h5.206c0.276,0,0.5,0.224,0.5,0.5
					S1013.493,22.421,1013.217,22.421z"/>
				<path fill="#F2EDDF" d="M1013.217,24.768h-5.206c-0.276,0-0.5-0.224-0.5-0.5s0.224-0.5,0.5-0.5h5.206c0.276,0,0.5,0.224,0.5,0.5
					S1013.493,24.768,1013.217,24.768z"/>
			</g>
			<g>
				<g>
					<path fill="#F7F5EF" d="M996.222,41.793l-6.286-3.57c-0.27-0.153-0.58-0.23-0.89-0.23s-0.62,0.077-0.89,0.23l-6.287,3.57
						c-0.549,0.312-0.89,0.892-0.89,1.515v7.139c0,0.623,0.341,1.204,0.89,1.515l6.286,3.57c0.27,0.153,0.578,0.235,0.89,0.235
						s0.62-0.081,0.89-0.235l6.286-3.57c0.549-0.312,0.89-0.892,0.89-1.515v-7.139C997.112,42.685,996.771,42.104,996.222,41.793z"
						/>
				</g>
				<g>
					<path fill="#FFD349" d="M996.438,41.639l-6.476-3.677c-0.278-0.158-0.597-0.237-0.917-0.237s-0.638,0.079-0.916,0.237
						l-6.476,3.677c-0.565,0.321-0.916,0.919-0.916,1.561v7.354c0,0.642,0.351,1.24,0.916,1.561l6.476,3.677
						c0.278,0.158,0.595,0.242,0.917,0.242s0.639-0.083,0.917-0.242l6.476-3.677c0.565-0.321,0.916-0.919,0.916-1.561V43.2
						C997.355,42.558,997.003,41.96,996.438,41.639z M989.742,55.405c-0.211,0.12-0.451,0.183-0.696,0.183s-0.485-0.063-0.696-0.183
						l-4.343-2.466c0.205-2.587,2.44-4.612,5.093-4.612c2.633,0,4.852,1.996,5.086,4.555L989.742,55.405z M989.1,47.881
						c-1.457,0-2.642-1.185-2.642-2.642c0-1.457,1.185-2.642,2.642-2.642c1.457,0,2.642,1.185,2.642,2.642
						S990.557,47.881,989.1,47.881z"/>
				</g>
				<g>
					<path fill="none" d="M996.438,41.639l-6.476-3.677c-0.278-0.158-0.597-0.237-0.917-0.237s-0.638,0.079-0.916,0.237
						l-6.476,3.677c-0.565,0.321-0.916,0.919-0.916,1.561v7.354c0,0.642,0.351,1.24,0.916,1.561l6.476,3.677
						c0.278,0.158,0.595,0.242,0.917,0.242s0.639-0.083,0.917-0.242l6.476-3.677c0.565-0.321,0.916-0.919,0.916-1.561V43.2
						C997.355,42.558,997.003,41.96,996.438,41.639z"/>
				</g>
			</g>
			<g>
				<g>
					<path fill="#F7F5EF" d="M996.222,64.824l-6.286-3.57c-0.27-0.153-0.58-0.23-0.89-0.23s-0.62,0.077-0.89,0.23l-6.287,3.57
						c-0.549,0.312-0.89,0.892-0.89,1.515v7.139c0,0.623,0.341,1.204,0.89,1.515l6.286,3.57c0.27,0.153,0.578,0.235,0.89,0.235
						s0.62-0.081,0.89-0.235l6.286-3.57c0.549-0.312,0.89-0.892,0.89-1.515V66.34C997.112,65.716,996.771,65.136,996.222,64.824z"/>
				</g>
				<g>
					<path fill="#FFD349" d="M996.438,64.671l-6.476-3.677c-0.278-0.158-0.597-0.237-0.917-0.237s-0.638,0.079-0.916,0.237
						l-6.476,3.677c-0.565,0.321-0.916,0.919-0.916,1.561v7.354c0,0.642,0.351,1.24,0.916,1.561l6.476,3.677
						c0.278,0.158,0.595,0.242,0.917,0.242s0.639-0.083,0.917-0.242l6.476-3.677c0.565-0.321,0.916-0.919,0.916-1.561v-7.354
						C997.355,65.59,997.003,64.992,996.438,64.671z M989.742,78.437c-0.211,0.12-0.451,0.183-0.696,0.183s-0.485-0.063-0.696-0.183
						l-4.343-2.466c0.205-2.587,2.44-4.612,5.093-4.612c2.633,0,4.852,1.996,5.086,4.555L989.742,78.437z M989.1,70.913
						c-1.457,0-2.642-1.185-2.642-2.642s1.185-2.642,2.642-2.642c1.457,0,2.642,1.185,2.642,2.642
						C991.742,69.727,990.557,70.913,989.1,70.913z"/>
				</g>
				<g>
					<path fill="none" d="M996.438,64.671l-6.476-3.677c-0.278-0.158-0.597-0.237-0.917-0.237s-0.638,0.079-0.916,0.237
						l-6.476,3.677c-0.565,0.321-0.916,0.919-0.916,1.561v7.354c0,0.642,0.351,1.24,0.916,1.561l6.476,3.677
						c0.278,0.158,0.595,0.242,0.917,0.242s0.639-0.083,0.917-0.242l6.476-3.677c0.565-0.321,0.916-0.919,0.916-1.561v-7.354
						C997.355,65.59,997.003,64.992,996.438,64.671z"/>
				</g>
			</g>
			<g>
				<circle fill="#379FEF" cx="988.711" cy="106.662" r="8.971"/>
				<g>
					<g>
						<path fill="#F7F5EF" d="M988.711,103.416c-0.356,0-0.645-0.289-0.645-0.645v-1.212c0-0.356,0.289-0.645,0.645-0.645
							s0.645,0.289,0.645,0.645v1.212C989.356,103.128,989.067,103.416,988.711,103.416z"/>
						<path fill="#F7F5EF" d="M988.711,112.409c-0.356,0-0.645-0.289-0.645-0.645v-1.245c0-0.356,0.289-0.645,0.645-0.645
							s0.645,0.289,0.645,0.645v1.245C989.356,112.121,989.067,112.409,988.711,112.409z"/>
						<g>
							<path fill="#F7F5EF" d="M988.711,107.29c-0.057,0-0.115-0.007-0.173-0.023c-1.802-0.502-2.983-0.951-2.983-2.559
								c0-1.424,1.416-2.582,3.156-2.582c1.213,0,2.297,0.549,2.83,1.433c0.184,0.305,0.086,0.702-0.219,0.885
								c-0.306,0.184-0.702,0.085-0.885-0.219c-0.296-0.491-0.974-0.809-1.725-0.809c-1.011,0-1.866,0.592-1.866,1.292
								c0,0.532,0.078,0.77,2.039,1.315c0.343,0.096,0.544,0.452,0.448,0.795C989.253,107.104,988.994,107.29,988.711,107.29z"/>
							<path fill="#F7F5EF" d="M988.735,111.149c-1.204,0-2.28-0.547-2.809-1.43c-0.183-0.304-0.084-0.699,0.218-0.882
								c0.304-0.183,0.697-0.085,0.878,0.219c0.294,0.49,0.966,0.807,1.712,0.807c1.003,0,1.852-0.59,1.852-1.288
								c0-0.53-0.077-0.768-2.023-1.311c-0.34-0.096-0.54-0.451-0.445-0.793c0.094-0.342,0.448-0.542,0.788-0.447
								c1.788,0.5,2.96,0.949,2.96,2.551C991.867,109.994,990.462,111.149,988.735,111.149z"/>
						</g>
					</g>
				</g>
			</g>
			<path fill="#379FEF" d="M1042.58,107.516h-38.961c-0.472,0-0.854-0.383-0.854-0.854s0.382-0.854,0.854-0.854h38.961
				c0.472,0,0.854,0.383,0.854,0.854S1043.052,107.516,1042.58,107.516z"/>
			<path fill="none" d="M966.641,6.159v27.227V88.96l0,0v30.141c0,2.861,2.319,5.179,5.179,5.179h59.746h17.551
				c2.86,0,5.179-2.318,5.179-5.179v-14.987V88.96V33.386V6.159H966.641z"/>
		</g>
		<g>
			<path fill="#EBE6D7" d="M1053.315,43.863l-45.099,45.099h45.099V43.863z M1041.464,68.473h-10.22
				c-0.472,0-0.854-0.383-0.854-0.854c0-0.471,0.382-0.854,0.854-0.854h10.22c0.472,0,0.854,0.383,0.854,0.854
				C1042.318,68.09,1041.936,68.473,1041.464,68.473z"/>
			<polygon fill="#E6E1D3" points="1053.827,43.351 1053.827,88.962 1054.324,88.962 1054.324,42.854 			"/>
			<polygon fill="#E6E1D3" points="1053.827,88.962 1053.827,43.351 1053.315,43.863 1053.315,88.962 			"/>
			<path fill="#F7CD47" d="M995.902,101.276c1.131,1.501,1.809,3.362,1.809,5.387c0,4.955-4.016,8.971-8.971,8.971
				c-2.024,0-3.885-0.679-5.387-1.809l-10.456,10.456h58.698h17.532c0.354-0.001,0.7-0.036,1.034-0.104
				c0.115-0.023,0.219-0.072,0.331-0.103c0.874-0.242,1.664-0.686,2.287-1.309c0.082-0.082,0.145-0.181,0.221-0.268
				c0.797-0.911,1.296-2.089,1.296-3.394v-14.987v-7.177h0.028v-6.925h-47.16L995.902,101.276z M1043.463,106.663
				c0,0.471-0.382,0.854-0.854,0.854h-38.961c-0.472,0-0.854-0.383-0.854-0.854c0-0.471,0.382-0.854,0.854-0.854h38.961
				C1043.081,105.809,1043.463,106.192,1043.463,106.663z"/>
			<polygon fill="#F7CD47" points="1053.827,89.494 1007.684,89.494 1007.164,90.014 1054.324,90.014 1054.324,88.962 
				1053.827,88.962 			"/>
			<polygon fill="#F7CD47" points="1053.827,88.962 1053.315,88.962 1053.315,88.976 1008.202,88.976 1007.684,89.494 
				1053.827,89.494 			"/>
			<path fill="#F7CD47" d="M1041.464,66.765h-10.22c-0.472,0-0.854,0.383-0.854,0.854c0,0.471,0.382,0.854,0.854,0.854h10.22
				c0.472,0,0.854-0.383,0.854-0.854C1042.318,67.148,1041.936,66.765,1041.464,66.765z"/>
			<path fill="#3495E0" d="M997.711,106.663c0-2.024-0.679-3.885-1.809-5.387l-5.325,5.325c0.827,0.398,1.319,0.951,1.319,1.983
				c0.001,1.241-1.078,2.281-2.51,2.526v0.654c0,0.357-0.289,0.645-0.645,0.645s-0.645-0.289-0.645-0.645v-0.672
				c-0.538-0.091-1.021-0.292-1.426-0.584l-3.316,3.316c1.501,1.131,3.362,1.809,5.387,1.809
				C993.695,115.634,997.711,111.618,997.711,106.663z"/>
			<path fill="#3495E0" d="M988.74,109.875c0.001,0,0.002,0.001,0.003,0.001c1.009-0.002,1.862-0.593,1.862-1.292
				c0-0.415-0.061-0.653-1.015-0.996l-1.997,1.997c0.322,0.179,0.716,0.291,1.143,0.291
				C988.738,109.876,988.739,109.875,988.74,109.875z"/>
			<path fill="#EBE6D8" d="M988.095,111.093v0.672c0,0.356,0.289,0.645,0.645,0.645s0.645-0.288,0.645-0.645v-0.654
				c-0.208,0.036-0.424,0.055-0.645,0.055C988.518,111.166,988.306,111.129,988.095,111.093z"/>
			<path fill="#EBE6D8" d="M990.605,108.584c0,0.699-0.853,1.29-1.862,1.292c0.354,0.002,0.642,0.289,0.642,0.644v0.591
				c1.432-0.245,2.511-1.285,2.51-2.526c0-1.033-0.492-1.585-1.319-1.983l-0.986,0.986
				C990.544,107.931,990.605,108.169,990.605,108.584z"/>
			<path fill="#EBE6D8" d="M988.737,109.876c-0.427,0-0.821-0.112-1.143-0.291l-0.924,0.924c0.405,0.292,0.888,0.493,1.426,0.584
				v-0.573C988.095,110.165,988.382,109.878,988.737,109.876z"/>
			<path fill="#EBE6D8" d="M988.743,109.876c-0.001,0-0.003,0-0.004,0c-0.001,0-0.002,0-0.003,0
				c-0.354,0.002-0.641,0.29-0.641,0.644v0.573c0.211,0.036,0.423,0.073,0.645,0.073c0.221,0,0.437-0.019,0.645-0.055v-0.591
				C989.385,110.165,989.098,109.878,988.743,109.876z"/>
			<path fill="#3495E0" d="M1003.648,105.809c-0.472,0-0.854,0.383-0.854,0.854c0,0.471,0.382,0.854,0.854,0.854h38.961
				c0.472,0,0.854-0.383,0.854-0.854c0-0.471-0.382-0.854-0.854-0.854H1003.648z"/>
		</g>
	</g>
	<g>
		<g>
			<circle fill="#379FEF" cx="1248.032" cy="63.992" r="35.967"/>
		</g>
		<g>
			<circle fill="#F7F5EF" cx="1248.032" cy="53.41" r="8.183"/>
			<g>
				<path fill="#F7F5EF" d="M1248.032,64.124c-8.027,0-14.59,6.079-15.186,13.789c3.959,3.68,9.296,5.953,15.186,5.953
					s11.227-2.273,15.186-5.953C1262.622,70.203,1256.059,64.124,1248.032,64.124z"/>
			</g>
		</g>
		<path fill="#F7F5EF" d="M1248.032,113.785c27.545,0,49.955-22.41,49.955-49.955c0-25.935-19.868-47.31-45.181-49.721
			c0.406,0.759,0.637,1.624,0.637,2.542c0,1.11-0.337,2.142-0.913,3.002c22.38,2.261,39.906,21.21,39.906,44.177
			c0,24.484-19.919,44.404-44.404,44.404s-44.404-19.919-44.404-44.404c0-9.459,2.982-18.229,8.042-25.44
			c-1.072-0.124-2.091-0.547-2.915-1.258c-0.691-0.596-1.17-1.337-1.48-2.133c-5.783,8.152-9.198,18.097-9.198,28.831
			C1198.077,91.376,1220.487,113.785,1248.032,113.785z"/>
		<path fill="#FFD349" d="M1250.75,16.092c-0.074-0.361-0.218-0.697-0.417-0.992c-0.1-0.148-0.213-0.285-0.339-0.411
			c-0.502-0.502-1.196-0.813-1.962-0.813c-0.891,0-1.779,0.025-2.664,0.072c-0.19,0.01-0.378,0.031-0.567,0.043
			c-0.696,0.045-1.39,0.096-2.08,0.169c-0.215,0.023-0.427,0.056-0.641,0.082c-0.59,0.071-1.179,0.149-1.765,0.24
			c-0.071,0.011-0.142,0.018-0.212,0.029c-0.219,0.035-0.436,0.079-0.655,0.117c-0.007,0.001-0.014,0.003-0.021,0.004
			c-0.635,0.111-1.269,0.228-1.898,0.363c-0.244,0.052-0.485,0.113-0.729,0.168c-0.598,0.138-1.193,0.283-1.785,0.442
			c-0.273,0.074-0.544,0.154-0.816,0.232c-0.544,0.157-1.086,0.321-1.624,0.496c-0.134,0.043-0.271,0.079-0.405,0.123
			c-0.179,0.06-0.354,0.132-0.532,0.194c-0.475,0.165-0.947,0.337-1.416,0.516c-0.365,0.14-0.728,0.282-1.089,0.43
			c-0.39,0.159-0.776,0.326-1.162,0.496c-0.427,0.188-0.853,0.377-1.273,0.576c-0.284,0.134-0.564,0.275-0.845,0.415
			c-0.342,0.169-0.689,0.327-1.026,0.504c-0.164,0.086-0.321,0.183-0.484,0.271c-0.135,0.073-0.267,0.15-0.401,0.224
			c-5.15,2.837-9.825,6.578-13.758,11.139c-0.08,0.093-0.14,0.195-0.206,0.294c-0.224,0.34-0.369,0.712-0.428,1.097
			c-0.032,0.208-0.047,0.417-0.032,0.626c0.052,0.708,0.375,1.396,0.955,1.897c0.037,0.032,0.079,0.054,0.118,0.084
			c0.502,0.39,1.097,0.589,1.693,0.589c0.584,0,1.167-0.184,1.652-0.544c0.162-0.12,0.313-0.26,0.451-0.419
			c1.056-1.225,2.172-2.385,3.342-3.476c1.169-1.092,2.392-2.115,3.662-3.068c1.666-1.249,3.419-2.364,5.234-3.362
			c0.116-0.064,0.231-0.131,0.348-0.194c0.445-0.24,0.896-0.467,1.348-0.692c0.248-0.123,0.495-0.248,0.745-0.366
			c0.376-0.178,0.756-0.348,1.137-0.515c0.341-0.149,0.682-0.297,1.027-0.438c0.16-0.065,0.316-0.14,0.477-0.203
			c0.164-0.065,0.332-0.118,0.496-0.181c0.415-0.158,0.832-0.311,1.252-0.457c0.28-0.097,0.559-0.193,0.84-0.285
			c0.474-0.154,0.952-0.299,1.431-0.437c0.246-0.071,0.492-0.144,0.739-0.21c0.52-0.14,1.044-0.267,1.57-0.389
			c0.158-0.036,0.313-0.082,0.472-0.117c0.063-0.014,0.128-0.023,0.192-0.037c0.553-0.119,1.11-0.221,1.668-0.319
			c0.207-0.036,0.412-0.077,0.619-0.111c0.574-0.092,1.152-0.166,1.731-0.235c0.199-0.024,0.397-0.055,0.596-0.076
			c0.597-0.064,1.198-0.107,1.8-0.147c0.185-0.012,0.368-0.032,0.553-0.042c0.784-0.042,1.571-0.064,2.361-0.064
			c0.001,0,0.001,0,0.002,0c0.251,0,0.49-0.044,0.721-0.106c0.298-0.081,0.581-0.199,0.831-0.368c0.295-0.199,0.55-0.454,0.75-0.75
			c0.199-0.295,0.344-0.631,0.417-0.992c0.037-0.181,0.056-0.368,0.056-0.559S1250.788,16.273,1250.75,16.092z"/>
		<path fill="#F7F5EF" d="M1205.182,24.38c9.699-10.527,23.216-17.47,38.331-18.636c-0.562-0.853-0.892-1.872-0.892-2.968
			c0-0.933,0.238-1.812,0.656-2.579c-16.695,1.237-31.626,8.907-42.299,20.555c0.876,0.155,1.711,0.522,2.415,1.076
			C1204.24,22.494,1204.853,23.378,1205.182,24.38z"/>
		<path fill="#37B5EF" d="M1213.259,110.608c-3.364-2.506-6.427-5.354-9.149-8.482c-1.361-1.564-2.637-3.198-3.823-4.894
			c-0.169-0.241-0.328-0.489-0.493-0.733c-0.053-0.078-0.106-0.156-0.158-0.235c-0.439-0.656-0.866-1.319-1.279-1.992
			c-0.07-0.114-0.143-0.226-0.212-0.34c-0.391-0.648-0.773-1.303-1.139-1.966c-0.026-0.048-0.05-0.097-0.076-0.144
			c-0.166-0.303-0.324-0.611-0.485-0.917c-0.209-0.397-0.415-0.796-0.615-1.198c-0.198-0.398-0.393-0.798-0.582-1.202
			c-0.037-0.078-0.077-0.155-0.113-0.234c-0.098-0.211-0.187-0.426-0.281-0.638c-0.434-0.968-0.845-1.946-1.226-2.937
			c-0.036-0.094-0.075-0.187-0.111-0.281c-0.201-0.532-0.391-1.069-0.577-1.607c-0.072-0.21-0.144-0.42-0.214-0.631
			c-0.181-0.544-0.358-1.089-0.523-1.639c-0.029-0.096-0.054-0.193-0.082-0.29c-0.307-1.044-0.583-2.101-0.833-3.169
			c-0.066-0.283-0.135-0.565-0.197-0.85c-0.103-0.472-0.198-0.947-0.29-1.423c-0.075-0.392-0.144-0.786-0.211-1.18
			c-0.071-0.413-0.145-0.826-0.206-1.241c-0.003-0.022-0.008-0.044-0.011-0.066c-0.11-0.749-0.204-1.503-0.285-2.259
			c-0.032-0.299-0.055-0.6-0.083-0.9c-0.032-0.351-0.071-0.7-0.097-1.052c-0.019-0.261-0.028-0.524-0.043-0.786
			c-0.017-0.28-0.034-0.561-0.047-0.842c-0.04-0.879-0.067-1.76-0.067-2.646l0,0c0,0,0,0,0-0.001c0-0.939,0.028-1.874,0.071-2.806
			c0.01-0.218,0.028-0.434,0.04-0.652c0.043-0.755,0.1-1.507,0.172-2.256c0.016-0.166,0.034-0.332,0.052-0.498
			c0.494-4.722,1.551-9.314,3.15-13.712c0.464-1.275,0.965-2.537,1.519-3.778c0.721-1.614,1.524-3.194,2.396-4.744
			c0.522-0.928,1.073-1.843,1.649-2.746c1.056-1.657,2.191-3.277,3.425-4.843c0.469-0.595,0.653-1.323,0.576-2.021
			c-0.008-0.071-0.028-0.139-0.041-0.209c-0.12-0.636-0.45-1.236-0.998-1.667c-0.001-0.001-0.002-0.001-0.003-0.002
			c-0.139-0.109-0.287-0.2-0.438-0.279c-0.049-0.026-0.101-0.044-0.151-0.066c-0.106-0.047-0.213-0.091-0.322-0.124
			c-0.061-0.018-0.122-0.032-0.184-0.046c-0.103-0.023-0.207-0.042-0.312-0.053c-0.063-0.007-0.126-0.013-0.19-0.016
			c-0.084-0.003-0.167,0.002-0.251,0.006c-0.119,0.006-0.237,0.018-0.354,0.039c-0.075,0.013-0.149,0.029-0.222,0.048
			c-0.116,0.031-0.229,0.072-0.341,0.117c-0.068,0.028-0.137,0.054-0.204,0.088c-0.117,0.06-0.228,0.133-0.337,0.21
			c-0.052,0.037-0.108,0.068-0.158,0.109c-0.054,0.044-0.098,0.102-0.149,0.15c-0.095,0.091-0.196,0.175-0.28,0.281
			c-1.913,2.428-3.621,4.968-5.143,7.593c-3.188,5.498-5.491,11.399-6.896,17.562c-0.063,0.276-0.125,0.552-0.186,0.829
			c-0.097,0.455-0.194,0.91-0.281,1.368c-0.154,0.797-0.297,1.598-0.421,2.406c-0.001,0.006-0.001,0.011-0.002,0.017
			c-0.146,0.953-0.264,1.914-0.367,2.88c-0.02,0.19-0.041,0.379-0.059,0.569c-0.079,0.808-0.137,1.621-0.186,2.437
			c-0.014,0.249-0.034,0.497-0.046,0.747c-0.047,0.995-0.075,1.995-0.076,3.001c0,0.021-0.001,0.042-0.001,0.063
			c0,0.014,0.001,0.029,0.001,0.043c0.001,0.953,0.03,1.9,0.072,2.843c0.014,0.318,0.033,0.634,0.052,0.951
			c0.039,0.663,0.091,1.322,0.151,1.979c0.031,0.337,0.057,0.676,0.093,1.012c0.091,0.849,0.199,1.692,0.323,2.531
			c0.069,0.465,0.152,0.927,0.231,1.39c0.072,0.42,0.145,0.84,0.225,1.257c0.102,0.53,0.208,1.058,0.322,1.584
			c0.064,0.296,0.136,0.589,0.204,0.883c0.28,1.201,0.59,2.392,0.938,3.57c0.021,0.071,0.039,0.143,0.06,0.214
			c0.003,0.01,0.006,0.02,0.009,0.03c0.183,0.611,0.38,1.217,0.581,1.821c0.073,0.219,0.147,0.437,0.222,0.655
			c0.207,0.6,0.418,1.198,0.642,1.791c0.026,0.068,0.054,0.134,0.08,0.201c0.14,0.365,0.289,0.727,0.435,1.089
			c0.239,0.591,0.486,1.178,0.742,1.761c0.073,0.167,0.146,0.333,0.22,0.499c0.136,0.302,0.269,0.605,0.41,0.905
			c0.211,0.452,0.43,0.899,0.652,1.345c0.075,0.151,0.144,0.304,0.22,0.454c0.139,0.275,0.289,0.544,0.432,0.817
			c0.182,0.347,0.361,0.696,0.55,1.039c0.181,0.331,0.372,0.656,0.559,0.984c0.25,0.438,0.501,0.877,0.761,1.309
			c0.083,0.137,0.17,0.271,0.254,0.408c0.444,0.721,0.9,1.435,1.372,2.137c0.065,0.097,0.13,0.194,0.196,0.291
			c0.039,0.057,0.077,0.115,0.115,0.172c0.565,0.828,1.142,1.648,1.745,2.449c0.527,0.7,1.074,1.387,1.63,2.066
			c0.298,0.364,0.621,0.707,0.927,1.064c0.173,0.202,0.348,0.402,0.524,0.602c0.71,0.809,1.44,1.599,2.191,2.373
			c0.09,0.093,0.181,0.185,0.272,0.277c0.838,0.852,1.699,1.681,2.586,2.487c0.014,0.012,0.028,0.025,0.042,0.037
			c1.507,1.367,3.062,2.686,4.704,3.909c1.228,0.915,2.493,1.788,3.792,2.618c1.016,0.648,2.06,1.261,3.118,1.854
			c0.277,0.156,0.55,0.316,0.83,0.468c0-0.009-0.002-0.018-0.003-0.027c-0.066-0.869,0.077-1.767,0.458-2.616
			c0.438-0.977,1.147-1.779,2.014-2.335C1217.738,113.703,1215.434,112.228,1213.259,110.608z"/>
		<path fill="#379FEF" d="M1242.621,124.887c0-1.095,0.329-2.114,0.891-2.966c-0.341-0.026-0.683-0.048-1.023-0.08
			c-0.14-0.013-0.282-0.019-0.422-0.033c-0.968-0.098-1.93-0.223-2.888-0.368c-0.004,0-0.008-0.001-0.012-0.001
			c-1.12-0.17-2.236-0.366-3.341-0.601c-0.778-0.166-1.548-0.361-2.318-0.559c-0.01-0.002-0.02-0.004-0.029-0.007
			c-0.886-0.228-1.766-0.481-2.641-0.752c-0.052-0.016-0.104-0.03-0.155-0.046c-0.248-0.077-0.5-0.142-0.747-0.223
			c-0.511-0.167-1.014-0.361-1.521-0.542c-0.076-0.027-0.152-0.054-0.228-0.082c-0.083-0.03-0.167-0.059-0.251-0.089
			c-0.807-0.297-1.608-0.616-2.405-0.95c-0.088-0.037-0.176-0.073-0.263-0.11c-0.35-0.149-0.705-0.283-1.053-0.439h-0.001
			c-0.18-0.081-0.364-0.139-0.549-0.179c-0.061-0.013-0.121-0.013-0.182-0.022c-0.125-0.018-0.25-0.038-0.375-0.039
			c-0.158-0.002-0.315,0.011-0.469,0.036c-0.04,0.007-0.079,0.017-0.118,0.026c-0.12,0.025-0.238,0.057-0.353,0.097
			c-0.046,0.016-0.091,0.032-0.136,0.05c-0.127,0.052-0.25,0.112-0.369,0.182c-0.02,0.012-0.041,0.02-0.06,0.032
			c-0.134,0.084-0.26,0.183-0.379,0.29c-0.033,0.03-0.063,0.063-0.095,0.094c-0.087,0.086-0.168,0.178-0.244,0.277
			c-0.03,0.038-0.06,0.076-0.087,0.116c-0.094,0.137-0.181,0.281-0.252,0.438l0,0c-0.549,1.224-0.138,2.634,0.91,3.388
			c0.051,0.036,0.111,0.062,0.165,0.095c0.105,0.065,0.207,0.133,0.322,0.185l0,0c0.367,0.164,0.74,0.306,1.109,0.463
			c0.137,0.058,0.274,0.114,0.411,0.171c0.097,0.041,0.194,0.082,0.292,0.122c0.736,0.303,1.476,0.596,2.22,0.871
			c0.124,0.046,0.248,0.088,0.372,0.133c0.016,0.006,0.033,0.012,0.049,0.018c0.857,0.31,1.72,0.606,2.594,0.88
			c0.11,0.034,0.22,0.065,0.33,0.098c0.905,0.278,1.817,0.541,2.739,0.78c0.072,0.019,0.144,0.034,0.215,0.052
			c0.956,0.243,1.919,0.469,2.891,0.669c0.049,0.01,0.098,0.017,0.147,0.027c0.99,0.201,1.987,0.381,2.993,0.536
			c0.08,0.012,0.161,0.02,0.241,0.031c0.974,0.146,1.954,0.274,2.942,0.375c0.25,0.025,0.502,0.036,0.752,0.059
			c0.345,0.031,0.691,0.056,1.037,0.081c0-0.001-0.001-0.001-0.001-0.002C1242.859,126.699,1242.621,125.82,1242.621,124.887z"/>
		<path fill="#198DE6" d="M1311.851,63.347c-0.007-0.923-0.024-1.844-0.07-2.758c-0.011-0.218-0.035-0.432-0.048-0.65
			c-0.053-0.873-0.111-1.744-0.199-2.607c-0.007-0.069-0.018-0.136-0.025-0.205c-0.092-0.886-0.208-1.766-0.336-2.643
			c-0.018-0.119-0.037-0.237-0.055-0.356c-1.555-10.261-5.559-19.916-11.749-28.251c-0.624-0.84-1.27-1.667-1.938-2.48
			c-1.335-1.625-2.758-3.194-4.265-4.701c-10.484-10.484-23.975-16.866-38.527-18.354c-0.034-0.003-0.067-0.009-0.101-0.012
			c-0.92-0.094-1.848-0.158-2.78-0.212c-0.159-0.009-0.317-0.027-0.476-0.035c-1.076-0.054-2.159-0.083-3.249-0.083
			c-0.001,0-0.002,0-0.003,0c-0.575,0-1.109,0.175-1.552,0.474c-0.147,0.1-0.285,0.213-0.411,0.339
			c-0.502,0.502-0.813,1.196-0.813,1.962c0,0.323,0.066,0.629,0.168,0.918c0.052,0.146,0.115,0.284,0.189,0.417
			c0.126,0.228,0.273,0.443,0.456,0.626c0.125,0.126,0.263,0.239,0.411,0.339c0.443,0.299,0.977,0.474,1.552,0.474
			c16.068,0,30.638,6.536,41.191,17.089c0.66,0.66,1.304,1.335,1.931,2.025c0.588,0.647,1.162,1.308,1.722,1.981
			c8.387,10.098,13.437,23.063,13.437,37.185l0,0c0,30.614-23.731,55.772-53.761,58.088c-1.493,0.115-2.997,0.192-4.519,0.192
			c-0.575,0-1.109,0.175-1.552,0.474c-0.147,0.1-0.285,0.213-0.411,0.339c-0.183,0.183-0.33,0.398-0.456,0.626
			c-0.074,0.134-0.137,0.272-0.189,0.417c-0.102,0.289-0.168,0.595-0.168,0.918c0,0.68,0.254,1.294,0.66,1.777
			c0.166,0.197,0.35,0.38,0.564,0.524c0.443,0.299,0.977,0.474,1.552,0.474c0.001,0,0.002,0,0.003,0c1.09,0,2.173-0.028,3.249-0.083
			c0.158-0.008,0.315-0.026,0.474-0.035c0.344-0.02,0.685-0.05,1.027-0.075c0.586-0.043,1.173-0.079,1.756-0.137
			c0.029-0.003,0.058-0.008,0.087-0.011c14.557-1.485,28.052-7.868,38.54-18.355c1.507-1.507,2.929-3.076,4.265-4.701
			c2.003-2.438,3.81-5.003,5.414-7.675c3.251-5.418,5.638-11.285,7.143-17.423c0.059-0.239,0.118-0.477,0.175-0.717
			c0.15-0.646,0.293-1.293,0.423-1.944c0.094-0.462,0.177-0.928,0.26-1.394c0.09-0.51,0.185-1.019,0.264-1.533
			c0.156-1.012,0.293-2.03,0.4-3.057c0.007-0.065,0.017-0.128,0.024-0.193c0.088-0.867,0.147-1.742,0.2-2.619
			c0.013-0.213,0.036-0.425,0.047-0.638c0.046-0.917,0.063-1.842,0.07-2.77c0.001-0.158,0.011-0.314,0.011-0.472
			C1311.862,63.669,1311.852,63.509,1311.851,63.347z"/>
		<g>
			<g>
				<path fill="#3290D9" d="M1277.364,43.19l-22.515,22.515c4.661,2.291,7.955,6.854,8.369,12.208
					c-3.959,3.68-9.296,5.953-15.186,5.953c-3.33,0-6.472-0.748-9.3-2.044l-11.502,11.502c5.874,4.173,13.048,6.635,20.802,6.635
					c19.864,0,35.967-16.103,35.967-35.967C1283.999,56.238,1281.537,49.064,1277.364,43.19z"/>
				<path fill="#F0EEE8" d="M1263.218,77.913c-0.414-5.354-3.708-9.916-8.369-12.208l-16.116,16.116
					c2.828,1.297,5.969,2.044,9.3,2.044C1253.922,83.866,1259.259,81.593,1263.218,77.913z"/>
			</g>
			<path fill="#F0EEE8" d="M1297.986,63.831c0-11.563-3.957-22.213-10.577-30.687l-3.949,3.949
				c5.631,7.443,8.975,16.707,8.975,26.738c0,24.484-19.919,44.404-44.404,44.404c-10.031,0-19.292-3.347-26.735-8.978l-3.95,3.95
				c8.475,6.619,19.124,10.579,30.686,10.579C1275.577,113.785,1297.986,91.376,1297.986,63.831z"/>
			<path fill="#32A6DB" d="M1213.738,117.678c1.016,0.648,2.06,1.261,3.118,1.854c0.277,0.156,0.55,0.316,0.83,0.468
				c0-0.009-0.002-0.018-0.003-0.027c-0.066-0.869,0.077-1.767,0.458-2.616c0.438-0.977,1.147-1.779,2.014-2.335
				c-2.416-1.318-4.72-2.792-6.896-4.413c-0.632-0.471-1.243-0.965-1.853-1.46l-3.942,3.942c0.808,0.677,1.633,1.337,2.482,1.97
				C1211.173,115.975,1212.438,116.849,1213.738,117.678z"/>
			<path fill="#318FD6" d="M1242.489,121.84c-0.14-0.013-0.282-0.019-0.422-0.033c-0.968-0.098-1.93-0.223-2.888-0.368
				c-0.004,0-0.008-0.001-0.012-0.001c-1.12-0.17-2.236-0.366-3.341-0.601c-0.778-0.166-1.548-0.361-2.318-0.559
				c-0.01-0.002-0.02-0.004-0.029-0.007c-0.886-0.228-1.766-0.481-2.641-0.752c-0.052-0.016-0.104-0.03-0.155-0.046
				c-0.248-0.077-0.5-0.142-0.747-0.223c-0.511-0.167-1.014-0.361-1.521-0.542c-0.076-0.027-0.152-0.054-0.228-0.082
				c-0.083-0.03-0.167-0.059-0.251-0.089c-0.807-0.297-1.608-0.616-2.405-0.95c-0.088-0.037-0.176-0.073-0.263-0.11
				c-0.35-0.149-0.705-0.283-1.053-0.439h-0.001c-0.18-0.081-0.364-0.139-0.549-0.179c-0.061-0.013-0.121-0.013-0.182-0.022
				c-0.125-0.018-0.25-0.038-0.375-0.039c-0.158-0.002-0.315,0.011-0.469,0.036c-0.04,0.007-0.079,0.017-0.118,0.026
				c-0.12,0.025-0.238,0.057-0.353,0.097c-0.046,0.016-0.091,0.032-0.136,0.05c-0.127,0.052-0.25,0.112-0.369,0.182
				c-0.02,0.012-0.041,0.02-0.06,0.032c-0.134,0.084-0.26,0.183-0.379,0.29c-0.033,0.03-0.063,0.063-0.095,0.094
				c-0.087,0.086-0.168,0.178-0.244,0.277c-0.03,0.038-0.06,0.076-0.087,0.116c-0.094,0.137-0.181,0.281-0.252,0.438l0,0
				c-0.549,1.224-0.138,2.634,0.91,3.388c0.051,0.036,0.111,0.062,0.165,0.095c0.105,0.065,0.207,0.133,0.322,0.185l0,0
				c0.367,0.164,0.74,0.306,1.109,0.463c0.137,0.058,0.274,0.114,0.411,0.171c0.097,0.041,0.194,0.082,0.292,0.122
				c0.736,0.303,1.476,0.596,2.22,0.871c0.124,0.046,0.248,0.088,0.372,0.133c0.016,0.006,0.033,0.012,0.049,0.018
				c0.857,0.31,1.72,0.606,2.594,0.88c0.11,0.034,0.22,0.065,0.33,0.098c0.905,0.278,1.817,0.541,2.739,0.78
				c0.072,0.019,0.144,0.034,0.215,0.052c0.956,0.243,1.919,0.469,2.891,0.669c0.049,0.01,0.098,0.017,0.147,0.027
				c0.99,0.201,1.987,0.381,2.993,0.536c0.08,0.012,0.161,0.02,0.241,0.031c0.974,0.146,1.954,0.274,2.942,0.375
				c0.25,0.025,0.502,0.036,0.752,0.059c0.345,0.031,0.691,0.056,1.037,0.081c0-0.001-0.001-0.001-0.001-0.002
				c-0.418-0.767-0.656-1.646-0.656-2.579c0-1.095,0.329-2.114,0.891-2.966C1243.171,121.894,1242.829,121.872,1242.489,121.84z"/>
			<path fill="#308BD1" d="M1306.312,63.831c0,30.614-23.731,55.772-53.761,58.088c-1.493,0.115-2.997,0.192-4.519,0.192
				c-0.575,0-1.109,0.175-1.552,0.474c-0.147,0.1-0.285,0.213-0.411,0.339c-0.183,0.183-0.33,0.398-0.456,0.626
				c-0.074,0.134-0.137,0.272-0.189,0.417c-0.102,0.289-0.168,0.595-0.168,0.918c0,0.68,0.254,1.294,0.66,1.777
				c0.166,0.197,0.35,0.38,0.564,0.524c0.443,0.299,0.977,0.474,1.552,0.474c0.001,0,0.002,0,0.003,0
				c1.09,0,2.173-0.028,3.249-0.083c0.158-0.008,0.315-0.026,0.474-0.035c0.344-0.02,0.685-0.05,1.027-0.075
				c0.586-0.043,1.173-0.079,1.756-0.137c0.029-0.003,0.058-0.008,0.087-0.011c14.557-1.485,28.052-7.868,38.54-18.355
				c1.507-1.507,2.929-3.076,4.265-4.701c2.003-2.438,3.81-5.003,5.414-7.675c3.251-5.418,5.638-11.285,7.143-17.423
				c0.059-0.239,0.118-0.477,0.175-0.717c0.15-0.646,0.293-1.293,0.423-1.944c0.094-0.462,0.177-0.928,0.26-1.394
				c0.09-0.51,0.185-1.019,0.264-1.533c0.156-1.012,0.293-2.03,0.4-3.057c0.007-0.065,0.017-0.128,0.024-0.193
				c0.088-0.867,0.147-1.742,0.2-2.619c0.013-0.213,0.036-0.425,0.047-0.638c0.046-0.917,0.063-1.842,0.07-2.77
				c0.001-0.158,0.011-0.314,0.011-0.472c0-0.162-0.01-0.322-0.012-0.484c-0.007-0.923-0.024-1.844-0.07-2.758
				c-0.011-0.218-0.035-0.432-0.048-0.65c-0.053-0.873-0.111-1.744-0.199-2.607c-0.007-0.069-0.018-0.136-0.025-0.205
				c-0.092-0.886-0.208-1.766-0.336-2.643c-0.018-0.119-0.037-0.237-0.055-0.356c-1.555-10.261-5.559-19.916-11.749-28.251
				c-0.624-0.84-1.27-1.667-1.938-2.48c-0.041-0.05-0.086-0.098-0.128-0.148l-3.971,3.971
				C1301.441,37.234,1306.312,49.972,1306.312,63.831L1306.312,63.831z"/>
		</g>
	</g>
	<g>
		<g>
			<path fill="#F7F5EF" d="M0,99.287v13.553c0,3.575,3.048,6.473,6.808,6.473h119.687c3.76,0,6.808-2.898,6.808-6.473V21.4
				c0-3.575-3.048-6.473-6.808-6.473H6.808C3.048,14.926,0,17.824,0,21.399v16.83V99.287z"/>
		</g>
		<g>
			<g>
				<g>
					<path fill="#FFD349" d="M111.797,96.039c0,5.743-4.657,10.398-10.402,10.398H32.576c-5.745,0-10.402-4.656-10.402-10.398l0,0
						c0-5.743,4.657-10.398,10.402-10.398h68.819C107.14,85.64,111.797,90.296,111.797,96.039L111.797,96.039z"/>
				</g>
			</g>
		</g>
		<g>
			<g>
				<rect x="11.968" y="27.104" fill="#FFFFFF" width="110.035" height="21.708"/>
				<path fill="#F2EDDF" d="M121.186,27.922v20.073h-108.4V27.922H121.186 M122.003,27.104H11.968v21.708h110.035L122.003,27.104
					L122.003,27.104z"/>
			</g>
			<g>
				<rect x="16.669" y="31.796" fill="#F2EDDF" width="12.349" height="12.325"/>
			</g>
			<path fill="#999999" d="M62.304,38.746H39.481c-0.435,0-0.787-0.353-0.787-0.788s0.353-0.788,0.787-0.788h22.824
				c0.435,0,0.787,0.353,0.787,0.788S62.739,38.746,62.304,38.746z"/>
			<path fill="#999999" d="M97.267,38.746H72.761c-0.435,0-0.787-0.353-0.787-0.788s0.353-0.788,0.787-0.788h24.507
				c0.435,0,0.787,0.353,0.787,0.788S97.702,38.746,97.267,38.746z"/>
			<path fill="#999999" d="M108.421,38.746h-7.062c-0.435,0-0.787-0.353-0.787-0.788s0.353-0.788,0.787-0.788h7.062
				c0.435,0,0.787,0.353,0.787,0.788S108.856,38.746,108.421,38.746z"/>
			<path fill="#999999" d="M69.165,42.341c-2.417,0-4.383-1.966-4.383-4.383s1.966-4.383,4.383-4.383s4.383,1.966,4.383,4.383
				c0,0.435-0.353,0.788-0.787,0.788s-0.787-0.353-0.787-0.788c0-1.548-1.26-2.808-2.808-2.808s-2.808,1.259-2.808,2.808
				s1.26,2.808,2.808,2.808c0.435,0,0.787,0.353,0.787,0.788S69.6,42.341,69.165,42.341z"/>
		</g>
		<g>
			<g>
				<rect x="11.968" y="53.138" fill="#FFFFFF" width="110.035" height="21.708"/>
				<path fill="#F2EDDF" d="M121.186,53.955v20.073h-108.4V53.955H121.186 M122.003,53.138H11.968v21.708h110.035L122.003,53.138
					L122.003,53.138z"/>
			</g>
			<g>
				<rect x="16.669" y="57.829" fill="#F2EDDF" width="12.349" height="12.325"/>
			</g>
			<g>
				<path fill="#999999" d="M40.914,65.854c-1.022,0-1.871-0.849-1.871-1.854c0-1.022,0.849-1.871,1.871-1.871
					s1.871,0.849,1.871,1.871C42.785,65.005,41.936,65.854,40.914,65.854z"/>
				<path fill="#999999" d="M52.077,65.854c-1.022,0-1.871-0.849-1.871-1.854c0-1.022,0.849-1.871,1.871-1.871
					s1.871,0.849,1.871,1.871C53.949,65.005,53.1,65.854,52.077,65.854z"/>
				<path fill="#999999" d="M63.241,65.854c-1.022,0-1.871-0.849-1.871-1.854c0-1.022,0.849-1.871,1.871-1.871
					s1.871,0.849,1.871,1.871C65.112,65.005,64.263,65.854,63.241,65.854z"/>
				<path fill="#999999" d="M74.404,65.854c-1.022,0-1.871-0.849-1.871-1.854c0-1.022,0.849-1.871,1.871-1.871
					s1.871,0.849,1.871,1.871C76.276,65.005,75.427,65.854,74.404,65.854z"/>
				<path fill="#999999" d="M85.568,65.854c-1.022,0-1.871-0.849-1.871-1.854c0-1.022,0.849-1.871,1.871-1.871
					s1.871,0.849,1.871,1.871C87.439,65.005,86.59,65.854,85.568,65.854z"/>
				<path fill="#999999" d="M96.732,65.854c-1.022,0-1.871-0.849-1.871-1.854c0-1.022,0.849-1.871,1.871-1.871
					s1.871,0.849,1.871,1.871C98.603,65.005,97.754,65.854,96.732,65.854z"/>
				<path fill="#999999" d="M107.895,65.854c-1.022,0-1.871-0.849-1.871-1.854c0-1.022,0.849-1.871,1.871-1.871
					s1.871,0.849,1.871,1.871C109.767,65.005,108.918,65.854,107.895,65.854z"/>
			</g>
		</g>
		<g>
			<path fill="#F0EEE8" d="M111.797,96.039c0,5.743-4.657,10.398-10.402,10.398H32.576c-5.745,0-10.402-4.656-10.402-10.398
				c0-0.049,0.007-0.096,0.007-0.145H0v3.392v0.001v13.553c0,0.223,0.012,0.444,0.035,0.662c0.046,0.435,0.138,0.858,0.271,1.263
				c0.133,0.405,0.306,0.794,0.516,1.161c1.153,2.018,3.401,3.388,5.986,3.388h119.687c2.585,0,4.833-1.37,5.986-3.388
				c0.21-0.367,0.383-0.755,0.516-1.161c0.133-0.405,0.224-0.828,0.271-1.263c0.023-0.218,0.035-0.438,0.035-0.662V95.894H111.79
				C111.79,95.943,111.797,95.99,111.797,96.039z"/>
			<path fill="#FACE48" d="M32.576,106.437h68.819c5.745,0,10.402-4.655,10.402-10.398c0-0.049-0.007-0.096-0.007-0.145H22.181
				c-0.001,0.049-0.007,0.096-0.007,0.145C22.174,101.781,26.831,106.437,32.576,106.437z"/>
		</g>
		<g>
			<path fill="none" d="M0,99.287v13.553c0,3.575,3.048,6.473,6.808,6.473h119.687c3.76,0,6.808-2.898,6.808-6.473V21.4
				c0-3.575-3.048-6.473-6.808-6.473H6.808C3.048,14.926,0,17.824,0,21.399v16.83V99.287z"/>
		</g>
		<path fill="#379FEF" d="M94.081,102.902l-9.274-8.238c-0.118-0.104-0.286-0.128-0.43-0.064c-0.144,0.066-0.234,0.21-0.231,0.368
			l0.206,12.403c0.003,0.157,0.098,0.298,0.243,0.359c0.05,0.021,0.102,0.031,0.154,0.031c0.099,0,0.197-0.037,0.272-0.108
			l2.823-2.666l1.98,4.328c0.201,0.437,0.633,0.695,1.084,0.695c0.167,0,0.336-0.035,0.497-0.109
			c0.598-0.275,0.86-0.983,0.585-1.581l-1.982-4.331l3.85-0.396c0.156-0.017,0.288-0.124,0.336-0.274
			C94.243,103.17,94.198,103.006,94.081,102.902z"/>
	</g>
	<g>
		<g>
			<g>
				<g>
					<path fill="#FFD349" d="M551.046,12.458h21.375c4.54,0,8.221,3.871,8.221,8.646v91.011c0,4.775-3.681,8.646-8.221,8.646h-59.58
						c-4.54,0-8.221-3.871-8.221-8.646V21.104c0-4.775,3.681-8.646,8.221-8.646h20.786"/>
					<path fill="#F2EDDF" d="M572.42,121.761h-59.58c-5.085,0-9.221-4.327-9.221-9.646V21.104c0-5.319,4.137-9.646,9.221-9.646
						h20.786c0.552,0,1,0.448,1,1s-0.448,1-1,1H512.84c-3.982,0-7.221,3.43-7.221,7.646v91.011c0,4.216,3.24,7.646,7.221,7.646
						h59.58c3.982,0,7.221-3.43,7.221-7.646V21.104c0-4.216-3.24-7.646-7.221-7.646h-21.375c-0.552,0-1-0.448-1-1s0.448-1,1-1
						h21.375c5.084,0,9.221,4.328,9.221,9.646v91.011C581.642,117.434,577.505,121.761,572.42,121.761z"/>
				</g>
			</g>
			<g>
				<g>
					<circle fill="#F7F5EF" cx="542.554" cy="45.769" r="9.761"/>
				</g>
				<g>
					<g>
						<path fill="#F7F5EF" d="M542.554,57.463c-9.575,0-17.403,7.251-18.114,16.448c4.722,4.39,11.089,7.101,18.114,7.101
							s13.392-2.711,18.114-7.101C559.957,64.714,552.128,57.463,542.554,57.463z"/>
					</g>
				</g>
			</g>
			<path fill="#FFFFFF" d="M567.586,97.157h-50.812c-0.741,0-1.342-0.601-1.342-1.341s0.601-1.341,1.342-1.341h50.812
				c0.741,0,1.342,0.601,1.342,1.341S568.327,97.157,567.586,97.157z"/>
			<path fill="#FFFFFF" d="M533.564,109.092h-16.523c-0.741,0-1.342-0.601-1.342-1.341s0.601-1.341,1.342-1.341h16.523
				c0.741,0,1.342,0.601,1.342,1.341S534.305,109.092,533.564,109.092z"/>
			<path fill="#379FEF" d="M567.867,109.092H543.01c-0.741,0-1.342-0.601-1.342-1.341s0.601-1.341,1.342-1.341h24.857
				c0.741,0,1.342,0.601,1.342,1.341S568.608,109.092,567.867,109.092z"/>
			<g>
				<circle fill="#FFFFFF" cx="542.446" cy="18.809" r="4.42"/>
			</g>
			<path fill="#F2EDDF" d="M542.446,20.833c-1.043,0-1.889-0.846-1.889-1.889V4.672c0-1.043,0.846-1.889,1.889-1.889
				s1.889,0.846,1.889,1.889v14.271C544.335,19.987,543.489,20.833,542.446,20.833z"/>
		</g>
	</g>
	<g>
		<path fill="#FACF48" d="M512.841,119.761h59.58c3.982,0,7.221-3.43,7.221-7.646V36.188l-25.439,25.439
			c3.645,2.995,6.085,7.353,6.466,12.284c-4.722,4.39-11.089,7.101-18.114,7.101c-2.37,0-4.662-0.315-6.844-0.893l-14.356,14.356
			h46.232c0.741,0,1.342,0.601,1.342,1.341c0,0.74-0.601,1.341-1.342,1.341h-48.914L505.62,110.21v1.905
			C505.62,116.331,508.86,119.761,512.841,119.761z M543.011,106.41h24.857c0.741,0,1.342,0.601,1.342,1.341
			c0,0.74-0.601,1.341-1.342,1.341h-24.857c-0.741,0-1.342-0.601-1.342-1.341C541.669,107.011,542.27,106.41,543.011,106.41z
			 M517.042,106.41h16.523c0.741,0,1.342,0.601,1.342,1.341c0,0.74-0.601,1.341-1.342,1.341h-16.523
			c-0.741,0-1.342-0.601-1.342-1.341C515.7,107.011,516.301,106.41,517.042,106.41z"/>
		<path fill="#F0EEE8" d="M581.642,112.115V34.188l-0.999,0.999v76.928c0,4.775-3.681,8.646-8.221,8.646h-59.58
			c-4.54,0-8.221-3.871-8.221-8.646v-0.906l-0.996,0.996c0.026,2.968,1.339,5.621,3.383,7.373c0.002,0.002,0.004,0.003,0.006,0.005
			c0.225,0.193,0.458,0.374,0.7,0.544c0.023,0.016,0.048,0.029,0.071,0.045c0.223,0.154,0.45,0.3,0.685,0.433
			c0.048,0.027,0.099,0.048,0.148,0.075c0.214,0.116,0.43,0.229,0.653,0.328c0.084,0.037,0.173,0.064,0.258,0.099
			c0.193,0.078,0.385,0.158,0.585,0.223c0.114,0.037,0.234,0.062,0.35,0.094c0.176,0.049,0.35,0.104,0.529,0.142
			c0.164,0.035,0.333,0.054,0.499,0.08c0.137,0.021,0.272,0.051,0.411,0.066c0.305,0.032,0.614,0.049,0.927,0.049
			c0.004,0,0.008,0.001,0.012,0.001h59.58C577.506,121.761,581.643,117.434,581.642,112.115z"/>
		<path fill="#F0EEE8" d="M579.642,112.115c0,4.216-3.239,7.646-7.221,7.646h-59.58c-3.981,0-7.221-3.43-7.221-7.646v-1.905
			l-0.999,0.999v0.906c0,4.775,3.681,8.646,8.221,8.646h59.58c4.54,0,8.221-3.871,8.221-8.646V35.187l-1.001,1.001V112.115z"/>
		<path fill="#F0EEE8" d="M560.669,73.911c-0.381-4.931-2.821-9.289-6.466-12.284l-18.492,18.492
			c2.182,0.577,4.474,0.893,6.844,0.893C549.58,81.012,555.947,78.301,560.669,73.911z"/>
		<path fill="#F0EEE8" d="M568.929,95.816c0-0.74-0.601-1.341-1.342-1.341h-46.232l-2.682,2.682h48.914
			C568.328,97.157,568.929,96.556,568.929,95.816z"/>
		<path fill="#F0EEE8" d="M517.042,109.092h16.523c0.741,0,1.342-0.601,1.342-1.341c0-0.74-0.601-1.341-1.342-1.341h-16.523
			c-0.741,0-1.342,0.601-1.342,1.341C515.7,108.491,516.301,109.092,517.042,109.092z"/>
		<path fill="#359AE8" d="M543.011,109.092h24.857c0.741,0,1.342-0.601,1.342-1.341c0-0.74-0.601-1.341-1.342-1.341h-24.857
			c-0.741,0-1.342,0.601-1.342,1.341C541.669,108.491,542.27,109.092,543.011,109.092z"/>
	</g>
</g>
</svg>
