<?xml version="1.0" encoding="utf-8"?>
<!-- Generator: Adobe Illustrator 17.0.0, SVG Export Plug-In . SVG Version: 6.00 Build 0)  -->
<!DOCTYPE svg PUBLIC "-//W3C//DTD SVG 1.1//EN" "http://www.w3.org/Graphics/SVG/1.1/DTD/svg11.dtd">
<svg version="1.1" id="Layer_1" xmlns="http://www.w3.org/2000/svg" xmlns:xlink="http://www.w3.org/1999/xlink" x="0px" y="0px"
	 width="204.761px" height="198.561px" viewBox="0 0 204.761 198.561" enable-background="new 0 0 204.761 198.561"
	 xml:space="preserve">
<g>
	<g>
		<g>
			<path fill="#B0F5BC" d="M204.761,3.107c0-1.716-1.391-3.107-3.107-3.107H3.107C1.391,0,0,1.391,0,3.107V167.34h204.761V3.107z"/>
			<g>
				<circle fill="#8BE899" cx="11.196" cy="11.428" r="2.483"/>
				<circle fill="#8BE899" cx="22.306" cy="11.428" r="2.483"/>
				<circle fill="#8BE899" cx="33.415" cy="11.428" r="2.483"/>
			</g>
		</g>
		<g>
			<g>
				<g>
					<rect x="5.976" y="23.155" fill="#8BE899" width="192.835" height="137.407"/>
				</g>
			</g>
		</g>
	</g>
	<g>
		<g>
			<g>
				<path fill="#FACE46" d="M177.046,80.542L177.046,80.542l-0.034-11.414l0-0.08c0,0,0,0,0,0c0-0.079-0.002-0.156-0.004-0.234
					c-0.001-0.034-0.002-0.069-0.003-0.103c-0.001-0.037-0.003-0.073-0.005-0.11c-0.004-0.077-0.02-0.151-0.025-0.228
					c0-0.006-0.001-0.013-0.001-0.019c0.006,0.082,0.023,0.163,0.027,0.245c-0.004-0.086-0.022-0.17-0.028-0.255
					c-0.019-0.277-0.049-0.551-0.089-0.825c-0.02-0.139-0.04-0.278-0.065-0.416c-0.056-0.301-0.127-0.598-0.207-0.893
					c-0.028-0.103-0.05-0.208-0.081-0.311c-0.119-0.395-0.256-0.785-0.416-1.167c-0.026-0.061-0.058-0.12-0.084-0.18
					c-0.139-0.317-0.289-0.629-0.455-0.935c-0.021-0.039-0.036-0.08-0.058-0.119c-0.04-0.073-0.092-0.139-0.134-0.211
					c-0.168-0.289-0.346-0.571-0.536-0.847c-0.076-0.11-0.15-0.22-0.23-0.328c-0.243-0.331-0.499-0.653-0.773-0.962
					c-0.025-0.028-0.047-0.059-0.072-0.087c-0.301-0.334-0.624-0.649-0.958-0.953c-0.094-0.085-0.192-0.165-0.288-0.248
					c-0.257-0.221-0.522-0.432-0.796-0.633c-0.108-0.08-0.215-0.16-0.326-0.236c-0.355-0.245-0.72-0.478-1.098-0.689
					c-0.02-0.011-0.039-0.024-0.059-0.036c-0.398-0.219-0.81-0.41-1.23-0.587c-0.122-0.051-0.246-0.096-0.369-0.143
					c-0.318-0.122-0.64-0.231-0.968-0.328c-0.13-0.038-0.26-0.078-0.392-0.113c-0.446-0.115-0.897-0.215-1.358-0.279L76.08,44.218
					c-0.376-0.053-0.747-0.086-1.113-0.102c-0.166-0.007-0.326,0.002-0.49,0.002c-0.197,0-0.396-0.006-0.589,0.004
					c-0.194,0.01-0.382,0.037-0.572,0.058c-0.156,0.017-0.316,0.027-0.469,0.051c-0.202,0.031-0.398,0.078-0.595,0.121
					c-0.134,0.029-0.271,0.052-0.403,0.086c-0.204,0.053-0.401,0.121-0.598,0.187c-0.117,0.039-0.237,0.071-0.351,0.114
					c-0.198,0.074-0.387,0.162-0.577,0.248c-0.107,0.049-0.217,0.092-0.322,0.144c-0.187,0.094-0.365,0.199-0.544,0.305
					c-0.099,0.058-0.2,0.111-0.296,0.173c-0.173,0.111-0.337,0.233-0.501,0.354c-0.093,0.069-0.188,0.134-0.278,0.206
					c-0.156,0.126-0.303,0.261-0.45,0.397c-0.087,0.081-0.177,0.158-0.261,0.242c-0.138,0.138-0.266,0.285-0.395,0.432
					c-0.081,0.093-0.165,0.184-0.243,0.281c-0.119,0.148-0.228,0.304-0.337,0.46c-0.075,0.107-0.151,0.213-0.222,0.323
					c-0.099,0.156-0.188,0.318-0.277,0.481c-0.067,0.122-0.135,0.243-0.196,0.369c-0.079,0.162-0.149,0.329-0.219,0.498
					c-0.057,0.137-0.113,0.272-0.164,0.413c-0.06,0.167-0.111,0.339-0.161,0.511c-0.044,0.151-0.088,0.301-0.124,0.456
					c-0.039,0.163-0.07,0.329-0.101,0.496c-0.01,0.053-0.021,0.104-0.03,0.158c0,0,0-0.001,0-0.001
					c-0.006,0.035-0.006,0.073-0.012,0.109c0,0.001,0,0.001,0,0.002c0.006-0.036,0.006-0.074,0.012-0.11
					c-0.02,0.121-0.037,0.242-0.052,0.365c-0.022,0.176-0.037,0.354-0.049,0.534c-0.007,0.104-0.024,0.205-0.029,0.31
					c0.003-0.078,0.02-0.151,0.025-0.229c0,0.001,0,0.001,0,0.002c-0.005,0.077-0.021,0.15-0.025,0.228
					c-0.002,0.04-0.003,0.08-0.005,0.12c-0.001,0.031-0.002,0.063-0.002,0.095c-0.002,0.078-0.003,0.157-0.003,0.236l0.035,11.493
					l0.001,0l0.125,41.695c0.018,5.899,4.973,11.379,11.08,12.236l36.127,5.067l-0.002,0.002l53.724,7.535
					c2.29,0.321,4.415-0.054,6.175-0.959c2.934-1.509,4.855-4.491,4.843-8.179L177.046,80.542z M176.874,67.459
					c-0.008-0.05-0.016-0.101-0.024-0.151c0.008,0.055,0.017,0.109,0.026,0.164C176.875,67.467,176.874,67.463,176.874,67.459z"/>
				<g>
					<g enable-background="new    ">
						<path fill="#FFD349" d="M81.767,113.911c-5.449-0.764-9.879-5.66-9.895-10.934c-0.016-5.265,4.389-8.922,9.838-8.157
							l5.417,0.76c5.449,0.764,9.879,5.66,9.895,10.925c0.016,5.274-4.389,8.931-9.838,8.166L81.767,113.911 M65.064,53.346
							l0.16,53.189c0.018,5.898,4.981,11.38,11.08,12.236l89.851,12.603c6.107,0.857,11.034-3.238,11.016-9.137
							c0.018,5.898-4.909,9.993-11.016,9.137l-53.724-7.535l5.756-5.505l-13.183-1.849l-0.009-3.105l16.023,2.247l3.494-3.342
							l-19.529-2.739l-0.009-3.097l22.36,3.136l3.494-3.342l-25.866-3.628l-0.009-3.105l28.706,4.026l8.096-7.743l-70.781-9.928
							l-0.043-14.468l84.011,11.783l5.234-5.006L65.098,64.84L65.064,53.346 M65.068,53.015c-0.001,0.031-0.002,0.063-0.002,0.095
							C65.067,53.079,65.068,53.047,65.068,53.015 M165.931,56.821L76.08,44.218c-5.942-0.833-10.778,3.023-11.007,8.677
							c0.037-0.866,0.185-1.69,0.426-2.462l107.862,15.129l2.156-2.062C173.598,60.042,170.023,57.395,165.931,56.821"/>
						<path fill="#FFC20E" d="M87.127,95.579l-5.417-0.76c-5.449-0.764-9.853,2.892-9.838,8.157
							c0.016,5.274,4.446,10.17,9.895,10.934l5.417,0.76c5.449,0.764,9.853-2.892,9.838-8.166
							C97.006,101.239,92.575,96.343,87.127,95.579"/>
						<polyline fill="#FCDD71" points="133.658,103.536 104.952,99.51 104.961,102.615 130.827,106.243 133.658,103.536 						"/>
						<polyline fill="#FCDD71" points="121.016,115.627 104.993,113.379 105.003,116.485 118.186,118.334 121.016,115.627 						"/>
						<polyline fill="#FCDD71" points="127.333,109.585 104.973,106.449 104.982,109.545 124.511,112.285 127.333,109.585 						"/>
						<path fill="#EDB100" d="M177.007,68.813c0.002,0.078,0.003,0.157,0.004,0.235C177.011,68.97,177.009,68.891,177.007,68.813
							 M176.999,68.601c0.002,0.037,0.003,0.073,0.005,0.11C177.002,68.674,177.001,68.637,176.999,68.601 M173.361,65.562
							L65.499,50.434c-0.241,0.772-0.389,1.596-0.426,2.462c-0.002,0.04-0.003,0.08-0.005,0.12
							c-0.001,0.031-0.002,0.063-0.002,0.095c-0.002,0.078-0.003,0.157-0.003,0.236l0.035,11.493l95.076,13.335L173.361,65.562"/>
						<polyline fill="#FFC20E" points="154.94,83.181 70.929,71.397 70.972,85.865 141.753,95.793 154.94,83.181 						"/>
						<g>
							<g>
								<defs>
									<path id="SVGID_1_" d="M177.171,122.237c0.018,5.898-4.909,9.993-11.016,9.137l-89.851-12.603
										c-6.107-0.857-11.062-6.337-11.08-12.236l-0.16-53.189c-0.018-5.898,4.909-9.985,11.016-9.128l89.851,12.603
										c6.107,0.857,11.062,6.329,11.08,12.227L177.171,122.237"/>
								</defs>
								<defs>
									<path id="SVGID_2_" d="M177.171,122.237c0.018,5.898-4.909,9.993-11.016,9.137l-89.851-12.603
										c-6.107-0.857-11.062-6.337-11.08-12.236l-0.16-53.189c-0.018-5.898,4.909-9.985,11.016-9.128l89.851,12.603
										c6.107,0.857,11.062,6.329,11.08,12.227L177.171,122.237"/>
								</defs>
								<defs>
									<path id="SVGID_3_" d="M177.171,122.237c0.018,5.898-4.909,9.993-11.016,9.137l-89.851-12.603
										c-6.107-0.857-11.062-6.337-11.08-12.236l-0.16-53.189c-0.018-5.898,4.909-9.985,11.016-9.128l89.851,12.603
										c6.107,0.857,11.062,6.329,11.08,12.227L177.171,122.237"/>
								</defs>
								<defs>
									<path id="SVGID_4_" d="M177.171,122.237c0.018,5.898-4.909,9.993-11.016,9.137l-89.851-12.603
										c-6.107-0.857-11.062-6.337-11.08-12.236l-0.16-53.189c-0.018-5.898,4.909-9.985,11.016-9.128l89.851,12.603
										c6.107,0.857,11.062,6.329,11.08,12.227L177.171,122.237"/>
								</defs>
								<defs>
									<path id="SVGID_5_" d="M177.171,122.237c0.018,5.898-4.909,9.993-11.016,9.137l-89.851-12.603
										c-6.107-0.857-11.062-6.337-11.08-12.236l-0.16-53.189c-0.018-5.898,4.909-9.985,11.016-9.128l89.851,12.603
										c6.107,0.857,11.062,6.329,11.08,12.227L177.171,122.237"/>
								</defs>
								<defs>
									<path id="SVGID_6_" d="M177.171,122.237c0.018,5.898-4.909,9.993-11.016,9.137l-89.851-12.603
										c-6.107-0.857-11.062-6.337-11.08-12.236l-0.16-53.189c-0.018-5.898,4.909-9.985,11.016-9.128l89.851,12.603
										c6.107,0.857,11.062,6.329,11.08,12.227L177.171,122.237"/>
								</defs>
								<defs>
									<path id="SVGID_7_" d="M177.171,122.237c0.018,5.898-4.909,9.993-11.016,9.137l-89.851-12.603
										c-6.107-0.857-11.062-6.337-11.08-12.236l-0.16-53.189c-0.018-5.898,4.909-9.985,11.016-9.128l89.851,12.603
										c6.107,0.857,11.062,6.329,11.08,12.227L177.171,122.237"/>
								</defs>
								<defs>
									<path id="SVGID_8_" d="M177.171,122.237c0.018,5.898-4.909,9.993-11.016,9.137l-89.851-12.603
										c-6.107-0.857-11.062-6.337-11.08-12.236l-0.16-53.189c-0.018-5.898,4.909-9.985,11.016-9.128l89.851,12.603
										c6.107,0.857,11.062,6.329,11.08,12.227L177.171,122.237"/>
								</defs>
								<defs>
									<path id="SVGID_9_" d="M177.171,122.237c0.018,5.898-4.909,9.993-11.016,9.137l-89.851-12.603
										c-6.107-0.857-11.062-6.337-11.08-12.236l-0.16-53.189c-0.018-5.898,4.909-9.985,11.016-9.128l89.851,12.603
										c6.107,0.857,11.062,6.329,11.08,12.227L177.171,122.237"/>
								</defs>
								<defs>
									<path id="SVGID_10_" d="M177.171,122.237c0.018,5.898-4.909,9.993-11.016,9.137l-89.851-12.603
										c-6.107-0.857-11.062-6.337-11.08-12.236l-0.16-53.189c-0.018-5.898,4.909-9.985,11.016-9.128l89.851,12.603
										c6.107,0.857,11.062,6.329,11.08,12.227L177.171,122.237"/>
								</defs>
								<defs>
									<path id="SVGID_11_" d="M177.171,122.237c0.018,5.898-4.909,9.993-11.016,9.137l-89.851-12.603
										c-6.107-0.857-11.062-6.337-11.08-12.236l-0.16-53.189c-0.018-5.898,4.909-9.985,11.016-9.128l89.851,12.603
										c6.107,0.857,11.062,6.329,11.08,12.227L177.171,122.237"/>
								</defs>
								<defs>
									<path id="SVGID_12_" d="M177.171,122.237c0.018,5.898-4.909,9.993-11.016,9.137l-89.851-12.603
										c-6.107-0.857-11.062-6.337-11.08-12.236l-0.16-53.189c-0.018-5.898,4.909-9.985,11.016-9.128l89.851,12.603
										c6.107,0.857,11.062,6.329,11.08,12.227L177.171,122.237"/>
								</defs>
								<clipPath id="SVGID_13_">
									<use xlink:href="#SVGID_1_"  overflow="visible"/>
								</clipPath>
								<clipPath id="SVGID_14_" clip-path="url(#SVGID_13_)">
									<use xlink:href="#SVGID_2_"  overflow="visible"/>
								</clipPath>
								<clipPath id="SVGID_15_" clip-path="url(#SVGID_14_)">
									<use xlink:href="#SVGID_3_"  overflow="visible"/>
								</clipPath>
								<clipPath id="SVGID_16_" clip-path="url(#SVGID_15_)">
									<use xlink:href="#SVGID_4_"  overflow="visible"/>
								</clipPath>
								<clipPath id="SVGID_17_" clip-path="url(#SVGID_16_)">
									<use xlink:href="#SVGID_5_"  overflow="visible"/>
								</clipPath>
								<clipPath id="SVGID_18_" clip-path="url(#SVGID_17_)">
									<use xlink:href="#SVGID_6_"  overflow="visible"/>
								</clipPath>
								<clipPath id="SVGID_19_" clip-path="url(#SVGID_18_)">
									<use xlink:href="#SVGID_7_"  overflow="visible"/>
								</clipPath>
								<clipPath id="SVGID_20_" clip-path="url(#SVGID_19_)">
									<use xlink:href="#SVGID_8_"  overflow="visible"/>
								</clipPath>
								<clipPath id="SVGID_21_" clip-path="url(#SVGID_20_)">
									<use xlink:href="#SVGID_9_"  overflow="visible"/>
								</clipPath>
								<clipPath id="SVGID_22_" clip-path="url(#SVGID_21_)">
									<use xlink:href="#SVGID_10_"  overflow="visible"/>
								</clipPath>
								<clipPath id="SVGID_23_" clip-path="url(#SVGID_22_)">
									<use xlink:href="#SVGID_11_"  overflow="visible"/>
								</clipPath>
								<clipPath id="SVGID_24_" clip-path="url(#SVGID_23_)">
									<use xlink:href="#SVGID_12_"  overflow="visible"/>
								</clipPath>
								<path clip-path="url(#SVGID_24_)" fill="#FACE46" d="M175.517,63.5l-2.156,2.062l3.197,0.448
									c0.247,0.843,0.4,1.711,0.442,2.59C176.918,66.812,176.389,65.072,175.517,63.5"/>
								<path clip-path="url(#SVGID_24_)" fill="#FACE46" d="M177.004,68.71c0.001,0.034,0.002,0.069,0.003,0.103
									C177.006,68.778,177.005,68.745,177.004,68.71"/>
								<path clip-path="url(#SVGID_24_)" fill="#FACE46" d="M137.896,114.162l-0.009-3.097l12.143,1.703l0.009,3.097
									L137.896,114.162 M155.685,116.657l-0.009-3.097l7.32,1.027l0.009,3.097L155.685,116.657 M145.735,108.334l-0.009-3.105
									l16.187,2.27l0.009,3.105L145.735,108.334 M157.143,97.952L157.1,83.484l15.045,2.11l0.043,14.468L157.143,97.952
									 M177.045,80.541l-16.872-2.366l-5.234,5.006l0.439,0.062l0.043,14.468l-13.669-1.917l-8.096,7.743l6.588,0.924l0.009,3.105
									l-9.427-1.322l-3.494,3.342l4.122,0.578l0.009,3.097l-6.953-0.975l-3.494,3.342l22.562,3.165l0.009,3.105l-25.402-3.563
									l-5.756,5.505l53.724,7.535c6.107,0.857,11.034-3.238,11.016-9.137L177.045,80.541"/>
								<polyline clip-path="url(#SVGID_24_)" fill="#F7D86D" points="140.245,104.46 133.658,103.536 130.827,106.243 
									140.255,107.565 140.245,104.46 								"/>
								<polyline clip-path="url(#SVGID_24_)" fill="#F7D86D" points="161.913,107.499 145.726,105.229 145.735,108.334 
									161.922,110.604 161.913,107.499 								"/>
								<polyline clip-path="url(#SVGID_24_)" fill="#F7D86D" points="143.578,118.791 121.016,115.627 118.186,118.334 
									143.588,121.897 143.578,118.791 								"/>
								<polyline clip-path="url(#SVGID_24_)" fill="#F7D86D" points="131.455,110.163 127.333,109.585 124.511,112.285 
									131.464,113.26 131.455,110.163 								"/>
								<polyline clip-path="url(#SVGID_24_)" fill="#F7D86D" points="150.029,112.769 137.887,111.065 137.896,114.162 
									150.039,115.865 150.029,112.769 								"/>
								<polyline clip-path="url(#SVGID_24_)" fill="#F7D86D" points="162.996,114.587 155.676,113.561 155.685,116.657 
									163.006,117.684 162.996,114.587 								"/>
								<path clip-path="url(#SVGID_24_)" fill="#E9AD00" d="M176.558,66.011l-3.197-0.448l-13.187,12.613l16.872,2.366
									l-0.035-11.493c0-0.079-0.002-0.157-0.004-0.235c-0.001-0.034-0.002-0.069-0.003-0.103c-0.001-0.037-0.003-0.073-0.005-0.11
									C176.958,67.721,176.804,66.853,176.558,66.011"/>
								<polyline clip-path="url(#SVGID_24_)" fill="#FABD0D" points="155.379,83.242 154.94,83.181 141.753,95.793 155.423,97.71 
									155.379,83.242 								"/>
								<polyline clip-path="url(#SVGID_24_)" fill="#FABD0D" points="172.145,85.594 157.1,83.484 157.143,97.952 172.189,100.062 
									172.145,85.594 								"/>
							</g>
						</g>
					</g>
				</g>
			</g>
			<g>
				<g>
					<polygon fill="#379FEF" points="130.803,161.966 77.087,154.431 77.086,154.432 					"/>
					<path fill="#379FEF" d="M140.113,158.31c0.108-0.15,0.214-0.3,0.313-0.457c0.07-0.111,0.135-0.226,0.2-0.341
						c0.089-0.156,0.174-0.314,0.253-0.476c0.059-0.121,0.115-0.244,0.17-0.369c0.073-0.167,0.139-0.337,0.202-0.51
						c0.046-0.127,0.092-0.255,0.133-0.385c0.057-0.182,0.105-0.367,0.151-0.554c0.032-0.129,0.066-0.257,0.092-0.389
						c0.009-0.046,0.023-0.089,0.032-0.134c-0.009,0.046-0.023,0.089-0.032,0.134c0,0,0-0.001,0-0.001
						c0.009-0.045,0.023-0.088,0.032-0.134c0.032-0.169,0.049-0.345,0.071-0.518c0.014-0.109,0.034-0.215,0.045-0.325
						c0.033-0.335,0.052-0.675,0.051-1.023l-0.125-41.696l0,0l-0.031-10.299l-0.003-1.184c0-0.08-0.002-0.16-0.004-0.24
						c-0.001-0.03-0.002-0.06-0.003-0.089c-0.001-0.046-0.004-0.092-0.006-0.138c-0.004-0.077-0.02-0.151-0.025-0.228
						c0-0.002,0-0.005,0-0.007c0.005,0.078,0.022,0.155,0.025,0.234c-0.004-0.079-0.02-0.156-0.025-0.234
						c0-0.003,0-0.007-0.001-0.011c0.006,0.082,0.023,0.161,0.027,0.244c-0.004-0.084-0.021-0.167-0.027-0.251
						c-0.019-0.274-0.049-0.545-0.089-0.816c-0.021-0.143-0.041-0.285-0.067-0.427c-0.056-0.297-0.126-0.59-0.206-0.881
						c-0.029-0.106-0.051-0.213-0.082-0.318c-0.119-0.394-0.257-0.782-0.416-1.162c-0.029-0.069-0.065-0.135-0.095-0.203
						c-0.137-0.31-0.284-0.616-0.446-0.915c-0.021-0.039-0.036-0.08-0.058-0.118l0,0c-0.037-0.067-0.085-0.128-0.123-0.194
						c-0.174-0.3-0.359-0.593-0.557-0.879c-0.07-0.101-0.138-0.202-0.21-0.3c-0.261-0.356-0.535-0.703-0.831-1.033
						c-0.005-0.006-0.01-0.012-0.015-0.018c-0.308-0.342-0.639-0.665-0.982-0.976c-0.08-0.073-0.164-0.141-0.245-0.211
						c-0.276-0.238-0.561-0.464-0.855-0.68c-0.091-0.067-0.181-0.135-0.275-0.2c-0.758-0.526-1.571-0.975-2.427-1.333
						c-0.105-0.044-0.211-0.082-0.317-0.123c-0.337-0.13-0.679-0.246-1.027-0.348c-0.117-0.034-0.232-0.07-0.35-0.101
						c-0.448-0.116-0.902-0.216-1.365-0.281L40.728,74.808c-0.249-0.035-0.492-0.049-0.736-0.067
						c-0.122-0.009-0.247-0.028-0.368-0.034c-0.201-0.009-0.396,0-0.593,0.002c-0.163,0.002-0.329-0.005-0.49,0.004
						c-0.185,0.01-0.364,0.036-0.546,0.055c-0.167,0.018-0.336,0.029-0.5,0.054c-0.175,0.027-0.344,0.069-0.515,0.105
						c-0.163,0.034-0.328,0.062-0.487,0.104c-0.166,0.044-0.325,0.1-0.487,0.152c-0.156,0.05-0.315,0.095-0.468,0.152
						c-0.157,0.059-0.306,0.13-0.458,0.197c-0.149,0.065-0.299,0.126-0.443,0.199c-0.147,0.074-0.287,0.159-0.429,0.24
						c-0.139,0.079-0.28,0.155-0.414,0.242c-0.138,0.089-0.267,0.187-0.4,0.283c-0.127,0.092-0.256,0.181-0.378,0.28
						c-0.128,0.103-0.247,0.215-0.369,0.325c-0.115,0.104-0.231,0.206-0.34,0.315c-0.116,0.117-0.223,0.241-0.332,0.363
						c-0.102,0.115-0.206,0.229-0.302,0.35c-0.103,0.129-0.198,0.265-0.293,0.401c-0.089,0.126-0.179,0.25-0.261,0.381
						c-0.089,0.142-0.17,0.289-0.252,0.437c-0.075,0.135-0.15,0.269-0.218,0.409c-0.075,0.153-0.141,0.311-0.207,0.47
						c-0.06,0.144-0.12,0.288-0.173,0.437c-0.043,0.12-0.083,0.241-0.121,0.363l-0.001,0c-0.002,0.007-0.003,0.016-0.006,0.023
						c-0.011,0.037-0.02,0.075-0.031,0.112c-0.045,0.154-0.089,0.307-0.127,0.465c-0.037,0.157-0.069,0.317-0.098,0.478
						c-0.012,0.061-0.025,0.122-0.035,0.184c-0.019,0.116-0.035,0.234-0.05,0.352c-0.023,0.179-0.038,0.362-0.051,0.545
						c-0.006,0.08-0.018,0.156-0.022,0.237c-0.001,0.021-0.006,0.039-0.007,0.06c-0.002,0.046-0.004,0.093-0.005,0.14
						c-0.001,0.029-0.002,0.058-0.002,0.087c-0.001,0.078-0.003,0.157-0.002,0.238c0,0,0,0,0,0v0.002c0,0,0,0,0,0v-0.001v0.001
						c0,0,0,0,0,0l0.034,11.484l0.001,0l0.125,41.696c0.018,5.898,4.981,11.38,11.08,12.236l36.135,5.068l0.001-0.001l53.723,7.535
						c0.06,0.008,0.118,0.009,0.177,0.016c0.298,0.037,0.594,0.067,0.886,0.081c0.133,0.006,0.263,0.002,0.395,0.004
						c0.218,0.003,0.436,0.005,0.65-0.005c0.142-0.007,0.28-0.022,0.42-0.034c0.199-0.017,0.398-0.036,0.593-0.065
						c0.14-0.02,0.278-0.046,0.416-0.072c0.189-0.035,0.375-0.074,0.559-0.12c0.135-0.033,0.268-0.07,0.401-0.108
						c0.181-0.053,0.358-0.111,0.533-0.174c0.127-0.045,0.253-0.091,0.377-0.141c0.176-0.071,0.347-0.151,0.517-0.232
						c0.114-0.055,0.229-0.107,0.341-0.166c0.179-0.095,0.35-0.199,0.521-0.304c0.094-0.058,0.19-0.111,0.281-0.172
						c0.219-0.147,0.429-0.304,0.633-0.469c0.035-0.029,0.074-0.053,0.109-0.082c0.235-0.195,0.457-0.403,0.67-0.621
						c0.072-0.074,0.137-0.155,0.206-0.231c0.137-0.15,0.272-0.301,0.398-0.461C139.971,158.513,140.041,158.411,140.113,158.31z
						 M140.345,157.992c-0.07,0.106-0.15,0.204-0.224,0.307c0,0,0,0,0-0.001C140.195,158.196,140.275,158.098,140.345,157.992
						c0.028-0.043,0.051-0.091,0.079-0.134l0,0C140.396,157.901,140.373,157.949,140.345,157.992z M140.629,157.508
						C140.629,157.508,140.629,157.507,140.629,157.508c0.087-0.154,0.171-0.309,0.25-0.469c0,0,0-0.001,0-0.001
						C140.8,157.198,140.716,157.354,140.629,157.508z M141.05,156.666C141.05,156.665,141.05,156.665,141.05,156.666
						c0.072-0.166,0.138-0.335,0.201-0.506c0,0,0-0.001,0-0.001C141.189,156.331,141.122,156.5,141.05,156.666z M141.536,155.218
						c-0.046,0.187-0.094,0.372-0.151,0.554c0,0,0-0.001,0-0.001c0.057-0.18,0.105-0.365,0.151-0.551
						C141.535,155.219,141.536,155.219,141.536,155.218z M141.214,96.601c0.004,0.014,0.006,0.028,0.01,0.042
						c-0.001-0.003-0.001-0.006-0.002-0.009C141.218,96.624,141.217,96.613,141.214,96.601L141.214,96.601
						c-0.001,0.001-0.001,0-0.001,0L141.214,96.601z M141.482,97.756c0-0.002,0-0.003-0.001-0.005
						c0.02,0.108,0.034,0.216,0.051,0.324c0-0.003-0.001-0.005-0.001-0.008C141.515,97.964,141.501,97.86,141.482,97.756z
						 M133.747,161.994c0.054-0.007,0.105-0.02,0.159-0.027v0C133.852,161.974,133.801,161.987,133.747,161.994z M134.386,161.883
						C134.386,161.883,134.386,161.883,134.386,161.883c0.165-0.031,0.328-0.065,0.489-0.105c0,0,0,0,0,0
						C134.714,161.818,134.55,161.852,134.386,161.883z M135.337,161.654C135.337,161.654,135.337,161.654,135.337,161.654
						c0.158-0.047,0.313-0.098,0.467-0.152c0,0,0,0,0,0C135.65,161.556,135.495,161.607,135.337,161.654z M136.24,161.339
						L136.24,161.339c0.049-0.02,0.101-0.035,0.149-0.056C136.34,161.304,136.288,161.319,136.24,161.339z M137.184,160.897
						c0.122-0.067,0.236-0.144,0.354-0.216c0,0,0,0,0.001,0C137.42,160.752,137.306,160.83,137.184,160.897z M137.888,160.467
						C137.888,160.467,137.888,160.467,137.888,160.467c0.179-0.12,0.348-0.251,0.516-0.383c0,0,0.001-0.001,0.001-0.001
						C138.237,160.215,138.067,160.347,137.888,160.467z M138.692,159.857C138.692,159.857,138.692,159.857,138.692,159.857
						c0.206-0.175,0.405-0.357,0.593-0.549c0,0,0,0,0,0C139.096,159.5,138.897,159.682,138.692,159.857z M139.52,159.044
						c0.001-0.001,0.001-0.001,0.002-0.002c0.126-0.14,0.252-0.28,0.37-0.428c0,0,0,0,0,0
						C139.774,158.763,139.647,158.903,139.52,159.044z"/>
				</g>
				<g>
					<g enable-background="new    ">
						<path fill="#379FEF" d="M29.712,83.946l0.16,53.181c0.018,5.898,4.981,11.38,11.08,12.236l89.851,12.603l-53.717-7.534
							l11.004-10.526l-12.809-1.797l-0.012-3.86l16.338,2.292l14.798-14.155l-8.954-1.256l-0.043-14.468l17.884,2.508l0.014,4.701
							l9.518-9.104L29.747,95.43L29.712,83.946 M29.717,83.619c-0.001,0.029-0.002,0.058-0.002,0.087
							C29.715,83.677,29.716,83.648,29.717,83.619 M130.579,87.411L40.728,74.809c-5.937-0.833-10.77,3.016-11.006,8.67
							c0.038-0.867,0.185-1.687,0.426-2.456l107.862,15.13l2.158-2.064C138.246,90.63,134.669,87.985,130.579,87.411"/>
						<polyline fill="#3396E0" points="91.608,140.539 75.27,138.248 75.281,142.108 88.09,143.904 91.608,140.539 						"/>
						<path fill="#3396E0" d="M141.663,99.408c0.002,0.08,0.004,0.16,0.004,0.24C141.667,99.568,141.666,99.488,141.663,99.408
							 M141.655,99.181c0.002,0.046,0.004,0.092,0.006,0.138C141.659,99.273,141.657,99.227,141.655,99.181 M138.01,96.153
							L30.147,81.024c-0.24,0.769-0.388,1.588-0.426,2.456c-0.002,0.046-0.004,0.093-0.005,0.14
							c-0.001,0.029-0.002,0.058-0.002,0.087c-0.001,0.079-0.003,0.159-0.002,0.24l0.034,11.484l95.078,13.336L138.01,96.153"/>
						<polyline fill="#60B0EF" points="53.462,104.496 35.577,101.988 35.621,116.456 53.505,118.965 53.462,104.496 						"/>
						<polyline fill="#60B0EF" points="74.075,107.387 56.19,104.879 56.234,119.347 74.118,121.856 74.075,107.387 						"/>
						<polyline fill="#60B0EF" points="94.688,110.278 76.803,107.77 76.847,122.238 94.731,124.747 94.688,110.278 						"/>
						<polyline fill="#60B0EF" points="115.293,113.168 97.408,110.66 97.452,125.128 106.406,126.384 115.307,117.87 
							115.293,113.168 						"/>
						<g>
							<g>
								<defs>
									<path id="SVGID_25_" d="M141.827,152.829c0.018,5.898-4.917,9.992-11.016,9.137l-89.859-12.604
										c-6.099-0.855-11.062-6.338-11.08-12.236l-0.16-53.181c-0.018-5.907,4.917-9.992,11.016-9.137l89.859,12.604
										c6.099,0.855,11.062,6.329,11.08,12.236L141.827,152.829"/>
								</defs>
								<defs>
									<path id="SVGID_26_" d="M141.827,152.829c0.018,5.898-4.917,9.992-11.016,9.137l-89.859-12.604
										c-6.099-0.855-11.062-6.338-11.08-12.236l-0.16-53.181c-0.018-5.907,4.917-9.992,11.016-9.137l89.859,12.604
										c6.099,0.855,11.062,6.329,11.08,12.236L141.827,152.829"/>
								</defs>
								<defs>
									<path id="SVGID_27_" d="M141.827,152.829c0.018,5.898-4.917,9.992-11.016,9.137l-89.859-12.604
										c-6.099-0.855-11.062-6.338-11.08-12.236l-0.16-53.181c-0.018-5.907,4.917-9.992,11.016-9.137l89.859,12.604
										c6.099,0.855,11.062,6.329,11.08,12.236L141.827,152.829"/>
								</defs>
								<defs>
									<path id="SVGID_28_" d="M141.827,152.829c0.018,5.898-4.917,9.992-11.016,9.137l-89.859-12.604
										c-6.099-0.855-11.062-6.338-11.08-12.236l-0.16-53.181c-0.018-5.907,4.917-9.992,11.016-9.137l89.859,12.604
										c6.099,0.855,11.062,6.329,11.08,12.236L141.827,152.829"/>
								</defs>
								<defs>
									<path id="SVGID_29_" d="M141.827,152.829c0.018,5.898-4.917,9.992-11.016,9.137l-89.859-12.604
										c-6.099-0.855-11.062-6.338-11.08-12.236l-0.16-53.181c-0.018-5.907,4.917-9.992,11.016-9.137l89.859,12.604
										c6.099,0.855,11.062,6.329,11.08,12.236L141.827,152.829"/>
								</defs>
								<defs>
									<path id="SVGID_30_" d="M141.827,152.829c0.018,5.898-4.917,9.992-11.016,9.137l-89.859-12.604
										c-6.099-0.855-11.062-6.338-11.08-12.236l-0.16-53.181c-0.018-5.907,4.917-9.992,11.016-9.137l89.859,12.604
										c6.099,0.855,11.062,6.329,11.08,12.236L141.827,152.829"/>
								</defs>
								<clipPath id="SVGID_31_">
									<use xlink:href="#SVGID_25_"  overflow="visible"/>
								</clipPath>
								<clipPath id="SVGID_32_" clip-path="url(#SVGID_31_)">
									<use xlink:href="#SVGID_26_"  overflow="visible"/>
								</clipPath>
								<clipPath id="SVGID_33_" clip-path="url(#SVGID_32_)">
									<use xlink:href="#SVGID_27_"  overflow="visible"/>
								</clipPath>
								<clipPath id="SVGID_34_" clip-path="url(#SVGID_33_)">
									<use xlink:href="#SVGID_28_"  overflow="visible"/>
								</clipPath>
								<clipPath id="SVGID_35_" clip-path="url(#SVGID_34_)">
									<use xlink:href="#SVGID_29_"  overflow="visible"/>
								</clipPath>
								<clipPath id="SVGID_36_" clip-path="url(#SVGID_35_)">
									<use xlink:href="#SVGID_30_"  overflow="visible"/>
								</clipPath>
								<path opacity="0.6" clip-path="url(#SVGID_36_)" fill="#F7F5EF" enable-background="new    " d="M141.66,154.695
									c-0.909,4.868-5.418,8.032-10.857,7.269l0.008,0.001C136.243,162.728,140.751,159.563,141.66,154.695 M140.168,94.088
									L140.168,94.088c0.872,1.569,1.403,3.306,1.486,5.093C141.571,97.394,141.04,95.658,140.168,94.088"/>
								<path clip-path="url(#SVGID_36_)" fill="#369BE6" d="M141.702,111.133l-16.877-2.367l-9.518,9.104l0.029,9.767l-8.93-1.253
									l-14.798,14.155l40.083,5.622l0.012,3.86l-43.613-6.117L77.086,154.43l53.717,7.534c5.439,0.763,9.948-2.401,10.857-7.269
									c0.112-0.598,0.169-1.221,0.167-1.866L141.702,111.133 M141.661,99.319c0.001,0.03,0.002,0.06,0.003,0.089
									C141.663,99.378,141.662,99.349,141.661,99.319 M140.168,94.088l-2.158,2.064l3.204,0.449
									c0.245,0.838,0.398,1.7,0.441,2.579C141.571,97.394,141.04,95.658,140.168,94.088"/>
								<polyline clip-path="url(#SVGID_36_)" fill="#3292D8" points="131.691,146.161 91.608,140.539 88.09,143.904 
									131.703,150.021 131.691,146.161 								"/>
								<path clip-path="url(#SVGID_36_)" fill="#3292D8" d="M141.214,96.602l-3.204-0.449l-13.186,12.613l16.877,2.367
									l-0.034-11.484c0-0.08-0.002-0.16-0.004-0.24c-0.001-0.03-0.002-0.06-0.003-0.089c-0.001-0.046-0.004-0.092-0.006-0.138
									C141.612,98.302,141.459,97.44,141.214,96.602"/>
								<polyline clip-path="url(#SVGID_36_)" fill="#5EACE6" points="115.307,117.87 106.406,126.384 115.336,127.637 
									115.307,117.87 								"/>
								<polyline clip-path="url(#SVGID_36_)" fill="#3292D8" points="136.794,116.184 121.756,114.075 121.8,128.544 
									136.837,130.653 136.794,116.184 								"/>
							</g>
						</g>
					</g>
				</g>
			</g>
			<g>
				<path fill="#F7F5EF" d="M156.112,134.694c-0.001-0.439-0.038-0.874-0.093-1.306c-0.017-0.133-0.041-0.265-0.063-0.398
					c-0.051-0.312-0.114-0.62-0.191-0.927c-0.033-0.131-0.064-0.262-0.102-0.392c-0.111-0.382-0.238-0.76-0.387-1.13
					c-0.014-0.035-0.024-0.072-0.039-0.107c-0.167-0.403-0.36-0.796-0.57-1.182c-0.021-0.038-0.035-0.079-0.056-0.117l0,0
					c-0.039-0.07-0.089-0.135-0.13-0.205c-0.169-0.291-0.349-0.575-0.54-0.853c-0.075-0.109-0.15-0.219-0.228-0.326
					c-0.245-0.333-0.503-0.657-0.779-0.968c-0.024-0.027-0.044-0.056-0.068-0.082c-0.301-0.333-0.623-0.648-0.957-0.951
					c-0.096-0.087-0.196-0.169-0.295-0.254c-0.255-0.219-0.519-0.429-0.79-0.629c-0.109-0.08-0.217-0.162-0.328-0.239
					c-0.357-0.247-0.724-0.481-1.104-0.692c-0.018-0.01-0.034-0.022-0.052-0.031c-0.398-0.219-0.811-0.411-1.23-0.587
					c-0.122-0.051-0.245-0.096-0.368-0.143c-0.318-0.122-0.641-0.232-0.97-0.328c-0.13-0.038-0.258-0.078-0.389-0.112
					c-0.446-0.116-0.898-0.215-1.359-0.279l-89.851-12.603c-0.381-0.053-0.758-0.088-1.129-0.103c-0.003,0-0.005,0-0.008,0
					c-5.44-0.224-9.69,3.544-9.861,8.879c-0.004,0.121-0.018,0.238-0.018,0.361v0l0,0l0.16,53.181
					c0.001,0.369,0.022,0.737,0.06,1.101c0.582,5.472,5.302,10.333,11.02,11.135l36.142,5.069l-0.001,0.001l53.71,7.533
					c5.725,0.803,10.421-2.738,10.97-8.051c0.037-0.354,0.055-0.716,0.054-1.085L156.112,134.694z"/>
				<g>
					<g>
						<g>
							<g enable-background="new    ">
								<path fill="#F7F5EF" d="M54.643,173.438l-0.008-2.498l33.144,4.649l0.007,2.498L54.643,173.438 M54.617,164.842
									l-0.008-2.498l4.568,0.641l0.007,2.498L54.617,164.842 M61.858,165.858l-0.008-2.498l10.104,1.417l0.008,2.498
									L61.858,165.858 M80.433,168.463l-0.007-2.498l4.576,0.642l0.008,2.498L80.433,168.463 M87.261,169.421l-0.007-2.498
									l10.104,1.417l0.007,2.498L87.261,169.421 M54.584,153.861l-0.007-2.489l16.663,2.337l0.007,2.489L54.584,153.861
									 M78.361,157.196l-0.007-2.489l16.663,2.337l0.007,2.489L78.361,157.196 M102.147,160.532l-0.007-2.489l16.663,2.337
									l0.007,2.489L102.147,160.532 M145.024,122.457l-89.851-12.603c-6.099-0.855-11.034,3.238-11.016,9.137l0.16,53.181
									c0.018,5.907,4.981,11.38,11.08,12.236l89.851,12.603c6.107,0.857,11.042-3.229,11.024-9.136
									c0.018,5.907-4.917,9.992-11.024,9.136l-53.71-7.533l63.074-60.341C152.69,125.678,149.113,123.031,145.024,122.457"/>
								<path fill="#FFFFFF" d="M61.977,144.823l-0.605-0.753l6.775-6.307l0.597,0.751L61.977,144.823 M57.764,143.798l-0.605-0.752
									l10.57-9.841l0.597,0.751L57.764,143.798 M57.338,139.239l-0.597-0.751l6.767-6.308l0.605,0.752L57.338,139.239
									 M69.785,131.291l-14.268-2.001c-0.555-0.078-1.006,0.293-1.004,0.83l0.044,14.529c0.002,0.538,0.455,1.035,1.01,1.113
									l14.268,2.001c0.555,0.078,1.006-0.292,1.004-0.83l-0.044-14.529C70.793,131.866,70.34,131.369,69.785,131.291"/>
								<polyline fill="#FFD349" points="59.178,162.985 54.609,162.344 54.617,164.842 59.185,165.483 59.178,162.985 								"/>
								<polyline fill="#379FEF" points="71.955,164.777 61.85,163.36 61.858,165.858 71.962,167.275 71.955,164.777 								"/>
								<polyline fill="#FFD349" points="85.001,166.607 80.425,165.965 80.433,168.463 85.009,169.105 85.001,166.607 								"/>
								<polyline fill="#379FEF" points="97.358,168.34 87.254,166.923 87.261,169.421 97.365,170.838 97.358,168.34 								"/>
								<polyline fill="#379FEF" points="71.239,153.709 54.576,151.372 54.584,153.861 71.247,156.198 71.239,153.709 								"/>
								<polyline fill="#379FEF" points="95.017,157.044 78.354,154.707 78.361,157.196 95.024,159.533 95.017,157.044 								"/>
								<polyline fill="#379FEF" points="118.802,160.38 102.139,158.043 102.147,160.532 118.81,162.869 118.802,160.38 								
									"/>
								<polyline fill="#379FEF" points="87.779,175.589 54.635,170.94 54.643,173.438 87.787,178.087 87.779,175.589 								"/>
								<polyline fill="#F2EDDF" points="67.73,133.205 57.16,143.046 57.764,143.798 68.326,133.957 67.73,133.205 								"/>
								<polyline fill="#F2EDDF" points="63.509,132.18 56.742,138.488 57.338,139.239 64.114,132.932 63.509,132.18 								"/>
								<polyline fill="#F2EDDF" points="68.148,137.764 61.372,144.07 61.977,144.823 68.744,138.515 68.148,137.764 								"/>
								<g>
									<g>
										<defs>
											<path id="SVGID_37_" d="M156.272,187.875c0.018,5.907-4.917,9.992-11.024,9.136l-89.851-12.603
												c-6.099-0.855-11.062-6.329-11.08-12.236l-0.16-53.181c-0.018-5.898,4.917-9.992,11.016-9.137l89.851,12.603
												c6.107,0.857,11.07,6.339,11.088,12.237L156.272,187.875"/>
										</defs>
										<defs>
											<path id="SVGID_38_" d="M156.272,187.875c0.018,5.907-4.917,9.992-11.024,9.136l-89.851-12.603
												c-6.099-0.855-11.062-6.329-11.08-12.236l-0.16-53.181c-0.018-5.898,4.917-9.992,11.016-9.137l89.851,12.603
												c6.107,0.857,11.07,6.339,11.088,12.237L156.272,187.875"/>
										</defs>
										<defs>
											<path id="SVGID_39_" d="M156.272,187.875c0.018,5.907-4.917,9.992-11.024,9.136l-89.851-12.603
												c-6.099-0.855-11.062-6.329-11.08-12.236l-0.16-53.181c-0.018-5.898,4.917-9.992,11.016-9.137l89.851,12.603
												c6.107,0.857,11.07,6.339,11.088,12.237L156.272,187.875"/>
										</defs>
										<defs>
											<path id="SVGID_40_" d="M156.272,187.875c0.018,5.907-4.917,9.992-11.024,9.136l-89.851-12.603
												c-6.099-0.855-11.062-6.329-11.08-12.236l-0.16-53.181c-0.018-5.898,4.917-9.992,11.016-9.137l89.851,12.603
												c6.107,0.857,11.07,6.339,11.088,12.237L156.272,187.875"/>
										</defs>
										<defs>
											<path id="SVGID_41_" d="M156.272,187.875c0.018,5.907-4.917,9.992-11.024,9.136l-89.851-12.603
												c-6.099-0.855-11.062-6.329-11.08-12.236l-0.16-53.181c-0.018-5.898,4.917-9.992,11.016-9.137l89.851,12.603
												c6.107,0.857,11.07,6.339,11.088,12.237L156.272,187.875"/>
										</defs>
										<clipPath id="SVGID_42_">
											<use xlink:href="#SVGID_37_"  overflow="visible"/>
										</clipPath>
										<clipPath id="SVGID_43_" clip-path="url(#SVGID_42_)">
											<use xlink:href="#SVGID_38_"  overflow="visible"/>
										</clipPath>
										<clipPath id="SVGID_44_" clip-path="url(#SVGID_43_)">
											<use xlink:href="#SVGID_39_"  overflow="visible"/>
										</clipPath>
										<clipPath id="SVGID_45_" clip-path="url(#SVGID_44_)">
											<use xlink:href="#SVGID_40_"  overflow="visible"/>
										</clipPath>
										<clipPath id="SVGID_46_" clip-path="url(#SVGID_45_)">
											<use xlink:href="#SVGID_41_"  overflow="visible"/>
										</clipPath>
										<path clip-path="url(#SVGID_46_)" fill="#F2EFE6" d="M127.152,187.267c-0.658-0.092-1.199-0.688-1.201-1.33l-0.042-13.887
											c-0.002-0.641,0.536-1.086,1.194-0.994l22.032,3.09c0.666,0.093,1.207,0.69,1.209,1.331l0.042,13.887
											c0.002,0.642-0.536,1.087-1.202,0.993L127.152,187.267 M125.924,163.867l-0.007-2.489l16.663,2.337l0.007,2.489
											L125.924,163.867 M154.612,129.136l-63.074,60.341l53.71,7.533c6.107,0.857,11.042-3.229,11.024-9.136l-0.16-53.18
											C156.107,132.746,155.56,130.842,154.612,129.136"/>
										<path clip-path="url(#SVGID_46_)" fill="#FACE46" d="M129.729,179.825c-0.785-0.11-1.429-0.816-1.432-1.579l-0.011-3.617
											c-0.002-0.754,0.638-1.289,1.423-1.179l5.512,0.773c0.785,0.11,1.422,0.824,1.424,1.578l0.002,0.642l10.025,1.406
											c0.555,0.078,1.001,0.574,1.002,1.112l0.021,6.896c0.002,0.538-0.441,0.909-0.996,0.832l-15.133-2.123
											c-0.555-0.078-1.001-0.574-1.002-1.112l-0.011-3.513L129.729,179.825 M149.135,174.146l-22.032-3.09
											c-0.658-0.092-1.196,0.353-1.194,0.994l0.042,13.887c0.002,0.642,0.543,1.238,1.201,1.33l22.032,3.09
											c0.666,0.093,1.204-0.351,1.202-0.993l-0.042-13.887C150.343,174.835,149.802,174.239,149.135,174.146"/>
										<path clip-path="url(#SVGID_46_)" fill="#F2EFE6" d="M146.673,177.849l-10.025-1.406l0.009,2.976
											c0.002,0.763-0.631,1.29-1.416,1.18l-4.687-0.657l0.011,3.513c0.002,0.538,0.447,1.034,1.002,1.112l15.133,2.123
											c0.555,0.078,0.998-0.294,0.996-0.832l-0.021-6.896C147.674,178.423,147.228,177.927,146.673,177.849"/>
										<polyline clip-path="url(#SVGID_46_)" fill="#369BE6" points="142.58,163.715 125.916,161.378 125.924,163.867 
											142.587,166.204 142.58,163.715 										"/>
										<path clip-path="url(#SVGID_46_)" fill="#EDE8D7" d="M135.222,174.223l-5.512-0.773c-0.785-0.11-1.426,0.424-1.423,1.179
											l0.011,3.617c0.002,0.763,0.647,1.469,1.432,1.579l0.825,0.116l4.687,0.657c0.785,0.11,1.418-0.416,1.416-1.18
											l-0.009-2.976l-0.002-0.642C136.644,175.047,136.008,174.333,135.222,174.223"/>
									</g>
								</g>
							</g>
						</g>
					</g>
				</g>
			</g>
		</g>
	</g>
</g>
</svg>
