<?xml version="1.0" encoding="utf-8"?>
<!-- Generator: Adobe Illustrator 17.0.0, SVG Export Plug-In . SVG Version: 6.00 Build 0)  -->
<!DOCTYPE svg PUBLIC "-//W3C//DTD SVG 1.1//EN" "http://www.w3.org/Graphics/SVG/1.1/DTD/svg11.dtd">
<svg version="1.1" id="Layer_1" xmlns="http://www.w3.org/2000/svg" xmlns:xlink="http://www.w3.org/1999/xlink" x="0px" y="0px"
	 width="206.399px" height="113.269px" viewBox="0 0 206.399 113.269" enable-background="new 0 0 206.399 113.269"
	 xml:space="preserve">
<g>
	<g>
		<path fill="#3F47E1" d="M94.863,0c-0.038,0-0.073,0.011-0.111,0.012c-2.365,0.067-4.267,2.196-4.267,4.826v103.592
			c0,2.63,1.902,4.76,4.267,4.826c0.038,0.001,0.073,0.012,0.111,0.012c2.417,0,4.377-2.166,4.377-4.838V4.839
			C99.24,2.166,97.28,0,94.863,0z"/>
		<g>
			<path fill="#383EB8" d="M99.24,108.431V4.839C99.24,2.166,97.28,0,94.862,0c-0.038,0-0.073,0.011-0.111,0.012v113.245
				c0.038,0.001,0.073,0.012,0.111,0.012C97.28,113.269,99.24,111.103,99.24,108.431z"/>
			<polygon fill="#6ABC4E" points="94.752,27.717 7.431,35.816 8.244,44.585 0,46.082 11,106.648 94.752,91.437 99.24,90.622 
				99.24,90.622 99.24,89.122 99.24,89.122 99.24,28.058 99.24,28.058 99.24,27.301 			"/>
			<g>
				<polygon fill="#A4D55F" points="94.752,89.539 13.116,97.111 8.244,44.585 0,46.082 11,106.648 94.752,91.437 99.24,90.622 
					99.24,89.122 				"/>
				<polygon fill="#6ABC4E" points="94.752,27.717 7.431,35.816 8.244,44.585 13.116,97.111 94.752,89.539 99.24,89.122 
					99.24,28.058 99.24,27.301 				"/>
			</g>
			<g>
				<polygon fill="#94BD5B" points="99.24,89.122 94.752,89.539 94.752,91.437 99.24,90.622 				"/>
				<polygon fill="#61A84A" points="94.752,28.873 94.752,89.539 99.24,89.122 99.24,28.058 				"/>
			</g>
			<polygon fill="#6ABC4E" points="94.752,23.992 17.006,23.992 17.006,86.936 94.752,86.936 99.24,86.936 99.24,80.374 
				99.24,30.554 99.24,23.992 			"/>
			<g>
				<polygon fill="#A4D55F" points="32.779,80.374 24.276,80.374 24.276,80.374 24.276,72.07 24.276,72.07 24.276,38.86 
					24.276,38.86 24.276,30.554 24.276,30.554 24.276,30.554 94.752,30.554 94.752,23.992 17.006,23.992 17.006,86.936 
					94.752,86.936 94.752,80.374 				"/>
				<path fill="#6ABC4E" d="M24.276,30.554L24.276,30.554h8.503c0,4.597-3.726,8.324-8.323,8.324c-0.061,0-0.119-0.017-0.18-0.018
					V72.07c0.061-0.001,0.119-0.019,0.18-0.019c4.598,0,8.323,3.727,8.323,8.323h61.973v-49.82H24.276z"/>
				<rect x="24.276" y="30.554" fill="#A4D55F" width="0" height="8.306"/>
				<path fill="#A4D55F" d="M32.779,30.554h-8.503v8.306c0.061,0.001,0.119,0.018,0.18,0.018
					C29.053,38.878,32.779,35.152,32.779,30.554z"/>
				<rect x="24.276" y="72.07" fill="#A4D55F" width="0" height="8.305"/>
				<path fill="#A4D55F" d="M24.455,72.051c-0.061,0-0.119,0.017-0.18,0.019v8.305h8.503C32.779,75.778,29.053,72.051,24.455,72.051
					z"/>
				<rect x="94.752" y="23.992" fill="#94BD5B" width="4.488" height="6.562"/>
				<rect x="94.752" y="80.374" fill="#94BD5B" width="4.488" height="6.562"/>
				<rect x="94.752" y="30.554" fill="#61A84A" width="4.488" height="49.82"/>
			</g>
			<g>
				<rect x="34.672" y="52.771" fill="#A4D55F" width="15.08" height="5.386"/>
			</g>
			<circle fill="#A4D55F" cx="74.998" cy="55.464" r="18.977"/>
			<path fill="#C0E880" d="M74.976,75.716c-11.167,0-20.252-9.085-20.252-20.251s9.085-20.251,20.252-20.251
				s20.252,9.085,20.252,20.251S86.142,75.716,74.976,75.716z M74.976,37.762c-9.761,0-17.703,7.941-17.703,17.703
				s7.941,17.703,17.703,17.703s17.703-7.941,17.703-17.703S84.737,37.762,74.976,37.762z"/>
			<path fill="#FFFFFF" d="M82.047,60.093c0-3.661-2.531-4.662-6.698-5.875c-4.508-1.312-4.887-1.921-4.887-3.462
				c0-1.881,2.035-3.412,4.536-3.412c1.805,0,3.44,0.814,4.167,2.074c0.347,0.601,1.116,0.808,1.717,0.46
				c0.602-0.347,0.808-1.116,0.46-1.717c-0.999-1.731-2.887-2.9-5.086-3.228v-1.768c0-0.694-0.563-1.257-1.257-1.257
				c-0.694,0-1.257,0.562-1.257,1.257v1.764c-3.289,0.5-5.792,2.92-5.792,5.826c0,3.662,2.531,4.663,6.698,5.875
				c4.508,1.312,4.887,1.921,4.887,3.462c0,1.882-2.035,3.412-4.536,3.412c-1.804,0-3.439-0.813-4.166-2.073
				c-0.347-0.602-1.116-0.808-1.717-0.461c-0.602,0.347-0.808,1.116-0.461,1.717c0.999,1.732,2.887,2.9,5.087,3.228v1.847
				c0,0.694,0.563,1.257,1.257,1.257c0.694,0,1.257-0.563,1.257-1.257V65.92C79.543,65.42,82.047,63,82.047,60.093z"/>
			<path fill="#94BD5B" d="M95.249,55.464c0-1.515-0.181-2.986-0.498-4.407v8.814C95.068,58.45,95.249,56.979,95.249,55.464z"/>
		</g>
	</g>
	<g>
		<path fill="#3F47E1" d="M148.487,0.073C148.271,0.037,148.054,0,147.829,0c-2.418,0-4.378,2.166-4.378,4.838v103.592
			c0,2.672,1.96,4.838,4.378,4.838c0.226,0,0.442-0.037,0.658-0.073c2.103-0.354,3.719-2.342,3.719-4.765V4.839
			C152.206,2.416,150.59,0.427,148.487,0.073z"/>
		<g>
			<path fill="#383EB8" d="M147.829,0c-2.418,0-4.378,2.166-4.378,4.838v103.592c0,2.672,1.96,4.838,4.378,4.838
				c0.226,0,0.442-0.037,0.658-0.073V0.073C148.271,0.037,148.054,0,147.829,0z"/>
			<path fill="#FFD349" d="M197.974,33.168c-0.752-0.911-1.546-1.785-2.381-2.62s-1.709-1.629-2.62-2.381
				c-6.377-5.263-14.553-8.424-23.467-8.424c-7.813,0-15.054,2.436-21.019,6.58c-1.8,1.251-3.489,2.652-5.036,4.196v3.599v3.568
				v28.819v3.905v5.175v3.567v3.6c1.547,1.544,3.236,2.945,5.036,4.196c3.728,2.59,7.955,4.512,12.507,5.59
				c2.732,0.647,5.582,0.989,8.512,0.989c20.375,0,36.893-16.517,36.893-36.892C206.399,47.721,203.237,39.545,197.974,33.168z"/>
			<path fill="#FFFFFF" d="M169.506,24.413c17.796,0,32.222,14.426,32.222,32.222s-14.426,32.222-32.222,32.222
				c-8.034,0-15.376-2.947-21.019-7.811v2.87c5.822,4.496,13.111,7.18,21.019,7.18c19.002,0,34.462-15.459,34.462-34.462
				c0-19.003-15.459-34.462-34.462-34.462c-7.908,0-15.197,2.684-21.019,7.18v2.871C154.13,27.36,161.472,24.413,169.506,24.413z"/>
			<path fill="#FFFFFF" d="M195.593,30.548c6.676,6.676,10.805,15.899,10.805,26.087c0,20.375-16.517,36.892-36.892,36.892
				c-7.813,0-15.054-2.436-21.019-6.58v0c5.965,4.144,13.206,6.579,21.019,6.579c20.375,0,36.893-16.517,36.893-36.892
				C206.399,46.447,202.269,37.224,195.593,30.548z"/>
			<path fill="#FFD349" d="M169.506,19.743c10.188,0,19.411,4.129,26.087,10.805C188.917,23.872,179.694,19.742,169.506,19.743
				c-7.813,0-15.054,2.435-21.019,6.579l0,0C154.452,22.178,161.693,19.743,169.506,19.743z"/>
			<path fill="#FFD349" d="M143.451,30.518c-0.01,0.01-0.021,0.02-0.032,0.03C143.429,30.538,143.441,30.528,143.451,30.518
				L143.451,30.518z"/>
			<path fill="#FFD349" d="M148.487,26.322v3.031c5.822-4.496,13.111-7.18,21.019-7.18c19.002,0,34.462,15.459,34.462,34.462
				c0,19.002-15.459,34.462-34.462,34.462c-7.908,0-15.197-2.684-21.019-7.18v3.031c5.965,4.144,13.206,6.58,21.019,6.58
				c20.375,0,36.892-16.517,36.892-36.892c0-10.188-4.129-19.411-10.805-26.087c-6.676-6.676-15.899-10.805-26.087-10.805
				C161.693,19.743,154.452,22.178,148.487,26.322z"/>
			<g>
				<path fill="#FFC20E" d="M201.728,56.635c0-17.796-14.426-32.222-32.222-32.222c-8.034,0-15.376,2.947-21.019,7.811v34.993
					c3.89,7.696,11.866,13.014,21.021,13.043l-0.005,1.62c-8.759-0.028-16.506-4.587-21.017-11.442v4.466
					c5.12,5.9,12.651,9.657,21.021,9.68l-0.004,1.62c-8.21-0.022-15.658-3.44-21.017-8.912v3.754
					c5.643,4.863,12.985,7.811,21.019,7.811C187.302,88.857,201.728,74.431,201.728,56.635z"/>
			</g>
			<path fill="#FCDD71" d="M169.504,86.204l0.004-1.62c-8.37-0.023-15.901-3.78-21.021-9.68v2.389
				C153.846,82.763,161.294,86.181,169.504,86.204z"/>
			<path fill="#FCDD71" d="M169.504,81.88l0.005-1.62c-9.156-0.03-17.131-5.348-21.021-13.043v3.222
				C152.998,77.293,160.744,81.851,169.504,81.88z"/>
			<path fill="#E3E1DD" d="M148.487,83.917v-2.87c-1.88-1.621-3.572-3.452-5.036-5.462v3.567
				C144.966,80.903,146.653,82.5,148.487,83.917z"/>
			<path fill="#E3E1DD" d="M148.487,32.223v-2.871c-1.834,1.417-3.521,3.014-5.036,4.765v3.568
				C144.915,35.675,146.607,33.844,148.487,32.223z"/>
			<path fill="#383EB8" d="M143.451,82.752L143.451,82.752c1.547,1.544,3.236,2.945,5.036,4.196v0
				C146.687,85.696,144.998,84.296,143.451,82.752z"/>
			<path fill="#383EB8" d="M148.487,26.322L148.487,26.322c-1.8,1.251-3.489,2.652-5.036,4.196l0,0
				C144.998,28.974,146.687,27.573,148.487,26.322z"/>
			<path fill="#EBC244" d="M148.487,29.353v-3.031c-1.8,1.251-3.489,2.652-5.036,4.196v3.599
				C144.966,32.366,146.653,30.769,148.487,29.353z"/>
			<path fill="#EBC244" d="M143.451,79.152v3.6c1.547,1.544,3.236,2.945,5.036,4.196v-3.031
				C146.653,82.5,144.966,80.903,143.451,79.152z"/>
			<path fill="#E6AE09" d="M143.451,70.409v5.175c1.464,2.01,3.156,3.841,5.036,5.462v-3.754
				C146.496,75.259,144.796,72.943,143.451,70.409z"/>
			<path fill="#E6AE09" d="M148.487,74.903v-4.466c-2.584-3.928-4.11-8.607-4.145-13.626l1.62-0.011
				c0.026,3.738,0.937,7.273,2.525,10.416V32.223c-1.88,1.621-3.572,3.452-5.036,5.462v28.819
				C144.63,69.603,146.349,72.439,148.487,74.903z"/>
			<path fill="#E8CB68" d="M143.451,70.409c1.345,2.533,3.045,4.85,5.036,6.883v-2.389c-2.138-2.464-3.857-5.3-5.036-8.399V70.409z"
				/>
			<path fill="#E8CB68" d="M144.342,56.811c0.035,5.02,1.561,9.699,4.145,13.626v-3.222c-1.588-3.142-2.499-6.678-2.525-10.416
				L144.342,56.811z"/>
			<g>
				<path fill="#FFD349" d="M201.728,56.635c0-17.796-14.426-32.222-32.222-32.222v64.444
					C187.302,88.857,201.728,74.431,201.728,56.635z"/>
			</g>
			<path fill="#FCDD71" d="M197.535,56.801l0.003-0.107c0.002-15.474-12.538-28.014-27.951-28.014l-0.08-1.618h0.001
				c16.388,0,29.652,13.265,29.652,29.571l-0.003,0.12L197.535,56.801z"/>
			<path fill="#FCDD71" d="M193.211,56.801l0.003-0.107c0.002-13.09-10.598-23.69-23.627-23.69l-0.08-1.618h0.001
				c14.004,0,25.328,11.325,25.328,25.247l-0.003,0.12L193.211,56.801z"/>
			<path fill="#FCDD71" d="M188.713,56.795l0.003-0.097c0.002-10.614-8.581-19.197-19.13-19.197l-0.095-1.617
				c0.001,0,0.003,0,0.005,0c11.535,0,20.842,9.308,20.842,20.749l-0.003,0.127L188.713,56.795z"/>
			<path fill="#FCDD71" d="M169.503,77.382c-11.298-0.044-20.567-9.272-20.664-20.57l1.62-0.014
				c0.089,10.415,8.635,18.922,19.051,18.963L169.503,77.382z"/>
			<path fill="#FFFFFF" d="M176.894,54.614c1.604-1.255,2.432-3.327,2.432-5.384c0-1.783-0.583-3.457-1.64-4.714
				c-1.225-1.456-2.962-2.225-5.023-2.225h-0.114v-3.807c0-0.57-0.462-1.032-1.032-1.032s-1.032,0.462-1.032,1.032v3.807h-2.813
				v-3.807c0-0.57-0.462-1.032-1.032-1.032c-0.57,0-1.033,0.462-1.033,1.032v3.807h-4.399c-0.57,0-1.032,0.462-1.032,1.032
				c0,0.57,0.462,1.032,1.032,1.032h2.523v21.833h-2.523c-0.57,0-1.032,0.462-1.032,1.032c0,0.57,0.462,1.032,1.032,1.032h4.399
				v3.807c0,0.57,0.462,1.032,1.033,1.032c0.57,0,1.032-0.462,1.032-1.032v-3.807h2.813v3.807c0,0.57,0.462,1.032,1.032,1.032
				s1.032-0.462,1.032-1.032v-3.807h0.114c2.517,0,4.614-0.755,6.064-2.184c1.293-1.273,2.006-3.02,2.006-4.916
				C180.732,58.602,179.403,55.944,176.894,54.614z M172.662,44.356c1.433,0,2.624,0.515,3.443,1.49
				c0.734,0.873,1.156,2.106,1.156,3.384c0,2.248-1.239,4.517-4.006,4.517h-7.46v-9.391H172.662z M177.278,64.599
				c-1.057,1.04-2.653,1.59-4.616,1.59h-6.868V55.811h7.46c3.516,0,5.413,2.752,5.413,5.343
				C178.668,62.493,178.174,63.716,177.278,64.599z"/>
		</g>
	</g>
</g>
</svg>
