<?xml version="1.0" encoding="utf-8"?>
<!-- Generator: Adobe Illustrator 17.0.0, SVG Export Plug-In . SVG Version: 6.00 Build 0)  -->
<!DOCTYPE svg PUBLIC "-//W3C//DTD SVG 1.1//EN" "http://www.w3.org/Graphics/SVG/1.1/DTD/svg11.dtd">
<svg version="1.1" id="Layer_1" xmlns="http://www.w3.org/2000/svg" xmlns:xlink="http://www.w3.org/1999/xlink" x="0px" y="0px"
	 width="129.837px" height="143.052px" viewBox="0 0 129.837 143.052" enable-background="new 0 0 129.837 143.052"
	 xml:space="preserve">
<g>
	<g>
		<path fill="#8BE899" d="M122.677,30.583L72.08,1.853C69.908,0.618,67.413,0,64.918,0c-2.495,0-4.989,0.618-7.16,1.853L7.16,30.583
			C2.744,33.09,0,37.764,0,42.779v57.46c0,5.015,2.744,9.688,7.16,12.196l50.597,28.73c2.172,1.235,4.649,1.888,7.161,1.888
			c2.513,0,4.989-0.652,7.161-1.888l50.598-28.73c4.417-2.508,7.16-7.181,7.16-12.196v-57.46
			C129.837,37.764,127.093,33.09,122.677,30.583z M70.357,138.138c-1.647,0.937-3.527,1.432-5.439,1.432
			c-1.911,0-3.792-0.495-5.442-1.433l-33.932-19.268c1.604-20.213,19.067-36.035,39.795-36.035c20.575,0,37.913,15.593,39.738,35.59
			L70.357,138.138z M65.339,79.351c-11.383,0-20.644-9.261-20.644-20.645c0-11.383,9.261-20.644,20.644-20.644
			c11.384,0,20.645,9.261,20.645,20.644C85.984,70.09,76.723,79.351,65.339,79.351z"/>
	</g>
	<g>
		<path opacity="0.15" fill="#8BE899" d="M64.918,143.053c2.513,0,4.989-0.652,7.161-1.888l50.598-28.73
			c4.417-2.507,7.16-7.181,7.16-12.196v-57.46c0-5.015-2.744-9.688-7.16-12.196l-17.449-9.908l-94.044,94.044l46.574,26.446
			C59.929,142.4,62.406,143.053,64.918,143.053z"/>
	</g>
</g>
</svg>
