<?xml version="1.0" encoding="utf-8"?>
<!-- Generator: Adobe Illustrator 17.0.0, SVG Export Plug-In . SVG Version: 6.00 Build 0)  -->
<!DOCTYPE svg PUBLIC "-//W3C//DTD SVG 1.1//EN" "http://www.w3.org/Graphics/SVG/1.1/DTD/svg11.dtd">
<svg version="1.1" id="Layer_1" xmlns="http://www.w3.org/2000/svg" xmlns:xlink="http://www.w3.org/1999/xlink" x="0px" y="0px"
	 width="266.997px" height="171.571px" viewBox="0 0 266.997 171.571" enable-background="new 0 0 266.997 171.571"
	 xml:space="preserve">
<g>
	<g>
		<g>
			<path fill="#B0F5BC" d="M230.893,3.107c0-1.716-1.391-3.107-3.107-3.107H29.239c-1.716,0-3.107,1.391-3.107,3.107V167.34h204.761
				V3.107z"/>
			<g>
				<circle fill="#8BE899" cx="37.328" cy="11.428" r="2.483"/>
				<circle fill="#8BE899" cx="48.438" cy="11.428" r="2.483"/>
				<circle fill="#8BE899" cx="59.548" cy="11.428" r="2.483"/>
			</g>
		</g>
		<g>
			<g>
				<g>
					<rect x="32.108" y="23.155" fill="#8BE899" width="192.835" height="137.407"/>
				</g>
			</g>
		</g>
	</g>
	<g>
		<g>
			<g>
				<g>
					<g>
						<path fill="#FFD349" d="M222.453,139.834c0,3.379-3.046,6.118-6.803,6.118h-91.985c0,0-0.05-2.739-0.05-6.118V71.111
							c0-3.379,3.046-6.118,6.803-6.118h85.232c3.757,0,6.803,2.739,6.803,6.118V139.834z"/>
					</g>
				</g>
			</g>
		</g>
		<g>
			<g>
				<circle fill="#FFFFFF" cx="213.708" cy="118.282" r="53.289"/>
				<path fill="#FFD349" d="M213.708,68.502c27.448,0,49.779,22.331,49.779,49.779s-22.331,49.779-49.779,49.779
					s-49.779-22.331-49.779-49.779S186.259,68.502,213.708,68.502 M213.708,64.993c-29.431,0-53.289,23.858-53.289,53.289
					s23.858,53.289,53.289,53.289c29.43,0,53.289-23.858,53.289-53.289S243.138,64.993,213.708,64.993L213.708,64.993z"/>
			</g>
			<g>
				<circle fill="#FFC20E" cx="213.708" cy="118.282" r="46.543"/>
			</g>
			<g>
				<path fill="#FFD349" d="M260.251,118.282c0-25.705-20.838-46.543-46.543-46.543v93.086
					C239.413,164.825,260.251,143.987,260.251,118.282z"/>
			</g>
			<g>
				<path fill="#FCDD71" d="M254.194,118.522l0.003-0.152c0.002-22.355-18.11-40.468-40.374-40.468l-0.116,0.003l-0.005-2.34
					l0.121-0.003c23.554,0,42.716,19.162,42.716,42.716l-0.003,0.171L254.194,118.522z"/>
				<path fill="#FCDD71" d="M213.704,160.992c-23.347-0.064-42.453-19.11-42.591-42.457l2.34-0.014
					c0.13,22.067,18.19,40.069,40.258,40.13L213.704,160.992z"/>
				<path fill="#FCDD71" d="M247.947,118.522l0.004-0.156c0.002-18.907-15.309-34.218-34.128-34.218l-0.116-2.337v1.17l-0.003-1.17
					l0.119-0.003c20.11,0,36.47,16.36,36.47,36.47l-0.004,0.174L247.947,118.522z"/>
				<path fill="#FCDD71" d="M213.704,154.746c-19.901-0.064-36.206-16.308-36.344-36.209l2.34-0.016
					c0.13,18.624,15.388,33.825,34.012,33.885L213.704,154.746z"/>
				<path fill="#FCDD71" d="M241.451,118.515l0.004-0.145c0.003-15.329-12.394-27.726-27.632-27.726l-0.138-2.336l0.138-0.004
					c16.528,0,29.975,13.446,29.975,29.974l-0.004,0.181L241.451,118.515z"/>
				<path fill="#FCDD71" d="M213.703,148.25c-16.319-0.064-29.708-13.393-29.849-29.711l2.34-0.02
					c0.129,15.044,12.474,27.332,27.518,27.391L213.703,148.25z"/>
			</g>
			<g>
				<g>
					<path fill="#FFFFFF" d="M206.855,135.065c-0.824,0-1.491-0.668-1.491-1.491V99.34c0-0.823,0.667-1.491,1.491-1.491
						s1.491,0.668,1.491,1.491v34.234C208.346,134.397,207.679,135.065,206.855,135.065z"/>
					<path fill="#FFFFFF" d="M219.122,117.092H207.14c-0.824,0-1.491-0.668-1.491-1.491s0.667-1.491,1.491-1.491h11.982
						c3.998,0,5.787-3.276,5.787-6.523c0-1.846-0.608-3.628-1.669-4.889c-1.185-1.408-2.904-2.152-4.974-2.152H201.72
						c-0.824,0-1.491-0.668-1.491-1.491s0.667-1.491,1.491-1.491h16.546c2.977,0,5.486,1.112,7.256,3.214
						c1.528,1.816,2.369,4.234,2.369,6.809C227.891,112.31,224.879,117.092,219.122,117.092z"/>
					<path fill="#FFFFFF" d="M218.266,135.065H201.72c-0.824,0-1.491-0.668-1.491-1.491s0.667-1.491,1.491-1.491h16.546
						c2.835,0,5.141-0.794,6.667-2.297c1.294-1.274,2.007-3.042,2.007-4.977c0-3.741-2.74-7.717-7.819-7.717
						c-0.824,0-1.491-0.668-1.491-1.491s0.667-1.491,1.491-1.491c7.016,0,10.801,5.513,10.801,10.699
						c0,2.74-1.029,5.262-2.897,7.102C224.93,133.974,221.901,135.065,218.266,135.065z"/>
					<path fill="#FFFFFF" d="M209.565,100.403c-0.824,0-1.491-0.668-1.491-1.491v-6.847c0-0.823,0.667-1.491,1.491-1.491
						s1.491,0.668,1.491,1.491v6.847C211.056,99.735,210.389,100.403,209.565,100.403z"/>
					<path fill="#FFFFFF" d="M216.611,100.403c-0.824,0-1.491-0.668-1.491-1.491v-6.847c0-0.823,0.667-1.491,1.491-1.491
						s1.491,0.668,1.491,1.491v6.847C218.102,99.735,217.434,100.403,216.611,100.403z"/>
					<path fill="#FFFFFF" d="M209.565,142.054c-0.824,0-1.491-0.668-1.491-1.491v-6.847c0-0.823,0.667-1.491,1.491-1.491
						s1.491,0.668,1.491,1.491v6.847C211.056,141.386,210.389,142.054,209.565,142.054z"/>
					<path fill="#FFFFFF" d="M216.611,142.054c-0.824,0-1.491-0.668-1.491-1.491v-6.847c0-0.823,0.667-1.491,1.491-1.491
						s1.491,0.668,1.491,1.491v6.847C218.102,141.386,217.434,142.054,216.611,142.054z"/>
				</g>
			</g>
		</g>
		<g>
			<g>
				<g>
					<rect x="0" y="40.409" fill="#0E8EEA" width="150.257" height="80.959"/>
					<g>
						<polygon fill="#F5BA0D" points="123.664,145.952 150.257,121.35 123.664,121.35 						"/>
					</g>
					<g>
						<rect x="9.351" y="48.849" fill="#379FEF" width="131.556" height="64.079"/>
						<g>
							<path fill="#0E8EEA" d="M140.906,59.555V48.85h-10.706C130.201,54.762,134.993,59.555,140.906,59.555z"/>
							<path fill="#0E8EEA" d="M20.287,48.85H9.351v10.683c0.078,0.002,0.153,0.023,0.231,0.023
								C15.495,59.555,20.287,54.762,20.287,48.85z"/>
							<path fill="#0E8EEA" d="M140.906,102.223c-5.914,0-10.706,4.794-10.706,10.706h10.706V102.223z"/>
							<path fill="#0E8EEA" d="M9.582,102.223c-0.078,0-0.153,0.022-0.231,0.024v10.682h10.937
								C20.287,107.016,15.495,102.223,9.582,102.223z"/>
						</g>
					</g>
				</g>
				<g>
					<rect x="107.06" y="77.425" fill="#0E8EEA" width="19.396" height="6.927"/>
					<rect x="22.723" y="77.425" fill="#0E8EEA" width="19.396" height="6.927"/>
				</g>
				<circle fill="#0E8EEA" cx="74.59" cy="80.889" r="23.541"/>
			</g>
			<g>
				<path fill="#BAD3FF" d="M74.59,70.816c-0.861,0-1.559-0.698-1.559-1.559v-3.624c0-0.861,0.698-1.559,1.559-1.559
					s1.559,0.698,1.559,1.559v3.624C76.149,70.118,75.451,70.816,74.59,70.816z"/>
				<path fill="#BAD3FF" d="M74.59,97.704c-0.861,0-1.559-0.698-1.559-1.559v-3.722c0-0.861,0.698-1.559,1.559-1.559
					s1.559,0.698,1.559,1.559v3.722C76.149,97.006,75.451,97.704,74.59,97.704z"/>
				<g>
					<path fill="#BAD3FF" d="M74.59,82.399c-0.144,0-0.291-0.02-0.436-0.062c-5.17-1.505-8.309-2.746-8.309-7.289
						c0-4.053,3.923-7.351,8.745-7.351c3.384,0,6.399,1.583,7.87,4.132c0.43,0.746,0.174,1.699-0.571,2.13
						c-0.747,0.431-1.7,0.174-2.13-0.572c-0.901-1.562-2.93-2.572-5.168-2.572c-3.103,0-5.626,1.899-5.626,4.232
						c0,1.912,0.47,2.667,6.062,4.295c0.827,0.241,1.302,1.106,1.062,1.933C75.888,81.957,75.266,82.399,74.59,82.399z"/>
					<path fill="#BAD3FF" d="M74.59,93.982c-3.383,0-6.398-1.583-7.87-4.132c-0.43-0.746-0.175-1.699,0.571-2.13
						c0.747-0.431,1.699-0.175,2.13,0.571c0.902,1.563,2.931,2.573,5.168,2.573c3.103,0,5.626-1.899,5.626-4.233
						c0-1.912-0.47-2.667-6.062-4.295c-0.827-0.241-1.302-1.106-1.062-1.933c0.24-0.826,1.104-1.302,1.933-1.061
						c5.17,1.505,8.309,2.746,8.309,7.289C83.334,90.685,79.411,93.982,74.59,93.982z"/>
				</g>
			</g>
		</g>
	</g>
</g>
</svg>
