<?xml version="1.0" encoding="utf-8"?>
<!-- Generator: Adobe Illustrator 17.0.0, SVG Export Plug-In . SVG Version: 6.00 Build 0)  -->
<!DOCTYPE svg PUBLIC "-//W3C//DTD SVG 1.1//EN" "http://www.w3.org/Graphics/SVG/1.1/DTD/svg11.dtd">
<svg version="1.1" id="Layer_1" xmlns="http://www.w3.org/2000/svg" xmlns:xlink="http://www.w3.org/1999/xlink" x="0px" y="0px"
	 width="281.363px" height="167.34px" viewBox="0 0 281.363 167.34" enable-background="new 0 0 281.363 167.34"
	 xml:space="preserve">
<g>
	<g>
		<g>
			<path fill="#FEC29B" d="M246.567,3.107c0-1.716-1.391-3.107-3.107-3.107H44.913c-1.716,0-3.107,1.391-3.107,3.107V167.34h204.761
				V3.107z"/>
			<g>
				<circle fill="#FE9F60" cx="53.003" cy="11.428" r="2.483"/>
				<circle fill="#FE9F60" cx="64.112" cy="11.428" r="2.483"/>
				<circle fill="#FE9F60" cx="75.222" cy="11.428" r="2.483"/>
			</g>
		</g>
		<g>
			<g>
				<g>
					<rect x="47.783" y="23.155" fill="#FE9F60" width="192.835" height="137.407"/>
				</g>
			</g>
		</g>
	</g>
	<g>
		<g>
			<g>
				<g>
					<g>
						<path fill="#FFD349" d="M281.363,136.78c0,2.555-2.303,4.626-5.145,4.626H176.007c0,0-0.038-2.071-0.038-4.626V84.81
							c0-2.555,2.303-4.626,5.145-4.626h95.104c2.841,0,5.145,2.071,5.145,4.626V136.78z"/>
					</g>
				</g>
			</g>
		</g>
		<g>
			<path fill="#FFEDB3" d="M209.928,125.334h-4.015c-0.651,0-1.179-0.528-1.179-1.179s0.528-1.179,1.179-1.179h4.015
				c0.651,0,1.179,0.528,1.179,1.179S210.579,125.334,209.928,125.334z"/>
			<g>
				<path fill="#FFEDB3" d="M222.659,117.783h-16.745c-0.752,0-1.362-0.61-1.362-1.362s0.61-1.362,1.362-1.362h16.745
					c0.752,0,1.362,0.61,1.362,1.362S223.411,117.783,222.659,117.783z"/>
				<path fill="#FFEDB3" d="M246.558,117.783h-16.745c-0.752,0-1.362-0.61-1.362-1.362s0.61-1.362,1.362-1.362h16.745
					c0.752,0,1.362,0.61,1.362,1.362S247.311,117.783,246.558,117.783z"/>
				<path fill="#FFEDB3" d="M270.458,117.783h-16.745c-0.752,0-1.362-0.61-1.362-1.362s0.61-1.362,1.362-1.362h16.745
					c0.752,0,1.362,0.61,1.362,1.362S271.21,117.783,270.458,117.783z"/>
			</g>
			<path fill="#FFEDB3" d="M237.535,131.393h-31.622c-0.651,0-1.179-0.528-1.179-1.179s0.528-1.179,1.179-1.179h31.622
				c0.651,0,1.179,0.528,1.179,1.179S238.186,131.393,237.535,131.393z"/>
			<g>
				<g>
					<path fill="#FFEDB3" d="M270.458,99.63c0,0.329-0.295,0.596-0.659,0.596h-14.103c-0.364,0-0.659-0.267-0.659-0.596v-8.902
						c0-0.329,0.295-0.596,0.659-0.596h14.103c0.364,0,0.659,0.267,0.659,0.596V99.63z"/>
				</g>
				<g>
					<rect x="257.817" y="93.906" fill="#FFD349" width="9.955" height="0.537"/>
					<rect x="257.817" y="97.888" fill="#FFD349" width="9.955" height="0.537"/>
					<rect x="259.604" y="91.915" fill="#FFD349" width="6.381" height="0.537"/>
					<rect x="259.604" y="95.897" fill="#FFD349" width="6.381" height="0.537"/>
				</g>
			</g>
			<path fill="#FFEDB3" d="M220.215,125.334h-7.08c-0.651,0-1.179-0.528-1.179-1.179s0.528-1.179,1.179-1.179h7.08
				c0.651,0,1.179,0.528,1.179,1.179S220.866,125.334,220.215,125.334z"/>
			<path fill="#FFEDB3" d="M231.424,125.334h-4.014c-0.651,0-1.179-0.528-1.179-1.179s0.528-1.179,1.179-1.179h4.014
				c0.651,0,1.179,0.528,1.179,1.179S232.075,125.334,231.424,125.334z"/>
			<path fill="#FFEDB3" d="M241.711,125.334h-7.081c-0.651,0-1.179-0.528-1.179-1.179s0.528-1.179,1.179-1.179h7.081
				c0.651,0,1.179,0.528,1.179,1.179S242.362,125.334,241.711,125.334z"/>
			<g>
				<path fill="#FFCC38" d="M230.432,97.832c0,4.051-3.63,7.336-8.108,7.336h-9.485c-4.478,0-8.108-3.284-8.108-7.336l0,0
					c0-4.051,3.63-7.336,8.108-7.336h9.485C226.802,90.496,230.432,93.781,230.432,97.832L230.432,97.832z"/>
			</g>
		</g>
		<path fill="#F5BA0D" d="M190.972,122.802h-14.965v18.605l18.794-20.153l-0.001-0.014
			C193.858,122.191,192.5,122.802,190.972,122.802z"/>
		<g>
			<g>
				<g>
					<path fill="#379FEF" d="M196.117,118.19c0,2.555-2.303,4.626-5.145,4.626H88.761c0,0-0.038-2.071-0.038-4.626v-51.97
						c0-2.555,2.303-4.626,5.145-4.626h97.104c2.841,0,5.145,2.071,5.145,4.626V118.19z"/>
				</g>
			</g>
		</g>
		<g>
			<g>
				<path fill="#BAD3FF" d="M175.309,90.211c1.795,0,3.255,1.46,3.255,3.255s-1.46,3.255-3.255,3.255s-3.255-1.46-3.255-3.255
					S173.514,90.211,175.309,90.211 M175.309,88.123c-2.951,0-5.343,2.392-5.343,5.343s2.392,5.343,5.343,5.343
					s5.343-2.392,5.343-5.343S178.26,88.123,175.309,88.123L175.309,88.123z"/>
				<path fill="#BAD3FF" d="M175.309,108.052c-0.577,0-1.044-0.467-1.044-1.044V93.466c0-0.577,0.467-1.044,1.044-1.044
					s1.044,0.467,1.044,1.044v13.542C176.353,107.585,175.885,108.052,175.309,108.052z"/>
			</g>
			<g>
				<g>
					<path fill="#BAD3FF" d="M143.43,109.555c-8.871,0-16.089-7.218-16.089-16.089s7.218-16.089,16.089-16.089
						c8.872,0,16.089,7.218,16.089,16.089S152.302,109.555,143.43,109.555z M143.43,79.465c-7.72,0-14.001,6.281-14.001,14.001
						s6.281,14.001,14.001,14.001s14.001-6.281,14.001-14.001S151.151,79.465,143.43,79.465z"/>
					<path fill="#BAD3FF" d="M158.476,94.51h-4.445c-0.577,0-1.044-0.467-1.044-1.044s0.467-1.044,1.044-1.044h4.445
						c0.577,0,1.044,0.467,1.044,1.044S159.052,94.51,158.476,94.51z"/>
					<path fill="#BAD3FF" d="M132.83,94.51h-4.445c-0.577,0-1.044-0.467-1.044-1.044s0.467-1.044,1.044-1.044h4.445
						c0.577,0,1.044,0.467,1.044,1.044S133.407,94.51,132.83,94.51z"/>
					<path fill="#BAD3FF" d="M143.43,109.555c-0.577,0-1.044-0.467-1.044-1.044v-4.445c0-0.577,0.467-1.044,1.044-1.044
						s1.044,0.467,1.044,1.044v4.445C144.474,109.087,144.007,109.555,143.43,109.555z"/>
					<path fill="#BAD3FF" d="M143.43,83.909c-0.577,0-1.044-0.467-1.044-1.044v-4.445c0-0.577,0.467-1.044,1.044-1.044
						s1.044,0.467,1.044,1.044v4.445C144.474,83.442,144.007,83.909,143.43,83.909z"/>
					<path fill="#BAD3FF" d="M143.431,89.796c2.023,0,3.669,1.646,3.669,3.67s-1.646,3.669-3.669,3.669s-3.67-1.646-3.67-3.669
						S141.407,89.796,143.431,89.796 M143.431,87.708c-3.18,0-5.758,2.578-5.758,5.758s2.578,5.757,5.758,5.757
						c3.18,0,5.757-2.578,5.757-5.757S146.61,87.708,143.431,87.708L143.431,87.708z"/>
				</g>
			</g>
		</g>
		<polygon fill="#0E8EEA" points="88.761,104.226 88.761,122.802 88.776,122.802 108.402,104.226 		"/>
		<g>
			<path fill="#F7F5EF" d="M0,43.002v4.292c1.714,0,3.104,1.389,3.104,3.103S1.714,53.5,0,53.5v5.387
				c1.714,0,3.104,1.389,3.104,3.103S1.714,65.094,0,65.094v5.387c1.714,0,3.104,1.39,3.104,3.104S1.714,76.687,0,76.687v5.387
				c1.714,0,3.104,1.389,3.104,3.103S1.714,88.281,0,88.281v5.387c1.714,0,3.104,1.389,3.104,3.103S1.714,99.875,0,99.875v4.365
				h108.402V43.002H0z"/>
		</g>
		<path fill="#FE9F60" d="M76.269,77.483h-31.91c-0.577,0-1.044-0.467-1.044-1.044s0.467-1.044,1.044-1.044h31.91
			c0.577,0,1.044,0.467,1.044,1.044S76.845,77.483,76.269,77.483z"/>
		<path fill="#FE9F60" d="M94.507,92.356H22.592c-0.577,0-1.044-0.467-1.044-1.044s0.467-1.044,1.044-1.044h71.915
			c0.577,0,1.044,0.467,1.044,1.044S95.083,92.356,94.507,92.356z"/>
		<g>
			<g>
				<path fill="#FE9F60" d="M28.549,59.82c-0.577,0-1.044-0.467-1.044-1.044v-3.254c0-0.577,0.467-1.044,1.044-1.044
					s1.044,0.467,1.044,1.044v3.254C29.593,59.353,29.126,59.82,28.549,59.82z"/>
				<path fill="#FE9F60" d="M28.549,83.96c-0.577,0-1.044-0.467-1.044-1.044v-3.342c0-0.577,0.467-1.044,1.044-1.044
					s1.044,0.467,1.044,1.044v3.342C29.593,83.493,29.126,83.96,28.549,83.96z"/>
				<g>
					<path fill="#FE9F60" d="M28.55,70.22c-0.093,0-0.187-0.012-0.281-0.039c-4.668-1.301-7.503-2.367-7.503-6.205
						c0-3.443,3.491-6.243,7.783-6.243c3.016,0,5.702,1.347,7.008,3.515c0.298,0.494,0.139,1.135-0.355,1.433
						c-0.493,0.298-1.135,0.139-1.433-0.355c-0.917-1.521-2.966-2.504-5.22-2.504c-3.14,0-5.695,1.864-5.695,4.156
						c0,1.99,0.744,2.736,5.976,4.194c0.555,0.155,0.88,0.73,0.725,1.286C29.426,69.917,29.007,70.22,28.55,70.22z"/>
					<path fill="#FE9F60" d="M28.549,80.619c-3.016,0-5.701-1.347-7.008-3.515c-0.298-0.494-0.139-1.135,0.355-1.433
						c0.493-0.297,1.135-0.139,1.433,0.355c0.917,1.521,2.966,2.504,5.22,2.504c3.141,0,5.696-1.864,5.696-4.156
						c0-1.99-0.744-2.736-5.976-4.194c-0.555-0.155-0.88-0.73-0.725-1.286c0.155-0.555,0.731-0.88,1.286-0.725
						c4.668,1.301,7.503,2.367,7.503,6.205C36.333,77.818,32.841,80.619,28.549,80.619z"/>
				</g>
			</g>
		</g>
		<g>
			<g>
				<path fill="#FED2B7" d="M93.209,76.343l-10.568-3.287L28.833,18.562l0.141,0.141c-1.998-1.998-1.998-5.232,0-7.23
					s5.232-1.998,7.23,0l0,0l53.667,54.353L93.209,76.343z"/>
			</g>
		</g>
	</g>
</g>
</svg>
