<?xml version="1.0" encoding="utf-8"?>
<!-- Generator: Adobe Illustrator 17.0.0, SVG Export Plug-In . SVG Version: 6.00 Build 0)  -->
<!DOCTYPE svg PUBLIC "-//W3C//DTD SVG 1.1//EN" "http://www.w3.org/Graphics/SVG/1.1/DTD/svg11.dtd">
<svg version="1.1" id="Layer_1" xmlns="http://www.w3.org/2000/svg" xmlns:xlink="http://www.w3.org/1999/xlink" x="0px" y="0px"
	 width="130.464px" height="130.478px" viewBox="0 0 130.464 130.478" enable-background="new 0 0 130.464 130.478"
	 xml:space="preserve">
<g>
	<path fill="#FE9F60" d="M120.042,0H10.423C4.666,0,0,5.158,0,11.52v107.439c0,6.362,4.666,11.52,10.423,11.52h109.619
		c5.756,0,10.422-5.157,10.422-11.52V11.52C130.464,5.158,125.798,0,120.042,0z M25.282,113.013
		C26.856,92.634,44.45,76.67,65.337,76.67s38.483,15.964,40.051,36.208v14.096H25.287L25.282,113.013z M65.337,73.166
		c-11.455,0-20.774-9.32-20.774-20.774s9.32-20.774,20.774-20.774c11.456,0,20.775,9.32,20.775,20.774S76.793,73.166,65.337,73.166z
		"/>
	<g>
		<path opacity="0.15" fill="#FE9F60" d="M10.422,130.478h109.62c5.756,0,10.422-5.158,10.422-11.52V11.52
			c0-6.362-4.666-11.52-10.422-11.52h-0.703L0.017,119.323C0.192,125.515,4.777,130.478,10.422,130.478z"/>
	</g>
</g>
</svg>
