<?xml version="1.0" encoding="utf-8"?>
<!-- Generator: Adobe Illustrator 17.0.0, SVG Export Plug-In . SVG Version: 6.00 Build 0)  -->
<!DOCTYPE svg PUBLIC "-//W3C//DTD SVG 1.1//EN" "http://www.w3.org/Graphics/SVG/1.1/DTD/svg11.dtd">
<svg version="1.1" id="Layer_1" xmlns="http://www.w3.org/2000/svg" xmlns:xlink="http://www.w3.org/1999/xlink" x="0px" y="0px"
	 width="239.036px" height="189.051px" viewBox="0 0 239.036 189.051" enable-background="new 0 0 239.036 189.051"
	 xml:space="preserve">
<g>
	<g>
		<g>
			<path fill="#B0F5BC" d="M204.761,3.107c0-1.716-1.391-3.107-3.107-3.107H3.107C1.391,0,0,1.391,0,3.107V167.34h204.761V3.107z"/>
			<g>
				<circle fill="#8BE899" cx="11.196" cy="11.428" r="2.483"/>
				<circle fill="#8BE899" cx="22.306" cy="11.428" r="2.483"/>
				<circle fill="#8BE899" cx="33.415" cy="11.428" r="2.483"/>
			</g>
		</g>
		<g>
			<g>
				<g>
					<rect x="5.976" y="23.155" fill="#8BE899" width="192.835" height="137.407"/>
				</g>
			</g>
		</g>
	</g>
	<g>
		<g>
			<g opacity="0.5">
				<rect x="14.797" y="31.606" fill="#F2EDDF" width="72.477" height="54.207"/>
			</g>
			<g>
				<g>
					<rect x="16.907" y="33.606" fill="#C9F5D1" width="72.477" height="54.207"/>
				</g>
				<rect x="16.907" y="76.566" fill="#B0F5BC" width="72.477" height="11.246"/>
				<path fill="#8BE899" d="M69.418,82.975H31.874c-0.328,0-0.594-0.266-0.594-0.594s0.266-0.594,0.594-0.594h37.544
					c0.328,0,0.594,0.266,0.594,0.594S69.745,82.975,69.418,82.975z"/>
				<circle fill="#4AC6EF" cx="53.146" cy="55.322" r="14.827"/>
			</g>
		</g>
		<g>
			<g opacity="0.5">
				<rect x="14.797" y="93.853" fill="#F2EDDF" width="72.477" height="54.207"/>
			</g>
			<g>
				<g>
					<rect x="16.907" y="95.853" fill="#C9F5D1" width="72.477" height="54.207"/>
				</g>
				<rect x="16.907" y="138.814" fill="#B0F5BC" width="72.477" height="11.246"/>
				<path fill="#8BE899" d="M69.418,145.222H31.874c-0.328,0-0.594-0.266-0.594-0.594s0.266-0.594,0.594-0.594h37.544
					c0.328,0,0.594,0.266,0.594,0.594S69.745,145.222,69.418,145.222z"/>
				<circle fill="#FFD349" cx="53.146" cy="117.569" r="14.827"/>
			</g>
		</g>
	</g>
	<g>
		<g>
			<g>
				<g>
					<circle fill="#8BE899" cx="171.918" cy="121.932" r="67.118"/>
				</g>
			</g>
		</g>
		<path fill="#8BE899" d="M231.627,91.29c-0.113-0.219-0.222-0.441-0.337-0.659c0.084,0.158,0.159,0.321,0.242,0.48
			C231.562,91.171,231.596,91.23,231.627,91.29z"/>
		<path fill="#8BE899" d="M232.804,93.689c-0.005-0.011-0.01-0.023-0.016-0.035c0.004,0.009,0.008,0.018,0.012,0.028
			C232.802,93.684,232.803,93.687,232.804,93.689z"/>
		<path fill="#8BE899" d="M232.58,93.193c-0.242-0.51-0.499-1.01-0.753-1.513c0.086,0.17,0.166,0.344,0.251,0.515
			C232.243,92.529,232.42,92.857,232.58,93.193z"/>
		<path fill="#8BE899" d="M180.775,114.714l-6.625,6.601l-2.462,2.453l-2.787,2.777l-2.784-2.777l-1.599-1.596
			c-0.639-0.637-1.673-0.637-2.312,0.003c-0.432,0.432-0.546,1.042-0.392,1.592c0.073,0.262,0.188,0.514,0.395,0.72l6.692,6.676
			l7.422-7.395l2.462-2.453l4.3-4.284c0.638-0.638,0.642-1.672,0.002-2.313C182.45,114.079,181.415,114.075,180.775,114.714z"/>
		<path fill="#8BE899" d="M238.896,117.792c0.02,0.333,0.045,0.665,0.06,1C238.941,118.457,238.917,118.125,238.896,117.792z"/>
		<path fill="#8BE899" d="M235.123,99.358c0.046,0.129,0.091,0.258,0.136,0.388c0.058,0.166,0.118,0.332,0.175,0.499
			c-0.43-1.259-0.89-2.502-1.391-3.726c0.041,0.1,0.075,0.203,0.116,0.304C234.497,97.66,234.818,98.505,235.123,99.358z"/>
		<path fill="#8BE899" d="M233.912,96.188c-0.288-0.693-0.596-1.374-0.907-2.054c0.178,0.389,0.347,0.783,0.517,1.176
			C233.65,95.603,233.789,95.892,233.912,96.188z"/>
		<path fill="#8BE899" d="M109.182,98.078c0.184-0.484,0.374-0.964,0.569-1.442c0.196-0.479,0.393-0.958,0.6-1.433
			c0.176-0.404,0.361-0.804,0.544-1.203c0.25-0.543,0.497-1.086,0.761-1.623c0.087-0.176,0.181-0.35,0.27-0.526
			c1.025-2.034,2.162-4.018,3.402-5.954c0.277-0.433,0.555-0.865,0.843-1.293c0.879-1.306,1.806-2.589,2.784-3.845
			c0.082-0.105,0.157-0.212,0.239-0.316c0.108-0.138,0.223-0.268,0.345-0.391c0.026-0.027,0.056-0.049,0.083-0.075
			c0.222-0.213,0.459-0.405,0.715-0.567c0.203-0.129,0.419-0.235,0.64-0.329c0.558-0.24,1.165-0.373,1.794-0.373
			c1.016,0,2.016,0.347,2.816,0.977c0.478,0.376,0.868,0.834,1.157,1.349c0.288,0.515,0.475,1.087,0.547,1.691
			c0.036,0.301,0.042,0.602,0.019,0.899c-0.069,0.889-0.4,1.738-0.964,2.455c-6.835,8.675-10.944,18.837-12.077,29.679
			c-0.017,0.161-0.035,0.321-0.05,0.482c-0.072,0.751-0.13,1.505-0.173,2.262c-0.012,0.211-0.029,0.422-0.039,0.633
			c-0.043,0.929-0.071,1.86-0.071,2.797c0,0.882,0.027,1.76,0.067,2.636c0.013,0.277,0.029,0.553,0.046,0.829
			c0.037,0.616,0.084,1.229,0.14,1.841c0.028,0.296,0.05,0.593,0.082,0.888c0.083,0.775,0.18,1.548,0.295,2.317
			c0.061,0.412,0.134,0.82,0.204,1.229c0.067,0.393,0.136,0.786,0.211,1.178c0.091,0.474,0.185,0.947,0.288,1.417
			c0.062,0.282,0.129,0.562,0.195,0.842c0.248,1.062,0.522,2.114,0.829,3.156c0.028,0.096,0.053,0.192,0.082,0.287
			c0.165,0.548,0.341,1.091,0.521,1.633c0.069,0.208,0.139,0.415,0.211,0.623c0.186,0.537,0.375,1.074,0.576,1.605
			c0.032,0.084,0.067,0.167,0.099,0.25c0.383,1,0.798,1.987,1.236,2.962c0.127,0.284,0.253,0.569,0.385,0.851
			c0.189,0.404,0.385,0.805,0.583,1.205c0.196,0.396,0.399,0.788,0.604,1.179c0.162,0.308,0.321,0.618,0.488,0.923
			c0.387,0.707,0.79,1.406,1.206,2.096c0.07,0.116,0.145,0.23,0.216,0.346c0.408,0.665,0.83,1.322,1.264,1.97
			c0.054,0.081,0.109,0.163,0.164,0.244c2.087,3.083,4.462,5.971,7.111,8.611c0.976,0.974,1.989,1.913,3.037,2.818
			c1.048,0.905,2.131,1.773,3.246,2.605c0.653,0.487,1.337,0.939,2.014,1.398l6.285-6.285
			c-13.801-8.744-22.989-24.142-22.987-41.655c0-10.255,3.151-19.787,8.532-27.683c0.329,1.352,1.061,2.619,2.193,3.595
			c1.256,1.083,2.86,1.679,4.518,1.679c0.081,0,0.161-0.01,0.243-0.013c-4.279,6.428-6.779,14.137-6.779,22.422
			c0,15.124,8.323,28.333,20.623,35.312l11.316-11.316c-9.836-3.555-16.866-12.973-16.866-24.035
			c0-14.111,11.439-25.551,25.551-25.551c11.062,0,20.48,7.031,24.035,16.866l11.232-11.232
			c-6.186-10.896-17.265-18.666-30.233-20.294c1.138-1.233,1.84-2.876,1.84-4.683c0-1.501-0.486-2.889-1.302-4.024
			c15.155,1.729,28.24,10.36,36.036,22.66l6.282-6.282c-0.428-0.625-0.867-1.243-1.318-1.851c-0.103-0.139-0.205-0.278-0.309-0.416
			c-0.49-0.649-0.991-1.289-1.507-1.917c-0.073-0.089-0.149-0.176-0.223-0.265c-1.242-1.492-2.557-2.922-3.94-4.282
			c-0.078-0.077-0.155-0.155-0.234-0.232c-0.662-0.645-1.342-1.271-2.034-1.883c-0.113-0.1-0.225-0.199-0.338-0.298
			c-0.687-0.599-1.387-1.181-2.102-1.746c-0.118-0.093-0.237-0.185-0.356-0.278c-0.73-0.569-1.473-1.124-2.23-1.658
			c-0.089-0.063-0.179-0.123-0.268-0.185c-1.598-1.114-3.254-2.149-4.963-3.101c-0.097-0.055-0.193-0.11-0.29-0.164
			c-0.815-0.448-1.644-0.874-2.482-1.283c-0.137-0.067-0.274-0.134-0.412-0.2c-0.829-0.397-1.669-0.774-2.52-1.132
			c-0.142-0.059-0.285-0.117-0.427-0.176c-0.867-0.357-1.742-0.696-2.629-1.011c-0.107-0.037-0.215-0.072-0.322-0.11
			c-1.868-0.65-3.779-1.208-5.727-1.667c-0.114-0.027-0.228-0.057-0.342-0.083c-0.927-0.212-1.863-0.399-2.806-0.566
			c-0.159-0.028-0.318-0.057-0.477-0.084c-0.932-0.157-1.87-0.292-2.816-0.404c-0.162-0.019-0.325-0.036-0.487-0.054
			c-0.963-0.106-1.931-0.192-2.907-0.25c-0.122-0.008-0.245-0.011-0.367-0.018c-1.029-0.054-2.063-0.088-3.105-0.088
			c-1.255,0-2.394-0.511-3.218-1.335c-0.824-0.824-1.335-1.963-1.335-3.218c0-2.511,2.043-4.554,4.553-4.554
			c0.004,0,0.008,0,0.012,0c1.142,0,2.278,0.029,3.406,0.086c0.168,0.009,0.334,0.027,0.502,0.037
			c0.978,0.057,1.954,0.125,2.921,0.223c0.034,0.003,0.067,0.009,0.1,0.012c0.941,0.096,1.877,0.218,2.809,0.353
			c0.13,0.019,0.26,0.041,0.39,0.061c0.846,0.128,1.687,0.272,2.525,0.431c0.064,0.012,0.128,0.024,0.191,0.037
			c4.329,0.836,8.545,2.082,12.594,3.741c0.092,0.038,0.187,0.071,0.279,0.109c-7.925-3.292-16.612-5.118-25.729-5.118
			c-29.222,0-54.069,18.681-63.284,44.747c0.014-0.036,0.027-0.072,0.04-0.109C108.837,98.992,109.008,98.535,109.182,98.078z
			 M168.689,72.763c0.202-0.013,0.403-0.035,0.605-0.046c0.872-0.046,1.746-0.071,2.624-0.071c2.401,0,4.354,1.955,4.354,4.356
			s-1.953,4.354-4.354,4.354c-0.002,0-0.005,0-0.007,0c-0.719,0.001-1.437,0.021-2.151,0.059c-0.173,0.009-0.343,0.028-0.515,0.039
			c-0.547,0.036-1.093,0.075-1.636,0.133c-0.186,0.02-0.369,0.049-0.554,0.071c-0.526,0.064-1.052,0.131-1.573,0.214
			c-0.191,0.031-0.381,0.069-0.571,0.103c-0.51,0.089-1.017,0.183-1.521,0.291c-0.203,0.043-0.404,0.093-0.606,0.14
			c-0.481,0.11-0.96,0.227-1.436,0.355c-0.225,0.061-0.449,0.127-0.673,0.191c-0.439,0.127-0.876,0.259-1.31,0.4
			c-0.257,0.084-0.513,0.172-0.768,0.261c-0.384,0.133-0.765,0.272-1.144,0.417c-0.297,0.114-0.594,0.23-0.888,0.351
			c-0.316,0.129-0.629,0.264-0.941,0.401c-0.347,0.153-0.693,0.307-1.036,0.469c-0.23,0.108-0.457,0.223-0.685,0.336
			c-0.412,0.204-0.823,0.411-1.228,0.629c-0.109,0.059-0.216,0.122-0.325,0.182c-1.656,0.912-3.256,1.929-4.777,3.07
			c-0.581,0.435-1.15,0.887-1.708,1.354c-1.674,1.401-3.245,2.947-4.693,4.626c-0.207,0.24-0.437,0.454-0.686,0.641
			c-0.523,0.391-1.129,0.652-1.77,0.778c-0.276,0.054-0.557,0.091-0.843,0.091c-1.043,0-2.052-0.375-2.842-1.057
			c-1.657-1.428-1.956-3.836-0.812-5.629c0.048-0.075,0.101-0.147,0.153-0.219c0.07-0.096,0.126-0.2,0.205-0.292
			c2.223-2.578,4.691-4.886,7.343-6.922c1.37-1.051,2.796-2.02,4.262-2.917c0.03-0.018,0.058-0.037,0.088-0.055
			c0.633-0.385,1.271-0.761,1.92-1.117c0.115-0.063,0.228-0.13,0.343-0.192c0.505-0.272,1.016-0.531,1.53-0.785
			c0.264-0.131,0.527-0.264,0.794-0.39c0.427-0.201,0.857-0.394,1.289-0.583c0.369-0.162,0.739-0.321,1.112-0.474
			c0.367-0.15,0.735-0.296,1.105-0.437c0.452-0.173,0.907-0.339,1.364-0.498c0.318-0.11,0.634-0.219,0.954-0.323
			c0.521-0.169,1.046-0.328,1.573-0.48c0.277-0.079,0.553-0.161,0.831-0.236c0.574-0.155,1.153-0.296,1.734-0.43
			c0.248-0.057,0.494-0.118,0.743-0.172c0.612-0.131,1.228-0.245,1.845-0.353c0.232-0.041,0.462-0.087,0.694-0.124
			c0.635-0.102,1.275-0.184,1.915-0.261c0.223-0.027,0.444-0.061,0.667-0.085C167.349,72.856,168.018,72.807,168.689,72.763z
			 M166.254,55.098c-0.909,1.196-1.456,2.682-1.456,4.297c0,1.851,0.716,3.534,1.878,4.801
			c-14.481,1.305-27.436,7.954-36.886,17.956c-0.28-1.778-1.197-3.363-2.619-4.482c-1.205-0.95-2.705-1.477-4.238-1.513
			C133.974,64.349,149.215,56.53,166.254,55.098z"/>
		<path fill="#8BE899" d="M122.817,80.424c-0.017-0.002-0.034-0.004-0.05-0.004s-0.032,0.003-0.049,0.005
			c-0.03,0.004-0.059,0.008-0.089,0.01c0.085-0.004,0.17-0.009,0.255-0.006C122.862,80.428,122.839,80.426,122.817,80.424z"/>
		<path fill="#8BE899" d="M200.282,61.101c-0.869-0.406-1.745-0.798-2.633-1.168c0.881,0.366,1.751,0.757,2.616,1.16
			C200.271,61.096,200.277,61.098,200.282,61.101z"/>
		<path fill="#8BE899" d="M203.537,62.724c0.469,0.252,0.926,0.526,1.39,0.789c5.218,2.958,10.076,6.623,14.432,10.979
			c2.376,2.376,4.552,4.899,6.519,7.548c0.184,0.248,0.357,0.502,0.537,0.752l0.006-0.006c0.101,0.141,0.196,0.287,0.296,0.428
			c0.341,0.48,0.676,0.963,1.003,1.45c0.112,0.167,0.222,0.336,0.333,0.504c0.113,0.172,0.228,0.342,0.34,0.515
			c-6.762-10.514-16.368-19.02-27.745-24.418c0.892,0.423,1.774,0.871,2.648,1.334C203.375,62.642,203.457,62.682,203.537,62.724z"
			/>
		<path fill="#8BE899" d="M229.361,87.24c0.132,0.218,0.268,0.433,0.397,0.652c-0.309-0.524-0.625-1.043-0.948-1.558
			c0.109,0.173,0.212,0.349,0.319,0.523C229.206,86.985,229.283,87.112,229.361,87.24z"/>
		<path fill="#8BE899" d="M230.62,89.407c0.167,0.3,0.341,0.597,0.504,0.9c-0.269-0.502-0.552-0.995-0.833-1.489
			c0.048,0.085,0.095,0.171,0.144,0.256C230.496,89.185,230.558,89.296,230.62,89.407z"/>
		<path fill="#8BE899" d="M162.393,188.365c-0.316-0.045-0.635-0.084-0.95-0.134C161.758,188.281,162.076,188.32,162.393,188.365z"
			/>
		<path fill="#8BE899" d="M158.539,187.713c-0.323-0.065-0.64-0.144-0.961-0.214C157.898,187.568,158.216,187.647,158.539,187.713z"
			/>
		<path fill="#8BE899" d="M150.131,185.414c-2.012-0.692-3.981-1.473-5.902-2.345C146.15,183.94,148.118,184.723,150.131,185.414z"
			/>
		<path fill="#8BE899" d="M155.645,187.052c-0.459-0.115-0.915-0.238-1.371-0.363C154.73,186.814,155.185,186.938,155.645,187.052z"
			/>
		<path fill="#8BE899" d="M130.418,174.639c-0.249-0.196-0.497-0.393-0.742-0.592c-1.076-0.874-2.123-1.777-3.139-2.713
			c-0.65-0.599-1.29-1.206-1.914-1.828c-2.079-2.071-3.999-4.285-5.781-6.601c-0.059-0.077-0.12-0.151-0.179-0.228
			c-0.777-1.019-1.535-2.052-2.253-3.113c-0.073-0.108-0.146-0.216-0.218-0.324c-0.491-0.729-0.964-1.471-1.426-2.221
			c-0.093-0.151-0.189-0.3-0.281-0.451c-0.478-0.789-0.936-1.59-1.382-2.4c-0.201-0.367-0.392-0.739-0.587-1.11
			c-0.23-0.436-0.455-0.874-0.675-1.315c-0.235-0.473-0.467-0.947-0.691-1.426c-0.145-0.309-0.283-0.622-0.423-0.934
			c-0.526-1.171-1.024-2.354-1.483-3.556c-0.024-0.062-0.05-0.123-0.073-0.185c-0.237-0.626-0.46-1.257-0.678-1.89
			c-0.077-0.226-0.154-0.452-0.23-0.68c-0.212-0.637-0.42-1.277-0.613-1.922c-0.023-0.076-0.043-0.152-0.065-0.228
			c-0.369-1.247-0.697-2.509-0.994-3.781c-0.072-0.308-0.147-0.614-0.214-0.923c-0.121-0.554-0.232-1.109-0.339-1.666
			c-0.084-0.439-0.162-0.88-0.237-1.321c-0.083-0.487-0.17-0.973-0.243-1.463c-0.13-0.881-0.244-1.767-0.339-2.659
			c-0.038-0.353-0.066-0.709-0.098-1.063c-0.063-0.691-0.117-1.386-0.159-2.083c-0.02-0.332-0.04-0.663-0.055-0.996
			c-0.044-0.992-0.075-1.988-0.076-2.991c0-0.015-0.001-0.029-0.001-0.044c0-0.02,0.001-0.041,0.001-0.061
			c0.001-1.06,0.03-2.113,0.08-3.161c0.012-0.261,0.033-0.52,0.048-0.78c0.051-0.859,0.113-1.714,0.196-2.564
			c0.02-0.2,0.041-0.399,0.062-0.599c0.043-0.402,0.076-0.807,0.125-1.207c0.008-0.065,0.017-0.13,0.025-0.195
			c0.068-0.544,0.154-1.084,0.236-1.625c0.001-0.006,0.002-0.012,0.003-0.018c0.046-0.31,0.084-0.622,0.135-0.931
			c0.02-0.122,0.044-0.244,0.065-0.366c0.042-0.245,0.1-0.484,0.145-0.727c0.064-0.349,0.137-0.694,0.207-1.04
			c0.211-1.05,0.446-2.093,0.707-3.129c0.049-0.194,0.097-0.39,0.148-0.584c0.103-0.392,0.19-0.789,0.299-1.179
			c0.131-0.464,0.255-0.93,0.395-1.39c0.143-0.47,0.3-0.937,0.453-1.404c0.026-0.078,0.051-0.156,0.076-0.235
			c-2.217,6.665-3.436,13.786-3.436,21.195c0,22.455,11.038,42.319,27.972,54.503l0.016-0.016
			C131.984,175.841,131.192,175.25,130.418,174.639z"/>
		<path fill="#8BE899" d="M168.747,188.97c-0.301-0.014-0.6-0.036-0.9-0.054C168.146,188.934,168.445,188.956,168.747,188.97z"/>
		<path fill="#8BE899" d="M165.604,188.745c-0.35-0.033-0.699-0.067-1.048-0.105C164.905,188.678,165.254,188.713,165.604,188.745z"
			/>
		<path fill="#8BE899" d="M236.658,104.227c0.133,0.488,0.266,0.976,0.388,1.467C236.924,105.202,236.792,104.715,236.658,104.227z"
			/>
		<path fill="#8BE899" d="M237.451,107.445c0.084,0.379,0.176,0.754,0.253,1.135C237.626,108.198,237.534,107.823,237.451,107.445z"
			/>
		<path fill="#8BE899" d="M143.635,182.8c-0.643-0.3-1.28-0.611-1.912-0.93C142.355,182.189,142.991,182.5,143.635,182.8z"/>
		<path fill="#8BE899" d="M238.212,111.428c0.055,0.352,0.099,0.708,0.149,1.061C238.312,112.135,238.267,111.78,238.212,111.428z"
			/>
		<path fill="#8BE899" d="M238.621,114.529c0.042,0.377,0.079,0.756,0.114,1.135C238.7,115.285,238.662,114.906,238.621,114.529z"/>
		<path fill="#8BE899" d="M235.792,101.302c0.17,0.525,0.329,1.054,0.487,1.585C236.121,102.357,235.961,101.828,235.792,101.302z"
			/>
		<path fill="#8BE899" d="M141.21,181.607c-2.923-1.509-5.723-3.223-8.378-5.129C135.487,178.384,138.285,180.099,141.21,181.607z"
			/>
		<path fill="#8BE899" d="M152.821,186.277c-0.5-0.149-1-0.299-1.496-0.459C151.822,185.978,152.321,186.129,152.821,186.277z"/>
		<path fill="#F7F5EF" d="M171.965,96.341c-14.112,0-25.551,11.44-25.551,25.551c0,11.062,7.031,20.48,16.866,24.035L196,113.207
			C192.445,103.372,183.027,96.341,171.965,96.341z M183.085,117.031l-4.3,4.284l-2.462,2.453l-7.422,7.395l-6.692-6.676
			c-0.207-0.206-0.322-0.458-0.395-0.72c-0.154-0.55-0.04-1.16,0.392-1.592c0.639-0.64,1.673-0.64,2.312-0.003l1.599,1.596
			l2.784,2.777l2.787-2.777l2.462-2.453l6.625-6.601c0.64-0.639,1.675-0.635,2.312,0.004
			C183.727,115.359,183.723,116.393,183.085,117.031z"/>
		<path fill="#77E087" d="M177.537,72.974c0.816,1.135,1.302,2.523,1.302,4.024c0,1.807-0.702,3.45-1.84,4.683
			c12.968,1.628,24.047,9.398,30.233,20.294l6.341-6.341C205.777,83.334,192.692,74.703,177.537,72.974z"/>
		<path fill="#77E087" d="M131.341,121.931c0-8.285,2.5-15.994,6.779-22.422c-0.082,0.003-0.162,0.013-0.243,0.013
			c-1.658,0-3.262-0.596-4.518-1.679c-1.132-0.976-1.864-2.243-2.193-3.595c-5.381,7.896-8.532,17.428-8.532,27.683
			c-0.002,17.513,9.186,32.911,22.987,41.655l6.343-6.343C139.664,150.264,131.341,137.055,131.341,121.931z"/>
		<path fill="#77E087" d="M129.79,82.152c9.45-10.002,22.405-16.651,36.886-17.956c-1.162-1.267-1.878-2.95-1.878-4.801
			c0-1.615,0.547-3.101,1.456-4.297c-17.039,1.432-32.28,9.251-43.321,21.059c1.533,0.036,3.033,0.563,4.238,1.513
			C128.593,78.789,129.51,80.374,129.79,82.152z"/>
		<path fill="#FFD349" d="M164.101,73.273c-0.232,0.037-0.462,0.083-0.694,0.124c-0.617,0.108-1.233,0.222-1.845,0.353
			c-0.249,0.054-0.495,0.115-0.743,0.172c-0.581,0.134-1.16,0.275-1.734,0.43c-0.278,0.075-0.554,0.157-0.831,0.236
			c-0.527,0.152-1.052,0.311-1.573,0.48c-0.32,0.104-0.636,0.213-0.954,0.323c-0.457,0.159-0.912,0.325-1.364,0.498
			c-0.37,0.141-0.738,0.287-1.105,0.437c-0.373,0.153-0.743,0.312-1.112,0.474c-0.432,0.189-0.862,0.382-1.289,0.583
			c-0.267,0.126-0.53,0.259-0.794,0.39c-0.514,0.254-1.025,0.513-1.53,0.785c-0.115,0.062-0.228,0.129-0.343,0.192
			c-0.649,0.356-1.287,0.732-1.92,1.117c-0.03,0.018-0.058,0.037-0.088,0.055c-1.466,0.897-2.892,1.866-4.262,2.917
			c-2.652,2.036-5.12,4.344-7.343,6.922c-0.079,0.092-0.135,0.196-0.205,0.292c-0.052,0.072-0.105,0.144-0.153,0.219
			c-1.144,1.793-0.845,4.201,0.812,5.629c0.79,0.682,1.799,1.057,2.842,1.057c0.286,0,0.567-0.037,0.843-0.091
			c0.641-0.126,1.247-0.387,1.77-0.778c0.249-0.187,0.479-0.401,0.686-0.641c1.448-1.679,3.019-3.225,4.693-4.626
			c0.558-0.467,1.127-0.919,1.708-1.354c1.521-1.141,3.121-2.158,4.777-3.07c0.109-0.06,0.216-0.123,0.325-0.182
			c0.405-0.218,0.816-0.425,1.228-0.629c0.228-0.113,0.455-0.228,0.685-0.336c0.343-0.162,0.689-0.316,1.036-0.469
			c0.312-0.137,0.625-0.272,0.941-0.401c0.294-0.121,0.591-0.237,0.888-0.351c0.379-0.145,0.76-0.284,1.144-0.417
			c0.255-0.089,0.511-0.177,0.768-0.261c0.434-0.141,0.871-0.273,1.31-0.4c0.224-0.064,0.448-0.13,0.673-0.191
			c0.476-0.128,0.955-0.245,1.436-0.355c0.202-0.047,0.403-0.097,0.606-0.14c0.504-0.108,1.011-0.202,1.521-0.291
			c0.19-0.034,0.38-0.072,0.571-0.103c0.521-0.083,1.047-0.15,1.573-0.214c0.185-0.022,0.368-0.051,0.554-0.071
			c0.543-0.058,1.089-0.097,1.636-0.133c0.172-0.011,0.342-0.03,0.515-0.039c0.714-0.038,1.432-0.058,2.151-0.059
			c0.002,0,0.005,0,0.007,0c2.401,0,4.354-1.953,4.354-4.354s-1.953-4.356-4.354-4.356c-0.878,0-1.752,0.025-2.624,0.071
			c-0.202,0.011-0.403,0.033-0.605,0.046c-0.671,0.044-1.34,0.093-2.006,0.164c-0.223,0.024-0.444,0.058-0.667,0.085
			C165.376,73.089,164.736,73.171,164.101,73.273z"/>
		<path fill="#4AC6EF" d="M108.488,99.955c-0.09,0.258-0.17,0.521-0.252,0.782c0.131-0.393,0.26-0.787,0.398-1.176
			C108.585,99.692,108.533,99.823,108.488,99.955z"/>
		<path fill="#4AC6EF" d="M107.707,102.376c-0.14,0.46-0.264,0.926-0.395,1.39c-0.109,0.39-0.196,0.787-0.299,1.179
			c-0.051,0.194-0.099,0.39-0.148,0.584c-0.261,1.036-0.496,2.079-0.707,3.129c-0.07,0.346-0.143,0.691-0.207,1.04
			c-0.045,0.243-0.103,0.482-0.145,0.727c-0.021,0.122-0.045,0.244-0.065,0.366c-0.051,0.309-0.089,0.621-0.135,0.931
			c-0.001,0.006-0.002,0.012-0.003,0.018c-0.082,0.541-0.168,1.081-0.236,1.625c-0.008,0.065-0.017,0.13-0.025,0.195
			c-0.049,0.4-0.082,0.805-0.125,1.207c-0.021,0.2-0.042,0.399-0.062,0.599c-0.083,0.85-0.145,1.705-0.196,2.564
			c-0.015,0.26-0.036,0.519-0.048,0.78c-0.05,1.048-0.079,2.101-0.08,3.161c0,0.02-0.001,0.041-0.001,0.061
			c0,0.015,0.001,0.029,0.001,0.044c0.001,1.003,0.032,1.999,0.076,2.991c0.015,0.333,0.035,0.664,0.055,0.996
			c0.042,0.697,0.096,1.392,0.159,2.083c0.032,0.354,0.06,0.71,0.098,1.063c0.095,0.892,0.209,1.778,0.339,2.659
			c0.073,0.49,0.16,0.976,0.243,1.463c0.075,0.441,0.153,0.882,0.237,1.321c0.107,0.557,0.218,1.112,0.339,1.666
			c0.067,0.309,0.142,0.615,0.214,0.923c0.297,1.272,0.625,2.534,0.994,3.781c0.022,0.076,0.042,0.152,0.065,0.228
			c0.193,0.645,0.401,1.285,0.613,1.922c0.076,0.228,0.153,0.454,0.23,0.68c0.218,0.633,0.441,1.264,0.678,1.89
			c0.023,0.062,0.049,0.123,0.073,0.185c0.459,1.202,0.957,2.385,1.483,3.556c0.14,0.312,0.278,0.625,0.423,0.934
			c0.224,0.479,0.456,0.953,0.691,1.426c0.22,0.441,0.445,0.879,0.675,1.315c0.195,0.371,0.386,0.743,0.587,1.11
			c0.446,0.81,0.904,1.611,1.382,2.4c0.092,0.151,0.188,0.3,0.281,0.451c0.462,0.75,0.935,1.492,1.426,2.221
			c0.072,0.108,0.145,0.216,0.218,0.324c0.718,1.061,1.476,2.094,2.253,3.113c0.059,0.077,0.12,0.151,0.179,0.228
			c1.782,2.316,3.702,4.53,5.781,6.601c0.624,0.622,1.264,1.229,1.914,1.828c1.016,0.936,2.063,1.839,3.139,2.713
			c0.245,0.199,0.493,0.396,0.742,0.592c0.774,0.611,1.566,1.202,2.37,1.78l6.548-6.548c-0.677-0.459-1.36-0.911-2.014-1.398
			c-1.115-0.832-2.198-1.7-3.246-2.605c-1.048-0.905-2.061-1.844-3.037-2.818c-2.649-2.64-5.024-5.528-7.111-8.611
			c-0.055-0.081-0.11-0.163-0.164-0.244c-0.434-0.648-0.856-1.305-1.264-1.97c-0.071-0.116-0.146-0.23-0.216-0.346
			c-0.416-0.69-0.819-1.389-1.206-2.096c-0.167-0.305-0.326-0.615-0.488-0.923c-0.205-0.391-0.408-0.783-0.604-1.179
			c-0.198-0.4-0.394-0.801-0.583-1.205c-0.132-0.282-0.258-0.567-0.385-0.851c-0.438-0.975-0.853-1.962-1.236-2.962
			c-0.032-0.083-0.067-0.166-0.099-0.25c-0.201-0.531-0.39-1.068-0.576-1.605c-0.072-0.208-0.142-0.415-0.211-0.623
			c-0.18-0.542-0.356-1.085-0.521-1.633c-0.029-0.095-0.054-0.191-0.082-0.287c-0.307-1.042-0.581-2.094-0.829-3.156
			c-0.066-0.28-0.133-0.56-0.195-0.842c-0.103-0.47-0.197-0.943-0.288-1.417c-0.075-0.392-0.144-0.785-0.211-1.178
			c-0.07-0.409-0.143-0.817-0.204-1.229c-0.115-0.769-0.212-1.542-0.295-2.317c-0.032-0.295-0.054-0.592-0.082-0.888
			c-0.056-0.612-0.103-1.225-0.14-1.841c-0.017-0.276-0.033-0.552-0.046-0.829c-0.04-0.876-0.067-1.754-0.067-2.636
			c0-0.937,0.028-1.868,0.071-2.797c0.01-0.211,0.027-0.422,0.039-0.633c0.043-0.757,0.101-1.511,0.173-2.262
			c0.015-0.161,0.033-0.321,0.05-0.482c1.133-10.842,5.242-21.004,12.077-29.679c0.564-0.717,0.895-1.566,0.964-2.455
			c0.023-0.297,0.017-0.598-0.019-0.899c-0.072-0.604-0.259-1.176-0.547-1.691c-0.289-0.515-0.679-0.973-1.157-1.349
			c-0.8-0.63-1.8-0.977-2.816-0.977c-0.629,0-1.236,0.133-1.794,0.373c-0.221,0.094-0.437,0.2-0.64,0.329
			c-0.256,0.162-0.493,0.354-0.715,0.567c-0.027,0.026-0.057,0.048-0.083,0.075c-0.122,0.123-0.237,0.253-0.345,0.391
			c-0.082,0.104-0.157,0.211-0.239,0.316c-0.978,1.256-1.905,2.539-2.784,3.845c-0.288,0.428-0.566,0.86-0.843,1.293
			c-1.24,1.936-2.377,3.92-3.402,5.954c-0.089,0.176-0.183,0.35-0.27,0.526c-0.264,0.537-0.511,1.08-0.761,1.623
			c-0.183,0.399-0.368,0.799-0.544,1.203c-0.207,0.475-0.404,0.954-0.6,1.433c-0.195,0.478-0.385,0.958-0.569,1.442
			c-0.174,0.457-0.345,0.914-0.508,1.374c-0.013,0.036-0.027,0.072-0.04,0.109c-0.138,0.39-0.267,0.783-0.398,1.176
			c-0.025,0.079-0.05,0.157-0.076,0.235C108.007,101.439,107.85,101.906,107.707,102.376z M122.718,80.425
			c0.017-0.002,0.033-0.005,0.049-0.005s0.033,0.002,0.05,0.004c0.022,0.002,0.045,0.004,0.067,0.005
			c-0.085-0.003-0.17,0.002-0.255,0.006C122.659,80.433,122.688,80.429,122.718,80.425z"/>
		<path fill="#379FEF" d="M200.644,61.264c-0.019-0.009-0.036-0.019-0.055-0.027c-0.101-0.048-0.205-0.09-0.307-0.136
			c0.121,0.056,0.244,0.108,0.365,0.165C200.646,61.265,200.645,61.265,200.644,61.264z"/>
		<path fill="#379FEF" d="M194.564,185.126c0.002-0.001,0.004-0.001,0.006-0.002c0.014-0.005,0.028-0.011,0.042-0.016
			c-0.093,0.034-0.189,0.062-0.282,0.095C194.407,185.176,194.487,185.154,194.564,185.126z"/>
		<polygon fill="#379FEF" points="197.649,59.933 197.647,59.932 197.649,59.933 		"/>
		<path fill="#379FEF" d="M228.392,85.683c0.139,0.217,0.28,0.432,0.417,0.651C228.673,86.116,228.532,85.9,228.392,85.683z"/>
		<path fill="#379FEF" d="M235.116,144.577c0.09-0.251,0.164-0.507,0.251-0.76c-0.102,0.297-0.196,0.599-0.302,0.894
			C235.08,144.666,235.1,144.622,235.116,144.577z"/>
		<path fill="#379FEF" d="M234.023,96.468c-0.036-0.087-0.068-0.176-0.104-0.264c-0.002-0.005-0.005-0.011-0.007-0.016
			c0.046,0.11,0.086,0.222,0.131,0.332C234.036,96.502,234.03,96.485,234.023,96.468z"/>
		<path fill="#379FEF" d="M197.356,184.05c0.1-0.041,0.202-0.078,0.302-0.119c0.019-0.008,0.038-0.017,0.057-0.025
			c-0.222,0.092-0.449,0.175-0.672,0.265C197.147,184.129,197.253,184.092,197.356,184.05z"/>
		<path fill="#379FEF" d="M236.249,141.08c-0.046,0.154-0.085,0.31-0.131,0.463C236.164,141.39,236.203,141.234,236.249,141.08z"/>
		<path fill="#379FEF" d="M229.758,87.892c0.181,0.307,0.357,0.617,0.533,0.926C230.114,88.509,229.939,88.199,229.758,87.892z"/>
		<path fill="#379FEF" d="M232.748,93.563c-0.055-0.117-0.104-0.236-0.159-0.352c-0.003-0.006-0.006-0.012-0.009-0.018
			c0.072,0.152,0.137,0.308,0.209,0.461C232.774,93.624,232.762,93.593,232.748,93.563z"/>
		<path fill="#379FEF" d="M231.242,90.537c-0.039-0.073-0.074-0.148-0.113-0.22c-0.002-0.003-0.004-0.007-0.006-0.01
			c0.057,0.107,0.109,0.217,0.166,0.324C231.273,90.6,231.258,90.568,231.242,90.537z"/>
		<path fill="#379FEF" d="M208.318,178.31c-0.291,0.188-0.581,0.377-0.876,0.561C207.736,178.687,208.027,178.499,208.318,178.31z"
			/>
		<path fill="#379FEF" d="M206.042,179.724c-0.385,0.228-0.774,0.449-1.164,0.669C205.268,180.173,205.657,179.952,206.042,179.724z
			"/>
		<path fill="#379FEF" d="M203.296,181.267c0.082-0.043,0.166-0.083,0.248-0.127c0.017-0.009,0.034-0.02,0.052-0.029
			c-0.197,0.106-0.4,0.202-0.598,0.306C203.096,181.366,203.197,181.319,203.296,181.267z"/>
		<path fill="#379FEF" d="M200.26,182.777c0.13-0.061,0.262-0.116,0.391-0.177c0.017-0.008,0.034-0.018,0.052-0.026
			c-0.258,0.123-0.522,0.234-0.782,0.354C200.033,182.876,200.148,182.83,200.26,182.777z"/>
		<path fill="#379FEF" d="M230.502,154.679c-0.275,0.49-0.553,0.977-0.839,1.46C229.95,155.656,230.227,155.168,230.502,154.679z"/>
		<path fill="#379FEF" d="M224.381,163.771c-0.009,0.011-0.018,0.023-0.027,0.035C224.363,163.795,224.372,163.783,224.381,163.771z
			"/>
		<path fill="#379FEF" d="M231.133,153.551c0.006-0.011,0.013-0.022,0.019-0.033c0.038-0.07,0.07-0.143,0.107-0.213
			c0.133-0.25,0.252-0.507,0.382-0.758c-0.195,0.379-0.381,0.762-0.582,1.137C231.083,153.639,231.109,153.596,231.133,153.551z"/>
		<path fill="#379FEF" d="M233.924,147.664c0.04-0.095,0.074-0.192,0.113-0.288c0.104-0.254,0.195-0.513,0.296-0.768
			c-0.159,0.401-0.309,0.807-0.475,1.205C233.879,147.763,233.903,147.714,233.924,147.664z"/>
		<path fill="#379FEF" d="M232.593,150.657c0.059-0.125,0.112-0.252,0.171-0.377c0.128-0.275,0.243-0.555,0.369-0.831
			c-0.201,0.446-0.394,0.896-0.604,1.336C232.549,150.742,232.573,150.7,232.593,150.657z"/>
		<path fill="#379FEF" d="M228.911,157.373c-0.226,0.362-0.458,0.719-0.69,1.077C228.453,158.092,228.685,157.734,228.911,157.373z"
			/>
		<path fill="#379FEF" d="M229.128,86.858c-0.107-0.174-0.21-0.35-0.319-0.523c-0.137-0.218-0.278-0.434-0.417-0.651
			c-0.111-0.173-0.227-0.343-0.34-0.515C228.419,85.727,228.778,86.289,229.128,86.858z"/>
		<path fill="#379FEF" d="M226.717,83.214c0.339,0.479,0.675,0.962,1.003,1.45C227.393,84.177,227.058,83.694,226.717,83.214z"/>
		<path fill="#379FEF" d="M230.434,89.075c-0.048-0.085-0.095-0.171-0.144-0.256c-0.176-0.31-0.352-0.62-0.533-0.926
			c-0.129-0.219-0.265-0.435-0.397-0.652C229.728,87.845,230.086,88.457,230.434,89.075z"/>
		<path fill="#379FEF" d="M231.531,91.111c-0.083-0.159-0.158-0.322-0.242-0.48c-0.057-0.107-0.109-0.217-0.166-0.324
			c-0.162-0.303-0.337-0.6-0.504-0.9C230.932,89.969,231.234,90.539,231.531,91.111z"/>
		<path fill="#379FEF" d="M232.801,93.682c-0.004-0.009-0.008-0.018-0.012-0.028c-0.071-0.153-0.136-0.309-0.209-0.461
			c-0.159-0.336-0.337-0.664-0.502-0.997C232.322,92.689,232.568,93.182,232.801,93.682z"/>
		<path fill="#379FEF" d="M235.123,99.358c0.046,0.129,0.091,0.259,0.136,0.388C235.214,99.617,235.169,99.487,235.123,99.358z"/>
		<path fill="#379FEF" d="M234.158,96.823c-0.041-0.101-0.075-0.204-0.116-0.304c-0.045-0.11-0.085-0.222-0.131-0.332
			c-0.123-0.296-0.262-0.585-0.39-0.879C233.74,95.811,233.953,96.315,234.158,96.823z"/>
		<path fill="#379FEF" d="M184.774,56.082c-0.063-0.013-0.127-0.025-0.191-0.037c-0.838-0.159-1.679-0.303-2.525-0.431
			c-0.13-0.02-0.26-0.042-0.39-0.061c-0.932-0.135-1.868-0.257-2.809-0.353c-0.033-0.003-0.066-0.009-0.1-0.012
			c-0.967-0.098-1.943-0.166-2.921-0.223c-0.168-0.01-0.334-0.028-0.502-0.037c-1.128-0.057-2.264-0.086-3.406-0.086
			c-0.004,0-0.008,0-0.012,0c-2.51,0-4.553,2.043-4.553,4.554c0,1.255,0.511,2.394,1.335,3.218c0.824,0.824,1.963,1.335,3.218,1.335
			c1.042,0,2.076,0.034,3.105,0.088c0.122,0.007,0.245,0.01,0.367,0.018c0.976,0.058,1.944,0.144,2.907,0.25
			c0.162,0.018,0.325,0.035,0.487,0.054c0.946,0.112,1.884,0.247,2.816,0.404c0.159,0.027,0.318,0.056,0.477,0.084
			c0.943,0.167,1.879,0.354,2.806,0.566c0.114,0.026,0.228,0.056,0.342,0.083c1.948,0.459,3.859,1.017,5.727,1.667
			c0.107,0.038,0.215,0.073,0.322,0.11c0.887,0.315,1.762,0.654,2.629,1.011c0.142,0.059,0.285,0.117,0.427,0.176
			c0.851,0.358,1.691,0.735,2.52,1.132c0.138,0.066,0.275,0.133,0.412,0.2c0.838,0.409,1.667,0.835,2.482,1.283
			c0.097,0.054,0.193,0.109,0.29,0.164c1.709,0.952,3.365,1.987,4.963,3.101c0.089,0.062,0.179,0.122,0.268,0.185
			c0.757,0.534,1.5,1.089,2.23,1.658c0.119,0.093,0.238,0.185,0.356,0.278c0.715,0.565,1.415,1.147,2.102,1.746
			c0.113,0.099,0.225,0.198,0.338,0.298c0.692,0.612,1.372,1.238,2.034,1.883c0.079,0.077,0.156,0.155,0.234,0.232
			c1.383,1.36,2.698,2.79,3.94,4.282c0.074,0.089,0.15,0.176,0.223,0.265c0.516,0.628,1.017,1.268,1.507,1.917
			c0.104,0.138,0.206,0.277,0.309,0.416c0.451,0.608,0.89,1.226,1.318,1.851l6.56-6.56c-0.18-0.25-0.353-0.504-0.537-0.752
			c-1.967-2.649-4.143-5.172-6.519-7.548c-4.356-4.356-9.214-8.021-14.432-10.979c-0.464-0.263-0.921-0.537-1.39-0.789
			c-0.08-0.042-0.162-0.082-0.242-0.124c-0.874-0.463-1.756-0.911-2.648-1.334c-0.12-0.057-0.244-0.109-0.365-0.165
			c-0.006-0.003-0.012-0.005-0.017-0.008c-0.865-0.403-1.735-0.794-2.616-1.16c-0.001,0-0.002-0.001-0.002-0.001
			c-0.092-0.039-0.187-0.071-0.279-0.109C193.319,58.164,189.103,56.918,184.774,56.082z"/>
		<path opacity="0.7" fill="#F7F5EF" enable-background="new    " d="M208.353,178.287c-0.012,0.008-0.023,0.015-0.035,0.023
			c6.098-3.946,11.514-8.849,16.036-14.504c-0.002,0.003-0.004,0.005-0.007,0.008C219.835,169.455,214.434,174.347,208.353,178.287z
			"/>
		<path opacity="0.7" fill="#F7F5EF" enable-background="new    " d="M237.047,105.694c0.144,0.58,0.275,1.164,0.404,1.75
			C237.321,106.859,237.191,106.274,237.047,105.694z"/>
		<path opacity="0.7" fill="#F7F5EF" enable-background="new    " d="M232.804,93.689c0.068,0.147,0.134,0.296,0.201,0.444
			C232.938,93.985,232.873,93.836,232.804,93.689z"/>
		<path opacity="0.7" fill="#F7F5EF" enable-background="new    " d="M238.362,112.489c0.095,0.677,0.184,1.357,0.259,2.04
			C238.546,113.846,238.457,113.166,238.362,112.489z"/>
		<path opacity="0.7" fill="#F7F5EF" enable-background="new    " d="M237.703,108.579c0.19,0.942,0.358,1.892,0.509,2.848
			C238.061,110.472,237.894,109.521,237.703,108.579z"/>
		<path opacity="0.7" fill="#F7F5EF" enable-background="new    " d="M224.401,163.745c-0.007,0.009-0.013,0.018-0.02,0.026
			c1.364-1.708,2.645-3.484,3.839-5.322c-0.003,0.005-0.007,0.01-0.01,0.015C227.024,160.288,225.754,162.05,224.401,163.745z"/>
		<path opacity="0.7" fill="#F7F5EF" enable-background="new    " d="M235.434,100.245c0.12,0.352,0.243,0.703,0.358,1.057
			C235.677,100.948,235.554,100.597,235.434,100.245z"/>
		<path opacity="0.7" fill="#F7F5EF" enable-background="new    " d="M231.627,91.29c0.067,0.13,0.134,0.26,0.2,0.39
			C231.761,91.55,231.694,91.42,231.627,91.29z"/>
		<path opacity="0.7" fill="#F7F5EF" enable-background="new    " d="M236.278,102.887c0.131,0.445,0.258,0.891,0.38,1.34
			C236.536,103.779,236.41,103.332,236.278,102.887z"/>
		<path opacity="0.7" fill="#F7F5EF" enable-background="new    " d="M151.326,185.818c-0.401-0.129-0.797-0.268-1.195-0.404
			C150.528,185.551,150.925,185.689,151.326,185.818z"/>
		<path opacity="0.7" fill="#F7F5EF" enable-background="new    " d="M157.577,187.498c-0.647-0.141-1.292-0.287-1.932-0.446
			C156.285,187.212,156.93,187.357,157.577,187.498z"/>
		<path opacity="0.7" fill="#F7F5EF" enable-background="new    " d="M164.557,188.64c-0.725-0.079-1.446-0.173-2.164-0.275
			C163.111,188.467,163.831,188.561,164.557,188.64z"/>
		<path opacity="0.7" fill="#F7F5EF" enable-background="new    " d="M132.771,176.436c0.02,0.015,0.041,0.028,0.061,0.042
			C132.812,176.464,132.792,176.45,132.771,176.436L132.771,176.436z"/>
		<path opacity="0.7" fill="#F7F5EF" enable-background="new    " d="M233.14,149.432c-0.003,0.006-0.005,0.011-0.007,0.017
			c0.245-0.544,0.495-1.085,0.726-1.637c0,0.001-0.001,0.001-0.001,0.002C233.629,148.36,233.382,148.894,233.14,149.432z"/>
		<path opacity="0.7" fill="#F7F5EF" enable-background="new    " d="M167.846,188.916c-0.751-0.045-1.498-0.101-2.242-0.17
			C166.348,188.815,167.096,188.871,167.846,188.916z"/>
		<path opacity="0.7" fill="#F7F5EF" enable-background="new    " d="M235.064,144.713c-0.229,0.634-0.479,1.258-0.726,1.883
			c-0.002,0.004-0.003,0.008-0.005,0.012c0.249-0.63,0.501-1.258,0.731-1.897C235.064,144.712,235.064,144.713,235.064,144.713z"/>
		<path opacity="0.7" fill="#F7F5EF" enable-background="new    " d="M161.443,188.231c-0.975-0.153-1.944-0.324-2.905-0.519
			C159.499,187.908,160.468,188.078,161.443,188.231z"/>
		<path opacity="0.7" fill="#F7F5EF" enable-background="new    " d="M144.229,183.069c-0.198-0.09-0.398-0.177-0.595-0.269
			C143.831,182.892,144.031,182.979,144.229,183.069z"/>
		<path opacity="0.7" fill="#F7F5EF" enable-background="new    " d="M141.723,181.87c-0.172-0.087-0.342-0.175-0.513-0.263
			C141.381,181.695,141.551,181.783,141.723,181.87z"/>
		<path opacity="0.7" fill="#F7F5EF" enable-background="new    " d="M228.917,157.363c-0.002,0.003-0.004,0.007-0.006,0.01
			c0.255-0.409,0.506-0.82,0.752-1.234c-0.002,0.003-0.003,0.005-0.005,0.008C229.415,156.555,229.168,156.96,228.917,157.363z"/>
		<path opacity="0.7" fill="#F7F5EF" enable-background="new    " d="M230.511,154.661c-0.003,0.006-0.006,0.012-0.01,0.017
			c0.186-0.332,0.377-0.66,0.557-0.995c-0.001,0.002-0.002,0.003-0.003,0.005C230.88,154.016,230.693,154.337,230.511,154.661z"/>
		<path opacity="0.7" fill="#F7F5EF" enable-background="new    " d="M154.274,186.69c-0.486-0.132-0.971-0.27-1.453-0.413
			C153.303,186.42,153.788,186.557,154.274,186.69z"/>
		<path opacity="0.7" fill="#F7F5EF" enable-background="new    " d="M231.653,152.522c-0.004,0.008-0.008,0.016-0.012,0.024
			c0.3-0.585,0.604-1.167,0.887-1.761c0,0.001-0.001,0.002-0.002,0.003C232.248,151.373,231.949,151.947,231.653,152.522z"/>
		<path opacity="0.7" fill="#F7F5EF" enable-background="new    " d="M238.735,115.664c0.065,0.706,0.118,1.416,0.162,2.128
			C238.853,117.08,238.8,116.37,238.735,115.664z"/>
		<path opacity="0.7" fill="#F7F5EF" enable-background="new    " d="M200.717,182.567c-0.005,0.002-0.009,0.005-0.014,0.007
			c0.775-0.369,1.537-0.76,2.295-1.157c-0.027,0.014-0.055,0.027-0.082,0.042C202.188,181.838,201.459,182.214,200.717,182.567z"/>
		<path opacity="0.7" fill="#F7F5EF" enable-background="new    " d="M203.61,181.103c-0.005,0.003-0.009,0.005-0.014,0.008
			c0.432-0.232,0.856-0.477,1.283-0.718c-0.014,0.008-0.029,0.016-0.043,0.024C204.428,180.647,204.023,180.881,203.61,181.103z"/>
		<path opacity="0.7" fill="#F7F5EF" enable-background="new    " d="M235.37,143.807c-0.001,0.004-0.002,0.007-0.004,0.011
			c0.26-0.754,0.517-1.509,0.751-2.275c0,0.001,0,0.001-0.001,0.002C235.885,142.306,235.629,143.057,235.37,143.807z"/>
		<path opacity="0.7" fill="#F7F5EF" enable-background="new    " d="M206.063,179.712c-0.007,0.004-0.013,0.008-0.02,0.012
			c0.471-0.279,0.937-0.563,1.4-0.853c-0.007,0.004-0.014,0.009-0.021,0.013C206.972,179.165,206.519,179.441,206.063,179.712z"/>
		<path opacity="0.7" fill="#F7F5EF" enable-background="new    " d="M197.731,183.899c-0.005,0.002-0.01,0.005-0.015,0.007
			c0.744-0.31,1.475-0.642,2.205-0.978c-0.028,0.013-0.057,0.025-0.085,0.038C199.138,183.285,198.44,183.603,197.731,183.899z"/>
		<path opacity="0.7" fill="#F7F5EF" enable-background="new    " d="M236.249,141.08c1.804-6.07,2.787-12.493,2.787-19.148
			c0,6.652-0.982,13.072-2.785,19.139C236.25,141.074,236.25,141.077,236.249,141.08z"/>
		<path opacity="0.7" fill="#F7F5EF" enable-background="new    " d="M171.918,189.05c-1.064,0-2.12-0.031-3.171-0.08
			c1.051,0.049,2.107,0.081,3.17,0.081c7.862,0,15.402-1.364,22.413-3.848c-0.031,0.011-0.063,0.02-0.094,0.031
			C187.252,187.697,179.745,189.05,171.918,189.05z"/>
		<path opacity="0.7" fill="#F7F5EF" enable-background="new    " d="M238.957,118.792c0.048,1.041,0.079,2.087,0.079,3.14
			C239.036,120.879,239.005,119.833,238.957,118.792z"/>
		<path opacity="0.7" fill="#F7F5EF" enable-background="new    " d="M194.629,185.101c-0.006,0.002-0.011,0.004-0.017,0.006
			c0.819-0.294,1.627-0.612,2.431-0.937c-0.029,0.012-0.058,0.022-0.086,0.033C196.187,184.514,195.414,184.819,194.629,185.101z"/>
		<path fill="#8BE899" d="M234.158,96.823c0.338,0.839,0.662,1.683,0.965,2.535C234.818,98.505,234.497,97.66,234.158,96.823z"/>
		<path opacity="0.7" fill="#F7F5EF" enable-background="new    " d="M234.158,96.823c0.338,0.839,0.662,1.683,0.965,2.535
			C234.818,98.505,234.497,97.66,234.158,96.823z"/>
		<path fill="#8BE899" d="M229.128,86.858c0.078,0.127,0.155,0.254,0.232,0.382C229.283,87.112,229.206,86.985,229.128,86.858z"/>
		<path opacity="0.7" fill="#F7F5EF" enable-background="new    " d="M229.128,86.858c0.078,0.127,0.155,0.254,0.232,0.382
			C229.283,87.112,229.206,86.985,229.128,86.858z"/>
		<path fill="#8BE899" d="M230.434,89.075c0.062,0.111,0.124,0.221,0.186,0.332C230.558,89.296,230.496,89.185,230.434,89.075z"/>
		<path opacity="0.7" fill="#F7F5EF" enable-background="new    " d="M230.434,89.075c0.062,0.111,0.124,0.221,0.186,0.332
			C230.558,89.296,230.496,89.185,230.434,89.075z"/>
		<path fill="#8BE899" d="M227.72,84.664c0.112,0.167,0.222,0.336,0.333,0.504C227.942,85,227.832,84.832,227.72,84.664z"/>
		<path opacity="0.7" fill="#F7F5EF" enable-background="new    " d="M227.72,84.664c0.112,0.167,0.222,0.336,0.333,0.504
			C227.942,85,227.832,84.832,227.72,84.664z"/>
		<path fill="#8BE899" d="M194.236,185.234c-0.916,0.322-1.837,0.631-2.767,0.913c-1.262,0.382-2.542,0.709-3.829,1.013
			c-0.033,0.008-0.065,0.014-0.097,0.022c-0.614,0.144-1.225,0.294-1.843,0.422c-0.195,0.041-0.393,0.068-0.588,0.107
			c-0.521,0.104-1.047,0.194-1.572,0.286c-0.488,0.085-0.974,0.178-1.464,0.252c-1.031,0.157-2.068,0.295-3.114,0.404
			c-0.069,0.007-0.138,0.018-0.208,0.025c-0.056,0.006-0.111,0.016-0.167,0.021c-0.333,0.033-0.671,0.046-1.005,0.074
			c-0.525,0.044-1.052,0.085-1.58,0.116c-0.224,0.013-0.446,0.038-0.671,0.049c-0.967,0.048-1.942,0.067-2.92,0.074
			c-0.163,0.001-0.324,0.012-0.487,0.012c-0.001,0-0.001,0-0.001,0c-2.51,0-4.553-2.042-4.553-4.553
			c0-2.511,2.042-4.554,4.553-4.554c1.768,0,3.513-0.092,5.241-0.248c1.202-0.108,2.397-0.24,3.577-0.421
			c0.881-0.135,1.754-0.295,2.622-0.469c0.273-0.055,0.543-0.118,0.815-0.177c0.599-0.13,1.196-0.266,1.789-0.414
			c0.305-0.076,0.608-0.155,0.91-0.236c0.574-0.154,1.145-0.317,1.713-0.488c0.281-0.085,0.563-0.167,0.842-0.255
			c0.678-0.215,1.349-0.445,2.016-0.684c0.152-0.055,0.308-0.104,0.46-0.16c0.815-0.3,1.621-0.62,2.419-0.955
			c0.215-0.091,0.427-0.19,0.642-0.283c0.581-0.253,1.159-0.513,1.73-0.784c0.275-0.13,0.547-0.265,0.82-0.4
			c0.516-0.255,1.028-0.517,1.535-0.787c0.268-0.143,0.538-0.286,0.804-0.433c0.545-0.301,1.083-0.613,1.617-0.931
			c0.207-0.123,0.417-0.241,0.622-0.367c0.728-0.445,1.446-0.905,2.153-1.381c0.139-0.093,0.273-0.193,0.41-0.287
			c0.57-0.392,1.135-0.792,1.69-1.204c0.231-0.17,0.456-0.346,0.684-0.52c0.46-0.351,0.915-0.708,1.364-1.072
			c0.238-0.193,0.475-0.388,0.71-0.585c0.451-0.378,0.896-0.764,1.335-1.156c0.203-0.181,0.409-0.359,0.61-0.543
			c0.628-0.576,1.246-1.161,1.848-1.763c0.656-0.656,1.297-1.328,1.921-2.015c0.899-0.988,1.752-2.019,2.582-3.069
			c0.899-1.136,1.769-2.297,2.583-3.5c0.821-1.215,1.584-2.472,2.314-3.75c0.422-0.739,0.828-1.489,1.218-2.248
			c0.413-0.805,0.808-1.619,1.184-2.445c3.329-7.308,5.2-15.414,5.2-23.954c0-11.989-3.658-23.141-9.916-32.397
			c-0.042-0.063-0.089-0.122-0.131-0.185l-6.282,6.282c4.827,7.615,7.632,16.633,7.632,26.298c0,27.177-22.11,49.287-49.287,49.287
			c-9.665,0-18.681-2.807-26.297-7.633l-6.285,6.285c1.363,0.925,2.756,1.815,4.21,2.63c-1.604,0.695-2.937,1.96-3.678,3.612
			c-0.657,1.466-0.769,3.036-0.435,4.493c0.003,0.012,0.005,0.023,0.008,0.034c-2.314-1.282-4.532-2.694-6.653-4.221l-0.016,0.016
			c0.02,0.015,0.041,0.029,0.061,0.043c2.654,1.905,5.455,3.619,8.378,5.129c0.171,0.088,0.341,0.176,0.513,0.263
			c0.632,0.319,1.269,0.63,1.912,0.93c0.197,0.092,0.396,0.179,0.595,0.269c1.92,0.872,3.89,1.653,5.902,2.345
			c0.398,0.136,0.794,0.275,1.195,0.404c0.496,0.16,0.995,0.31,1.496,0.459c0.482,0.143,0.966,0.28,1.453,0.413
			c0.456,0.124,0.911,0.248,1.371,0.363c0.64,0.159,1.285,0.305,1.932,0.446c0.321,0.07,0.639,0.149,0.961,0.214
			c0.961,0.194,1.93,0.366,2.905,0.519c0.315,0.049,0.633,0.089,0.95,0.134c0.718,0.102,1.439,0.196,2.164,0.275
			c0.348,0.038,0.698,0.072,1.048,0.105c0.744,0.069,1.491,0.125,2.242,0.17c0.3,0.018,0.599,0.04,0.9,0.054
			c1.052,0.049,2.108,0.08,3.171,0.08C179.745,189.05,187.252,187.697,194.236,185.234z M166.249,188.765
			c-0.049-0.005-0.099-0.008-0.149-0.012c-0.357-0.03-0.718-0.047-1.074-0.083c-0.223-0.023-0.446-0.052-0.669-0.077
			c-0.764-0.085-1.525-0.189-2.285-0.3c-0.13-0.019-0.261-0.031-0.39-0.051c-1.027-0.158-2.044-0.343-3.055-0.547
			c-0.082-0.017-0.165-0.029-0.247-0.046c-0.997-0.205-1.984-0.437-2.965-0.686c-0.1-0.026-0.201-0.047-0.302-0.073
			c-0.945-0.245-1.881-0.515-2.81-0.8c-0.14-0.042-0.281-0.081-0.42-0.125c-0.712-0.223-1.42-0.463-2.125-0.711
			c-0.18-0.063-0.359-0.127-0.538-0.192c-0.169-0.061-0.34-0.119-0.51-0.182c-0.868-0.321-1.726-0.662-2.577-1.018
			c-0.167-0.069-0.334-0.137-0.5-0.208c-0.379-0.163-0.763-0.307-1.14-0.476h-0.001c-0.118-0.052-0.218-0.127-0.329-0.189
			c-1.672-0.925-2.556-2.772-2.294-4.608c0.059-0.411,0.154-0.822,0.332-1.219c0.275-0.613,0.676-1.145,1.165-1.57
			c0.488-0.426,1.064-0.744,1.689-0.931c0.417-0.124,0.855-0.19,1.303-0.19c0.292,0,0.578,0.036,0.86,0.09
			c0.081,0.016,0.16,0.039,0.24,0.059c0.258,0.065,0.514,0.139,0.761,0.25h0.001c0.351,0.157,0.708,0.292,1.061,0.442
			c0.075,0.033,0.151,0.063,0.226,0.095c0.803,0.337,1.612,0.658,2.426,0.958c0.071,0.026,0.143,0.05,0.214,0.076
			c0.318,0.116,0.636,0.231,0.956,0.341c0.519,0.179,1.039,0.35,1.561,0.513c0.04,0.013,0.08,0.024,0.12,0.036
			c0.881,0.273,1.767,0.528,2.659,0.757c0.001,0,0.002,0,0.002,0c1.571,0.404,3.159,0.742,4.762,1.012
			c0.297,0.05,0.594,0.102,0.892,0.147c0.003,0,0.006,0.001,0.009,0.001c0.953,0.145,1.91,0.269,2.873,0.366
			c0.164,0.017,0.33,0.024,0.495,0.039c0.067,0.007,0.134,0.01,0.2,0.016c-1.162,1.268-1.878,2.951-1.878,4.802
			C164.798,186.086,165.345,187.572,166.249,188.765z"/>
		<path fill="#88E395" d="M194.236,185.234c-0.916,0.322-1.837,0.631-2.767,0.913c-1.262,0.382-2.542,0.709-3.829,1.013
			c-0.033,0.008-0.065,0.014-0.097,0.022c-0.614,0.144-1.225,0.294-1.843,0.422c-0.195,0.041-0.393,0.068-0.588,0.107
			c-0.521,0.104-1.047,0.194-1.572,0.286c-0.488,0.085-0.974,0.178-1.464,0.252c-1.031,0.157-2.068,0.295-3.114,0.404
			c-0.069,0.007-0.138,0.018-0.208,0.025c-0.056,0.006-0.111,0.016-0.167,0.021c-0.333,0.033-0.671,0.046-1.005,0.074
			c-0.525,0.044-1.052,0.085-1.58,0.116c-0.224,0.013-0.446,0.038-0.671,0.049c-0.967,0.048-1.942,0.067-2.92,0.074
			c-0.163,0.001-0.324,0.012-0.487,0.012c-0.001,0-0.001,0-0.001,0c-2.51,0-4.553-2.042-4.553-4.553
			c0-2.511,2.042-4.554,4.553-4.554c1.768,0,3.513-0.092,5.241-0.248c1.202-0.108,2.397-0.24,3.577-0.421
			c0.881-0.135,1.754-0.295,2.622-0.469c0.273-0.055,0.543-0.118,0.815-0.177c0.599-0.13,1.196-0.266,1.789-0.414
			c0.305-0.076,0.608-0.155,0.91-0.236c0.574-0.154,1.145-0.317,1.713-0.488c0.281-0.085,0.563-0.167,0.842-0.255
			c0.678-0.215,1.349-0.445,2.016-0.684c0.152-0.055,0.308-0.104,0.46-0.16c0.815-0.3,1.621-0.62,2.419-0.955
			c0.215-0.091,0.427-0.19,0.642-0.283c0.581-0.253,1.159-0.513,1.73-0.784c0.275-0.13,0.547-0.265,0.82-0.4
			c0.516-0.255,1.028-0.517,1.535-0.787c0.268-0.143,0.538-0.286,0.804-0.433c0.545-0.301,1.083-0.613,1.617-0.931
			c0.207-0.123,0.417-0.241,0.622-0.367c0.728-0.445,1.446-0.905,2.153-1.381c0.139-0.093,0.273-0.193,0.41-0.287
			c0.57-0.392,1.135-0.792,1.69-1.204c0.231-0.17,0.456-0.346,0.684-0.52c0.46-0.351,0.915-0.708,1.364-1.072
			c0.238-0.193,0.475-0.388,0.71-0.585c0.451-0.378,0.896-0.764,1.335-1.156c0.203-0.181,0.409-0.359,0.61-0.543
			c0.628-0.576,1.246-1.161,1.848-1.763c0.656-0.656,1.297-1.328,1.921-2.015c0.899-0.988,1.752-2.019,2.582-3.069
			c0.899-1.136,1.769-2.297,2.583-3.5c0.821-1.215,1.584-2.472,2.314-3.75c0.422-0.739,0.828-1.489,1.218-2.248
			c0.413-0.805,0.808-1.619,1.184-2.445c3.329-7.308,5.2-15.414,5.2-23.954c0-11.989-3.658-23.141-9.916-32.397
			c-0.042-0.063-0.089-0.122-0.131-0.185l-6.282,6.282c4.827,7.615,7.632,16.633,7.632,26.298c0,27.177-22.11,49.287-49.287,49.287
			c-9.665,0-18.681-2.807-26.297-7.633l-6.285,6.285c1.363,0.925,2.756,1.815,4.21,2.63c-1.604,0.695-2.937,1.96-3.678,3.612
			c-0.657,1.466-0.769,3.036-0.435,4.493c0.003,0.012,0.005,0.023,0.008,0.034c-2.314-1.282-4.532-2.694-6.653-4.221l-0.016,0.016
			c0.02,0.015,0.041,0.029,0.061,0.043c2.654,1.905,5.455,3.619,8.378,5.129c0.171,0.088,0.341,0.176,0.513,0.263
			c0.632,0.319,1.269,0.63,1.912,0.93c0.197,0.092,0.396,0.179,0.595,0.269c1.92,0.872,3.89,1.653,5.902,2.345
			c0.398,0.136,0.794,0.275,1.195,0.404c0.496,0.16,0.995,0.31,1.496,0.459c0.482,0.143,0.966,0.28,1.453,0.413
			c0.456,0.124,0.911,0.248,1.371,0.363c0.64,0.159,1.285,0.305,1.932,0.446c0.321,0.07,0.639,0.149,0.961,0.214
			c0.961,0.194,1.93,0.366,2.905,0.519c0.315,0.049,0.633,0.089,0.95,0.134c0.718,0.102,1.439,0.196,2.164,0.275
			c0.348,0.038,0.698,0.072,1.048,0.105c0.744,0.069,1.491,0.125,2.242,0.17c0.3,0.018,0.599,0.04,0.9,0.054
			c1.052,0.049,2.108,0.08,3.171,0.08C179.745,189.05,187.252,187.697,194.236,185.234z M166.249,188.765
			c-0.049-0.005-0.099-0.008-0.149-0.012c-0.357-0.03-0.718-0.047-1.074-0.083c-0.223-0.023-0.446-0.052-0.669-0.077
			c-0.764-0.085-1.525-0.189-2.285-0.3c-0.13-0.019-0.261-0.031-0.39-0.051c-1.027-0.158-2.044-0.343-3.055-0.547
			c-0.082-0.017-0.165-0.029-0.247-0.046c-0.997-0.205-1.984-0.437-2.965-0.686c-0.1-0.026-0.201-0.047-0.302-0.073
			c-0.945-0.245-1.881-0.515-2.81-0.8c-0.14-0.042-0.281-0.081-0.42-0.125c-0.712-0.223-1.42-0.463-2.125-0.711
			c-0.18-0.063-0.359-0.127-0.538-0.192c-0.169-0.061-0.34-0.119-0.51-0.182c-0.868-0.321-1.726-0.662-2.577-1.018
			c-0.167-0.069-0.334-0.137-0.5-0.208c-0.379-0.163-0.763-0.307-1.14-0.476h-0.001c-0.118-0.052-0.218-0.127-0.329-0.189
			c-1.672-0.925-2.556-2.772-2.294-4.608c0.059-0.411,0.154-0.822,0.332-1.219c0.275-0.613,0.676-1.145,1.165-1.57
			c0.488-0.426,1.064-0.744,1.689-0.931c0.417-0.124,0.855-0.19,1.303-0.19c0.292,0,0.578,0.036,0.86,0.09
			c0.081,0.016,0.16,0.039,0.24,0.059c0.258,0.065,0.514,0.139,0.761,0.25h0.001c0.351,0.157,0.708,0.292,1.061,0.442
			c0.075,0.033,0.151,0.063,0.226,0.095c0.803,0.337,1.612,0.658,2.426,0.958c0.071,0.026,0.143,0.05,0.214,0.076
			c0.318,0.116,0.636,0.231,0.956,0.341c0.519,0.179,1.039,0.35,1.561,0.513c0.04,0.013,0.08,0.024,0.12,0.036
			c0.881,0.273,1.767,0.528,2.659,0.757c0.001,0,0.002,0,0.002,0c1.571,0.404,3.159,0.742,4.762,1.012
			c0.297,0.05,0.594,0.102,0.892,0.147c0.003,0,0.006,0.001,0.009,0.001c0.953,0.145,1.91,0.269,2.873,0.366
			c0.164,0.017,0.33,0.024,0.495,0.039c0.067,0.007,0.134,0.01,0.2,0.016c-1.162,1.268-1.878,2.951-1.878,4.802
			C164.798,186.086,165.345,187.572,166.249,188.765z"/>
		<path fill="#8BE899" d="M208.353,178.287c6.081-3.94,11.482-8.832,15.994-14.473c-1.547,1.929-3.208,3.784-4.982,5.558
			C215.975,172.762,212.281,175.737,208.353,178.287z"/>
		<path opacity="0.7" fill="#F7F5EF" enable-background="new    " d="M208.353,178.287c6.081-3.94,11.482-8.832,15.994-14.473
			c-1.547,1.929-3.208,3.784-4.982,5.558C215.975,172.762,212.281,175.737,208.353,178.287z"/>
		<path fill="#8BE899" d="M236.117,141.545c-0.231,0.76-0.488,1.511-0.747,2.262C235.629,143.057,235.885,142.306,236.117,141.545z"
			/>
		<path opacity="0.7" fill="#F7F5EF" enable-background="new    " d="M236.117,141.545c-0.231,0.76-0.488,1.511-0.747,2.262
			C235.629,143.057,235.885,142.306,236.117,141.545z"/>
		<path fill="#8BE899" d="M237.768,109.07c0.011,0.053,0.021,0.105,0.031,0.157c0.161,0.849,0.308,1.701,0.437,2.558
			c0.019,0.123,0.04,0.245,0.058,0.368c0.135,0.935,0.257,1.872,0.354,2.815c0.005,0.043,0.012,0.085,0.016,0.127
			c0.096,0.957,0.164,1.921,0.22,2.886c0.01,0.18,0.03,0.357,0.039,0.536c0.055,1.094,0.082,2.194,0.084,3.297
			c0,0.04,0.002,0.079,0.008,0.119c0,0.041-0.003,0.081-0.003,0.122c-0.001,1.102-0.029,2.2-0.083,3.294
			c-0.009,0.18-0.029,0.357-0.039,0.537c-0.056,0.965-0.124,1.928-0.22,2.885c-0.005,0.043-0.012,0.085-0.016,0.127
			c-0.102,0.998-0.22,1.993-0.366,2.981c-0.462,3.124-1.149,6.192-2.037,9.192c1.802-6.067,2.785-12.487,2.785-19.139
			c0-1.053-0.031-2.099-0.079-3.14c-0.015-0.334-0.04-0.667-0.06-1c-0.043-0.712-0.096-1.422-0.162-2.128
			c-0.035-0.379-0.072-0.758-0.114-1.135c-0.075-0.684-0.164-1.363-0.259-2.04c-0.05-0.354-0.094-0.709-0.149-1.061
			c-0.15-0.956-0.318-1.906-0.509-2.848c-0.077-0.381-0.169-0.756-0.253-1.135c-0.129-0.586-0.26-1.17-0.404-1.75
			c-0.123-0.492-0.255-0.98-0.388-1.467c-0.122-0.448-0.249-0.895-0.38-1.34c-0.157-0.531-0.317-1.06-0.487-1.585
			c-0.114-0.355-0.238-0.705-0.358-1.057c-0.057-0.167-0.116-0.333-0.175-0.499C236.316,102.78,237.155,105.893,237.768,109.07z"/>
		<path opacity="0.7" fill="#F7F5EF" enable-background="new    " d="M237.768,109.07c0.011,0.053,0.021,0.105,0.031,0.157
			c0.161,0.849,0.308,1.701,0.437,2.558c0.019,0.123,0.04,0.245,0.058,0.368c0.135,0.935,0.257,1.872,0.354,2.815
			c0.005,0.043,0.012,0.085,0.016,0.127c0.096,0.957,0.164,1.921,0.22,2.886c0.01,0.18,0.03,0.357,0.039,0.536
			c0.055,1.094,0.082,2.194,0.084,3.297c0,0.04,0.002,0.079,0.008,0.119c0,0.041-0.003,0.081-0.003,0.122
			c-0.001,1.102-0.029,2.2-0.083,3.294c-0.009,0.18-0.029,0.357-0.039,0.537c-0.056,0.965-0.124,1.928-0.22,2.885
			c-0.005,0.043-0.012,0.085-0.016,0.127c-0.102,0.998-0.22,1.993-0.366,2.981c-0.462,3.124-1.149,6.192-2.037,9.192
			c1.802-6.067,2.785-12.487,2.785-19.139c0-1.053-0.031-2.099-0.079-3.14c-0.015-0.334-0.04-0.667-0.06-1
			c-0.043-0.712-0.096-1.422-0.162-2.128c-0.035-0.379-0.072-0.758-0.114-1.135c-0.075-0.684-0.164-1.363-0.259-2.04
			c-0.05-0.354-0.094-0.709-0.149-1.061c-0.15-0.956-0.318-1.906-0.509-2.848c-0.077-0.381-0.169-0.756-0.253-1.135
			c-0.129-0.586-0.26-1.17-0.404-1.75c-0.123-0.492-0.255-0.98-0.388-1.467c-0.122-0.448-0.249-0.895-0.38-1.34
			c-0.157-0.531-0.317-1.06-0.487-1.585c-0.114-0.355-0.238-0.705-0.358-1.057c-0.057-0.167-0.116-0.333-0.175-0.499
			C236.316,102.78,237.155,105.893,237.768,109.07z"/>
		<path fill="#8BE899" d="M233.522,95.309c-0.17-0.393-0.339-0.787-0.517-1.176c-0.067-0.148-0.133-0.297-0.201-0.444
			c-0.001-0.002-0.002-0.005-0.003-0.007C233.051,94.22,233.285,94.765,233.522,95.309z"/>
		<path opacity="0.7" fill="#F7F5EF" enable-background="new    " d="M233.522,95.309c-0.17-0.393-0.339-0.787-0.517-1.176
			c-0.067-0.148-0.133-0.297-0.201-0.444c-0.001-0.002-0.002-0.005-0.003-0.007C233.051,94.22,233.285,94.765,233.522,95.309z"/>
		<path fill="#8BE899" d="M232.077,92.196c-0.085-0.171-0.165-0.345-0.251-0.515c-0.066-0.13-0.133-0.26-0.2-0.39
			c-0.031-0.06-0.064-0.119-0.096-0.179C231.718,91.47,231.897,91.833,232.077,92.196z"/>
		<path opacity="0.7" fill="#F7F5EF" enable-background="new    " d="M232.077,92.196c-0.085-0.171-0.165-0.345-0.251-0.515
			c-0.066-0.13-0.133-0.26-0.2-0.39c-0.031-0.06-0.064-0.119-0.096-0.179C231.718,91.47,231.897,91.833,232.077,92.196z"/>
		<path fill="#8BE899" d="M226.421,82.786l-0.006,0.006c0.101,0.14,0.202,0.281,0.302,0.422
			C226.617,83.073,226.522,82.927,226.421,82.786z"/>
		<path opacity="0.7" fill="#F7F5EF" enable-background="new    " d="M226.421,82.786l-0.006,0.006
			c0.101,0.14,0.202,0.281,0.302,0.422C226.617,83.073,226.522,82.927,226.421,82.786z"/>
		<path fill="#8BE899" d="M212.498,121.931c0-7.252-1.919-14.06-5.266-19.956L196,113.207c0.98,2.711,1.516,5.635,1.516,8.685
			c0,14.111-11.439,25.551-25.551,25.551c-3.049,0-5.973-0.536-8.685-1.516l-11.316,11.316c5.897,3.346,12.705,5.267,19.956,5.267
			C194.295,162.51,212.498,144.306,212.498,121.931z"/>
		<path fill="#88E395" d="M212.498,121.931c0-7.252-1.919-14.06-5.266-19.956L196,113.207c0.98,2.711,1.516,5.635,1.516,8.685
			c0,14.111-11.439,25.551-25.551,25.551c-3.049,0-5.973-0.536-8.685-1.516l-11.316,11.316c5.897,3.346,12.705,5.267,19.956,5.267
			C194.295,162.51,212.498,144.306,212.498,121.931z"/>
		<path fill="#8BE899" d="M202.915,181.459c-0.727,0.381-1.458,0.755-2.198,1.108C201.459,182.214,202.188,181.838,202.915,181.459z
			"/>
		<path opacity="0.7" fill="#F7F5EF" enable-background="new    " d="M202.915,181.459c-0.727,0.381-1.458,0.755-2.198,1.108
			C201.459,182.214,202.188,181.838,202.915,181.459z"/>
		<path fill="#8BE899" d="M204.836,180.417c-0.408,0.23-0.814,0.465-1.226,0.686C204.023,180.881,204.428,180.647,204.836,180.417z"
			/>
		<path opacity="0.7" fill="#F7F5EF" enable-background="new    " d="M204.836,180.417c-0.408,0.23-0.814,0.465-1.226,0.686
			C204.023,180.881,204.428,180.647,204.836,180.417z"/>
		<path fill="#8BE899" d="M233.857,147.815c-0.228,0.544-0.474,1.08-0.717,1.618C233.382,148.894,233.629,148.36,233.857,147.815z"
			/>
		<path opacity="0.7" fill="#F7F5EF" enable-background="new    " d="M233.857,147.815c-0.228,0.544-0.474,1.08-0.717,1.618
			C233.382,148.894,233.629,148.36,233.857,147.815z"/>
		<path fill="#8BE899" d="M235.064,144.713c-0.228,0.633-0.477,1.258-0.726,1.883C234.585,145.971,234.835,145.347,235.064,144.713z
			"/>
		<path opacity="0.7" fill="#F7F5EF" enable-background="new    " d="M235.064,144.713c-0.228,0.633-0.477,1.258-0.726,1.883
			C234.585,145.971,234.835,145.347,235.064,144.713z"/>
		<path fill="#8BE899" d="M207.421,178.884c-0.45,0.282-0.903,0.557-1.359,0.827C206.519,179.441,206.972,179.165,207.421,178.884z"
			/>
		<path opacity="0.7" fill="#F7F5EF" enable-background="new    " d="M207.421,178.884c-0.45,0.282-0.903,0.557-1.359,0.827
			C206.519,179.441,206.972,179.165,207.421,178.884z"/>
		<path fill="#8BE899" d="M231.056,153.688c-0.176,0.327-0.363,0.649-0.545,0.974C230.693,154.337,230.88,154.016,231.056,153.688z"
			/>
		<path opacity="0.7" fill="#F7F5EF" enable-background="new    " d="M231.056,153.688c-0.176,0.327-0.363,0.649-0.545,0.974
			C230.693,154.337,230.88,154.016,231.056,153.688z"/>
		<path fill="#8BE899" d="M232.527,150.788c-0.279,0.584-0.577,1.159-0.873,1.734C231.949,151.947,232.248,151.373,232.527,150.788z
			"/>
		<path opacity="0.7" fill="#F7F5EF" enable-background="new    " d="M232.527,150.788c-0.279,0.584-0.577,1.159-0.873,1.734
			C231.949,151.947,232.248,151.373,232.527,150.788z"/>
		<path fill="#8BE899" d="M228.21,158.464c-1.181,1.812-2.447,3.577-3.81,5.281C225.754,162.05,227.024,160.288,228.21,158.464z"/>
		<path opacity="0.7" fill="#F7F5EF" enable-background="new    " d="M228.21,158.464c-1.181,1.812-2.447,3.577-3.81,5.281
			C225.754,162.05,227.024,160.288,228.21,158.464z"/>
		<path fill="#8BE899" d="M229.657,156.147c-0.243,0.408-0.489,0.813-0.741,1.216C229.168,156.96,229.415,156.555,229.657,156.147z"
			/>
		<path opacity="0.7" fill="#F7F5EF" enable-background="new    " d="M229.657,156.147c-0.243,0.408-0.489,0.813-0.741,1.216
			C229.168,156.96,229.415,156.555,229.657,156.147z"/>
		<path fill="#8BE899" d="M196.957,184.204c-0.771,0.311-1.545,0.617-2.328,0.897C195.414,184.819,196.187,184.514,196.957,184.204z
			"/>
		<path opacity="0.7" fill="#F7F5EF" enable-background="new    " d="M196.957,184.204c-0.771,0.311-1.545,0.617-2.328,0.897
			C195.414,184.819,196.187,184.514,196.957,184.204z"/>
		<path fill="#8BE899" d="M199.836,182.965c-0.697,0.321-1.397,0.638-2.105,0.934C198.44,183.603,199.138,183.285,199.836,182.965z"
			/>
		<path opacity="0.7" fill="#F7F5EF" enable-background="new    " d="M199.836,182.965c-0.697,0.321-1.397,0.638-2.105,0.934
			C198.44,183.603,199.138,183.285,199.836,182.965z"/>
		<path fill="#F0EEE7" d="M197.516,121.892c0-3.049-0.536-5.973-1.516-8.685l-32.719,32.719c2.711,0.98,5.635,1.516,8.685,1.516
			C186.077,147.443,197.516,136.003,197.516,121.892z"/>
		<path fill="#77E087" d="M212.498,121.931c0,22.375-18.203,40.579-40.578,40.579c-7.251,0-14.058-1.921-19.956-5.267l-6.343,6.343
			c7.616,4.826,16.633,7.633,26.297,7.633c27.177,0,49.287-22.11,49.287-49.287c0-9.665-2.804-18.683-7.632-26.298l-6.341,6.341
			C210.579,107.871,212.498,114.679,212.498,121.931z"/>
		<path fill="#75DB84" d="M212.498,121.931c0,22.375-18.203,40.579-40.578,40.579c-7.251,0-14.058-1.921-19.956-5.267l-6.343,6.343
			c7.616,4.826,16.633,7.633,26.297,7.633c27.177,0,49.287-22.11,49.287-49.287c0-9.665-2.804-18.683-7.632-26.298l-6.341,6.341
			C210.579,107.871,212.498,114.679,212.498,121.931z"/>
		<path fill="#4AC6EF" d="M139.441,180.64c-0.003-0.011-0.005-0.022-0.008-0.034c-0.334-1.457-0.222-3.027,0.435-4.493
			c0.741-1.652,2.074-2.917,3.678-3.612c-1.454-0.815-2.847-1.705-4.21-2.63l-6.548,6.548
			C134.909,177.946,137.127,179.358,139.441,180.64z"/>
		<path fill="#48C0E8" d="M139.441,180.64c-0.003-0.011-0.005-0.022-0.008-0.034c-0.334-1.457-0.222-3.027,0.435-4.493
			c0.741-1.652,2.074-2.917,3.678-3.612c-1.454-0.815-2.847-1.705-4.21-2.63l-6.548,6.548
			C134.909,177.946,137.127,179.358,139.441,180.64z"/>
		<path fill="#26BAEF" d="M166.476,179.653c-0.165-0.015-0.331-0.022-0.495-0.039c-0.963-0.097-1.92-0.221-2.873-0.366
			c-0.003,0-0.006-0.001-0.009-0.001c-0.298-0.045-0.595-0.097-0.892-0.147c-1.603-0.27-3.191-0.608-4.762-1.012
			c0,0-0.001,0-0.002,0c-0.892-0.229-1.778-0.484-2.659-0.757c-0.04-0.012-0.08-0.023-0.12-0.036
			c-0.522-0.163-1.042-0.334-1.561-0.513c-0.32-0.11-0.638-0.225-0.956-0.341c-0.071-0.026-0.143-0.05-0.214-0.076
			c-0.814-0.3-1.623-0.621-2.426-0.958c-0.075-0.032-0.151-0.062-0.226-0.095c-0.353-0.15-0.71-0.285-1.061-0.442h-0.001
			c-0.247-0.111-0.503-0.185-0.761-0.25c-0.08-0.02-0.159-0.043-0.24-0.059c-0.282-0.054-0.568-0.09-0.86-0.09
			c-0.448,0-0.886,0.066-1.303,0.19c-0.625,0.187-1.201,0.505-1.689,0.931c-0.489,0.425-0.89,0.957-1.165,1.57
			c-0.178,0.397-0.273,0.808-0.332,1.219c-0.262,1.836,0.622,3.683,2.294,4.608c0.111,0.062,0.211,0.137,0.329,0.189h0.001
			c0.377,0.169,0.761,0.313,1.14,0.476c0.166,0.071,0.333,0.139,0.5,0.208c0.851,0.356,1.709,0.697,2.577,1.018
			c0.17,0.063,0.341,0.121,0.51,0.182c0.179,0.065,0.358,0.129,0.538,0.192c0.705,0.248,1.413,0.488,2.125,0.711
			c0.139,0.044,0.28,0.083,0.42,0.125c0.929,0.285,1.865,0.555,2.81,0.8c0.101,0.026,0.202,0.047,0.302,0.073
			c0.981,0.249,1.968,0.481,2.965,0.686c0.082,0.017,0.165,0.029,0.247,0.046c1.011,0.204,2.028,0.389,3.055,0.547
			c0.129,0.02,0.26,0.032,0.39,0.051c0.76,0.111,1.521,0.215,2.285,0.3c0.223,0.025,0.446,0.054,0.669,0.077
			c0.356,0.036,0.717,0.053,1.074,0.083c0.05,0.004,0.1,0.007,0.149,0.012c-0.904-1.193-1.451-2.679-1.451-4.294
			c0-1.851,0.716-3.534,1.878-4.802C166.61,179.663,166.543,179.66,166.476,179.653z"/>
		<path fill="#25B5E8" d="M166.476,179.653c-0.165-0.015-0.331-0.022-0.495-0.039c-0.963-0.097-1.92-0.221-2.873-0.366
			c-0.003,0-0.006-0.001-0.009-0.001c-0.298-0.045-0.595-0.097-0.892-0.147c-1.603-0.27-3.191-0.608-4.762-1.012
			c0,0-0.001,0-0.002,0c-0.892-0.229-1.778-0.484-2.659-0.757c-0.04-0.012-0.08-0.023-0.12-0.036
			c-0.522-0.163-1.042-0.334-1.561-0.513c-0.32-0.11-0.638-0.225-0.956-0.341c-0.071-0.026-0.143-0.05-0.214-0.076
			c-0.814-0.3-1.623-0.621-2.426-0.958c-0.075-0.032-0.151-0.062-0.226-0.095c-0.353-0.15-0.71-0.285-1.061-0.442h-0.001
			c-0.247-0.111-0.503-0.185-0.761-0.25c-0.08-0.02-0.159-0.043-0.24-0.059c-0.282-0.054-0.568-0.09-0.86-0.09
			c-0.448,0-0.886,0.066-1.303,0.19c-0.625,0.187-1.201,0.505-1.689,0.931c-0.489,0.425-0.89,0.957-1.165,1.57
			c-0.178,0.397-0.273,0.808-0.332,1.219c-0.262,1.836,0.622,3.683,2.294,4.608c0.111,0.062,0.211,0.137,0.329,0.189h0.001
			c0.377,0.169,0.761,0.313,1.14,0.476c0.166,0.071,0.333,0.139,0.5,0.208c0.851,0.356,1.709,0.697,2.577,1.018
			c0.17,0.063,0.341,0.121,0.51,0.182c0.179,0.065,0.358,0.129,0.538,0.192c0.705,0.248,1.413,0.488,2.125,0.711
			c0.139,0.044,0.28,0.083,0.42,0.125c0.929,0.285,1.865,0.555,2.81,0.8c0.101,0.026,0.202,0.047,0.302,0.073
			c0.981,0.249,1.968,0.481,2.965,0.686c0.082,0.017,0.165,0.029,0.247,0.046c1.011,0.204,2.028,0.389,3.055,0.547
			c0.129,0.02,0.26,0.032,0.39,0.051c0.76,0.111,1.521,0.215,2.285,0.3c0.223,0.025,0.446,0.054,0.669,0.077
			c0.356,0.036,0.717,0.053,1.074,0.083c0.05,0.004,0.1,0.007,0.149,0.012c-0.904-1.193-1.451-2.679-1.451-4.294
			c0-1.851,0.716-3.534,1.878-4.802C166.61,179.663,166.543,179.66,166.476,179.653z"/>
		<path fill="#379FEF" d="M194.236,185.234c0.031-0.011,0.063-0.02,0.094-0.031c0.093-0.033,0.189-0.062,0.282-0.095
			c0.006-0.002,0.011-0.004,0.017-0.006C194.499,185.148,194.367,185.188,194.236,185.234z"/>
		<path opacity="0.7" fill="#F7F5EF" enable-background="new    " d="M194.236,185.234c0.031-0.011,0.063-0.02,0.094-0.031
			c0.093-0.033,0.189-0.062,0.282-0.095c0.006-0.002,0.011-0.004,0.017-0.006C194.499,185.148,194.367,185.188,194.236,185.234z"/>
		<path fill="#379FEF" d="M199.836,182.965c0.028-0.013,0.057-0.025,0.085-0.038c0.26-0.12,0.524-0.231,0.782-0.354
			c0.005-0.002,0.009-0.005,0.014-0.007C200.426,182.705,200.129,182.831,199.836,182.965z"/>
		<path opacity="0.7" fill="#F7F5EF" enable-background="new    " d="M199.836,182.965c0.028-0.013,0.057-0.025,0.085-0.038
			c0.26-0.12,0.524-0.231,0.782-0.354c0.005-0.002,0.009-0.005,0.014-0.007C200.426,182.705,200.129,182.831,199.836,182.965z"/>
		<path fill="#379FEF" d="M207.421,178.884c0.007-0.004,0.014-0.009,0.021-0.013c0.294-0.184,0.585-0.373,0.876-0.561
			c0.012-0.008,0.023-0.015,0.035-0.023C208.043,178.488,207.734,178.689,207.421,178.884z"/>
		<path opacity="0.7" fill="#F7F5EF" enable-background="new    " d="M207.421,178.884c0.007-0.004,0.014-0.009,0.021-0.013
			c0.294-0.184,0.585-0.373,0.876-0.561c0.012-0.008,0.023-0.015,0.035-0.023C208.043,178.488,207.734,178.689,207.421,178.884z"/>
		<path fill="#379FEF" d="M196.957,184.204c0.029-0.012,0.058-0.022,0.086-0.033c0.223-0.09,0.45-0.172,0.672-0.265
			c0.005-0.002,0.01-0.005,0.015-0.007C197.475,184.005,197.214,184.1,196.957,184.204z"/>
		<path opacity="0.7" fill="#F7F5EF" enable-background="new    " d="M196.957,184.204c0.029-0.012,0.058-0.022,0.086-0.033
			c0.223-0.09,0.45-0.172,0.672-0.265c0.005-0.002,0.01-0.005,0.015-0.007C197.475,184.005,197.214,184.1,196.957,184.204z"/>
		<path fill="#379FEF" d="M224.347,163.814c0.002-0.003,0.004-0.005,0.007-0.008c0.009-0.011,0.018-0.023,0.027-0.035
			c0.007-0.009,0.013-0.017,0.02-0.026C224.383,163.768,224.365,163.791,224.347,163.814z"/>
		<path opacity="0.7" fill="#F7F5EF" enable-background="new    " d="M224.347,163.814c0.002-0.003,0.004-0.005,0.007-0.008
			c0.009-0.011,0.018-0.023,0.027-0.035c0.007-0.009,0.013-0.017,0.02-0.026C224.383,163.768,224.365,163.791,224.347,163.814z"/>
		<path fill="#379FEF" d="M229.657,156.147c0.002-0.003,0.003-0.006,0.005-0.008c0.286-0.482,0.565-0.97,0.839-1.46
			c0.003-0.006,0.006-0.012,0.01-0.017C230.232,155.16,229.949,155.656,229.657,156.147z"/>
		<path opacity="0.7" fill="#F7F5EF" enable-background="new    " d="M229.657,156.147c0.002-0.003,0.003-0.006,0.005-0.008
			c0.286-0.482,0.565-0.97,0.839-1.46c0.003-0.006,0.006-0.012,0.01-0.017C230.232,155.16,229.949,155.656,229.657,156.147z"/>
		<path fill="#379FEF" d="M232.527,150.788c0-0.001,0.001-0.002,0.002-0.003c0.21-0.441,0.403-0.89,0.604-1.336
			c0.003-0.006,0.005-0.011,0.007-0.017C232.936,149.885,232.74,150.341,232.527,150.788z"/>
		<path opacity="0.7" fill="#F7F5EF" enable-background="new    " d="M232.527,150.788c0-0.001,0.001-0.002,0.002-0.003
			c0.21-0.441,0.403-0.89,0.604-1.336c0.003-0.006,0.005-0.011,0.007-0.017C232.936,149.885,232.74,150.341,232.527,150.788z"/>
		<path fill="#379FEF" d="M231.056,153.688c0.001-0.002,0.002-0.003,0.003-0.005c0.201-0.374,0.388-0.758,0.582-1.137
			c0.004-0.008,0.008-0.016,0.012-0.024C231.454,152.911,231.263,153.304,231.056,153.688z"/>
		<path opacity="0.7" fill="#F7F5EF" enable-background="new    " d="M231.056,153.688c0.001-0.002,0.002-0.003,0.003-0.005
			c0.201-0.374,0.388-0.758,0.582-1.137c0.004-0.008,0.008-0.016,0.012-0.024C231.454,152.911,231.263,153.304,231.056,153.688z"/>
		<path fill="#379FEF" d="M235.064,144.713c0-0.001,0-0.001,0.001-0.002c0.107-0.295,0.2-0.597,0.302-0.894
			c0.001-0.004,0.002-0.007,0.004-0.011C235.266,144.108,235.172,144.414,235.064,144.713z"/>
		<path opacity="0.7" fill="#F7F5EF" enable-background="new    " d="M235.064,144.713c0-0.001,0-0.001,0.001-0.002
			c0.107-0.295,0.2-0.597,0.302-0.894c0.001-0.004,0.002-0.007,0.004-0.011C235.266,144.108,235.172,144.414,235.064,144.713z"/>
		<path fill="#379FEF" d="M204.836,180.417c0.014-0.008,0.029-0.016,0.043-0.024c0.39-0.22,0.779-0.441,1.164-0.669
			c0.007-0.004,0.013-0.008,0.02-0.012C205.657,179.952,205.247,180.185,204.836,180.417z"/>
		<path opacity="0.7" fill="#F7F5EF" enable-background="new    " d="M204.836,180.417c0.014-0.008,0.029-0.016,0.043-0.024
			c0.39-0.22,0.779-0.441,1.164-0.669c0.007-0.004,0.013-0.008,0.02-0.012C205.657,179.952,205.247,180.185,204.836,180.417z"/>
		<path fill="#379FEF" d="M236.117,141.545c0-0.001,0-0.001,0.001-0.002c0.047-0.153,0.086-0.309,0.131-0.463
			c0.001-0.003,0.002-0.006,0.003-0.009C236.205,141.228,236.165,141.388,236.117,141.545z"/>
		<path opacity="0.7" fill="#F7F5EF" enable-background="new    " d="M236.117,141.545c0-0.001,0-0.001,0.001-0.002
			c0.047-0.153,0.086-0.309,0.131-0.463c0.001-0.003,0.002-0.006,0.003-0.009C236.205,141.228,236.165,141.388,236.117,141.545z"/>
		<path fill="#379FEF" d="M228.21,158.464c0.003-0.005,0.007-0.01,0.01-0.015c0.232-0.357,0.465-0.715,0.69-1.077
			c0.002-0.003,0.004-0.007,0.006-0.01C228.686,157.733,228.448,158.099,228.21,158.464z"/>
		<path opacity="0.7" fill="#F7F5EF" enable-background="new    " d="M228.21,158.464c0.003-0.005,0.007-0.01,0.01-0.015
			c0.232-0.357,0.465-0.715,0.69-1.077c0.002-0.003,0.004-0.007,0.006-0.01C228.686,157.733,228.448,158.099,228.21,158.464z"/>
		<path fill="#379FEF" d="M202.915,181.459c0.027-0.014,0.055-0.027,0.082-0.042c0.198-0.104,0.401-0.2,0.598-0.306
			c0.005-0.003,0.009-0.005,0.014-0.008C203.381,181.226,203.146,181.339,202.915,181.459z"/>
		<path opacity="0.7" fill="#F7F5EF" enable-background="new    " d="M202.915,181.459c0.027-0.014,0.055-0.027,0.082-0.042
			c0.198-0.104,0.401-0.2,0.598-0.306c0.005-0.003,0.009-0.005,0.014-0.008C203.381,181.226,203.146,181.339,202.915,181.459z"/>
		<path fill="#379FEF" d="M233.857,147.815c0-0.001,0.001-0.001,0.001-0.002c0.166-0.398,0.316-0.803,0.475-1.205
			c0.002-0.004,0.003-0.008,0.005-0.012C234.177,147.002,234.025,147.412,233.857,147.815z"/>
		<path opacity="0.7" fill="#F7F5EF" enable-background="new    " d="M233.857,147.815c0-0.001,0.001-0.001,0.001-0.002
			c0.166-0.398,0.316-0.803,0.475-1.205c0.002-0.004,0.003-0.008,0.005-0.012C234.177,147.002,234.025,147.412,233.857,147.815z"/>
		<path fill="#379FEF" d="M236.117,141.545c0.048-0.157,0.088-0.317,0.135-0.474c0.888-3,1.575-6.068,2.037-9.192
			c0.146-0.988,0.264-1.983,0.366-2.981c0.004-0.042,0.011-0.084,0.016-0.127c0.096-0.957,0.164-1.92,0.22-2.885
			c0.01-0.18,0.03-0.357,0.039-0.537c0.054-1.094,0.082-2.192,0.083-3.294c0-0.041,0.003-0.081,0.003-0.122
			c-0.006-0.04-0.008-0.079-0.008-0.119c-0.002-1.103-0.029-2.203-0.084-3.297c-0.009-0.179-0.029-0.356-0.039-0.536
			c-0.056-0.965-0.124-1.929-0.22-2.886c-0.004-0.042-0.011-0.084-0.016-0.127c-0.097-0.943-0.219-1.88-0.354-2.815
			c-0.018-0.123-0.039-0.245-0.058-0.368c-0.129-0.857-0.276-1.709-0.437-2.558c-0.01-0.052-0.02-0.104-0.031-0.157
			c-0.613-3.177-1.452-6.29-2.509-9.324c-0.045-0.129-0.09-0.259-0.136-0.388c-0.303-0.852-0.627-1.696-0.965-2.535
			c-0.206-0.508-0.418-1.012-0.636-1.514c-0.237-0.544-0.471-1.089-0.721-1.627c-0.233-0.5-0.479-0.993-0.723-1.486
			c-0.18-0.362-0.359-0.725-0.546-1.084c-0.297-0.572-0.599-1.142-0.911-1.704c-0.062-0.111-0.124-0.222-0.186-0.332
			c-0.348-0.618-0.706-1.229-1.073-1.835c-0.077-0.127-0.154-0.255-0.232-0.382c-0.35-0.569-0.71-1.131-1.076-1.689
			c-0.111-0.168-0.221-0.337-0.333-0.504c-0.327-0.489-0.663-0.971-1.003-1.45c-0.1-0.141-0.201-0.282-0.302-0.422l-6.56,6.56
			c0.043,0.062,0.089,0.122,0.131,0.185c6.258,9.256,9.916,20.408,9.916,32.397c0,8.54-1.871,16.646-5.2,23.954
			c-0.376,0.826-0.771,1.64-1.184,2.445c-0.39,0.759-0.796,1.509-1.218,2.248c-0.73,1.278-1.493,2.535-2.314,3.75
			c-0.814,1.203-1.684,2.364-2.583,3.5c-0.83,1.05-1.683,2.081-2.582,3.069c-0.624,0.687-1.265,1.359-1.921,2.015
			c-0.602,0.602-1.22,1.187-1.848,1.763c-0.201,0.184-0.407,0.362-0.61,0.543c-0.439,0.392-0.884,0.778-1.335,1.156
			c-0.235,0.197-0.472,0.392-0.71,0.585c-0.449,0.364-0.904,0.721-1.364,1.072c-0.228,0.174-0.453,0.35-0.684,0.52
			c-0.555,0.412-1.12,0.812-1.69,1.204c-0.137,0.094-0.271,0.194-0.41,0.287c-0.707,0.476-1.425,0.936-2.153,1.381
			c-0.205,0.126-0.415,0.244-0.622,0.367c-0.534,0.318-1.072,0.63-1.617,0.931c-0.266,0.147-0.536,0.29-0.804,0.433
			c-0.507,0.27-1.019,0.532-1.535,0.787c-0.273,0.135-0.545,0.27-0.82,0.4c-0.571,0.271-1.149,0.531-1.73,0.784
			c-0.215,0.093-0.427,0.192-0.642,0.283c-0.798,0.335-1.604,0.655-2.419,0.955c-0.152,0.056-0.308,0.105-0.46,0.16
			c-0.667,0.239-1.338,0.469-2.016,0.684c-0.279,0.088-0.561,0.17-0.842,0.255c-0.568,0.171-1.139,0.334-1.713,0.488
			c-0.302,0.081-0.605,0.16-0.91,0.236c-0.593,0.148-1.19,0.284-1.789,0.414c-0.272,0.059-0.542,0.122-0.815,0.177
			c-0.868,0.174-1.741,0.334-2.622,0.469c-1.18,0.181-2.375,0.313-3.577,0.421c-1.728,0.156-3.473,0.248-5.241,0.248
			c-2.511,0-4.553,2.043-4.553,4.554c0,2.511,2.043,4.553,4.553,4.553c0,0,0,0,0.001,0c0.163,0,0.324-0.011,0.487-0.012
			c0.978-0.007,1.953-0.026,2.92-0.074c0.225-0.011,0.447-0.036,0.671-0.049c0.528-0.031,1.055-0.072,1.58-0.116
			c0.334-0.028,0.672-0.041,1.005-0.074c0.056-0.005,0.111-0.015,0.167-0.021c0.07-0.007,0.139-0.018,0.208-0.025
			c1.046-0.109,2.083-0.247,3.114-0.404c0.49-0.074,0.976-0.167,1.464-0.252c0.525-0.092,1.051-0.182,1.572-0.286
			c0.195-0.039,0.393-0.066,0.588-0.107c0.618-0.128,1.229-0.278,1.843-0.422c0.032-0.008,0.064-0.014,0.097-0.022
			c1.287-0.304,2.567-0.631,3.829-1.013c0.931-0.282,1.852-0.591,2.767-0.913c0.13-0.046,0.263-0.086,0.393-0.133
			c0.783-0.281,1.557-0.586,2.328-0.897c0.257-0.103,0.518-0.198,0.773-0.305c0.708-0.296,1.408-0.612,2.105-0.934
			c0.293-0.134,0.59-0.26,0.881-0.398c0.741-0.353,1.471-0.727,2.198-1.108c0.231-0.12,0.466-0.233,0.694-0.356
			c0.412-0.221,0.818-0.456,1.226-0.686c0.411-0.232,0.821-0.465,1.227-0.705c0.456-0.27,0.909-0.546,1.359-0.827
			c0.313-0.196,0.622-0.397,0.932-0.597c3.928-2.55,7.622-5.525,11.012-8.915c1.774-1.774,3.435-3.629,4.982-5.558
			c0.018-0.023,0.036-0.046,0.054-0.068c1.363-1.704,2.628-3.469,3.81-5.281c0.238-0.366,0.475-0.731,0.706-1.102
			c0.252-0.403,0.498-0.808,0.741-1.216c0.291-0.491,0.575-0.987,0.854-1.485c0.182-0.324,0.369-0.646,0.545-0.974
			c0.207-0.384,0.398-0.777,0.597-1.166c0.297-0.575,0.595-1.15,0.873-1.734c0.213-0.447,0.409-0.904,0.613-1.356
			c0.244-0.537,0.489-1.074,0.717-1.618c0.168-0.402,0.32-0.813,0.481-1.219c0.249-0.625,0.498-1.25,0.726-1.883
			c0.108-0.299,0.203-0.605,0.307-0.907C235.628,143.056,235.886,142.305,236.117,141.545z"/>
		<path fill="#359BE8" d="M236.117,141.545c0.048-0.157,0.088-0.317,0.135-0.474c0.888-3,1.575-6.068,2.037-9.192
			c0.146-0.988,0.264-1.983,0.366-2.981c0.004-0.042,0.011-0.084,0.016-0.127c0.096-0.957,0.164-1.92,0.22-2.885
			c0.01-0.18,0.03-0.357,0.039-0.537c0.054-1.094,0.082-2.192,0.083-3.294c0-0.041,0.003-0.081,0.003-0.122
			c-0.006-0.04-0.008-0.079-0.008-0.119c-0.002-1.103-0.029-2.203-0.084-3.297c-0.009-0.179-0.029-0.356-0.039-0.536
			c-0.056-0.965-0.124-1.929-0.22-2.886c-0.004-0.042-0.011-0.084-0.016-0.127c-0.097-0.943-0.219-1.88-0.354-2.815
			c-0.018-0.123-0.039-0.245-0.058-0.368c-0.129-0.857-0.276-1.709-0.437-2.558c-0.01-0.052-0.02-0.104-0.031-0.157
			c-0.613-3.177-1.452-6.29-2.509-9.324c-0.045-0.129-0.09-0.259-0.136-0.388c-0.303-0.852-0.627-1.696-0.965-2.535
			c-0.206-0.508-0.418-1.012-0.636-1.514c-0.237-0.544-0.471-1.089-0.721-1.627c-0.233-0.5-0.479-0.993-0.723-1.486
			c-0.18-0.362-0.359-0.725-0.546-1.084c-0.297-0.572-0.599-1.142-0.911-1.704c-0.062-0.111-0.124-0.222-0.186-0.332
			c-0.348-0.618-0.706-1.229-1.073-1.835c-0.077-0.127-0.154-0.255-0.232-0.382c-0.35-0.569-0.71-1.131-1.076-1.689
			c-0.111-0.168-0.221-0.337-0.333-0.504c-0.327-0.489-0.663-0.971-1.003-1.45c-0.1-0.141-0.201-0.282-0.302-0.422l-6.56,6.56
			c0.043,0.062,0.089,0.122,0.131,0.185c6.258,9.256,9.916,20.408,9.916,32.397c0,8.54-1.871,16.646-5.2,23.954
			c-0.376,0.826-0.771,1.64-1.184,2.445c-0.39,0.759-0.796,1.509-1.218,2.248c-0.73,1.278-1.493,2.535-2.314,3.75
			c-0.814,1.203-1.684,2.364-2.583,3.5c-0.83,1.05-1.683,2.081-2.582,3.069c-0.624,0.687-1.265,1.359-1.921,2.015
			c-0.602,0.602-1.22,1.187-1.848,1.763c-0.201,0.184-0.407,0.362-0.61,0.543c-0.439,0.392-0.884,0.778-1.335,1.156
			c-0.235,0.197-0.472,0.392-0.71,0.585c-0.449,0.364-0.904,0.721-1.364,1.072c-0.228,0.174-0.453,0.35-0.684,0.52
			c-0.555,0.412-1.12,0.812-1.69,1.204c-0.137,0.094-0.271,0.194-0.41,0.287c-0.707,0.476-1.425,0.936-2.153,1.381
			c-0.205,0.126-0.415,0.244-0.622,0.367c-0.534,0.318-1.072,0.63-1.617,0.931c-0.266,0.147-0.536,0.29-0.804,0.433
			c-0.507,0.27-1.019,0.532-1.535,0.787c-0.273,0.135-0.545,0.27-0.82,0.4c-0.571,0.271-1.149,0.531-1.73,0.784
			c-0.215,0.093-0.427,0.192-0.642,0.283c-0.798,0.335-1.604,0.655-2.419,0.955c-0.152,0.056-0.308,0.105-0.46,0.16
			c-0.667,0.239-1.338,0.469-2.016,0.684c-0.279,0.088-0.561,0.17-0.842,0.255c-0.568,0.171-1.139,0.334-1.713,0.488
			c-0.302,0.081-0.605,0.16-0.91,0.236c-0.593,0.148-1.19,0.284-1.789,0.414c-0.272,0.059-0.542,0.122-0.815,0.177
			c-0.868,0.174-1.741,0.334-2.622,0.469c-1.18,0.181-2.375,0.313-3.577,0.421c-1.728,0.156-3.473,0.248-5.241,0.248
			c-2.511,0-4.553,2.043-4.553,4.554c0,2.511,2.043,4.553,4.553,4.553c0,0,0,0,0.001,0c0.163,0,0.324-0.011,0.487-0.012
			c0.978-0.007,1.953-0.026,2.92-0.074c0.225-0.011,0.447-0.036,0.671-0.049c0.528-0.031,1.055-0.072,1.58-0.116
			c0.334-0.028,0.672-0.041,1.005-0.074c0.056-0.005,0.111-0.015,0.167-0.021c0.07-0.007,0.139-0.018,0.208-0.025
			c1.046-0.109,2.083-0.247,3.114-0.404c0.49-0.074,0.976-0.167,1.464-0.252c0.525-0.092,1.051-0.182,1.572-0.286
			c0.195-0.039,0.393-0.066,0.588-0.107c0.618-0.128,1.229-0.278,1.843-0.422c0.032-0.008,0.064-0.014,0.097-0.022
			c1.287-0.304,2.567-0.631,3.829-1.013c0.931-0.282,1.852-0.591,2.767-0.913c0.13-0.046,0.263-0.086,0.393-0.133
			c0.783-0.281,1.557-0.586,2.328-0.897c0.257-0.103,0.518-0.198,0.773-0.305c0.708-0.296,1.408-0.612,2.105-0.934
			c0.293-0.134,0.59-0.26,0.881-0.398c0.741-0.353,1.471-0.727,2.198-1.108c0.231-0.12,0.466-0.233,0.694-0.356
			c0.412-0.221,0.818-0.456,1.226-0.686c0.411-0.232,0.821-0.465,1.227-0.705c0.456-0.27,0.909-0.546,1.359-0.827
			c0.313-0.196,0.622-0.397,0.932-0.597c3.928-2.55,7.622-5.525,11.012-8.915c1.774-1.774,3.435-3.629,4.982-5.558
			c0.018-0.023,0.036-0.046,0.054-0.068c1.363-1.704,2.628-3.469,3.81-5.281c0.238-0.366,0.475-0.731,0.706-1.102
			c0.252-0.403,0.498-0.808,0.741-1.216c0.291-0.491,0.575-0.987,0.854-1.485c0.182-0.324,0.369-0.646,0.545-0.974
			c0.207-0.384,0.398-0.777,0.597-1.166c0.297-0.575,0.595-1.15,0.873-1.734c0.213-0.447,0.409-0.904,0.613-1.356
			c0.244-0.537,0.489-1.074,0.717-1.618c0.168-0.402,0.32-0.813,0.481-1.219c0.249-0.625,0.498-1.25,0.726-1.883
			c0.108-0.299,0.203-0.605,0.307-0.907C235.628,143.056,235.886,142.305,236.117,141.545z"/>
	</g>
</g>
</svg>
