<?xml version="1.0" encoding="utf-8"?>
<!-- Generator: Adobe Illustrator 17.0.0, SVG Export Plug-In . SVG Version: 6.00 Build 0)  -->
<!DOCTYPE svg PUBLIC "-//W3C//DTD SVG 1.1//EN" "http://www.w3.org/Graphics/SVG/1.1/DTD/svg11.dtd">
<svg version="1.1" id="Layer_1" xmlns="http://www.w3.org/2000/svg" xmlns:xlink="http://www.w3.org/1999/xlink" x="0px" y="0px"
	 width="177.966px" height="152.198px" viewBox="0 0 177.966 152.198" enable-background="new 0 0 177.966 152.198"
	 xml:space="preserve">
<g>
	<circle fill="#F7F5EF" cx="88.983" cy="76.099" r="76.099"/>
	<g>
		<g>
			<g>
				<path fill="#FFD349" d="M131.775,66.783c0,4.221-3.782,7.643-8.448,7.643H54.639c-4.666,0-8.448-3.422-8.448-7.643V28.74
					c0-4.221,3.782-7.643,8.448-7.643h68.688c4.666,0,8.448,3.422,8.448,7.643V66.783z"/>
			</g>
			<g>
				<path fill="#FFC20E" d="M70.513,63.573c0,3.77-3.378,6.827-7.545,6.827H58.83c-4.167,0-7.545-3.056-7.545-6.827l0,0
					c0-3.77,3.378-6.827,7.545-6.827h4.138C67.135,56.746,70.513,59.802,70.513,63.573L70.513,63.573z"/>
			</g>
			<g>
				<rect x="76.593" y="57.782" fill="#FCDD71" width="26.982" height="2.194"/>
				<rect x="107.761" y="57.782" fill="#FCDD71" width="12.378" height="2.194"/>
			</g>
			<rect x="76.593" y="67.702" fill="#FCDD71" width="29.494" height="2.194"/>
			<g>
				<rect x="76.593" y="62.742" fill="#FCDD71" width="20.247" height="2.194"/>
				<rect x="101.754" y="62.742" fill="#FCDD71" width="9.283" height="2.194"/>
				<rect x="115.353" y="62.742" fill="#FCDD71" width="5.595" height="2.194"/>
			</g>
			<g>
				<path fill="#EDB100" d="M131.435,26.606H46.532c-0.218,0.678-0.34,1.392-0.34,2.133v8.217h85.584V28.74
					C131.775,27.998,131.652,27.284,131.435,26.606z"/>
			</g>
			<rect x="50.635" y="41.063" fill="#FFC20E" width="64.564" height="10.35"/>
			<rect x="116.513" y="41.063" fill="#FFC20E" width="11.5" height="10.35"/>
		</g>
		<g>
			<g>
				<g>
					<path fill="#98D542" d="M177.966,84.859c0,4.002-3.586,7.246-8.009,7.246H104.84c-4.423,0-8.009-3.244-8.009-7.246V48.793
						c0-4.002,3.586-7.246,8.009-7.246h65.118c4.423,0,8.009,3.244,8.009,7.246V84.859z"/>
				</g>
				<rect x="129.744" y="81.317" fill="#A9E075" width="40.886" height="2.588"/>
				<g>
					<path fill="#6EB50A" d="M177.644,46.77h-80.49c-0.206,0.643-0.323,1.32-0.323,2.023v7.79h81.135v-7.79
						C177.966,48.09,177.85,47.413,177.644,46.77z"/>
				</g>
				<rect x="101.043" y="60.476" fill="#D5F0BB" width="12.962" height="9.812"/>
				<rect x="115.981" y="60.476" fill="#D5F0BB" width="12.962" height="9.812"/>
				<rect x="130.918" y="60.476" fill="#D5F0BB" width="12.962" height="9.812"/>
				<rect x="145.855" y="60.476" fill="#D5F0BB" width="12.962" height="9.812"/>
				<rect x="163.497" y="60.476" fill="#85C72A" width="10.902" height="9.812"/>
			</g>
			<g>
				<g>
					<path fill="#FC6653" d="M81.136,84.859c0,4.002-3.586,7.246-8.009,7.246H8.009C3.586,92.105,0,88.861,0,84.859V48.793
						c0-4.002,3.586-7.246,8.009-7.246h65.118c4.423,0,8.009,3.244,8.009,7.246V84.859z"/>
				</g>
				<g>
					<path fill="#F3EDDC" d="M74.499,56.209c0,0.317-0.284,0.574-0.634,0.574H60.295c-0.35,0-0.634-0.257-0.634-0.574v-8.567
						c0-0.317,0.284-0.574,0.634-0.574h13.571c0.35,0,0.634,0.257,0.634,0.574V56.209z"/>
				</g>
				<g>
					<rect x="7.484" y="76.922" fill="#FF9973" width="12.574" height="2.269"/>
					<g>
						<rect x="7.484" y="69.479" fill="#FF9973" width="12.076" height="2.269"/>
						<rect x="24.719" y="69.479" fill="#FF9973" width="12.076" height="2.269"/>
						<rect x="41.954" y="69.479" fill="#FF9973" width="12.076" height="2.269"/>
						<rect x="59.189" y="69.479" fill="#FF9973" width="12.076" height="2.269"/>
					</g>
					<rect x="7.484" y="82.752" fill="#FF9973" width="24.023" height="2.269"/>
				</g>
				<g>
					<path fill="#FFD349" d="M31.078,54.478c0,3.899-3.493,7.059-7.802,7.059h-9.127c-4.309,0-7.802-3.16-7.802-7.059l0,0
						c0-3.899,3.493-7.059,7.802-7.059h9.127C27.585,47.419,31.078,50.58,31.078,54.478L31.078,54.478z"/>
				</g>
				<g>
					<rect x="62.335" y="50.7" fill="#EBD8AD" width="9.58" height="0.517"/>
					<rect x="62.335" y="54.533" fill="#EBD8AD" width="9.58" height="0.517"/>
					<rect x="64.055" y="48.784" fill="#EBD8AD" width="6.141" height="0.517"/>
					<rect x="64.055" y="52.617" fill="#EBD8AD" width="6.141" height="0.517"/>
				</g>
			</g>
		</g>
		<g>
			<g>
				<path fill="#3F47E1" d="M147.853,128.721c0,5.807-5.203,10.515-11.622,10.515H41.735c-6.419,0-11.622-4.708-11.622-10.515
					V76.383c0-5.807,5.203-10.515,11.622-10.515h94.495c6.419,0,11.622,4.708,11.622,10.515V128.721z"/>
			</g>
			<g>
				<path fill="#F7F5EF" d="M58.097,100.204c0,0.529-0.474,0.957-1.058,0.957H42.031c-0.584,0-1.058-0.429-1.058-0.957V85.909
					c0-0.529,0.474-0.957,1.058-0.957h15.008c0.584,0,1.058,0.429,1.058,0.957V100.204z"/>
			</g>
			<g>
				<path fill="#379FEF" d="M141.655,130.994c0,0.633-0.567,1.146-1.267,1.146h-23.165c-0.7,0-1.267-0.513-1.267-1.146v-13.66
					c0-0.633,0.567-1.146,1.267-1.146h23.165c0.7,0,1.267,0.513,1.267,1.146V130.994z"/>
			</g>
			<g>
				<path fill="#F7F5EF" d="M138.842,127.917c0,0.526-0.472,0.953-1.053,0.953h-15.916c-0.582,0-1.053-0.427-1.053-0.953v-6.788
					c0-0.526,0.472-0.953,1.053-0.953h15.916c0.582,0,1.053,0.427,1.053,0.953V127.917z"/>
			</g>
			<g>
				<path fill="#FFD349" d="M127.248,123.105c0,0.749-0.671,1.357-1.5,1.357h-5.794c-0.828,0-1.5-0.608-1.5-1.357v-3.56
					c0-0.749,0.671-1.357,1.5-1.357h5.794c0.828,0,1.5,0.608,1.5,1.357V123.105z"/>
			</g>
			<rect x="40.973" y="117.636" fill="#379FEF" width="4.808" height="2.425"/>
			<rect x="48.591" y="117.636" fill="#379FEF" width="10.629" height="2.425"/>
			<rect x="68.128" y="117.636" fill="#379FEF" width="4.808" height="2.425"/>
			<rect x="75.307" y="117.636" fill="#379FEF" width="10.629" height="2.425"/>
			<g>
				<rect x="40.973" y="106.836" fill="#379FEF" width="17.524" height="2.425"/>
				<rect x="65.983" y="106.836" fill="#379FEF" width="17.524" height="2.425"/>
				<rect x="90.994" y="106.836" fill="#379FEF" width="17.524" height="2.425"/>
				<rect x="116.004" y="106.836" fill="#379FEF" width="17.524" height="2.425"/>
			</g>
			<rect x="40.973" y="126.097" fill="#379FEF" width="34.86" height="2.425"/>
			<g>
				
					<rect x="49.153" y="85.143" transform="matrix(0.707 0.7072 -0.7072 0.707 80.317 -7.8291)" fill="#FFFFFF" width="0.909" height="15.761"/>
				
					<rect x="46.724" y="85.543" transform="matrix(0.707 0.7072 -0.7072 0.707 77.8876 -6.823)" fill="#FFFFFF" width="0.909" height="10.104"/>
				
					<rect x="51.582" y="90.401" transform="matrix(0.707 0.7072 -0.7072 0.707 82.7463 -8.8352)" fill="#FFFFFF" width="0.909" height="10.103"/>
			</g>
		</g>
	</g>
</g>
</svg>
