<?xml version="1.0" encoding="utf-8"?>
<!-- Generator: Adobe Illustrator 17.0.0, SVG Export Plug-In . SVG Version: 6.00 Build 0)  -->
<!DOCTYPE svg PUBLIC "-//W3C//DTD SVG 1.1//EN" "http://www.w3.org/Graphics/SVG/1.1/DTD/svg11.dtd">
<svg version="1.1" id="Layer_1" xmlns="http://www.w3.org/2000/svg" xmlns:xlink="http://www.w3.org/1999/xlink" x="0px" y="0px"
	 width="204.761px" height="179.547px" viewBox="0 0 204.761 179.547" enable-background="new 0 0 204.761 179.547"
	 xml:space="preserve">
<g>
	<g>
		<g>
			<path fill="#FEC29B" d="M204.761,3.107c0-1.716-1.391-3.107-3.107-3.107H3.107C1.391,0,0,1.391,0,3.107V167.34h204.761V3.107z"/>
			<g>
				<circle fill="#FE9F60" cx="11.196" cy="11.428" r="2.483"/>
				<circle fill="#FE9F60" cx="22.306" cy="11.428" r="2.483"/>
				<circle fill="#FE9F60" cx="33.415" cy="11.428" r="2.483"/>
			</g>
		</g>
		<g>
			<g>
				<g>
					<rect x="5.976" y="23.155" fill="#FE9F60" width="192.835" height="137.407"/>
				</g>
			</g>
		</g>
	</g>
	<g>
		<g>
			<rect x="119.956" y="73.243" fill="#F79756" width="67.477" height="34.207"/>
		</g>
		<g>
			<rect x="119.956" y="31.808" fill="#F79756" width="67.477" height="34.207"/>
		</g>
		<g>
			<rect x="119.956" y="114.677" fill="#F79756" width="67.477" height="34.207"/>
		</g>
		<g>
			<g>
				<rect x="121.956" y="116.677" fill="#FEDFCB" width="67.477" height="34.207"/>
			</g>
			<g>
				<circle opacity="0.4" fill="#FE9F60" enable-background="new    " cx="187.586" cy="118.774" r="0.456"/>
				<circle opacity="0.4" fill="#FE9F60" enable-background="new    " cx="187.586" cy="120.372" r="0.456"/>
				<circle opacity="0.4" fill="#FE9F60" enable-background="new    " cx="187.586" cy="121.97" r="0.456"/>
			</g>
			<rect x="121.956" y="139.638" opacity="0.8" fill="#FE9F60" enable-background="new    " width="67.477" height="11.246"/>
			<rect x="168.346" y="139.638" opacity="0.5" fill="#FFFFFF" enable-background="new    " width="21.087" height="5.623"/>
			<rect x="168.346" y="145.261" opacity="0.3" fill="#FFFFFF" enable-background="new    " width="21.087" height="5.623"/>
			<path fill="#FE9F60" d="M172.898,124.463h-28.417c-0.328,0-0.594-0.266-0.594-0.594s0.266-0.594,0.594-0.594h28.417
				c0.328,0,0.594,0.266,0.594,0.594S173.226,124.463,172.898,124.463z"/>
			<path fill="#F7F5EF" d="M161.47,146.047h-32.544c-0.328,0-0.594-0.266-0.594-0.594s0.266-0.594,0.594-0.594h32.544
				c0.328,0,0.594,0.266,0.594,0.594S161.798,146.047,161.47,146.047z"/>
			<path fill="#FE9F60" d="M156.233,128.59h-11.752c-0.328,0-0.594-0.266-0.594-0.593c0-0.328,0.266-0.594,0.594-0.594h11.752
				c0.328,0,0.594,0.266,0.594,0.594C156.826,128.325,156.56,128.59,156.233,128.59z"/>
			<path fill="#FE9F60" d="M184.961,142.675h-11.752c-0.219,0-0.396-0.177-0.396-0.396s0.177-0.396,0.396-0.396h11.752
				c0.219,0,0.396,0.177,0.396,0.396S185.179,142.675,184.961,142.675z"/>
			<path fill="#FE9F60" d="M185.984,148.375h-13.798c-0.219,0-0.396-0.177-0.396-0.396s0.177-0.396,0.396-0.396h13.798
				c0.219,0,0.396,0.177,0.396,0.396S186.202,148.375,185.984,148.375z"/>
			<path fill="#FE9F60" d="M163.216,132.445H144.48c-0.219,0-0.396-0.177-0.396-0.396s0.177-0.396,0.396-0.396h18.736
				c0.219,0,0.396,0.177,0.396,0.396S163.435,132.445,163.216,132.445z"/>
			<circle fill="#FE9F60" cx="133.47" cy="127.733" r="6.396"/>
		</g>
		<g>
			<g>
				<rect x="121.956" y="75.243" fill="#FEDFCB" width="67.477" height="34.207"/>
			</g>
			<g>
				<circle opacity="0.4" fill="#FE9F60" enable-background="new    " cx="187.586" cy="77.339" r="0.456"/>
				<circle opacity="0.4" fill="#FE9F60" enable-background="new    " cx="187.586" cy="78.937" r="0.456"/>
				<circle opacity="0.4" fill="#FE9F60" enable-background="new    " cx="187.586" cy="80.535" r="0.456"/>
			</g>
			<rect x="121.956" y="98.204" opacity="0.8" fill="#FE9F60" enable-background="new    " width="67.477" height="11.246"/>
			<rect x="168.346" y="98.204" opacity="0.5" fill="#FFFFFF" enable-background="new    " width="21.087" height="5.623"/>
			<rect x="168.346" y="103.827" opacity="0.3" fill="#FFFFFF" enable-background="new    " width="21.087" height="5.623"/>
			<path fill="#FE9F60" d="M172.898,83.029h-28.417c-0.328,0-0.594-0.266-0.594-0.594s0.266-0.594,0.594-0.594h28.417
				c0.328,0,0.594,0.266,0.594,0.594S173.226,83.029,172.898,83.029z"/>
			<path fill="#F7F5EF" d="M161.47,104.612h-32.544c-0.328,0-0.594-0.266-0.594-0.594s0.266-0.594,0.594-0.594h32.544
				c0.328,0,0.594,0.266,0.594,0.594S161.798,104.612,161.47,104.612z"/>
			<path fill="#FE9F60" d="M156.233,87.156h-11.752c-0.328,0-0.594-0.266-0.594-0.594s0.266-0.594,0.594-0.594h11.752
				c0.328,0,0.594,0.266,0.594,0.594S156.56,87.156,156.233,87.156z"/>
			<path fill="#FE9F60" d="M184.961,101.24h-11.752c-0.219,0-0.396-0.177-0.396-0.396s0.177-0.396,0.396-0.396h11.752
				c0.219,0,0.396,0.177,0.396,0.396S185.179,101.24,184.961,101.24z"/>
			<path fill="#FE9F60" d="M185.984,106.94h-13.798c-0.219,0-0.396-0.177-0.396-0.396s0.177-0.396,0.396-0.396h13.798
				c0.219,0,0.396,0.177,0.396,0.396S186.202,106.94,185.984,106.94z"/>
			<path fill="#FE9F60" d="M163.216,91.011H144.48c-0.219,0-0.396-0.177-0.396-0.396s0.177-0.396,0.396-0.396h18.736
				c0.219,0,0.396,0.177,0.396,0.396S163.435,91.011,163.216,91.011z"/>
			<g>
				<g>
					<path fill="#FE9F60" d="M138.864,82.521l-4.645-2.682c-0.399-0.231-0.916-0.231-1.315,0l-4.645,2.682
						c-0.405,0.234-0.657,0.67-0.657,1.139v5.364c0,0.468,0.252,0.904,0.657,1.139l1.097,0.634l0.38,0.219l3.168,1.829
						c0.199,0.115,0.427,0.176,0.657,0.176c0.231,0,0.458-0.061,0.657-0.176l3.163-1.826l0.377-0.218l1.104-0.638
						c0.405-0.234,0.657-0.67,0.657-1.139V83.66C139.521,83.191,139.27,82.755,138.864,82.521z"/>
				</g>
			</g>
		</g>
		<g>
			<g>
				<rect x="121.956" y="33.808" fill="#FEDFCB" width="67.477" height="34.207"/>
			</g>
			<g opacity="0.4">
				<circle fill="#FE9F60" cx="187.586" cy="35.905" r="0.456"/>
				<circle fill="#FE9F60" cx="187.586" cy="37.503" r="0.456"/>
				<circle fill="#FE9F60" cx="187.586" cy="39.101" r="0.456"/>
			</g>
			<rect x="121.956" y="56.769" opacity="0.8" fill="#FE9F60" enable-background="new    " width="67.477" height="11.246"/>
			<rect x="168.346" y="56.769" opacity="0.5" fill="#FFFFFF" enable-background="new    " width="21.087" height="5.623"/>
			<rect x="168.346" y="62.392" opacity="0.3" fill="#FFFFFF" enable-background="new    " width="21.087" height="5.623"/>
			<path fill="#FE9F60" d="M172.898,41.594h-28.417c-0.328,0-0.594-0.266-0.594-0.594s0.266-0.594,0.594-0.594h28.417
				c0.328,0,0.594,0.266,0.594,0.594S173.226,41.594,172.898,41.594z"/>
			<path fill="#F7F5EF" d="M161.47,63.178h-32.544c-0.328,0-0.594-0.266-0.594-0.594s0.266-0.594,0.594-0.594h32.544
				c0.328,0,0.594,0.266,0.594,0.594S161.798,63.178,161.47,63.178z"/>
			<path fill="#FE9F60" d="M156.233,45.721h-11.752c-0.328,0-0.594-0.266-0.594-0.594s0.266-0.594,0.594-0.594h11.752
				c0.328,0,0.594,0.266,0.594,0.594S156.56,45.721,156.233,45.721z"/>
			<path fill="#FE9F60" d="M184.961,59.806h-11.752c-0.219,0-0.396-0.177-0.396-0.396s0.177-0.396,0.396-0.396h11.752
				c0.219,0,0.396,0.177,0.396,0.396S185.179,59.806,184.961,59.806z"/>
			<path fill="#FE9F60" d="M185.984,65.505h-13.798c-0.219,0-0.396-0.177-0.396-0.396s0.177-0.396,0.396-0.396h13.798
				c0.219,0,0.396,0.177,0.396,0.396S186.202,65.505,185.984,65.505z"/>
			<path fill="#FE9F60" d="M163.216,49.576H144.48c-0.219,0-0.396-0.177-0.396-0.396s0.177-0.396,0.396-0.396h18.736
				c0.219,0,0.396,0.177,0.396,0.396S163.435,49.576,163.216,49.576z"/>
			<g>
				<g>
					<path fill="#FE9F60" d="M138.864,41.086l-4.645-2.682c-0.399-0.231-0.916-0.231-1.315,0l-4.645,2.682
						c-0.405,0.234-0.657,0.67-0.657,1.139v5.364c0,0.468,0.252,0.904,0.657,1.139l1.097,0.634l0.38,0.219l3.168,1.829
						c0.199,0.115,0.427,0.176,0.657,0.176c0.231,0,0.458-0.061,0.657-0.176l3.163-1.826l0.377-0.218l1.104-0.638
						c0.405-0.234,0.657-0.67,0.657-1.139v-5.364C139.521,41.757,139.27,41.321,138.864,41.086z"/>
				</g>
			</g>
		</g>
	</g>
	<g>
		<g>
			<path fill="#379FEF" d="M72.232,61.321h23.333c4.956,0,8.974,4.226,8.974,9.438v99.349c0,5.213-4.018,9.438-8.974,9.438H30.527
				c-4.956,0-8.974-4.226-8.974-9.438V70.76c0-5.213,4.018-9.438,8.974-9.438h22.691"/>
		</g>
		<g>
			<path fill="#BAD3FF" d="M62.963,86.719c5.228,0,9.48,4.253,9.48,9.48c0,5.228-4.253,9.48-9.48,9.48s-9.48-4.253-9.48-9.48
				C53.482,90.972,57.735,86.719,62.963,86.719 M62.963,83.719c-6.893,0-12.48,5.587-12.48,12.48c0,6.893,5.588,12.48,12.48,12.48
				s12.48-5.587,12.48-12.48C75.443,89.306,69.855,83.719,62.963,83.719L62.963,83.719z"/>
			<g>
				<path fill="#BAD3FF" d="M62.963,109.047c10.02,0,18.534,7.279,20.002,16.82c-5.58,4.71-12.626,7.288-20.002,7.288
					s-14.422-2.578-20.002-7.288C44.429,116.326,52.943,109.047,62.963,109.047 M62.963,106.047c-12.242,0-22.251,9.271-23.16,21.03
					c6.038,5.613,14.178,9.079,23.16,9.079s17.122-3.466,23.16-9.079C85.214,115.318,75.204,106.047,62.963,106.047L62.963,106.047z
					"/>
			</g>
		</g>
		<path fill="#FFFFFF" d="M90.288,153.78H34.821c-0.809,0-1.464-0.656-1.464-1.464s0.656-1.464,1.464-1.464h55.467
			c0.809,0,1.464,0.656,1.464,1.464S91.097,153.78,90.288,153.78z"/>
		<path fill="#FFFFFF" d="M53.149,166.809H35.112c-0.809,0-1.464-0.656-1.464-1.464s0.656-1.464,1.464-1.464h18.037
			c0.809,0,1.464,0.656,1.464,1.464S53.958,166.809,53.149,166.809z"/>
		<path fill="#FFFFFF" d="M90.595,166.809H63.461c-0.809,0-1.464-0.656-1.464-1.464s0.656-1.464,1.464-1.464h27.134
			c0.809,0,1.464,0.656,1.464,1.464S91.404,166.809,90.595,166.809z"/>
		<g>
			<path fill="#3599E6" d="M30.528,179.547h65.038c4.956,0,8.974-4.225,8.974-9.438V86.135L78.645,112.03
				c4.226,3.797,7.019,9.102,7.479,15.048c-6.038,5.613-14.178,9.079-23.16,9.079c-2.613,0-5.151-0.302-7.591-0.856l-15.552,15.552
				h50.468c0.809,0,1.464,0.656,1.464,1.464c0,0.808-0.655,1.464-1.464,1.464H36.893L21.554,169.12v0.989
				C21.554,175.321,25.572,179.547,30.528,179.547z M63.462,163.882h27.134c0.809,0,1.464,0.656,1.464,1.464
				s-0.655,1.464-1.464,1.464H63.462c-0.809,0-1.464-0.656-1.464-1.464S62.654,163.882,63.462,163.882z M35.113,163.882H53.15
				c0.809,0,1.464,0.656,1.464,1.464s-0.655,1.464-1.464,1.464H35.113c-0.809,0-1.464-0.656-1.464-1.464
				S34.305,163.882,35.113,163.882z"/>
			<path fill="#3599E6" d="M82.966,125.868c-0.711-4.62-3.084-8.7-6.47-11.689L57.93,132.744c1.652,0.269,3.333,0.412,5.034,0.412
				C70.34,133.156,77.386,130.578,82.966,125.868z"/>
			<path fill="#B6CFFA" d="M82.966,125.868c-5.58,4.71-12.626,7.288-20.002,7.288c-1.701,0-3.382-0.143-5.034-0.412l-2.557,2.557
				c2.439,0.554,4.978,0.856,7.591,0.856c8.982,0,17.122-3.466,23.16-9.079c-0.46-5.947-3.253-11.252-7.479-15.048l-2.149,2.149
				C79.882,117.168,82.255,121.248,82.966,125.868z"/>
			<path fill="#F2F2F2" d="M90.289,153.781c0.809,0,1.464-0.656,1.464-1.464c0-0.808-0.655-1.464-1.464-1.464H39.821l-2.928,2.928
				H90.289z"/>
			<path fill="#F2F2F2" d="M35.113,166.81H53.15c0.809,0,1.464-0.656,1.464-1.464s-0.655-1.464-1.464-1.464H35.113
				c-0.808,0-1.464,0.656-1.464,1.464S34.304,166.81,35.113,166.81z"/>
			<path fill="#F2F2F2" d="M63.462,166.81h27.134c0.809,0,1.464-0.656,1.464-1.464s-0.655-1.464-1.464-1.464H63.462
				c-0.808,0-1.464,0.656-1.464,1.464S62.653,166.81,63.462,166.81z"/>
		</g>
		<g>
			<circle fill="#0E8EEA" cx="62.844" cy="68.254" r="4.824"/>
		</g>
		<path fill="#0E8EEA" d="M62.844,70.463c-1.139,0-2.062-0.923-2.062-2.062V52.822c0-1.139,0.923-2.062,2.062-2.062
			s2.062,0.923,2.062,2.062v15.579C64.907,69.54,63.983,70.463,62.844,70.463z"/>
	</g>
</g>
</svg>
