<?xml version="1.0" encoding="utf-8"?>
<!-- Generator: Adobe Illustrator 17.0.0, SVG Export Plug-In . SVG Version: 6.00 Build 0)  -->
<!DOCTYPE svg PUBLIC "-//W3C//DTD SVG 1.1//EN" "http://www.w3.org/Graphics/SVG/1.1/DTD/svg11.dtd">
<svg version="1.1" id="Layer_1" xmlns="http://www.w3.org/2000/svg" xmlns:xlink="http://www.w3.org/1999/xlink" x="0px" y="0px"
	 width="191.071px" height="147.849px" viewBox="0 0 191.071 147.849" enable-background="new 0 0 191.071 147.849"
	 xml:space="preserve">
<g>
	<g>
		<g>
			<g>
				<path fill="#F2EDDF" d="M100.337,143.466c-6.05,0-6.267-5.622-6.272-6.264V121.18H64.612v15.925
					c-0.005,0.738-0.225,6.36-6.272,6.36c-4.014,0.23-4.695,3.171-4.804,4.383h51.575
					C104.934,146.562,104.115,143.466,100.337,143.466z"/>
			</g>
			<g>
				<g>
					<path fill="#F2EDDF" d="M158.677,22.947c0-3.488-2.827-6.315-6.315-6.315H6.315C2.827,16.632,0,19.459,0,22.947v83.392h158.677
						V22.947z"/>
					<path fill="#F7F5EF" d="M0,106.339v12.868c0,3.487,2.827,6.314,6.315,6.314h146.047c3.487,0,6.315-2.827,6.315-6.314v-12.868H0
						z"/>
				</g>
				<g>
					<path fill="#3F47E1" d="M150.838,93.21c0,2.9-2.351,5.251-5.251,5.251H14.08c-2.9,0-5.251-2.351-5.251-5.251V31.051
						c0-2.9,2.351-5.251,5.251-5.251h131.507c2.9,0,5.251,2.351,5.251,5.251V93.21z"/>
				</g>
				<g>
					<circle fill="#F2EDDF" cx="79.301" cy="115.581" r="4.506"/>
					<path fill="#FFFFFF" d="M79.301,112.144c1.895,0,3.437,1.542,3.437,3.437s-1.542,3.437-3.437,3.437s-3.437-1.542-3.437-3.437
						S77.406,112.144,79.301,112.144 M79.301,111.075c-2.488,0-4.505,2.017-4.505,4.505s2.017,4.505,4.505,4.505
						s4.505-2.017,4.505-4.505S81.79,111.075,79.301,111.075L79.301,111.075z"/>
				</g>
			</g>
		</g>
	</g>
	<g>
		<g>
			<g>
				<path fill="#379FEF" d="M34.649,45.526c-0.174,0-0.315-0.141-0.315-0.315v-2.936c0-0.174,0.141-0.315,0.315-0.315
					c0.174,0,0.315,0.141,0.315,0.315v2.936C34.964,45.385,34.823,45.526,34.649,45.526"/>
				<path fill="#379FEF" d="M32.321,40.813c-0.643,0-1.166,0.577-1.166,1.286v2.13c0,0.709,0.523,1.286,1.167,1.286
					c0.643,0,1.166-0.577,1.166-1.286v-2.13C33.488,41.39,32.965,40.813,32.321,40.813z M32.858,44.229
					c0,0.362-0.241,0.656-0.537,0.656c-0.296,0-0.537-0.294-0.537-0.656v-2.13c0-0.362,0.241-0.657,0.537-0.657
					c0.296,0,0.537,0.294,0.537,0.657V44.229z"/>
				<path fill="#379FEF" d="M30.01,42.653c0.172,0,0.31-0.137,0.316-0.308v-0.246c0-0.709-0.523-1.286-1.167-1.286
					c-0.643,0-1.166,0.577-1.166,1.286v2.13c0,0.709,0.523,1.286,1.167,1.286c0.643,0,1.166-0.577,1.166-1.286v-0.309
					c-0.006-0.171-0.144-0.308-0.316-0.308c-0.168,0-0.301,0.131-0.313,0.296v0.322c0,0.362-0.241,0.656-0.537,0.656
					c-0.296,0-0.537-0.294-0.537-0.656v-2.13c0-0.362,0.241-0.657,0.537-0.657c0.296,0,0.537,0.294,0.537,0.657v0.258
					C29.708,42.522,29.842,42.653,30.01,42.653z"/>
				<path fill="#379FEF" d="M38.112,42.083c0-0.708-0.521-1.284-1.163-1.286v0l-0.002,0l-0.002,0v0
					c-0.642,0.002-1.163,0.578-1.163,1.286l-0.004,3.12c0,0.174,0.141,0.315,0.315,0.315c0.174,0,0.315-0.141,0.315-0.315
					l0.004-3.12c0-0.361,0.24-0.655,0.535-0.656c0.295,0.001,0.535,0.295,0.535,0.656l0.004,3.12c0,0.174,0.141,0.315,0.315,0.315
					c0.174,0,0.315-0.141,0.315-0.315L38.112,42.083z"/>
				<g>
					<path fill="#379FEF" d="M24.832,42.11c0-0.7,0.516-1.27,1.151-1.272v0l0.002,0l0.002,0v0c0.635,0.002,1.151,0.572,1.151,1.272
						l0.004,3.087c0,0.172-0.139,0.311-0.311,0.311s-0.311-0.139-0.311-0.311l-0.004-3.087c0-0.358-0.238-0.648-0.529-0.649
						c-0.292,0.001-0.529,0.292-0.529,0.649v2.126c0,0.755-0.508,1.27-1.143,1.272v0l-0.002,0l-0.002,0v0
						c-0.635-0.002-1.151-0.572-1.151-1.272l-0.004-1.93c0-0.172,0.139-0.311,0.311-0.311c0.172,0,0.311,0.139,0.311,0.311
						l0.004,1.93c0,0.358,0.238,0.648,0.529,0.649c0.292-0.001,0.522-0.25,0.522-0.649V42.11z"/>
				</g>
				<g>
					<path fill="#379FEF" d="M24.765,39.996c-0.053,0-0.107-0.014-0.156-0.043c-0.145-0.086-0.192-0.273-0.106-0.418
						c0.602-1.01,1.458-1.856,2.475-2.447c1.048-0.609,2.247-0.93,3.466-0.93c1.21,0,2.4,0.317,3.443,0.917
						c1.011,0.582,1.866,1.417,2.471,2.415c0.087,0.144,0.041,0.332-0.103,0.419c-0.144,0.087-0.332,0.041-0.419-0.103
						c-0.552-0.91-1.331-1.672-2.254-2.203c-0.95-0.547-2.036-0.836-3.139-0.836c-1.112,0-2.204,0.293-3.16,0.848
						c-0.928,0.538-1.708,1.31-2.258,2.231C24.97,39.942,24.869,39.996,24.765,39.996z"/>
				</g>
				<g>
					<path fill="#379FEF" d="M30.444,49.982c-2.154,0-4.148-0.978-5.468-2.683c-0.103-0.133-0.079-0.325,0.054-0.428
						c0.133-0.103,0.325-0.079,0.428,0.054c1.204,1.555,3.022,2.447,4.986,2.447c1.967,0,3.787-0.894,4.991-2.453
						c0.103-0.133,0.294-0.158,0.428-0.055c0.133,0.103,0.158,0.294,0.055,0.428C34.597,49.002,32.602,49.982,30.444,49.982z"/>
				</g>
				<circle fill="#379FEF" cx="23.468" cy="41.169" r="0.344"/>
				<circle fill="#379FEF" cx="34.642" cy="41.272" r="0.344"/>
			</g>
		</g>
		<path fill="#2D4391" d="M39.204,58.137H22.036c-0.207,0-0.375-0.168-0.375-0.375s0.168-0.375,0.375-0.375h17.167
			c0.207,0,0.375,0.168,0.375,0.375S39.411,58.137,39.204,58.137z"/>
		<path fill="#2D4391" d="M39.204,66.503H22.036c-0.207,0-0.375-0.168-0.375-0.375s0.168-0.375,0.375-0.375h17.167
			c0.207,0,0.375,0.168,0.375,0.375S39.411,66.503,39.204,66.503z"/>
		<path fill="#2D4391" d="M39.204,74.87H22.036c-0.207,0-0.375-0.168-0.375-0.375s0.168-0.375,0.375-0.375h17.167
			c0.207,0,0.375,0.168,0.375,0.375S39.411,74.87,39.204,74.87z"/>
		<path fill="#2D4391" d="M39.204,83.237H22.036c-0.207,0-0.375-0.168-0.375-0.375s0.168-0.375,0.375-0.375h17.167
			c0.207,0,0.375,0.168,0.375,0.375S39.411,83.237,39.204,83.237z"/>
	</g>
	<g>
		<polygon fill="#FFD349" points="178.863,89.082 116.578,89.082 116.578,52.368 178.863,52.368 191.071,70.738 		"/>
		<g>
			<polygon fill="#F5BA0D" points="116.578,89.082 128.354,77.936 116.578,77.936 			"/>
		</g>
		<g>
			<g>
				<path fill="#FFFFFF" d="M152.72,62.188c-0.552,0-1-0.448-1-1v-2.704c0-0.552,0.448-1,1-1s1,0.448,1,1v2.704
					C153.72,61.741,153.272,62.188,152.72,62.188z"/>
				<path fill="#FFFFFF" d="M152.72,82.25c-0.552,0-1-0.448-1-1v-2.777c0-0.552,0.448-1,1-1s1,0.448,1,1v2.777
					C153.72,81.802,153.272,82.25,152.72,82.25z"/>
				<g>
					<path fill="#FFFFFF" d="M152.721,70.831c-0.093,0-0.187-0.013-0.28-0.04c-3.784-1.102-6.082-2.007-6.082-5.281
						c0-2.934,2.854-5.321,6.361-5.321c2.466,0,4.662,1.15,5.73,3.001c0.276,0.479,0.112,1.09-0.367,1.366
						c-0.478,0.276-1.09,0.112-1.366-0.366c-0.701-1.216-2.27-2.001-3.998-2.001c-2.405,0-4.361,1.49-4.361,3.321
						c0,1.582,0.578,2.178,4.641,3.361c0.53,0.154,0.835,0.709,0.681,1.24C153.553,70.547,153.154,70.831,152.721,70.831z"/>
					<path fill="#FFFFFF" d="M152.72,79.473c-2.466,0-4.662-1.15-5.73-3.001c-0.276-0.478-0.112-1.09,0.366-1.366
						c0.478-0.276,1.09-0.112,1.366,0.366c0.701,1.215,2.27,2.001,3.998,2.001c2.405,0,4.361-1.49,4.361-3.321
						c0-1.582-0.578-2.178-4.641-3.361c-0.53-0.154-0.835-0.709-0.681-1.24s0.709-0.834,1.24-0.681
						c3.784,1.102,6.082,2.007,6.082,5.281C159.081,77.086,156.228,79.473,152.72,79.473z"/>
				</g>
			</g>
		</g>
		<g>
			<path fill="#FFFFFF" d="M56.148,41.222v2.573c1.027,0,1.86,0.833,1.86,1.861c0,1.027-0.833,1.86-1.86,1.86v3.23
				c1.027,0,1.86,0.833,1.86,1.86c0,1.028-0.833,1.861-1.86,1.861v3.23c1.027,0,1.86,0.833,1.86,1.86c0,1.027-0.833,1.86-1.86,1.86
				v3.23c1.027,0,1.86,0.833,1.86,1.86c0,1.028-0.833,1.861-1.86,1.861v3.229c1.027,0,1.86,0.833,1.86,1.861
				c0,1.027-0.833,1.86-1.86,1.86v2.617h72.206V41.222H56.148z"/>
		</g>
		<path fill="#FFD349" d="M94.873,62.726H67.814c-0.69,0-1.25-0.56-1.25-1.25s0.56-1.25,1.25-1.25h27.059
			c0.69,0,1.25,0.56,1.25,1.25S95.564,62.726,94.873,62.726z"/>
		<g>
			<g>
				<path fill="#FC6653" d="M104.722,58.136l2.519-8.1L156.644,1.04l-0.108,0.108c1.531-1.531,4.01-1.531,5.541,0
					s1.531,4.01,0,5.541l0,0l-49.294,48.888L104.722,58.136z"/>
			</g>
		</g>
		<path fill="#FFD349" d="M107.356,71.644H67.814c-0.69,0-1.25-0.56-1.25-1.25s0.56-1.25,1.25-1.25h39.542
			c0.69,0,1.25,0.56,1.25,1.25S108.046,71.644,107.356,71.644z"/>
	</g>
</g>
</svg>
