<?xml version="1.0" encoding="utf-8"?>
<!-- Generator: Adobe Illustrator 17.0.0, SVG Export Plug-In . SVG Version: 6.00 Build 0)  -->
<!DOCTYPE svg PUBLIC "-//W3C//DTD SVG 1.1//EN" "http://www.w3.org/Graphics/SVG/1.1/DTD/svg11.dtd">
<svg version="1.1" id="Layer_1" xmlns="http://www.w3.org/2000/svg" xmlns:xlink="http://www.w3.org/1999/xlink" x="0px" y="0px"
	 width="106.223px" height="96.66px" viewBox="0 0 106.223 96.66" enable-background="new 0 0 106.223 96.66" xml:space="preserve">
<g>
	<path fill="#379FEF" d="M43.421,96.661C19.435,96.603,0.309,77.528,0.004,53.885C-0.309,29.647,19.094,10,43.295,9.971
		c24.023-0.029,43.19,19.187,43.419,42.904C86.947,77.016,67.599,96.545,43.421,96.661z M30.792,41.855
		c-1.004,7.612-1.012,15.305,0.031,23.122c8.412-1.081,16.677-1.047,25.092-0.015c0.992-7.816,1.033-15.508,0.003-23.104
		c-4.277,0.202-8.387,0.549-12.497,0.548C39.264,42.404,35.107,42.058,30.792,41.855z M9.482,70.45
		c5.42-1.611,10.621-3.157,15.928-4.735c-1.107-8.303-1.022-16.66-0.035-24.827c-5.416-1.61-10.614-3.156-15.896-4.726
		C4.06,47.614,4.058,59.033,9.482,70.45z M77.135,36.191c-5.315,1.58-10.516,3.127-15.817,4.703
		c1.076,8.304,1.027,16.661,0.021,24.83c5.414,1.611,10.613,3.158,15.81,4.704C82.721,59.769,82.619,46.551,77.135,36.191z
		 M31.83,36.077c3.664,1.215,20.276,1.193,23.042-0.056c-1.455-6.865-3.826-13.43-6.884-19.752c-0.163-0.336-0.751-0.648-1.15-0.658
		c-2.301-0.063-4.606-0.071-6.907,0.002c-0.431,0.014-1.06,0.372-1.24,0.745C35.65,22.642,33.307,29.174,31.83,36.077z
		 M31.829,70.555c1.482,6.857,3.785,13.352,6.828,19.582c0.212,0.434,0.944,0.841,1.453,0.865c2.102,0.099,4.212,0,6.317,0.066
		c1.003,0.031,1.525-0.381,1.862-1.273c1.694-4.488,3.47-8.946,5.095-13.458c0.672-1.867,1.041-3.843,1.541-5.745
		C51.798,69.333,35.211,69.329,31.829,70.555z M26.039,35.397c2.045-6.286,3.988-12.26,5.962-18.325
		c-7.829,2.808-14.55,7.079-19.483,14.367C17.202,32.81,21.693,34.124,26.039,35.397z M74.22,31.438
		c-5.016-7.306-11.7-11.599-19.488-14.344c1.984,6.117,3.925,12.101,5.936,18.3C65.008,34.127,69.502,32.815,74.22,31.438z
		 M12.498,75.178c5.019,7.308,11.703,11.6,19.49,14.339c-1.987-6.119-3.93-12.103-5.943-18.3C21.7,72.487,17.208,73.8,12.498,75.178
		z M60.679,71.22c-2.05,6.295-3.995,12.266-5.969,18.327c7.831-2.825,14.571-7.076,19.481-14.377
		C69.504,73.8,65.012,72.487,60.679,71.22z"/>
	<g opacity="0.5">
		<g>
			<path fill="#379FEF" d="M65.262,20.692c0-1.719,1.485-3.113,3.317-3.113h32.904c1.832,0,3.317,1.394,3.317,3.113V44.4
				c0,1.719-1.485,3.113-3.317,3.113h-30.47c-3.982,0-5.751-2.949-5.751-5.547V20.692z"/>
		</g>
	</g>
	<g>
		<g>
			<path fill="#379FEF" d="M98.605,18.381c-0.607,0-1.099-0.492-1.099-1.099v-4.494c0-5.84-4.751-10.592-10.592-10.592
				S76.323,6.949,76.323,12.789v4.421c0,0.607-0.492,1.099-1.099,1.099s-1.099-0.492-1.099-1.099v-4.421
				C74.126,5.737,79.863,0,86.915,0s12.789,5.737,12.789,12.789v4.494C99.704,17.89,99.212,18.381,98.605,18.381z"/>
			<g>
				<g>
					<path fill="#F7F5EF" d="M69.812,19.26c0-1.507,1.285-2.729,2.87-2.729h28.474c1.585,0,2.87,1.222,2.87,2.729v20.781
						c0,1.507-1.285,2.729-2.87,2.729H72.682c-1.585,0-2.87-1.222-2.87-2.729V19.26z"/>
					<path fill="#379FEF" d="M101.156,16.531c1.585,0,2.87,1.222,2.87,2.729v20.781c0,1.507-1.285,2.729-2.87,2.729H72.682
						c-1.585,0-2.87-1.222-2.87-2.729V19.26c0-1.507,1.285-2.729,2.87-2.729H101.156 M101.156,14.334H72.682
						c-2.794,0-5.067,2.21-5.067,4.926v20.781c0,2.716,2.273,4.926,5.067,4.926h28.474c2.794,0,5.067-2.21,5.067-4.926V19.26
						C106.223,16.544,103.95,14.334,101.156,14.334L101.156,14.334z"/>
				</g>
			</g>
		</g>
	</g>
</g>
</svg>
