<?xml version="1.0" encoding="utf-8"?>
<!-- Generator: Adobe Illustrator 17.0.0, SVG Export Plug-In . SVG Version: 6.00 Build 0)  -->
<!DOCTYPE svg PUBLIC "-//W3C//DTD SVG 1.1//EN" "http://www.w3.org/Graphics/SVG/1.1/DTD/svg11.dtd">
<svg version="1.1" id="Layer_1" xmlns="http://www.w3.org/2000/svg" xmlns:xlink="http://www.w3.org/1999/xlink" x="0px" y="0px"
	 width="149px" height="149.016px" viewBox="0 0 149 149.016" enable-background="new 0 0 149 149.016" xml:space="preserve">
<g>
	<path fill="#FFFFFF" d="M137.097,0H11.903C5.329,0,0,5.891,0,13.157V135.86c0,7.266,5.329,13.156,11.903,13.156h125.194
		c6.574,0,11.903-5.89,11.903-13.156V13.157C149,5.891,143.671,0,137.097,0z"/>
	<path fill="#FE9F60" d="M137.097,0H11.903C5.329,0,0,5.891,0,13.157V135.86c0,7.266,5.329,13.156,11.903,13.156h125.194
		c6.574,0,11.903-5.89,11.903-13.156V13.157C149,5.891,143.671,0,137.097,0z M28.874,129.069
		c1.797-23.275,21.891-41.506,45.746-41.506s43.95,18.232,45.741,41.352v16.099H28.88L28.874,129.069z M74.62,83.561
		c-13.082,0-23.726-10.644-23.726-23.726S61.538,36.109,74.62,36.109c13.083,0,23.727,10.644,23.727,23.726
		S87.704,83.561,74.62,83.561z"/>
	<g>
		<path opacity="0.15" fill="#FE9F60" d="M11.903,149.016h125.194c6.574,0,11.903-5.89,11.903-13.156V13.156
			C149,5.891,143.671,0,137.097,0h-0.802L0.019,136.276C0.22,143.347,5.456,149.016,11.903,149.016z"/>
	</g>
</g>
</svg>
