<?xml version="1.0" encoding="utf-8"?>
<!-- Generator: Adobe Illustrator 17.0.0, SVG Export Plug-In . SVG Version: 6.00 Build 0)  -->
<!DOCTYPE svg PUBLIC "-//W3C//DTD SVG 1.1//EN" "http://www.w3.org/Graphics/SVG/1.1/DTD/svg11.dtd">
<svg version="1.1" id="Layer_1" xmlns="http://www.w3.org/2000/svg" xmlns:xlink="http://www.w3.org/1999/xlink" x="0px" y="0px"
	 width="83.237px" height="103.024px" viewBox="0 0 83.237 103.024" enable-background="new 0 0 83.237 103.024"
	 xml:space="preserve">
<g>
	<g>
		<g>
			<g>
				<path fill="#F7F5EF" d="M67.954,45.493c-2.258,0-4.088-1.83-4.088-4.088V31.278c0-12.273-9.985-22.258-22.258-22.258
					S19.35,19.005,19.35,31.278v9.964c0,2.258-1.83,4.088-4.088,4.088s-4.088-1.83-4.088-4.088v-9.964
					c0-16.781,13.653-30.434,30.434-30.434s30.434,13.652,30.434,30.434v10.127C72.042,43.662,70.212,45.493,67.954,45.493z"/>
				<path fill="#379FEF" d="M67.954,46.336c-2.719,0-4.932-2.212-4.932-4.931V31.277c0-11.808-9.606-21.414-21.414-21.414
					s-21.415,9.606-21.415,21.414v9.964c0,2.719-2.212,4.932-4.932,4.932s-4.932-2.212-4.932-4.932v-9.964
					C10.331,14.031,24.362,0,41.609,0c17.246,0,31.277,14.031,31.277,31.277v10.127C72.886,44.124,70.674,46.336,67.954,46.336z
					 M41.609,8.176c12.738,0,23.102,10.363,23.102,23.102v10.127c0,1.789,1.455,3.244,3.244,3.244s3.244-1.455,3.244-3.244V31.277
					c0-16.316-13.274-29.59-29.59-29.59s-29.59,13.274-29.59,29.59v9.964c0,1.789,1.455,3.244,3.244,3.244s3.244-1.455,3.244-3.244
					v-9.964C18.507,18.539,28.87,8.176,41.609,8.176z"/>
			</g>
			<g>
				<g>
					<defs>
						<path id="SVGID_1_" d="M41.608,0.063c-17.212,0-31.215,14.003-31.215,31.215v9.964c0,2.685,2.184,4.869,4.869,4.869
							s4.869-2.184,4.869-4.869v-9.964c0-11.842,9.634-21.477,21.477-21.477s21.477,9.634,21.477,21.477v10.127
							c0,2.685,2.184,4.869,4.869,4.869s4.869-2.184,4.869-4.869V31.278C72.824,14.066,58.821,0.063,41.608,0.063z"/>
					</defs>
					<clipPath id="SVGID_2_">
						<use xlink:href="#SVGID_1_"  overflow="visible"/>
					</clipPath>
					
						<rect x="1.145" y="36.26" opacity="0.5" clip-path="url(#SVGID_2_)" fill="#379FEF" enable-background="new    " width="78.333" height="10.686"/>
				</g>
			</g>
			<g>
				<g>
					<path fill="#379FEF" d="M0,45.828c0-3.667,3.126-6.639,6.982-6.639h69.272c3.856,0,6.982,2.972,6.982,6.639v50.557
						c0,3.667-3.126,6.639-6.982,6.639H6.982c-3.856,0-6.982-2.972-6.982-6.639V45.828z"/>
				</g>
			</g>
			<g>
				<g>
					<defs>
						<path id="SVGID_3_" d="M0,45.828c0-3.667,3.126-6.639,6.982-6.639h69.272c3.856,0,6.982,2.972,6.982,6.639v50.557
							c0,3.667-3.126,6.639-6.982,6.639H6.982c-3.856,0-6.982-2.972-6.982-6.639V45.828z"/>
					</defs>
					<clipPath id="SVGID_4_">
						<use xlink:href="#SVGID_3_"  overflow="visible"/>
					</clipPath>
					<g clip-path="url(#SVGID_4_)">
						<path opacity="0.5" fill="#379FEF" enable-background="new    " d="M-35.557,120.694h69.272c2.888,0,5.366-1.667,6.428-4.045
							h-82.129C-40.923,119.027-38.445,120.694-35.557,120.694z"/>
					</g>
				</g>
			</g>
		</g>
	</g>
	<g>
		<path fill="#F7F5EF" d="M13.734,66.16l4.839-10.975h-6.804v-2.531h10.145v2.004L16.892,66.16H13.734z"/>
		<path fill="#F7F5EF" d="M27.702,66.16V52.654h9.557v2.531h-6.682v2.835h6.54v2.531h-6.54v3.078h6.682v2.531
			C37.259,66.16,27.702,66.16,27.702,66.16z"/>
		<path fill="#F7F5EF" d="M43.554,66.16V52.654h7.107c2.572,0,3.888,1.64,3.888,3.442c0,1.681-1.053,2.835-2.328,3.098
			c1.458,0.223,2.592,1.62,2.592,3.3c0,2.045-1.336,3.665-3.928,3.665h-7.331V66.16z M51.613,56.603c0-0.83-0.607-1.417-1.579-1.417
			H46.43v2.835h3.604C51.006,58.02,51.613,57.473,51.613,56.603z M51.877,62.09c0-0.851-0.607-1.539-1.721-1.539H46.43v3.078h3.726
			C51.229,63.629,51.877,63.062,51.877,62.09z"/>
		<path fill="#F7F5EF" d="M61.046,64.985l1.276-2.207c0.729,0.688,1.499,1.053,2.693,1.053c2.228,0,3.382-1.883,3.382-3.807
			c0-0.101,0-0.202,0-0.304c-0.648,0.911-2.005,1.742-3.483,1.742c-2.43,0-4.596-1.519-4.596-4.394c0-2.632,2.085-4.637,5.163-4.637
			c4.11,0,5.832,3.159,5.832,6.966c0,4.09-2.308,6.985-6.297,6.985C63.374,66.382,61.997,65.836,61.046,64.985z M68.376,57.716
			c-0.122-1.296-0.851-2.733-2.733-2.733c-1.559,0-2.41,1.053-2.41,1.984c0,1.417,1.235,2.025,2.491,2.025
			C66.756,58.992,67.728,58.527,68.376,57.716z"/>
		<path fill="#F7F5EF" d="M11.557,88.936V75.43h5.325c4.232,0,7.168,2.693,7.168,6.743c0,4.09-2.936,6.763-7.147,6.763
			C16.903,88.936,11.557,88.936,11.557,88.936z M21.114,82.173c0-2.369-1.458-4.211-4.211-4.211h-2.47v8.443h2.45
			C19.555,86.404,21.114,84.481,21.114,82.173z"/>
		<path fill="#F7F5EF" d="M29.513,85.433c0-1.64,1.276-2.896,2.896-3.462c-1.498-0.527-2.672-1.499-2.672-3.179
			c0-2.551,2.693-3.564,5.204-3.564c2.491,0,5.204,1.013,5.204,3.564c0,1.681-1.195,2.652-2.673,3.179
			c1.6,0.567,2.896,1.822,2.896,3.462c0,2.511-2.592,3.746-5.427,3.746S29.513,87.943,29.513,85.433z M37.451,85.027
			c0-1.113-1.681-1.64-2.511-1.761c-0.851,0.121-2.511,0.648-2.511,1.761c0,0.972,1.093,1.6,2.511,1.6
			C36.317,86.627,37.451,86,37.451,85.027z M37.208,79.277c0-0.952-0.952-1.499-2.268-1.499c-1.336,0-2.288,0.547-2.288,1.499
			c0,0.992,1.458,1.417,2.288,1.559C35.77,80.694,37.208,80.269,37.208,79.277z"/>
		<path fill="#F7F5EF" d="M46.459,88.936V75.43h9.557v2.531h-6.682v2.834h6.541v2.531h-6.541v3.078h6.682v2.531L46.459,88.936
			L46.459,88.936z"/>
		<path fill="#F7F5EF" d="M67.939,88.936v-2.794H61.48v-2.268l5.366-8.444h3.969v8.18h1.741v2.531h-1.741v2.794L67.939,88.936
			L67.939,88.936z M67.939,77.981l-3.645,5.629h3.645V77.981z"/>
	</g>
	<g>
		<path opacity="0.5" fill="#3394DE" enable-background="new    " d="M6.982,103.024h69.272c2.888,0,5.366-1.667,6.428-4.045H0.554
			C1.616,101.357,4.094,103.024,6.982,103.024z"/>
	</g>
</g>
</svg>
