<?xml version="1.0" encoding="utf-8"?>
<!-- Generator: Adobe Illustrator 17.0.0, SVG Export Plug-In . SVG Version: 6.00 Build 0)  -->
<!DOCTYPE svg PUBLIC "-//W3C//DTD SVG 1.1//EN" "http://www.w3.org/Graphics/SVG/1.1/DTD/svg11.dtd">
<svg version="1.1" id="Layer_1" xmlns="http://www.w3.org/2000/svg" xmlns:xlink="http://www.w3.org/1999/xlink" x="0px" y="0px"
	 width="130.464px" height="130.477px" viewBox="0 0 130.464 130.477" enable-background="new 0 0 130.464 130.477"
	 xml:space="preserve">
<g>
	<g>
		<path fill="#DDE6E8" d="M120.042,0H10.422C4.666,0,0,5.158,0,11.52v107.438c0,6.362,4.666,11.52,10.422,11.52h109.619
			c5.756,0,10.422-5.157,10.422-11.52V11.52C130.464,5.158,125.798,0,120.042,0z M25.282,113.012
			C26.856,92.633,44.45,76.67,65.337,76.67s38.483,15.964,40.051,36.208v14.096H25.287L25.282,113.012z M126.96,118.958
			c0,4.42-3.103,8.015-6.918,8.015h-11.15l-0.005-14.231c-1.448-18.754-15.335-34.073-33.307-38.37
			c8.276-3.873,14.037-12.257,14.037-21.981c0-13.388-10.892-24.279-24.28-24.279S41.058,39.003,41.058,52.391
			c0,9.725,5.76,18.109,14.036,21.982c-17.972,4.299-31.859,19.636-33.312,38.505v14.096H10.422c-3.815,0-6.918-3.596-6.918-8.015
			V11.52c0-4.42,3.104-8.015,6.918-8.015h109.619c3.815,0,6.918,3.596,6.918,8.015V118.958z M65.337,73.165
			c-11.455,0-20.774-9.319-20.774-20.774s9.319-20.774,20.774-20.774c11.456,0,20.775,9.319,20.775,20.774
			S76.793,73.165,65.337,73.165z"/>
	</g>
</g>
</svg>
