<?xml version="1.0" encoding="utf-8"?>
<!-- Generator: Adobe Illustrator 17.0.0, SVG Export Plug-In . SVG Version: 6.00 Build 0)  -->
<!DOCTYPE svg PUBLIC "-//W3C//DTD SVG 1.1//EN" "http://www.w3.org/Graphics/SVG/1.1/DTD/svg11.dtd">
<svg version="1.1" id="Layer_1" xmlns="http://www.w3.org/2000/svg" xmlns:xlink="http://www.w3.org/1999/xlink" x="0px" y="0px"
	 width="85.54px" height="92.475px" viewBox="0 0 85.54 92.475" enable-background="new 0 0 85.54 92.475" xml:space="preserve">
<g>
	<g>
		<g>
			<path fill="#379FEF" d="M42.77,92.475c33.021-11.981,42.77-33.128,42.77-47.071c0-9.407,0-30.827,0-30.827
				C58.424,8.879,46.006,2.086,42.77,0C39.535,2.086,27.116,8.879,0,14.578c0,0,0,21.419,0,30.827
				C0,59.347,9.749,80.494,42.77,92.475z"/>
		</g>
		<g>
			<g>
				<path fill="#F7F5EF" d="M36.095,63.93c-0.755,0-1.509-0.288-2.085-0.862L20.12,49.212c-1.155-1.151-1.157-3.021-0.005-4.175
					c1.152-1.154,3.021-1.157,4.175-0.005l11.807,11.777l28.22-28.117c1.155-1.151,3.024-1.147,4.175,0.007
					c1.151,1.155,1.147,3.024-0.008,4.175L38.179,63.069C37.603,63.643,36.849,63.93,36.095,63.93z"/>
			</g>
		</g>
	</g>
	
		<rect x="50.93" y="23.726" transform="matrix(0.7071 0.7071 -0.7071 0.7071 49.5111 -23.6038)" opacity="0.5" fill="#379FEF" width="4.636" height="48.475"/>
</g>
</svg>
