<?xml version="1.0" encoding="utf-8"?>
<!-- Generator: Adobe Illustrator 17.0.0, SVG Export Plug-In . SVG Version: 6.00 Build 0)  -->
<!DOCTYPE svg PUBLIC "-//W3C//DTD SVG 1.1//EN" "http://www.w3.org/Graphics/SVG/1.1/DTD/svg11.dtd">
<svg version="1.1" id="Layer_1" xmlns="http://www.w3.org/2000/svg" xmlns:xlink="http://www.w3.org/1999/xlink" x="0px" y="0px"
	 width="31.856px" height="20.706px" viewBox="0 0 31.856 20.706" enable-background="new 0 0 31.856 20.706" xml:space="preserve">
<path fill="#4D4D4D" d="M31.78,9.994c-0.051-0.123-0.124-0.233-0.216-0.325l-9.376-9.376c-0.39-0.391-1.024-0.391-1.414,0
	c-0.391,0.39-0.391,1.024,0,1.414l7.669,7.669H6.33c-0.552,0-1,0.448-1,1s0.448,1,1,1h22.114l-7.622,7.622
	c-0.391,0.391-0.391,1.023,0,1.414c0.195,0.195,0.451,0.293,0.707,0.293s0.512-0.098,0.707-0.293l9.329-9.329
	c0.092-0.092,0.166-0.203,0.216-0.325C31.881,10.514,31.881,10.239,31.78,9.994z M1.525,8.876h-0.05C0.647,8.876,0,9.548,0,10.376
	s0.697,1.5,1.525,1.5s1.5-0.672,1.5-1.5S2.353,8.876,1.525,8.876z"/>
</svg>
