<?xml version="1.0" encoding="utf-8"?>
<!-- Generator: Adobe Illustrator 17.0.0, SVG Export Plug-In . SVG Version: 6.00 Build 0)  -->
<!DOCTYPE svg PUBLIC "-//W3C//DTD SVG 1.1//EN" "http://www.w3.org/Graphics/SVG/1.1/DTD/svg11.dtd">
<svg version="1.1" id="Layer_1" xmlns="http://www.w3.org/2000/svg" xmlns:xlink="http://www.w3.org/1999/xlink" x="0px" y="0px"
	 width="891.831px" height="891.832px" viewBox="0 0 891.831 891.832" enable-background="new 0 0 891.831 891.832"
	 xml:space="preserve">
<path fill="#4C6FE7" d="M891.755,445.533L761.442,130.93c-0.102-0.245-0.296-0.44-0.541-0.541L446.299,0.076
	C446.176,0.026,446.046,0,445.916,0c-0.13,0-0.26,0.025-0.383,0.076L130.93,130.389c-0.245,0.102-0.439,0.296-0.541,0.541
	L0.076,445.533c-0.102,0.245-0.102,0.52,0,0.765l130.313,314.603c0.102,0.245,0.296,0.44,0.541,0.541l314.602,130.313
	c0.123,0.051,0.253,0.076,0.383,0.076c0.13,0,0.26-0.025,0.383-0.076l314.603-130.313c0.245-0.102,0.439-0.296,0.541-0.541
	l130.313-314.603C891.857,446.054,891.857,445.778,891.755,445.533z M576.022,131.812l53.301,53.302l-90.991,37.69l-37.69-90.991
	H576.022z M760.019,758.004l-1.4-3.379l-51.487-124.302l52.887-52.887V758.004z M131.814,499.558V392.272l18.175-7.529l12.059-4.995
	l61.141-25.325l37.896,91.491l-37.897,91.491L131.814,499.558z M499.56,131.812l37.848,91.374l-91.491,37.898l-91.492-37.898
	l37.848-91.374H499.56z M630.089,185.879l75.863,75.863l-37.849,91.374l-91.491-37.896l-37.897-91.492L630.089,185.879z
	 M759.595,759.594l-19.823-8.211l-108.683-45.018l37.639-37.638l37.639-37.638l15.341,37.037L759.595,759.594z M500.642,760.018
	l37.689-90.99l90.992,37.689l-53.301,53.301H500.642z M315.81,760.018l-26.65-26.651l-26.651-26.651l90.991-37.689l26.53,64.046
	l11.161,26.944H315.81z M147.944,138.743l112.799,46.723l-25.54,25.54l-49.738,49.737l-53.229-128.505L147.944,138.743z
	 M315.81,131.813h75.379L353.5,222.804l-90.991-37.689L315.81,131.813z M537.791,224.11l37.514,90.568l-128.082-53.053
	L537.791,224.11z M392.273,760.018l-22.575-54.499l-15.274-36.875l91.492-37.897l91.491,37.897l-15.731,37.98l-22.116,53.393
	H392.273z M261.743,185.88l91.374,37.848L315.22,315.22l-91.491,37.896l-37.849-91.374l1.791-1.79L261.743,185.88z M131.813,315.81
	l53.302-53.302l37.69,90.991l-61.756,25.581l-29.235,12.109V315.81z M315.987,315.985l129.93-53.818l129.929,53.818l53.818,129.929
	l-53.821,129.933l-129.927,53.817l-129.93-53.818l-53.82-129.93L315.987,315.985z M706.717,262.508l53.301,53.302v75.38
	L669.027,353.5l36.727-88.666L706.717,262.508z M889.172,446.061l-128.154,53.083V392.686l128.505,53.229L889.172,446.061z
	 M577.154,575.302l53.052-128.079l37.514,90.566L577.154,575.302z M575.304,577.153l-27.448,66.264L537.79,667.72l-90.567-37.514
	L575.304,577.153z M668.643,537.406l-20.683-49.934l-17.213-41.556l37.897-91.492l91.374,37.848v107.286L668.643,537.406z
	 M630.088,705.951l-8.547-3.54l-82.827-34.307l13.445-32.458l6.831-16.49l17.623-42.543l30.365-12.578l61.126-25.319l15.303,36.944
	l22.546,54.429l-0.464,0.464L630.088,705.951z M761.019,391.604V316.81l127.68,127.681L761.019,391.604z M657.358,379.056
	l-27.152,65.551l-53.053-128.081l90.567,37.513L657.358,379.056z M316.528,314.678l23.652-57.103l13.862-33.465l90.568,37.515
	L316.528,314.678z M316.81,130.813L444.491,3.132l-52.887,127.681H316.81z M314.68,316.527l-53.054,128.082l-37.514-90.568
	L314.68,316.527z M314.68,575.304l-90.568-37.516l37.514-90.567L314.68,575.304z M444.609,630.205l-90.567,37.514l-37.514-90.567
	L444.609,630.205z M392.687,761.018h106.458l-14.98,36.166l-38.249,92.341l-38.249-92.341L392.687,761.018z M706.717,629.322
	l-37.69-90.99l70.528-29.214l20.464-8.476v75.379L706.717,629.322z M760.019,133.829v180.567L718.6,272.976l-11.468-11.469
	l35.149-84.858L760.019,133.829z M261.509,184.7l-88.205-36.535l-39.478-16.352h180.569L261.509,184.7z M134.043,139.209
	L184.7,261.508l-52.887,52.888V133.827L134.043,139.209z M130.813,315.396L2.424,443.785l128.389-309.958V315.396z M130.813,316.81
	v74.794L3.132,444.491L130.813,316.81z M315.221,576.611l37.897,91.491l-91.375,37.848l-75.862-75.862l37.848-91.375
	L315.221,576.611z M167.414,746.106l94.095-38.975l52.887,52.887H133.828L167.414,746.106z M316.81,761.018h74.795l49.855,120.363
	l3.032,7.319L316.81,761.018z M464.925,846.246l35.303-85.229h74.794L447.34,888.699L464.925,846.246z M630.324,707.13
	l59.618,24.694l68.064,28.193H577.436L630.324,707.13z M761.019,576.435l9.776-9.776l118.612-118.612L761.019,758.004V576.435z
	 M888.7,447.34l-86.258,86.258l-41.423,41.423v-74.794l101.666-42.111L888.7,447.34z M889.406,443.783L761.019,315.396V133.828
	l52.416,126.542L889.406,443.783z M727.993,208.532l-21.626,52.21l-75.277-75.277l128.506-53.229L727.993,208.532z M392.688,130.812
	l22.072-53.286l31.158-75.221l53.229,128.506H392.688z M443.785,2.424L315.396,130.813H133.827l136.97-56.735L443.785,2.424z
	 M131.814,500.641l90.991,37.689l-37.689,90.993l-53.302-53.302V500.641z M185.467,631.088l75.276,75.276l-35.951,14.891
	l-92.554,38.337L185.467,631.088z M315.396,761.018l128.388,128.388L133.827,761.018H315.396z M448.048,889.406l128.388-128.389
	h181.568L448.048,889.406z M630.323,184.699l-52.887-52.887h180.569L630.323,184.699z M500.228,130.812L447.341,3.13
	l127.681,127.682H500.228z M70.78,417.553l60.034-24.867v106.458L2.308,445.915L70.78,417.553z M184.701,630.322l-52.887,127.682
	V577.435L184.701,630.322z M576.436,130.812L447.126,1.502l312.182,129.311H576.436z M130.814,500.226v74.795L3.132,447.339
	L130.814,500.226z M1.499,447.12l129.315,129.315v182.879L1.499,447.12z"/>
</svg>
