<?xml version="1.0" encoding="utf-8"?>
<!-- Generator: Adobe Illustrator 17.0.0, SVG Export Plug-In . SVG Version: 6.00 Build 0)  -->
<!DOCTYPE svg PUBLIC "-//W3C//DTD SVG 1.1//EN" "http://www.w3.org/Graphics/SVG/1.1/DTD/svg11.dtd">
<svg version="1.1" id="Layer_1" xmlns="http://www.w3.org/2000/svg" xmlns:xlink="http://www.w3.org/1999/xlink" x="0px" y="0px"
	 width="104.72px" height="92.7px" viewBox="0 0 104.72 92.7" enable-background="new 0 0 104.72 92.7" xml:space="preserve">
<g>
	<path fill="#379FEF" d="M18.984,66.731l2.332-2.331l45.617-45.617l2.831-2.833c-5.563-1.808-11.3-2.809-17.214-2.809
		c-2.281,0-4.618,0.133-6.95,0.392c-9.782,1.099-19.027,4.684-27.478,10.652c-7.173,5.066-13.038,11.451-17.44,18.981
		c-0.911,1.56-0.911,2.752,0.003,4.25C5.706,55.67,11.877,61.942,18.984,66.731z"/>
	<g>
		<path fill="#379FEF" d="M104.124,43.411c-4.102-7.116-9.391-13.125-15.73-17.868c-2.66-1.991-5.403-3.655-8.183-5.158
			L97.699,2.894L94.805,0L7.019,87.786l2.894,2.894l18.544-18.543c7.101,3.067,14.985,4.948,23.887,5.4
			c0.731-0.04,1.459-0.066,2.186-0.091c1.558-0.054,3.117-0.106,4.652-0.327c9.993-1.426,19.027-4.891,26.844-10.3
			c7.552-5.225,13.643-11.817,18.105-19.59C104.92,45.86,104.914,44.786,104.124,43.411z M67.986,32.609
			c2.883,3.522,4.67,7.951,4.63,12.838c-0.086,11.16-9.248,20.247-20.368,20.208c-4.824-0.016-9.199-1.794-12.69-4.618
			L67.986,32.609z M99.92,47.636c-7.678,11.908-18.407,20.001-31.888,24.056c-5.323,1.601-10.683,2.413-15.927,2.413
			c-7.087,0-14.126-1.637-21.036-4.578l6.06-6.061c4.084,3.412,9.276,5.556,15.056,5.587c13.095,0.071,23.793-10.552,23.813-23.646
			c0.009-5.841-2.135-11.1-5.58-15.229l7.213-7.214c8.805,4.426,16.321,11.005,22.28,20.026
			C100.95,44.558,100.953,46.035,99.92,47.636z"/>
	</g>
	
		<rect x="53.384" y="-14.284" transform="matrix(0.7071 0.7071 -0.7071 0.7071 49.8499 -24.7535)" opacity="0.5" fill="#379FEF" width="2.841" height="124.164"/>
</g>
</svg>
