<?xml version="1.0" encoding="utf-8"?>
<!-- Generator: Adobe Illustrator 17.0.0, SVG Export Plug-In . SVG Version: 6.00 Build 0)  -->
<!DOCTYPE svg PUBLIC "-//W3C//DTD SVG 1.1//EN" "http://www.w3.org/Graphics/SVG/1.1/DTD/svg11.dtd">
<svg version="1.1" id="Layer_1" xmlns="http://www.w3.org/2000/svg" xmlns:xlink="http://www.w3.org/1999/xlink" x="0px" y="0px"
	 width="589.082px" height="527.995px" viewBox="0 0 589.082 527.995" enable-background="new 0 0 589.082 527.995"
	 xml:space="preserve">
<g>
	<polygon fill="#FFE285" points="500.217,527.995 70.549,527.995 70.549,0 589.082,0 589.082,451.036 	"/>
	<g>
		<g>
			<path fill="#FFD349" d="M172.842,82.104c-0.892,0-1.612-0.722-1.612-1.612V65.449c0-0.892,0.721-1.612,1.612-1.612
				s1.612,0.721,1.612,1.612v15.043C174.455,81.383,173.734,82.104,172.842,82.104"/>
			<path fill="#FFD349" d="M160.913,57.954c-3.295,0-5.975,2.955-5.975,6.588v10.913c0,3.633,2.68,6.588,5.977,6.588
				c3.295,0,5.975-2.955,5.975-6.588V64.542C166.89,60.909,164.21,57.954,160.913,57.954z M163.665,75.455
				c0,1.855-1.235,3.364-2.75,3.364c-1.518,0-2.753-1.508-2.753-3.364V64.542c0-1.855,1.235-3.364,2.75-3.364
				c1.518,0,2.753,1.509,2.753,3.364V75.455z"/>
			<path fill="#FFD349" d="M149.069,67.382c0.882,0,1.59-0.703,1.619-1.578v-1.262c0-3.633-2.68-6.588-5.977-6.588
				c-3.295,0-5.975,2.955-5.975,6.588v10.913c0,3.633,2.68,6.588,5.977,6.588c3.295,0,5.975-2.955,5.975-6.588V73.87
				c-0.028-0.875-0.737-1.578-1.619-1.578c-0.859,0-1.545,0.672-1.606,1.515v1.648c0,1.855-1.235,3.364-2.75,3.364
				c-1.518,0-2.753-1.508-2.753-3.364V64.542c0-1.855,1.235-3.364,2.75-3.364c1.518,0,2.753,1.509,2.753,3.364v1.324
				C147.525,66.71,148.21,67.382,149.069,67.382z"/>
			<path fill="#FFD349" d="M190.586,64.464c0-3.627-2.671-6.578-5.958-6.588v0l-0.008,0l-0.008,0v0
				c-3.287,0.01-5.958,2.961-5.958,6.588l-0.019,15.987c0,0.891,0.721,1.612,1.612,1.612c0.892,0,1.612-0.722,1.612-1.612
				l0.019-15.987c0-1.852,1.23-3.358,2.742-3.363c1.511,0.006,2.741,1.511,2.741,3.363l0.019,15.987
				c0,0.891,0.721,1.612,1.612,1.612c0.892,0,1.612-0.722,1.612-1.612L190.586,64.464z"/>
			<g>
				<path fill="#FFD349" d="M122.542,64.598c0-3.589,2.643-6.508,5.895-6.518v0l0.008,0l0.008,0v0
					c3.252,0.01,5.895,2.93,5.895,6.518l0.019,15.818c0,0.881-0.713,1.595-1.595,1.595s-1.595-0.714-1.595-1.595l-0.019-15.818
					c0-1.832-1.217-3.322-2.712-3.327c-1.495,0.005-2.712,1.495-2.712,3.327v10.895c0,3.868-2.605,6.508-5.857,6.518v0
					c0,0-0.005,0-0.008,0l-0.008,0v0c-3.252-0.01-5.895-2.93-5.895-6.518l-0.019-9.887c0-0.881,0.713-1.595,1.595-1.595
					c0.882,0,1.595,0.714,1.595,1.595l0.019,9.887c0,1.832,1.217,3.322,2.712,3.327c1.495-0.005,2.675-1.282,2.675-3.327V64.598z"/>
			</g>
			<g>
				<path fill="#FFD349" d="M122.196,53.767c-0.272,0-0.548-0.071-0.799-0.221c-0.741-0.442-0.984-1.401-0.542-2.142
					c3.086-5.176,7.472-9.511,12.683-12.536c5.372-3.119,11.512-4.767,17.758-4.767c6.199,0,12.299,1.625,17.642,4.7
					c5.181,2.982,9.559,7.261,12.661,12.374c0.447,0.738,0.212,1.699-0.526,2.146c-0.738,0.448-1.699,0.212-2.146-0.526
					c-2.829-4.664-6.822-8.566-11.548-11.286c-4.869-2.802-10.43-4.283-16.083-4.283c-5.695,0-11.293,1.502-16.189,4.344
					c-4.752,2.759-8.753,6.713-11.568,11.434C123.247,53.495,122.728,53.767,122.196,53.767z"/>
			</g>
			<g>
				<path fill="#FFD349" d="M151.296,104.935c-11.039,0-21.251-5.012-28.018-13.749c-0.528-0.682-0.404-1.664,0.279-2.192
					c0.682-0.529,1.664-0.403,2.192,0.279c6.171,7.968,15.482,12.538,25.547,12.538c10.081,0,19.401-4.581,25.572-12.57
					c0.528-0.683,1.509-0.809,2.192-0.281c0.683,0.527,0.809,1.509,0.281,2.192C172.574,99.911,162.352,104.935,151.296,104.935z"/>
			</g>
			<circle fill="#FFD349" cx="115.551" cy="59.781" r="1.763"/>
			<circle fill="#FFD349" cx="172.803" cy="60.308" r="1.763"/>
		</g>
	</g>
	<path fill="#FFD349" d="M565.247,129.757H98.889c-0.552,0-1-0.448-1-1s0.448-1,1-1h466.359c0.552,0,1,0.448,1,1
		S565.8,129.757,565.247,129.757z"/>
	<g>
		<path fill="#FFDA64" d="M456.924,463.824c-1.673,6.536-8.328,10.478-14.864,8.805l-164.918-42.217
			c-6.536-1.673-10.478-8.328-8.805-14.864l96.232-375.924L553.156,87.9L456.924,463.824z"/>
		<path fill="#3F47E1" d="M463.399,459.715c-1.673,6.536-8.328,10.478-14.864,8.805l-164.918-42.217
			c-6.536-1.673-10.478-8.328-8.805-14.864l96.232-375.924L559.63,83.791L463.399,459.715z"/>
		<g>
			<path fill="#1B84D4" d="M374.338,110.983c-0.263,0-0.521-0.106-0.707-0.293c-0.186-0.185-0.293-0.443-0.293-0.706
				c0-0.264,0.107-0.522,0.293-0.708c0.371-0.372,1.041-0.372,1.414,0c0.186,0.186,0.292,0.444,0.292,0.708
				c0,0.263-0.106,0.521-0.293,0.706C374.858,110.877,374.6,110.983,374.338,110.983z"/>
			<path fill="#1B84D4" d="M514.461,146.885c-0.534-0.137-0.857-0.682-0.72-1.216l0,0c0.137-0.536,0.682-0.858,1.217-0.721l0,0
				c0.535,0.136,0.858,0.682,0.72,1.216l0,0c-0.115,0.453-0.522,0.753-0.968,0.753l0,0
				C514.628,146.917,514.544,146.907,514.461,146.885z M508.613,145.389c-0.535-0.138-0.858-0.683-0.721-1.217l0,0
				c0.137-0.536,0.681-0.859,1.217-0.721l0,0c0.535,0.137,0.858,0.681,0.721,1.217l0,0c-0.116,0.451-0.523,0.752-0.969,0.752l0,0
				C508.779,145.42,508.696,145.41,508.613,145.389z M502.764,143.891c-0.535-0.137-0.858-0.682-0.721-1.217l0,0
				c0.137-0.535,0.682-0.857,1.217-0.721l0,0c0.535,0.137,0.858,0.682,0.721,1.217l0,0c-0.116,0.452-0.522,0.753-0.969,0.752l0,0
				C502.93,143.922,502.847,143.912,502.764,143.891z M496.915,142.393c-0.535-0.136-0.858-0.681-0.721-1.216l0,0
				c0.138-0.535,0.682-0.858,1.217-0.721l0,0c0.535,0.136,0.858,0.682,0.721,1.217l0,0c-0.116,0.452-0.522,0.752-0.968,0.752l0,0
				C497.082,142.425,496.998,142.415,496.915,142.393z M491.067,140.897c-0.536-0.137-0.858-0.682-0.721-1.217l0,0
				c0.137-0.536,0.681-0.858,1.217-0.721l0,0c0.534,0.137,0.857,0.681,0.72,1.217l0,0c-0.116,0.451-0.522,0.752-0.968,0.752l0,0
				C491.233,140.928,491.15,140.918,491.067,140.897z M485.218,139.399c-0.536-0.137-0.858-0.682-0.721-1.217l0,0
				c0.136-0.534,0.682-0.857,1.217-0.721l0,0c0.535,0.137,0.857,0.683,0.72,1.217l0,0c-0.115,0.453-0.522,0.753-0.968,0.753l0,0
				C485.384,139.431,485.301,139.42,485.218,139.399z M479.368,137.902c-0.534-0.137-0.857-0.682-0.72-1.217l0,0
				c0.137-0.535,0.682-0.858,1.216-0.721l0,0c0.536,0.138,0.858,0.682,0.721,1.217l0,0c-0.115,0.452-0.521,0.752-0.967,0.752l0,0
				C479.536,137.933,479.452,137.923,479.368,137.902z M473.52,136.405c-0.535-0.137-0.857-0.682-0.721-1.217l0,0
				c0.137-0.535,0.682-0.858,1.217-0.721l0,0c0.535,0.137,0.858,0.682,0.721,1.217l0,0c-0.116,0.452-0.523,0.752-0.968,0.752l0,0
				C473.687,136.436,473.603,136.426,473.52,136.405z M467.671,134.907c-0.535-0.137-0.858-0.681-0.721-1.217l0,0
				c0.137-0.534,0.683-0.857,1.217-0.721l0,0c0.535,0.137,0.858,0.683,0.721,1.217l0,0c-0.115,0.452-0.522,0.753-0.967,0.753l0,0
				C467.838,134.939,467.755,134.929,467.671,134.907z M461.822,133.411c-0.535-0.138-0.858-0.683-0.721-1.217l0,0
				c0.138-0.536,0.682-0.859,1.217-0.721l0,0c0.535,0.137,0.858,0.681,0.721,1.217l0,0c-0.116,0.451-0.522,0.752-0.968,0.752l0,0
				C461.989,133.442,461.905,133.432,461.822,133.411z M455.973,131.913c-0.535-0.137-0.858-0.682-0.72-1.217l0,0
				c0.137-0.535,0.681-0.858,1.217-0.721l0,0c0.534,0.137,0.857,0.682,0.72,1.217l0,0c-0.116,0.452-0.522,0.752-0.968,0.752l0,0
				C456.14,131.944,456.056,131.934,455.973,131.913z M450.125,130.416c-0.536-0.137-0.858-0.682-0.721-1.217l0,0
				c0.137-0.535,0.681-0.858,1.217-0.721l0,0c0.534,0.137,0.857,0.682,0.721,1.217l0,0c-0.116,0.452-0.523,0.753-0.969,0.753l0,0
				C450.291,130.448,450.208,130.437,450.125,130.416z M444.276,128.919c-0.535-0.137-0.858-0.682-0.721-1.217l0,0
				c0.137-0.536,0.682-0.858,1.217-0.721l0,0c0.535,0.137,0.857,0.681,0.721,1.217l0,0c-0.116,0.451-0.523,0.752-0.969,0.752l0,0
				C444.442,128.95,444.359,128.94,444.276,128.919z M438.427,127.421c-0.535-0.137-0.858-0.681-0.72-1.217l0,0
				c0.136-0.534,0.681-0.857,1.216-0.721l0,0c0.535,0.137,0.858,0.682,0.72,1.217l0,0c-0.115,0.452-0.521,0.753-0.968,0.753l0,0
				C438.593,127.453,438.51,127.442,438.427,127.421z M432.578,125.924c-0.535-0.136-0.857-0.682-0.721-1.217l0,0
				c0.137-0.535,0.682-0.857,1.217-0.72l0,0c0.535,0.136,0.858,0.681,0.721,1.216l0,0c-0.115,0.452-0.523,0.753-0.968,0.753l0,0
				C432.745,125.956,432.661,125.945,432.578,125.924z M426.729,124.427c-0.534-0.137-0.857-0.682-0.721-1.217l0,0
				c0.137-0.535,0.683-0.858,1.217-0.721l0,0c0.536,0.137,0.858,0.682,0.721,1.217l0,0c-0.115,0.452-0.522,0.752-0.968,0.752l0,0
				C426.896,124.458,426.812,124.448,426.729,124.427z M420.88,122.929c-0.534-0.137-0.858-0.681-0.721-1.217l0,0
				c0.138-0.534,0.683-0.857,1.217-0.721l0,0c0.536,0.138,0.858,0.683,0.721,1.217l0,0c-0.115,0.452-0.521,0.753-0.967,0.753l0,0
				C421.047,122.961,420.964,122.951,420.88,122.929z M415.032,121.432c-0.536-0.136-0.858-0.682-0.721-1.216l0,0
				c0.137-0.536,0.681-0.858,1.217-0.721l0,0c0.535,0.137,0.858,0.682,0.721,1.217l0,0c-0.116,0.452-0.523,0.752-0.968,0.752l0,0
				C415.198,121.464,415.115,121.454,415.032,121.432z M409.183,119.935c-0.536-0.137-0.858-0.681-0.721-1.217l0,0
				c0.137-0.534,0.682-0.858,1.217-0.721l0,0c0.535,0.137,0.858,0.682,0.721,1.217l0,0c-0.116,0.452-0.522,0.752-0.968,0.752l0,0
				C409.35,119.966,409.266,119.956,409.183,119.935z M403.334,118.438c-0.535-0.138-0.858-0.682-0.721-1.217l0,0
				c0.138-0.535,0.682-0.858,1.217-0.721l0,0c0.535,0.137,0.857,0.682,0.721,1.217l0,0c-0.116,0.452-0.522,0.752-0.969,0.752l0,0
				C403.5,118.469,403.417,118.459,403.334,118.438z M397.486,116.941c-0.536-0.137-0.859-0.682-0.721-1.217l0,0
				c0.136-0.535,0.681-0.858,1.216-0.721l0,0c0.535,0.137,0.858,0.682,0.721,1.217l0,0c-0.116,0.452-0.522,0.752-0.968,0.752l0,0
				C397.652,116.972,397.569,116.962,397.486,116.941z M391.636,115.444c-0.535-0.138-0.857-0.682-0.72-1.217l0,0
				c0.136-0.535,0.681-0.859,1.216-0.721l0,0c0.535,0.137,0.858,0.681,0.721,1.216l0,0c-0.115,0.453-0.522,0.753-0.968,0.753l0,0
				C391.803,115.475,391.719,115.465,391.636,115.444z M385.787,113.946c-0.534-0.136-0.857-0.682-0.721-1.217l0,0
				c0.137-0.535,0.683-0.857,1.217-0.721l0,0c0.536,0.137,0.858,0.682,0.721,1.217l0,0c-0.115,0.452-0.522,0.753-0.968,0.753l0,0
				C385.954,113.978,385.87,113.967,385.787,113.946z M379.938,112.449c-0.534-0.137-0.857-0.682-0.72-1.217l0,0
				c0.137-0.535,0.682-0.858,1.217-0.721l0,0c0.535,0.138,0.858,0.682,0.72,1.217l0,0c-0.115,0.452-0.521,0.752-0.967,0.752l0,0
				C380.106,112.48,380.022,112.47,379.938,112.449z"/>
			<path fill="#1B84D4" d="M520.558,148.414c-0.264,0-0.522-0.107-0.708-0.294c-0.185-0.186-0.292-0.444-0.292-0.706
				c0-0.263,0.107-0.521,0.293-0.707c0.373-0.373,1.043-0.372,1.415,0c0.186,0.186,0.292,0.444,0.292,0.707
				c0,0.263-0.106,0.52-0.292,0.707C521.08,148.307,520.822,148.414,520.558,148.414z"/>
		</g>
		<g>
			<g>
				<g>
					<g>
						<circle fill="#FFE285" cx="465.337" cy="59.654" r="5.696"/>
					</g>
					<g>
						<circle fill="#FFE285" cx="444.72" cy="54.376" r="5.696"/>
					</g>
					<g>
						<circle fill="#FFE285" cx="424.104" cy="49.099" r="5.696"/>
					</g>
					<g>
						<circle fill="#FFE285" cx="403.487" cy="43.821" r="5.696"/>
					</g>
					<g>
						<circle fill="#FFE285" cx="382.871" cy="38.544" r="5.696"/>
					</g>
				</g>
				<g>
					<g>
						<circle fill="#FFE285" cx="547.803" cy="80.764" r="5.696"/>
					</g>
					<g>
						<circle fill="#FFE285" cx="527.187" cy="75.487" r="5.696"/>
					</g>
					<g>
						<circle fill="#FFE285" cx="506.57" cy="70.209" r="5.696"/>
					</g>
					<g>
						<circle fill="#FFE285" cx="485.953" cy="64.932" r="5.696"/>
					</g>
				</g>
			</g>
		</g>
		<g>
			<g>
				<g>
					<path fill="#1B84D4" d="M456.704,164.553c-0.084,0-0.17-0.01-0.255-0.032l-56.629-14.496c-0.549-0.141-0.88-0.7-0.74-1.249
						s0.699-0.88,1.249-0.74l56.629,14.496c0.549,0.141,0.88,0.7,0.74,1.249C457.579,164.245,457.162,164.553,456.704,164.553z"/>
					<path fill="#1B84D4" d="M442.505,177.474c-0.084,0-0.17-0.01-0.255-0.032l-46.407-11.88c-0.549-0.141-0.88-0.7-0.74-1.249
						s0.7-0.88,1.249-0.74l46.407,11.88c0.549,0.141,0.88,0.7,0.74,1.249C443.38,177.166,442.963,177.474,442.505,177.474z"/>
					<path fill="#1B84D4" d="M430.717,166.179c-0.084,0-0.17-0.01-0.255-0.032l-32.631-8.353c-0.549-0.141-0.88-0.7-0.74-1.249
						c0.141-0.549,0.699-0.879,1.249-0.74l32.631,8.353c0.549,0.141,0.88,0.7,0.74,1.249
						C431.592,165.87,431.175,166.179,430.717,166.179z"/>
					<path fill="#1B84D4" d="M486.66,171.617c-0.084,0-0.17-0.01-0.255-0.032l-12.006-3.073c-0.549-0.141-0.88-0.7-0.74-1.249
						c0.141-0.549,0.7-0.88,1.249-0.74l12.006,3.073c0.549,0.141,0.88,0.7,0.74,1.249
						C487.534,171.308,487.117,171.617,486.66,171.617z"/>
					<path fill="#1B84D4" d="M512.63,178.265c-0.084,0-0.17-0.01-0.255-0.032l-20.703-5.3c-0.549-0.141-0.88-0.7-0.74-1.249
						c0.141-0.549,0.7-0.879,1.249-0.74l20.703,5.3c0.549,0.141,0.88,0.7,0.74,1.249
						C513.504,177.957,513.087,178.265,512.63,178.265z"/>
					<g>
						<g>
							<path fill="#1B84D4" d="M379.041,140.416c0.349,0,0.699,0.137,0.938,0.367l7.154,6.896c0.326,0.314,0.46,0.776,0.351,1.205
								l-2.434,9.506c-0.11,0.428-0.45,0.769-0.887,0.888l-9.588,2.61c-0.111,0.03-0.227,0.046-0.344,0.046
								c-0.111,0-0.223-0.014-0.331-0.042c-0.222-0.057-0.426-0.171-0.59-0.329l-7.154-6.896c-0.326-0.314-0.46-0.776-0.351-1.204
								l2.434-9.507c0.11-0.428,0.449-0.768,0.887-0.887l9.589-2.61C378.818,140.43,378.928,140.416,379.041,140.416
								 M379.041,139.262c-0.213,0-0.425,0.027-0.631,0.083l-9.588,2.61c-0.837,0.228-1.489,0.885-1.701,1.714l-2.434,9.507
								c-0.212,0.83,0.043,1.719,0.668,2.321l7.154,6.896c0.307,0.296,0.689,0.509,1.105,0.616c0.203,0.052,0.41,0.078,0.617,0.078
								c0.219,0,0.437-0.029,0.648-0.086l9.588-2.61c0.837-0.228,1.489-0.885,1.701-1.715l2.434-9.506
								c0.212-0.83-0.043-1.719-0.668-2.321l-7.154-6.896C380.319,139.507,379.679,139.262,379.041,139.262L379.041,139.262z"/>
						</g>
						<g>
							<path fill="#1B84D4" d="M377.259,153.474c-0.367,0-0.735-0.047-1.094-0.138c-2.351-0.602-3.773-3.003-3.172-5.354
								c0.499-1.949,2.251-3.31,4.26-3.31c0.367,0,0.735,0.047,1.094,0.138c2.35,0.602,3.773,3.003,3.171,5.354
								C381.02,152.112,379.268,153.474,377.259,153.474z M377.253,145.825c-1.482,0-2.774,1.004-3.142,2.442
								c-0.444,1.734,0.606,3.506,2.34,3.95c0.265,0.068,0.537,0.102,0.808,0.102c1.482,0,2.774-1.004,3.142-2.442
								c0.444-1.734-0.606-3.506-2.34-3.95C377.796,145.86,377.524,145.825,377.253,145.825z"/>
							<g>
								<path fill="#1B84D4" d="M382.152,160.876l-1.137-0.199c0.574-3.274-1.557-6.499-4.85-7.342
									c-3.294-0.844-6.711,0.962-7.781,4.108l-1.093-0.372c1.263-3.714,5.286-5.846,9.16-4.854
									C380.325,153.209,382.829,157.012,382.152,160.876z"/>
							</g>
						</g>
					</g>
				</g>
			</g>
			<g>
				<path fill="#1B84D4" d="M446.88,202.932c-0.084,0-0.17-0.01-0.255-0.032l-56.629-14.496c-0.549-0.141-0.88-0.7-0.74-1.249
					c0.141-0.549,0.699-0.88,1.249-0.74l56.629,14.496c0.549,0.141,0.88,0.7,0.74,1.249
					C447.754,202.624,447.337,202.932,446.88,202.932z"/>
				<path fill="#1B84D4" d="M432.681,215.854c-0.084,0-0.17-0.01-0.255-0.032l-46.407-11.88c-0.549-0.141-0.88-0.7-0.74-1.249
					c0.141-0.549,0.699-0.88,1.249-0.74l46.407,11.88c0.549,0.141,0.88,0.7,0.74,1.249
					C433.555,215.546,433.138,215.854,432.681,215.854z"/>
				<path fill="#1B84D4" d="M420.892,204.558c-0.084,0-0.17-0.01-0.255-0.032l-32.631-8.353c-0.549-0.141-0.88-0.7-0.74-1.249
					c0.141-0.549,0.699-0.879,1.249-0.74l32.631,8.353c0.549,0.141,0.88,0.7,0.74,1.249
					C421.767,204.25,421.35,204.558,420.892,204.558z"/>
				<path fill="#1B84D4" d="M476.835,209.997c-0.084,0-0.17-0.01-0.255-0.032l-12.006-3.073c-0.549-0.141-0.88-0.7-0.74-1.249
					c0.141-0.549,0.7-0.881,1.249-0.74l12.006,3.073c0.549,0.141,0.88,0.7,0.74,1.249
					C477.71,209.688,477.292,209.997,476.835,209.997z"/>
				<path fill="#1B84D4" d="M502.805,216.645c-0.084,0-0.17-0.01-0.255-0.032l-20.703-5.3c-0.549-0.141-0.88-0.7-0.74-1.249
					c0.141-0.549,0.699-0.88,1.249-0.74l20.703,5.3c0.549,0.141,0.88,0.7,0.74,1.249
					C503.68,216.336,503.262,216.645,502.805,216.645z"/>
				<g>
					<g>
						<path fill="#1B84D4" d="M367.516,192.026c-0.375,0-0.751-0.048-1.118-0.141c-2.402-0.615-3.855-3.069-3.241-5.47
							c0.51-1.991,2.3-3.382,4.353-3.382c0.375,0,0.751,0.047,1.118,0.141c2.402,0.615,3.855,3.069,3.24,5.47
							C371.359,190.635,369.569,192.026,367.516,192.026z M367.511,184.186c-1.526,0-2.856,1.034-3.235,2.514
							c-0.457,1.785,0.624,3.609,2.409,4.066c0.273,0.07,0.553,0.105,0.831,0.105c1.526,0,2.856-1.034,3.235-2.514
							c0.457-1.785-0.624-3.609-2.409-4.066C368.07,184.222,367.79,184.186,367.511,184.186z"/>
						<g>
							<path fill="#1B84D4" d="M372.4,200.062l-1.118-0.286l0.122-0.478c0.54-3.334-1.608-6.543-5.006-7.413
								c-3.383-0.865-6.894,0.988-7.993,4.221l-0.077,0.309l-1.118-0.286l0.09-0.351c1.305-3.843,5.421-6.026,9.385-5.01
								c3.981,1.019,6.495,4.788,5.848,8.766L372.4,200.062z"/>
						</g>
					</g>
					<path fill="#1B84D4" d="M366.956,178.908L366.956,178.908c0.898,0,1.799,0.114,2.678,0.339
						c5.75,1.472,9.231,7.348,7.759,13.099c-1.221,4.769-5.506,8.099-10.42,8.099c-0.898,0-1.799-0.114-2.678-0.339
						c-5.75-1.473-9.231-7.349-7.76-13.099C357.756,182.238,362.041,178.908,366.956,178.908 M366.955,177.754
						c-5.314,0-10.159,3.581-11.538,8.966c-1.632,6.377,2.214,12.87,8.591,14.503c0.992,0.254,1.985,0.375,2.964,0.375
						c5.314,0,10.16-3.581,11.538-8.966c1.632-6.377-2.214-12.87-8.591-14.502C368.929,177.875,367.934,177.754,366.955,177.754
						L366.955,177.754z"/>
				</g>
			</g>
			<g>
				<path fill="#1B84D4" d="M417.405,318.072c-0.084,0-0.17-0.01-0.255-0.032l-56.629-14.496c-0.549-0.141-0.88-0.7-0.74-1.249
					s0.699-0.88,1.249-0.74l56.629,14.496c0.549,0.141,0.88,0.7,0.74,1.249C418.28,317.764,417.863,318.072,417.405,318.072z"/>
				<path fill="#1B84D4" d="M403.206,330.993c-0.084,0-0.17-0.01-0.255-0.032l-46.407-11.88c-0.549-0.141-0.88-0.7-0.74-1.249
					s0.699-0.88,1.249-0.74l46.407,11.88c0.549,0.141,0.88,0.7,0.74,1.249C404.081,330.685,403.664,330.993,403.206,330.993z"/>
				<path fill="#1B84D4" d="M391.418,319.698c-0.084,0-0.17-0.01-0.255-0.032l-32.631-8.353c-0.549-0.141-0.88-0.7-0.74-1.249
					c0.141-0.549,0.699-0.879,1.249-0.74l32.631,8.353c0.549,0.141,0.88,0.7,0.74,1.249
					C392.293,319.389,391.876,319.698,391.418,319.698z"/>
				<path fill="#1B84D4" d="M447.361,325.136c-0.084,0-0.17-0.01-0.255-0.032l-12.006-3.073c-0.549-0.141-0.88-0.7-0.74-1.249
					c0.141-0.549,0.7-0.88,1.249-0.74l12.006,3.073c0.549,0.141,0.88,0.7,0.74,1.249
					C448.235,324.828,447.818,325.136,447.361,325.136z"/>
				<path fill="#1B84D4" d="M473.331,331.784c-0.084,0-0.17-0.01-0.255-0.032l-20.703-5.3c-0.549-0.141-0.88-0.7-0.74-1.249
					c0.141-0.549,0.699-0.88,1.249-0.74l20.703,5.3c0.549,0.141,0.88,0.7,0.74,1.249
					C474.205,331.476,473.788,331.784,473.331,331.784z"/>
				<g>
					<g>
						<path fill="#1B84D4" d="M338.042,307.165c-0.375,0-0.751-0.047-1.118-0.141c-2.402-0.615-3.855-3.069-3.241-5.47
							c0.51-1.991,2.3-3.382,4.353-3.382c0.375,0,0.751,0.048,1.118,0.141c2.402,0.615,3.855,3.069,3.24,5.47
							C341.885,305.775,340.095,307.165,338.042,307.165z M338.037,299.326c-1.526,0-2.856,1.034-3.235,2.514
							c-0.457,1.785,0.624,3.609,2.409,4.066c0.273,0.07,0.553,0.105,0.831,0.105c1.526,0,2.856-1.034,3.235-2.514
							c0.457-1.785-0.624-3.609-2.409-4.066C338.595,299.361,338.316,299.326,338.037,299.326z"/>
						<g>
							<path fill="#1B84D4" d="M342.926,315.201l-1.118-0.286l0.122-0.478c0.54-3.334-1.608-6.543-5.006-7.413
								c-3.383-0.864-6.894,0.988-7.993,4.221l-0.077,0.309l-1.118-0.286l0.09-0.351c1.305-3.843,5.421-6.025,9.385-5.01
								c3.981,1.019,6.495,4.788,5.848,8.766L342.926,315.201z"/>
						</g>
					</g>
					<path fill="#1B84D4" d="M337.482,294.047L337.482,294.047c0.897,0,1.798,0.114,2.677,0.339c5.75,1.472,9.231,7.348,7.76,13.099
						c-1.221,4.768-5.506,8.098-10.421,8.098c-0.898,0-1.799-0.114-2.678-0.339c-2.786-0.713-5.127-2.468-6.592-4.942
						s-1.88-5.371-1.167-8.156C328.282,297.378,332.567,294.047,337.482,294.047 M337.481,292.893
						c-5.314,0-10.16,3.581-11.538,8.966c-1.632,6.377,2.214,12.87,8.591,14.502c0.992,0.254,1.986,0.375,2.964,0.375
						c5.314,0,10.16-3.581,11.539-8.966c1.632-6.377-2.214-12.871-8.591-14.503C339.454,293.014,338.46,292.893,337.481,292.893
						L337.481,292.893z"/>
				</g>
			</g>
			<g>
				<path fill="#1B84D4" d="M437.055,241.312c-0.084,0-0.17-0.01-0.255-0.032l-56.629-14.496c-0.549-0.141-0.88-0.7-0.74-1.249
					c0.141-0.549,0.699-0.879,1.249-0.74l56.629,14.496c0.549,0.141,0.88,0.7,0.74,1.249
					C437.93,241.004,437.512,241.312,437.055,241.312z"/>
				<path fill="#1B84D4" d="M422.856,254.234c-0.084,0-0.17-0.01-0.255-0.032l-46.407-11.88c-0.549-0.141-0.88-0.7-0.74-1.249
					c0.141-0.549,0.7-0.879,1.249-0.74l46.407,11.88c0.549,0.141,0.88,0.7,0.74,1.249
					C423.73,253.925,423.313,254.234,422.856,254.234z"/>
				<path fill="#1B84D4" d="M411.068,242.938c-0.084,0-0.17-0.01-0.255-0.032l-32.631-8.353c-0.549-0.141-0.88-0.7-0.74-1.249
					c0.141-0.549,0.699-0.88,1.249-0.74l32.631,8.353c0.549,0.141,0.88,0.7,0.74,1.249
					C411.942,242.63,411.525,242.938,411.068,242.938z"/>
				<path fill="#1B84D4" d="M467.01,248.377c-0.084,0-0.17-0.01-0.255-0.032l-12.006-3.073c-0.549-0.141-0.88-0.7-0.74-1.249
					c0.141-0.549,0.699-0.879,1.249-0.74l12.006,3.073c0.549,0.141,0.88,0.7,0.74,1.249
					C467.885,248.068,467.468,248.377,467.01,248.377z"/>
				<path fill="#1B84D4" d="M492.98,255.025c-0.084,0-0.17-0.01-0.255-0.032l-20.703-5.3c-0.549-0.141-0.88-0.7-0.74-1.249
					c0.141-0.549,0.699-0.879,1.249-0.74l20.703,5.3c0.549,0.141,0.88,0.7,0.74,1.249
					C493.855,254.716,493.438,255.025,492.98,255.025z"/>
				<g>
					<g>
						<path fill="#1B84D4" d="M359.39,217.175c0.35,0,0.7,0.137,0.938,0.367l7.154,6.896c0.326,0.314,0.46,0.776,0.351,1.205
							l-2.434,9.506c-0.11,0.428-0.449,0.768-0.887,0.887l-9.589,2.611c-0.111,0.03-0.227,0.046-0.344,0.046
							c-0.111,0-0.222-0.014-0.33-0.042c-0.222-0.057-0.426-0.171-0.59-0.329l-7.154-6.896c-0.326-0.314-0.46-0.776-0.351-1.205
							l2.434-9.506c0.11-0.428,0.45-0.769,0.887-0.888l9.588-2.61C359.167,217.19,359.277,217.175,359.39,217.175 M359.39,216.021
							c-0.212,0-0.425,0.027-0.63,0.083l-9.588,2.61c-0.837,0.228-1.489,0.885-1.701,1.715l-2.434,9.506
							c-0.212,0.83,0.043,1.719,0.668,2.321l7.154,6.896c0.307,0.296,0.689,0.509,1.105,0.616c0.202,0.052,0.409,0.078,0.616,0.078
							c0.219,0,0.437-0.029,0.648-0.087l9.588-2.61c0.837-0.228,1.489-0.885,1.701-1.714l2.434-9.506
							c0.212-0.83-0.043-1.719-0.668-2.321l-7.154-6.896C360.669,216.267,360.029,216.021,359.39,216.021L359.39,216.021z"/>
					</g>
					<g>
						<path fill="#1B84D4" d="M357.609,230.233c-0.367,0-0.735-0.047-1.094-0.138c-2.35-0.602-3.773-3.003-3.171-5.354
							c0.499-1.949,2.251-3.31,4.26-3.31c0.367,0,0.735,0.047,1.094,0.138c2.351,0.602,3.773,3.003,3.172,5.354
							C361.37,228.872,359.619,230.233,357.609,230.233z M357.604,222.585c-1.482,0-2.774,1.004-3.142,2.442
							c-0.444,1.734,0.606,3.506,2.34,3.95c0.265,0.068,0.537,0.102,0.808,0.102c1.482,0,2.774-1.004,3.142-2.442
							c0.444-1.734-0.606-3.506-2.34-3.95C358.146,222.619,357.875,222.585,357.604,222.585z"/>
						<g>
							<path fill="#1B84D4" d="M362.502,237.636l-1.137-0.199c0.574-3.274-1.557-6.499-4.85-7.342
								c-3.294-0.844-6.711,0.962-7.781,4.108l-1.093-0.372c1.263-3.714,5.286-5.846,9.16-4.854
								C360.675,229.968,363.179,233.772,362.502,237.636z"/>
						</g>
					</g>
				</g>
			</g>
			<g>
				<path fill="#1B84D4" d="M427.23,279.692c-0.084,0-0.17-0.01-0.255-0.032l-56.629-14.496c-0.549-0.141-0.88-0.7-0.74-1.249
					c0.141-0.549,0.699-0.879,1.249-0.74l56.629,14.496c0.549,0.141,0.88,0.7,0.74,1.249
					C428.105,279.384,427.688,279.692,427.23,279.692z"/>
				<path fill="#1B84D4" d="M413.031,292.614c-0.084,0-0.17-0.01-0.255-0.032l-46.407-11.88c-0.549-0.141-0.88-0.7-0.74-1.249
					c0.141-0.549,0.699-0.879,1.249-0.74l46.407,11.88c0.549,0.141,0.88,0.7,0.74,1.249
					C413.906,292.305,413.489,292.614,413.031,292.614z"/>
				<path fill="#1B84D4" d="M401.243,281.318c-0.084,0-0.17-0.01-0.255-0.032l-32.631-8.353c-0.549-0.141-0.88-0.7-0.74-1.249
					c0.141-0.549,0.699-0.88,1.249-0.74l32.631,8.353c0.549,0.141,0.88,0.7,0.74,1.249
					C402.118,281.009,401.701,281.318,401.243,281.318z"/>
				<path fill="#1B84D4" d="M457.185,286.756c-0.084,0-0.17-0.01-0.255-0.032l-12.006-3.073c-0.549-0.141-0.88-0.7-0.74-1.249
					c0.141-0.549,0.7-0.88,1.249-0.74l12.006,3.073c0.549,0.141,0.88,0.7,0.74,1.249
					C458.06,286.448,457.643,286.756,457.185,286.756z"/>
				<path fill="#1B84D4" d="M483.155,293.404c-0.084,0-0.17-0.01-0.255-0.032l-20.703-5.3c-0.549-0.141-0.88-0.7-0.74-1.249
					c0.141-0.549,0.699-0.879,1.249-0.74l20.703,5.3c0.549,0.141,0.88,0.7,0.74,1.249
					C484.03,293.096,483.613,293.404,483.155,293.404z"/>
				<g>
					<g>
						<path fill="#1B84D4" d="M349.566,255.555c0.349,0,0.7,0.137,0.938,0.367l7.154,6.896c0.326,0.314,0.46,0.776,0.351,1.204
							l-2.434,9.507c-0.11,0.428-0.449,0.768-0.887,0.887l-9.588,2.61c-0.112,0.031-0.229,0.046-0.346,0.046
							c-0.111,0-0.222-0.014-0.329-0.041c-0.222-0.057-0.426-0.17-0.59-0.329l-7.154-6.896c-0.326-0.314-0.46-0.776-0.351-1.205
							l2.434-9.506c0.11-0.428,0.45-0.769,0.887-0.888l9.588-2.61C349.343,255.569,349.453,255.555,349.566,255.555
							 M349.566,254.401c-0.212,0-0.425,0.027-0.631,0.083l-9.588,2.61c-0.837,0.228-1.489,0.885-1.701,1.715l-2.434,9.506
							c-0.212,0.83,0.043,1.719,0.668,2.321l7.154,6.896c0.307,0.296,0.689,0.509,1.105,0.616c0.202,0.052,0.409,0.078,0.615,0.078
							c0.219,0,0.438-0.029,0.649-0.087l9.588-2.61c0.837-0.228,1.489-0.885,1.701-1.714l2.434-9.507
							c0.212-0.83-0.043-1.719-0.668-2.321l-7.154-6.896C350.844,254.647,350.204,254.401,349.566,254.401L349.566,254.401z"/>
					</g>
					<g>
						<path fill="#1B84D4" d="M347.784,268.613c-0.367,0-0.735-0.047-1.094-0.138c-2.351-0.602-3.773-3.003-3.172-5.354
							c0.499-1.949,2.251-3.31,4.26-3.31c0.367,0,0.735,0.047,1.094,0.138c2.35,0.602,3.773,3.003,3.171,5.354
							C351.546,267.252,349.794,268.613,347.784,268.613z M347.779,260.965c-1.482,0-2.774,1.004-3.142,2.442
							c-0.444,1.734,0.606,3.506,2.34,3.95c0.265,0.068,0.537,0.102,0.808,0.102c1.482,0,2.774-1.004,3.142-2.442
							c0.444-1.734-0.606-3.506-2.34-3.95C348.322,260.999,348.05,260.965,347.779,260.965z"/>
						<g>
							<path fill="#1B84D4" d="M352.677,276.016l-1.137-0.199c0.574-3.274-1.557-6.499-4.85-7.342
								c-3.293-0.843-6.711,0.961-7.781,4.108l-1.093-0.372c1.263-3.714,5.286-5.847,9.16-4.854
								C350.851,268.348,353.355,272.152,352.677,276.016z"/>
						</g>
					</g>
				</g>
			</g>
			<g>
				<path fill="#1B84D4" d="M407.581,356.452c-0.084,0-0.17-0.01-0.255-0.032l-56.629-14.496c-0.549-0.141-0.88-0.7-0.74-1.249
					c0.141-0.549,0.699-0.879,1.249-0.74l56.629,14.496c0.549,0.141,0.88,0.7,0.74,1.249
					C408.455,356.143,408.038,356.452,407.581,356.452z"/>
				<path fill="#1B84D4" d="M393.382,369.373c-0.084,0-0.17-0.01-0.255-0.032l-46.407-11.88c-0.549-0.141-0.88-0.7-0.74-1.249
					c0.141-0.549,0.699-0.879,1.249-0.74l46.407,11.88c0.549,0.141,0.88,0.7,0.74,1.249
					C394.256,369.065,393.839,369.373,393.382,369.373z"/>
				<path fill="#1B84D4" d="M381.593,358.078c-0.084,0-0.17-0.01-0.255-0.032l-32.631-8.353c-0.549-0.141-0.88-0.7-0.74-1.249
					c0.141-0.549,0.699-0.88,1.249-0.74l32.631,8.353c0.549,0.141,0.88,0.7,0.74,1.249
					C382.468,357.769,382.051,358.078,381.593,358.078z"/>
				<path fill="#1B84D4" d="M437.536,363.516c-0.084,0-0.17-0.01-0.255-0.032l-12.006-3.073c-0.549-0.141-0.88-0.7-0.74-1.249
					c0.141-0.549,0.699-0.879,1.249-0.74l12.006,3.073c0.549,0.141,0.88,0.7,0.74,1.249
					C438.411,363.208,437.993,363.516,437.536,363.516z"/>
				<path fill="#1B84D4" d="M463.506,370.164c-0.084,0-0.17-0.01-0.255-0.032l-20.703-5.3c-0.549-0.141-0.88-0.7-0.74-1.249
					c0.141-0.549,0.699-0.88,1.249-0.74l20.703,5.3c0.549,0.141,0.88,0.7,0.74,1.249
					C464.381,369.856,463.963,370.164,463.506,370.164z"/>
				<g>
					<g>
						<path fill="#1B84D4" d="M329.917,332.315c0.349,0,0.699,0.137,0.938,0.367l7.154,6.896c0.326,0.314,0.46,0.776,0.351,1.205
							l-2.434,9.506c-0.11,0.428-0.45,0.769-0.887,0.888l-9.588,2.61c-0.111,0.03-0.227,0.046-0.344,0.046
							c-0.111,0-0.223-0.014-0.331-0.042c-0.223-0.057-0.427-0.17-0.59-0.328l-7.154-6.896c-0.326-0.314-0.46-0.776-0.351-1.204
							l2.434-9.507c0.11-0.428,0.449-0.768,0.887-0.887l9.589-2.61C329.694,332.329,329.804,332.315,329.917,332.315
							 M329.917,331.161c-0.213,0-0.425,0.027-0.631,0.083l-9.588,2.61c-0.837,0.228-1.489,0.885-1.701,1.714l-2.434,9.507
							c-0.212,0.83,0.043,1.719,0.668,2.321l7.154,6.896c0.307,0.296,0.689,0.509,1.105,0.615c0.202,0.052,0.41,0.078,0.617,0.078
							c0.218,0,0.437-0.029,0.648-0.086l9.588-2.61c0.837-0.228,1.489-0.885,1.701-1.715l2.434-9.506
							c0.212-0.83-0.043-1.719-0.668-2.321l-7.154-6.896C331.195,331.406,330.556,331.161,329.917,331.161L329.917,331.161z"/>
					</g>
					<g>
						<path fill="#1B84D4" d="M328.135,345.372c-0.367,0-0.735-0.047-1.094-0.138c-2.35-0.602-3.773-3.003-3.171-5.354
							c0.499-1.949,2.251-3.31,4.26-3.31c0.367,0,0.735,0.047,1.094,0.138c2.351,0.602,3.773,3.003,3.172,5.354
							C331.896,344.011,330.144,345.372,328.135,345.372z M328.13,337.724c-1.482,0-2.774,1.004-3.142,2.442
							c-0.444,1.734,0.606,3.506,2.34,3.95c0.265,0.068,0.537,0.102,0.808,0.102c1.482,0,2.774-1.004,3.142-2.442
							c0.444-1.734-0.606-3.506-2.34-3.95C328.672,337.759,328.4,337.724,328.13,337.724z"/>
						<g>
							<path fill="#1B84D4" d="M333.028,352.775l-1.137-0.199c0.574-3.274-1.557-6.499-4.85-7.342
								c-3.294-0.844-6.711,0.961-7.781,4.108l-1.093-0.372c1.263-3.714,5.286-5.846,9.16-4.854
								C331.201,345.108,333.705,348.911,333.028,352.775z"/>
						</g>
					</g>
				</g>
			</g>
		</g>
		<g>
			<g>
				<path fill="#1B84D4" d="M470.199,116.086c-0.069,0-0.14-0.009-0.21-0.027l-17.659-4.521c-0.503,1.237-1.39,2.271-2.559,2.963
					c-1.413,0.837-3.068,1.074-4.659,0.666c-3.236-0.828-5.234-4.144-4.455-7.39l5.716-22.33c0.308-1.203,1.603-1.915,2.887-1.586
					l17.548,4.492c0.606,0.155,1.125,0.519,1.46,1.024c0.353,0.532,0.463,1.155,0.31,1.754l-4.616,18.033
					c-0.115,0.451-0.575,0.723-1.026,0.608c-0.451-0.115-0.723-0.575-0.608-1.026l4.616-18.033c0.043-0.167-0.021-0.312-0.081-0.404
					c-0.104-0.156-0.272-0.271-0.473-0.323l-17.548-4.492c-0.376-0.095-0.759,0.074-0.835,0.371l-5.713,22.318
					c-0.562,2.344,0.888,4.749,3.236,5.351c1.155,0.295,2.355,0.124,3.381-0.484c1.026-0.607,1.753-1.578,2.049-2.733
					c0.055-0.217,0.195-0.402,0.387-0.516c0.193-0.114,0.422-0.147,0.639-0.091l18.421,4.716c0.451,0.115,0.723,0.575,0.608,1.026
					C470.918,115.832,470.575,116.086,470.199,116.086z"/>
				<path fill="#1B84D4" d="M462.317,93.832c-0.069,0-0.14-0.009-0.21-0.027l-11.343-2.904c-0.451-0.115-0.723-0.575-0.608-1.026
					c0.116-0.451,0.575-0.724,1.026-0.608l11.343,2.904c0.451,0.115,0.723,0.575,0.608,1.026
					C463.036,93.578,462.693,93.832,462.317,93.832z"/>
				<path fill="#1B84D4" d="M461.008,98.947c-0.069,0-0.14-0.009-0.21-0.027l-11.343-2.904c-0.451-0.115-0.723-0.575-0.608-1.026
					c0.116-0.451,0.575-0.723,1.026-0.608l11.343,2.904c0.451,0.115,0.723,0.575,0.608,1.026
					C461.726,98.693,461.384,98.947,461.008,98.947z"/>
				<path fill="#1B84D4" d="M459.698,104.062c-0.069,0-0.14-0.009-0.21-0.027l-11.343-2.904c-0.451-0.115-0.723-0.575-0.608-1.026
					c0.116-0.451,0.575-0.724,1.026-0.608l11.343,2.904c0.451,0.115,0.723,0.575,0.608,1.026
					C460.417,103.808,460.074,104.062,459.698,104.062z"/>
			</g>
		</g>
		<g>
			<path fill="#1B84D4" d="M424.283,427.905c-0.084,0-0.17-0.01-0.255-0.032l-64.518-16.516c-0.549-0.141-0.88-0.7-0.74-1.249
				c0.141-0.549,0.7-0.879,1.249-0.74l64.518,16.516c0.549,0.141,0.88,0.7,0.74,1.249
				C425.157,427.597,424.74,427.905,424.283,427.905z"/>
			<g>
				<g>
					<g>
						<circle fill="#3F47E1" cx="343.98" cy="399.993" r="8.842"/>
						<path fill="#1B84D4" d="M343.974,392.302L343.974,392.302c0.641,0,1.284,0.082,1.912,0.242
							c4.107,1.052,6.593,5.249,5.542,9.355c-0.872,3.406-3.932,5.784-7.442,5.784c-0.641,0-1.285-0.082-1.913-0.242
							c-4.107-1.051-6.593-5.248-5.542-9.355C337.403,394.681,340.464,392.303,343.974,392.302 M343.974,391.149
							c-3.943,0-7.538,2.657-8.561,6.652c-1.211,4.731,1.643,9.548,6.374,10.759c0.736,0.188,1.473,0.278,2.199,0.278
							c3.942,0,7.538-2.657,8.56-6.652c1.211-4.731-1.642-9.548-6.373-10.759C345.437,391.238,344.7,391.149,343.974,391.149
							L343.974,391.149z"/>
					</g>
					<g>
						<g>
							<line fill="#37BDEF" x1="344.952" y1="396.197" x2="344.721" y2="397.099"/>
							<path fill="#1B84D4" d="M344.721,397.676c-0.047,0-0.096-0.006-0.144-0.018c-0.309-0.079-0.495-0.393-0.416-0.702
								l0.231-0.902c0.079-0.309,0.393-0.496,0.702-0.416c0.309,0.079,0.495,0.393,0.416,0.702l-0.231,0.902
								C345.213,397.503,344.978,397.676,344.721,397.676z"/>
						</g>
						<g>
							<line fill="#37BDEF" x1="343.245" y1="402.864" x2="343.008" y2="403.79"/>
							<path fill="#1B84D4" d="M343.008,404.367c-0.047,0-0.095-0.006-0.143-0.018c-0.309-0.079-0.495-0.393-0.416-0.702
								l0.237-0.926c0.079-0.309,0.393-0.495,0.702-0.416c0.309,0.079,0.495,0.393,0.416,0.702l-0.237,0.926
								C343.5,404.194,343.265,404.367,343.008,404.367z"/>
						</g>
						<g>
							<path fill="#1B84D4" d="M343.982,400.558c-0.1,0-0.201-0.026-0.293-0.081c-1.187-0.702-2.003-1.294-1.685-2.539
								c0.141-0.549,0.543-1.011,1.104-1.267c0.527-0.24,1.15-0.288,1.755-0.132c0.903,0.231,1.601,0.864,1.821,1.653
								c0.086,0.307-0.093,0.625-0.4,0.711c-0.307,0.085-0.625-0.093-0.711-0.4c-0.108-0.387-0.499-0.719-0.996-0.846
								c-0.345-0.088-0.706-0.065-0.99,0.064c-0.142,0.065-0.392,0.216-0.465,0.503c-0.088,0.344-0.128,0.501,1.154,1.259
								c0.274,0.162,0.365,0.516,0.203,0.79C344.372,400.457,344.18,400.558,343.982,400.558z"/>
							<path fill="#1B84D4" d="M343.805,403.512c-0.233,0-0.469-0.03-0.703-0.09c-0.903-0.231-1.601-0.864-1.821-1.653
								c-0.086-0.307,0.093-0.625,0.4-0.711c0.307-0.085,0.625,0.093,0.711,0.4c0.108,0.387,0.499,0.719,0.996,0.846
								c0.346,0.088,0.706,0.065,0.99-0.064c0.142-0.065,0.392-0.217,0.465-0.503c0.088-0.344,0.128-0.501-1.154-1.26
								c-0.274-0.162-0.365-0.516-0.203-0.79c0.162-0.275,0.516-0.365,0.79-0.203c1.187,0.702,2.003,1.295,1.685,2.539
								c-0.141,0.549-0.543,1.011-1.104,1.267C344.534,403.438,344.174,403.512,343.805,403.512z"/>
						</g>
					</g>
					<g>
						<path fill="#3F47E1" d="M324.006,404.909c1.144-4.469,5.695-7.165,10.164-6.021c4.469,1.144,7.165,5.695,6.021,10.164
							c-1.144,4.469-5.695,7.165-10.164,6.021"/>
						<path fill="#1B84D4" d="M332.114,415.915c-0.743,0-1.491-0.094-2.23-0.283c-0.309-0.079-0.495-0.393-0.416-0.702
							c0.079-0.309,0.393-0.496,0.702-0.416c2.012,0.514,4.105,0.216,5.892-0.843c1.787-1.059,3.055-2.75,3.57-4.762
							c1.063-4.154-1.451-8.399-5.605-9.462c-4.154-1.062-8.399,1.451-9.462,5.605c-0.079,0.309-0.393,0.496-0.702,0.416
							c-0.309-0.079-0.495-0.393-0.416-0.702c1.221-4.77,6.096-7.658,10.866-6.437c4.77,1.221,7.658,6.096,6.437,10.866
							c-0.592,2.311-2.048,4.253-4.1,5.469C335.254,415.492,333.696,415.915,332.114,415.915z"/>
					</g>
					<g>
						<g>
							<line fill="#37BDEF" x1="324.643" y1="411.435" x2="334.05" y2="405.828"/>
							<path fill="#1B84D4" d="M324.644,412.013c-0.197,0-0.388-0.101-0.496-0.282c-0.163-0.274-0.074-0.628,0.2-0.791l9.406-5.607
								c0.274-0.163,0.628-0.073,0.791,0.2c0.163,0.274,0.074,0.628-0.2,0.791l-9.406,5.607
								C324.846,411.986,324.744,412.013,324.644,412.013z"/>
						</g>
						<g>
							<line fill="#37BDEF" x1="332.625" y1="411.393" x2="334.05" y2="405.828"/>
							<path fill="#1B84D4" d="M332.625,411.97c-0.047,0-0.096-0.006-0.143-0.018c-0.309-0.079-0.495-0.393-0.416-0.702l1.425-5.565
								c0.079-0.309,0.394-0.496,0.702-0.416c0.309,0.079,0.495,0.393,0.416,0.702l-1.425,5.565
								C333.117,411.797,332.883,411.97,332.625,411.97z"/>
						</g>
						<g>
							<line fill="#37BDEF" x1="334.05" y1="405.828" x2="328.457" y2="404.396"/>
							<path fill="#1B84D4" d="M334.05,406.405c-0.047,0-0.096-0.006-0.143-0.018l-5.593-1.432
								c-0.309-0.079-0.495-0.393-0.416-0.702c0.079-0.309,0.393-0.496,0.702-0.416l5.593,1.432
								c0.309,0.079,0.495,0.393,0.416,0.702C334.542,406.232,334.307,406.405,334.05,406.405z"/>
						</g>
					</g>
				</g>
			</g>
		</g>
	</g>
	<g>
		<g>
			<path fill="#FFC818" d="M61.635,185.089L0.528,423.801c-2.295,8.966,3.113,18.096,12.079,20.391l57.942,14.833V174.18
				C66.276,176.259,62.906,180.124,61.635,185.089z"/>
			<path fill="#FFDA64" d="M228.207,482.084l61.107-238.711c2.295-8.966-3.113-18.096-12.079-20.391L82.026,173.01
				c-4.002-1.024-8.032-0.506-11.477,1.17v284.844l137.268,35.139C216.783,496.458,225.912,491.05,228.207,482.084z"/>
		</g>
		<path fill="#FFFFFF" d="M234.58,477.87c-2.295,8.966-11.424,14.374-20.391,12.079l-195.21-49.971
			c-8.966-2.295-14.374-11.424-12.079-20.391l61.107-238.712c2.295-8.966,11.424-14.374,20.391-12.079l195.21,49.971
			c8.966,2.295,14.374,11.424,12.079,20.391L234.58,477.87z"/>
		<g>
			<path fill="#379FEF" d="M266.736,261.014c-1.887,7.373-9.394,11.82-16.767,9.933l-157.14-40.226
				c-7.373-1.887-11.82-9.394-9.933-16.767l1.455-5.682c1.887-7.373,9.394-11.82,16.767-9.933l157.14,40.226
				c7.373,1.887,11.82,9.394,9.933,16.767L266.736,261.014z"/>
			<path fill="#51AAEF" d="M105.404,277.378c-1.887,7.373-9.394,11.82-16.767,9.933l-9.662-2.473
				c-7.373-1.887-11.82-9.394-9.933-16.767l1.455-5.682c1.887-7.373,9.394-11.82,16.767-9.933l9.662,2.473
				c7.373,1.887,11.82,9.394,9.933,16.767L105.404,277.378z"/>
			<path fill="#51AAEF" d="M154.564,289.962c-1.887,7.373-9.394,11.82-16.767,9.933l-9.662-2.473
				c-7.373-1.887-11.82-9.394-9.933-16.767l1.455-5.682c1.887-7.373,9.394-11.82,16.767-9.933l9.662,2.473
				c7.373,1.887,11.82,9.394,9.933,16.767L154.564,289.962z"/>
			<path fill="#51AAEF" d="M203.723,302.546c-1.887,7.373-9.394,11.82-16.767,9.933l-9.662-2.473
				c-7.373-1.887-11.82-9.394-9.933-16.767l1.455-5.682c1.887-7.373,9.394-11.82,16.767-9.933l9.662,2.473
				c7.373,1.887,11.82,9.394,9.933,16.767L203.723,302.546z"/>
			<path fill="#379FEF" d="M252.883,315.13c-1.887,7.373-9.394,11.82-16.767,9.933l-9.662-2.473
				c-7.373-1.887-11.82-9.394-9.933-16.767l1.455-5.682c1.887-7.373,9.394-11.82,16.767-9.933l9.662,2.473
				c7.373,1.887,11.82,9.394,9.933,16.767L252.883,315.13z"/>
			<path fill="#51AAEF" d="M93.856,322.492c-1.887,7.373-9.394,11.82-16.767,9.933l-9.662-2.473
				c-7.373-1.887-11.82-9.394-9.933-16.767l1.455-5.682c1.887-7.373,9.394-11.82,16.767-9.933l9.662,2.473
				c7.373,1.887,11.82,9.394,9.933,16.767L93.856,322.492z"/>
			<path fill="#51AAEF" d="M143.015,335.077c-1.887,7.373-9.394,11.82-16.767,9.933l-9.662-2.473
				c-7.373-1.887-11.82-9.394-9.933-16.767l1.455-5.682c1.887-7.373,9.394-11.82,16.767-9.933l9.662,2.473
				c7.373,1.887,11.82,9.394,9.933,16.767L143.015,335.077z"/>
			<path fill="#51AAEF" d="M192.175,347.661c-1.887,7.373-9.394,11.82-16.767,9.933l-9.662-2.473
				c-7.373-1.887-11.82-9.394-9.933-16.767l1.455-5.682c1.887-7.373,9.394-11.82,16.767-9.933l9.662,2.473
				c7.373,1.887,11.82,9.394,9.933,16.767L192.175,347.661z"/>
			<path fill="#379FEF" d="M241.334,360.245c-1.887,7.373-9.394,11.82-16.767,9.933l-9.662-2.473
				c-7.373-1.887-11.82-9.394-9.933-16.767l1.455-5.682c1.887-7.373,9.394-11.82,16.767-9.933l9.662,2.473
				c7.373,1.887,11.82,9.394,9.933,16.767L241.334,360.245z"/>
			<path fill="#51AAEF" d="M82.307,367.607c-1.887,7.373-9.394,11.82-16.767,9.933l-9.662-2.473
				c-7.373-1.887-11.82-9.394-9.933-16.767l1.455-5.682c1.887-7.373,9.394-11.82,16.767-9.933l9.662,2.473
				c7.373,1.887,11.82,9.394,9.933,16.767L82.307,367.607z"/>
			<path fill="#51AAEF" d="M131.466,380.191c-1.887,7.373-9.394,11.82-16.767,9.933l-9.662-2.473
				c-7.373-1.887-11.82-9.394-9.933-16.767l1.455-5.682c1.887-7.373,9.394-11.82,16.767-9.933l9.662,2.473
				c7.373,1.887,11.82,9.394,9.933,16.767L131.466,380.191z"/>
			<path fill="#51AAEF" d="M180.626,392.776c-1.887,7.373-9.394,11.82-16.767,9.933l-9.662-2.473
				c-7.373-1.887-11.82-9.394-9.933-16.767l1.455-5.682c1.887-7.373,9.394-11.82,16.767-9.933l9.662,2.473
				c7.373,1.887,11.82,9.394,9.933,16.767L180.626,392.776z"/>
			<path fill="#51AAEF" d="M70.758,412.722c-1.887,7.373-9.394,11.82-16.767,9.933l-9.662-2.473
				c-7.373-1.887-11.82-9.394-9.933-16.767l1.455-5.682c1.887-7.373,9.394-11.82,16.767-9.933l9.662,2.473
				c7.373,1.887,11.82,9.394,9.933,16.767L70.758,412.722z"/>
			<path fill="#51AAEF" d="M119.917,425.306c-1.887,7.373-9.394,11.82-16.767,9.933l-9.662-2.473
				c-7.373-1.887-11.82-9.394-9.933-16.767l1.455-5.682c1.887-7.373,9.394-11.82,16.767-9.933l9.662,2.473
				c7.373,1.887,11.82,9.394,9.933,16.767L119.917,425.306z"/>
			<path fill="#51AAEF" d="M169.077,437.89c-1.887,7.373-9.394,11.82-16.767,9.933l-9.662-2.473
				c-7.373-1.887-11.82-9.394-9.933-16.767l1.455-5.682c1.887-7.373,9.394-11.82,16.767-9.933l9.662,2.473
				c7.373,1.887,11.82,9.394,9.933,16.767L169.077,437.89z"/>
			<path fill="#379FEF" d="M218.236,450.475c-1.887,7.373-9.394,11.82-16.767,9.933l-9.662-2.473
				c-7.373-1.887-11.82-9.394-9.933-16.767l13.003-50.797c1.887-7.373,9.394-11.82,16.767-9.933l9.662,2.473
				c7.373,1.887,11.82,9.394,9.933,16.767L218.236,450.475z"/>
		</g>
		<g>
			<g>
				<path fill="#1B7BD4" d="M203.509,249.888l0.341-1.332c5.728-2.516,8.898-4.057,9.483-6.343c0.438-1.71-0.791-2.787-2.162-3.138
					c-1.591-0.407-2.996-0.047-4.027,0.749l-0.744-1.313c1.36-1.092,3.278-1.385,5.147-0.906c2.207,0.565,4.133,2.392,3.456,5.037
					c-0.692,2.704-4.067,4.467-8.513,6.443l6.501,1.664l-0.377,1.471L203.509,249.888z"/>
				<path fill="#1B7BD4" d="M215.368,255.614l-0.598-0.81c0.743-0.255,1.518-0.883,1.766-1.518c-0.045,0.01-0.189-0.006-0.289-0.031
					c-0.537-0.137-0.842-0.681-0.695-1.258s0.732-0.957,1.328-0.804c0.676,0.173,1.11,0.877,0.866,1.831
					C217.436,254.237,216.45,255.192,215.368,255.614z"/>
				<path fill="#1B7BD4" d="M220.791,247.257c0.916-3.579,3.421-6.412,7.158-5.455c1.69,0.433,2.68,1.364,3.251,2.527l-1.151,1.019
					c-0.472-0.969-1.105-1.724-2.477-2.075c-2.584-0.662-4.404,1.648-5.071,4.252c-0.046,0.179-0.087,0.338-0.132,0.517
					c0.811-0.767,2.577-1.543,4.287-1.105c2.386,0.611,3.973,2.521,3.25,5.344c-0.585,2.286-2.859,3.886-5.742,3.148
					C220.446,254.478,219.864,250.876,220.791,247.257z M228.221,251.913c0.499-1.948-0.619-3.209-2.309-3.642
					c-1.332-0.341-2.813,0.149-3.824,1.118c-0.283,1.686,0.067,3.958,2.374,4.548C226.509,254.462,227.9,253.166,228.221,251.913z"
					/>
				<path fill="#1B7BD4" d="M236.77,258.402l0.86-3.36l-6.302-1.614l0.351-1.372l7.87-7.074l2.266,0.58l-2.163,8.45l1.869,0.479
					l-0.372,1.451l-1.869-0.479l-0.86,3.36L236.77,258.402z M239.773,246.672l-6.424,5.729l4.652,1.191L239.773,246.672z"/>
				<path fill="#1B7BD4" d="M243.634,253.105c0.916-3.579,3.421-6.412,7.159-5.455c1.69,0.433,2.68,1.364,3.251,2.527l-1.151,1.019
					c-0.472-0.969-1.105-1.724-2.477-2.075c-2.585-0.662-4.405,1.648-5.071,4.252c-0.046,0.179-0.087,0.338-0.132,0.517
					c0.811-0.767,2.577-1.543,4.287-1.105c2.386,0.611,3.973,2.521,3.25,5.344c-0.585,2.286-2.859,3.886-5.742,3.148
					C243.29,260.326,242.708,256.724,243.634,253.105z M251.064,257.761c0.499-1.948-0.619-3.209-2.309-3.642
					c-1.332-0.341-2.813,0.149-3.824,1.118c-0.283,1.686,0.067,3.958,2.374,4.548C249.353,260.31,250.744,259.014,251.064,257.761z"
					/>
			</g>
		</g>
	</g>
	<polygon fill="#FFDA64" points="500.217,527.995 589.082,451.036 589.082,527.995 	"/>
</g>
</svg>
