<?xml version="1.0" encoding="utf-8"?>
<!-- Generator: Adobe Illustrator 17.0.0, SVG Export Plug-In . SVG Version: 6.00 Build 0)  -->
<!DOCTYPE svg PUBLIC "-//W3C//DTD SVG 1.1//EN" "http://www.w3.org/Graphics/SVG/1.1/DTD/svg11.dtd">
<svg version="1.1" id="Layer_1" xmlns="http://www.w3.org/2000/svg" xmlns:xlink="http://www.w3.org/1999/xlink" x="0px" y="0px"
	 width="129.726px" height="142.93px" viewBox="0 0 129.726 142.93" enable-background="new 0 0 129.726 142.93"
	 xml:space="preserve">
<g>
	<path fill="#DDE6E8" d="M122.572,30.557L72.019,1.852C69.848,0.617,67.355,0,64.863,0c-2.492,0-4.985,0.617-7.154,1.851
		L7.154,30.557C2.741,33.062,0,37.732,0,42.743v57.411c0,5.011,2.741,9.68,7.154,12.186l50.554,28.705
		c2.171,1.234,4.645,1.886,7.155,1.886c2.51,0,4.985-0.652,7.155-1.886l50.554-28.705c4.413-2.506,7.154-7.175,7.154-12.186V42.743
		C129.726,37.732,126.985,33.062,122.572,30.557z M70.297,138.02c-1.645,0.936-3.524,1.431-5.434,1.431
		c-1.909,0-3.789-0.495-5.437-1.432l-33.903-19.251c1.603-20.196,19.05-36.005,39.761-36.005c20.557,0,37.881,15.579,39.704,35.559
		L70.297,138.02z M126.247,100.153c0,3.761-2.066,7.271-5.393,9.16l-12.553,7.127c-2.286-17.64-15.691-31.858-32.848-35.959
		c8.217-3.846,13.937-12.17,13.937-21.826c0-13.292-10.815-24.106-24.107-24.106S41.177,45.363,41.177,58.656
		c0,9.655,5.719,17.98,13.936,21.826c-17.3,4.136-30.782,18.562-32.898,36.408l-13.344-7.577c-3.326-1.889-5.393-5.398-5.393-9.16
		V42.743c0-3.762,2.066-7.271,5.393-9.16L59.43,4.876c1.605-0.914,3.484-1.396,5.433-1.396c1.949,0,3.829,0.483,5.438,1.398
		l50.553,28.706c3.326,1.888,5.393,5.398,5.393,9.16V100.153z M65.284,79.284c-11.374,0-20.627-9.253-20.627-20.628
		c0-11.374,9.253-20.627,20.627-20.627c11.374,0,20.628,9.253,20.628,20.627C85.911,70.03,76.658,79.284,65.284,79.284z"/>
</g>
</svg>
