<?xml version="1.0" encoding="utf-8"?>
<!-- Generator: Adobe Illustrator 17.0.0, SVG Export Plug-In . SVG Version: 6.00 Build 0)  -->
<!DOCTYPE svg PUBLIC "-//W3C//DTD SVG 1.1//EN" "http://www.w3.org/Graphics/SVG/1.1/DTD/svg11.dtd">
<svg version="1.1" id="Layer_1" xmlns="http://www.w3.org/2000/svg" xmlns:xlink="http://www.w3.org/1999/xlink" x="0px" y="0px"
	 width="204.761px" height="184.663px" viewBox="0 0 204.761 184.663" enable-background="new 0 0 204.761 184.663"
	 xml:space="preserve">
<g>
	<g>
		<g>
			<path fill="#FEC29B" d="M204.761,3.107c0-1.716-1.391-3.107-3.107-3.107H3.107C1.391,0,0,1.391,0,3.107V167.34h204.761V3.107z"/>
			<g>
				<circle fill="#FE9F60" cx="11.196" cy="11.428" r="2.483"/>
				<circle fill="#FE9F60" cx="22.306" cy="11.428" r="2.483"/>
				<circle fill="#FE9F60" cx="33.415" cy="11.428" r="2.483"/>
			</g>
		</g>
		<g>
			<g>
				<g>
					<rect x="5.976" y="23.155" fill="#FE9F60" width="192.835" height="137.407"/>
				</g>
			</g>
		</g>
	</g>
	<g>
		<g>
			<g>
				<path fill="#FE9F60" d="M85.303,38.211h-56c-2.941,0-5.324,2.635-5.324,5.885v54.886c0,3.25,2.384,5.885,5.324,5.885h56
					c2.941,0,5.324-2.635,5.324-5.885V44.096C90.628,40.846,88.244,38.211,85.303,38.211z"/>
				<path fill="#F7F5EF" d="M85.644,37.806h-56.68c-2.976,0-5.389,2.667-5.389,5.956v55.553c0,3.29,2.413,5.956,5.389,5.956h56.68
					c2.976,0,5.389-2.667,5.389-5.956V43.763C91.033,40.473,88.62,37.806,85.644,37.806z M36.647,96.241
					c0.814-10.537,9.911-18.792,20.711-18.792s19.898,8.254,20.709,18.722v7.289H36.649L36.647,96.241z M57.358,75.637
					c-5.923,0-10.742-4.819-10.742-10.742s4.819-10.742,10.742-10.742S68.1,58.972,68.1,64.895
					C68.1,70.819,63.281,75.637,57.358,75.637z"/>
			</g>
		</g>
		<g>
			<g>
				<path fill="#F7F5EF" d="M131.441,124.656l-26.996-15.329c-1.159-0.659-2.49-0.989-3.821-0.989s-2.662,0.33-3.82,0.989
					l-26.996,15.329c-2.357,1.338-3.82,3.831-3.82,6.507v30.658c0,2.676,1.464,5.169,3.82,6.507l26.996,15.329
					c1.159,0.659,2.48,1.007,3.821,1.007c1.341,0,2.662-0.348,3.821-1.007l26.996-15.329c2.356-1.338,3.82-3.831,3.82-6.507v-30.658
					C135.261,128.487,133.797,125.994,131.441,124.656z"/>
			</g>
			<g>
				<path fill="#379FEF" d="M131.441,124.656l-26.996-15.329c-1.159-0.659-2.49-0.989-3.821-0.989s-2.662,0.33-3.82,0.989
					l-26.996,15.329c-2.357,1.338-3.82,3.831-3.82,6.507v30.658c0,2.676,1.464,5.169,3.82,6.507l26.996,15.329
					c1.159,0.659,2.48,1.007,3.821,1.007s2.662-0.348,3.821-1.007l26.996-15.329c2.356-1.338,3.82-3.831,3.82-6.507v-30.658
					C135.261,128.487,133.797,125.993,131.441,124.656z M103.526,182.041c-0.879,0.5-1.882,0.764-2.902,0.764
					s-2.023-0.264-2.904-0.765l-18.105-10.28c0.856-10.785,10.173-19.227,21.233-19.227c10.978,0,20.228,8.319,21.202,18.989
					L103.526,182.041z M100.849,150.676c-6.074,0-11.015-4.941-11.015-11.015s4.941-11.015,11.015-11.015
					s11.015,4.941,11.015,11.015C111.864,145.734,106.923,150.676,100.849,150.676z"/>
			</g>
		</g>
		<g>
			<g>
				<path fill="#F7F5EF" d="M147.071,43.623c-19.897,0-36.026,16.129-36.026,36.026s16.129,36.026,36.026,36.026
					s36.026-16.129,36.026-36.026S166.967,43.623,147.071,43.623z"/>
			</g>
			<g>
				<path fill="#FFD349" d="M147.071,43.622c-19.897,0-36.026,16.129-36.026,36.026s16.129,36.026,36.026,36.026
					s36.026-16.129,36.026-36.026S166.968,43.622,147.071,43.622z M126.012,105.851l-0.003-1.025
					c0.828-10.716,10.08-19.109,21.062-19.109c11.032,0,20.078,8.108,21.037,18.777v1.491l-0.096,0.663
					c-5.789,4.501-13.058,7.184-20.942,7.184c-7.916,0-15.208-2.708-21.009-7.242L126.012,105.851z M147.071,83.874
					c-6.023,0-10.923-4.9-10.923-10.923c0-6.023,4.9-10.923,10.923-10.923s10.923,4.9,10.923,10.923
					C157.994,78.974,153.094,83.874,147.071,83.874z"/>
			</g>
			<g>
				<path fill="none" d="M147.071,43.622c-19.897,0-36.026,16.129-36.026,36.026s16.129,36.026,36.026,36.026
					s36.026-16.129,36.026-36.026S166.968,43.622,147.071,43.622z"/>
			</g>
		</g>
		<g>
			<path fill="#F79A5E" d="M57.357,54.153c-5.923,0-10.742,4.819-10.742,10.742c0,3.173,1.391,6.021,3.587,7.989L65.346,57.74
				C63.378,55.544,60.53,54.153,57.357,54.153z"/>
			<path fill="#F0EEE8" d="M23.978,98.982V44.096c0-3.25,2.383-5.885,5.324-5.885h55.573l0.405-0.405H28.963
				c-2.976,0-5.389,2.667-5.389,5.956v55.553c0,0.064,0.007,0.125,0.009,0.188l0.401-0.401
				C23.983,99.062,23.978,99.023,23.978,98.982z"/>
			<path fill="#F0EEE8" d="M23.978,44.096v54.886c0,0.041,0.005,0.08,0.005,0.12l26.218-26.218
				c-2.195-1.968-3.587-4.816-3.587-7.989c0-5.923,4.819-10.742,10.742-10.742c3.173,0,6.021,1.391,7.989,3.587l19.529-19.529
				H29.302C26.361,38.211,23.978,40.846,23.978,44.096z"/>
			<path fill="#F0EEE8" d="M97.719,182.04c0.881,0.501,1.884,0.765,2.904,0.765c1.02,0,2.023-0.264,2.902-0.764l18.524-10.519
				c-0.758-8.308-6.543-15.17-14.245-17.81l-21.721,21.721L97.719,182.04z"/>
			<path fill="#3599E6" d="M100.623,184.663c1.341,0,2.662-0.348,3.821-1.007l26.996-15.329c2.356-1.338,3.82-3.831,3.82-6.507
				v-30.658c0-0.341-0.024-0.679-0.071-1.013c-0.003-0.021-0.01-0.042-0.013-0.063c-0.047-0.312-0.11-0.62-0.195-0.922
				c-0.004-0.014-0.011-0.028-0.015-0.042c-0.089-0.307-0.196-0.609-0.323-0.902c-0.001-0.003-0.003-0.006-0.005-0.009
				c-0.132-0.301-0.283-0.594-0.453-0.876c-0.001-0.001-0.002-0.003-0.003-0.004l-26.379,26.379
				c7.702,2.64,13.487,9.502,14.245,17.81l-18.524,10.519c-0.879,0.5-1.882,0.764-2.902,0.764c-1.02,0-2.023-0.264-2.904-0.765
				l-11.636-6.607l-1.363,1.363l0.808,0.459l11.274,6.401C97.961,184.315,99.282,184.663,100.623,184.663z"/>
			<path fill="#F0EEE8" d="M126.008,104.826l0.003,1.025l0.049,0.739c5.801,4.534,13.093,7.242,21.009,7.242
				c5.731,0,11.134-1.423,15.882-3.927l-22.959-22.959C132.354,89.639,126.649,96.526,126.008,104.826z"/>
			<path fill="#F7CD48" d="M147.069,113.832c-7.916,0-15.208-2.708-21.009-7.242l-0.049-0.739l-0.003-1.025
				c0.641-8.3,6.346-15.187,13.984-17.879l-24.553-24.552c-0.002,0.003-0.003,0.006-0.005,0.009c-0.33,0.603-0.64,1.219-0.935,1.842
				c-0.064,0.134-0.122,0.272-0.184,0.407c-0.221,0.481-0.432,0.968-0.632,1.46c-0.076,0.187-0.149,0.375-0.222,0.564
				c-0.182,0.47-0.353,0.946-0.515,1.425c-0.06,0.178-0.123,0.354-0.18,0.533c-0.204,0.635-0.394,1.275-0.563,1.925
				c-0.004,0.015-0.009,0.029-0.013,0.044c-0.173,0.668-0.323,1.345-0.457,2.028c-0.038,0.19-0.068,0.383-0.102,0.574
				c-0.089,0.493-0.17,0.99-0.239,1.49c-0.032,0.232-0.061,0.466-0.089,0.699c-0.058,0.49-0.104,0.984-0.142,1.48
				c-0.016,0.216-0.037,0.43-0.049,0.647c-0.041,0.704-0.068,1.412-0.068,2.127c0,19.897,16.129,36.025,36.026,36.025
				c0.053,0,0.106-0.004,0.159-0.004c0.652-0.003,1.3-0.025,1.944-0.062c0.242-0.014,0.482-0.036,0.723-0.055
				c0.467-0.036,0.932-0.079,1.394-0.133c0.255-0.03,0.51-0.062,0.764-0.097c0.472-0.065,0.94-0.142,1.405-0.225
				c0.216-0.039,0.433-0.073,0.648-0.116c0.67-0.133,1.335-0.28,1.991-0.449c0.055-0.014,0.109-0.032,0.165-0.047
				c0.607-0.16,1.208-0.337,1.802-0.527c0.196-0.063,0.39-0.132,0.585-0.198c0.461-0.157,0.919-0.321,1.371-0.496
				c0.2-0.077,0.401-0.156,0.599-0.236c0.48-0.195,0.954-0.401,1.424-0.616c0.144-0.066,0.291-0.128,0.434-0.196
				c0.621-0.295,1.234-0.604,1.835-0.932c0.003-0.002,0.006-0.004,0.01-0.006l-1.373-1.373
				C158.203,112.409,152.8,113.832,147.069,113.832z"/>
		</g>
	</g>
</g>
</svg>
