<?xml version="1.0" encoding="utf-8"?>
<!-- Generator: Adobe Illustrator 17.0.0, SVG Export Plug-In . SVG Version: 6.00 Build 0)  -->
<!DOCTYPE svg PUBLIC "-//W3C//DTD SVG 1.1//EN" "http://www.w3.org/Graphics/SVG/1.1/DTD/svg11.dtd">
<svg version="1.1" id="Layer_1" xmlns="http://www.w3.org/2000/svg" xmlns:xlink="http://www.w3.org/1999/xlink" x="0px" y="0px"
	 width="1445.54px" height="405.435px" viewBox="0 0 1445.54 405.435" enable-background="new 0 0 1445.54 405.435"
	 xml:space="preserve">
<g>
	<g>
		<g>
			<path fill="#23B3E8" d="M24.731,175.65c-0.143,0-0.285-0.054-0.395-0.162c-0.223-0.218-0.226-0.576-0.008-0.799L173.634,22.392
				c0.218-0.223,0.576-0.227,0.798-0.008c0.223,0.218,0.226,0.576,0.008,0.799L25.134,175.48
				C25.023,175.593,24.877,175.65,24.731,175.65z"/>
			<path fill="#23B3E8" d="M950.901,388.406c-0.149,0-0.298-0.059-0.409-0.175L636.35,58.728c-0.215-0.226-0.207-0.583,0.019-0.798
				c0.226-0.215,0.583-0.206,0.798,0.019l2.61,2.737c0.003-0.06,0.017-0.12,0.04-0.179c0.117-0.289,0.446-0.43,0.735-0.312
				l466.373,188.227l192.252-170.858c0.135-0.12,0.32-0.168,0.498-0.129c0.177,0.04,0.324,0.161,0.396,0.328l129.715,301.143
				c0.091,0.21,0.045,0.454-0.115,0.618c-0.159,0.164-0.403,0.215-0.615,0.129l-321.904-129.92L951.276,388.264
				C951.168,388.359,951.034,388.406,950.901,388.406z M640.419,61.359l310.514,325.699l155.051-137.797L640.419,61.359z
				 M1108.095,248.894l320.111,129.196L1299.344,78.927L1108.095,248.894z"/>
			<path fill="#23B3E8" d="M640.341,61.283c-0.107,0-0.216-0.031-0.312-0.095l-3.582-2.38c-0.26-0.172-0.33-0.523-0.158-0.783
				s0.523-0.331,0.783-0.158l3.582,2.38c0.26,0.172,0.33,0.523,0.158,0.783C640.703,61.194,640.524,61.283,640.341,61.283z"/>
			<path fill="#23B3E8" d="M311.132,376.344c-0.04,0-0.08-0.004-0.12-0.013c-0.185-0.04-0.338-0.17-0.406-0.347L173.511,22.992
				c-0.113-0.291,0.031-0.618,0.322-0.731c0.291-0.111,0.618,0.031,0.731,0.322L311.35,374.779L636.365,57.934
				c0.223-0.217,0.581-0.213,0.798,0.01c0.218,0.223,0.213,0.581-0.01,0.798L311.526,376.184
				C311.42,376.288,311.278,376.344,311.132,376.344z"/>
		</g>
		<path fill="#23B3E8" d="M309.956,371.702c-0.114,0-0.228-0.034-0.328-0.105L18.334,163.64c-0.254-0.181-0.313-0.534-0.131-0.788
			c0.181-0.253,0.534-0.313,0.788-0.131l291.295,207.957c0.254,0.181,0.313,0.534,0.131,0.788
			C310.306,371.619,310.132,371.702,309.956,371.702z"/>
	</g>
	<line fill="none" x1="717.059" y1="296.251" x2="717.06" y2="296.249"/>
	<line fill="none" x1="717.059" y1="296.251" x2="717.059" y2="296.249"/>
	<line fill="none" x1="717.06" y1="296.249" x2="717.06" y2="296.249"/>
	<line fill="none" x1="717.059" y1="296.249" x2="717.059" y2="296.249"/>
	<line fill="none" x1="717.06" y1="296.249" x2="717.059" y2="296.249"/>
	<polyline fill="none" points="717.06,296.251 717.06,296.251 717.06,296.249 	"/>
	<line fill="none" x1="717.059" y1="296.249" x2="717.06" y2="296.249"/>
	<line fill="none" x1="717.06" y1="296.251" x2="717.06" y2="296.249"/>
	<line fill="none" x1="717.06" y1="296.249" x2="717.06" y2="296.251"/>
	<line fill="none" x1="717.059" y1="296.251" x2="717.06" y2="296.251"/>
	<g>
		<g>
			<path fill="#23B3E8" d="M23.929,189.683C10.735,189.683,0,178.949,0,165.754c0-13.195,10.735-23.929,23.929-23.929
				c13.195,0,23.929,10.734,23.929,23.929C47.858,178.949,37.124,189.683,23.929,189.683z"/>
		</g>
		<g>
			<g>
				<path fill="#37BDEF" d="M22.748,161.588c0-2.76,2.033-5.006,4.534-5.014v0c0.002,0,0.004,0,0.006,0c0.002,0,0.004,0,0.006,0v0
					c2.502,0.008,4.534,2.253,4.534,5.014l0.015,12.167c0,0.678-0.549,1.227-1.227,1.227c-0.679,0-1.227-0.549-1.227-1.227
					l-0.015-12.167c0-1.409-0.936-2.555-2.086-2.559c-1.15,0.004-2.086,1.15-2.086,2.559v8.38c0,2.975-2.004,5.006-4.505,5.014v0
					c-0.002,0-0.004,0-0.006,0c-0.002,0-0.004,0-0.006,0v0c-2.502-0.008-4.534-2.253-4.534-5.014l-0.015-7.605
					c0-0.678,0.549-1.227,1.227-1.227c0.679,0,1.227,0.549,1.227,1.227l0.015,7.605c0,1.409,0.936,2.555,2.086,2.559
					c1.15-0.004,2.058-0.986,2.058-2.559V161.588z"/>
			</g>
			<circle fill="#37BDEF" cx="17.371" cy="157.882" r="1.356"/>
		</g>
	</g>
	<g>
		<g>
			<path fill="#23B3E8" d="M166.444,57.799c-15.935,0-28.899-12.964-28.899-28.899S150.509,0,166.444,0
				c15.935,0,28.899,12.964,28.899,28.899S182.379,57.799,166.444,57.799z"/>
		</g>
		<g>
			<g>
				<path fill="#37BDEF" d="M165.018,23.868c0-3.334,2.455-6.046,5.476-6.055v0c0.003,0,0.005,0,0.008,0c0.002,0,0.005,0,0.007,0v0
					c3.021,0.009,5.476,2.721,5.476,6.055l0.018,14.694c0,0.819-0.663,1.482-1.482,1.482c-0.819,0-1.482-0.663-1.482-1.482
					l-0.018-14.694c0-1.702-1.131-3.086-2.52-3.091c-1.389,0.005-2.52,1.389-2.52,3.091v10.121c0,3.593-2.42,6.046-5.441,6.055v0
					c-0.003,0-0.005,0-0.008,0c-0.002,0-0.005,0-0.007,0v0c-3.021-0.009-5.476-2.721-5.476-6.055l-0.018-9.185
					c0-0.819,0.663-1.482,1.482-1.482c0.819,0,1.482,0.663,1.482,1.482l0.018,9.185c0,1.702,1.131,3.086,2.52,3.091
					c1.389-0.005,2.485-1.191,2.485-3.091V23.868z"/>
			</g>
			<circle fill="#37BDEF" cx="158.524" cy="19.393" r="1.638"/>
		</g>
	</g>
	<g>
		<g>
			<path fill="#23B3E8" d="M641.568,92.377c-17.939,0-32.533-14.594-32.533-32.532s14.594-32.532,32.533-32.532
				c17.938,0,32.532,14.594,32.532,32.532S659.506,92.377,641.568,92.377z"/>
		</g>
		<g>
			<g>
				<path fill="#37BDEF" d="M639.962,54.18c0-3.753,2.764-6.806,6.165-6.816v0c0.003,0,0.006,0,0.008,0c0.003,0,0.006,0,0.008,0v0
					c3.401,0.01,6.165,3.064,6.165,6.816l0.02,16.542c0,0.922-0.746,1.668-1.668,1.668c-0.922,0-1.668-0.747-1.668-1.668
					l-0.02-16.542c0-1.916-1.273-3.474-2.837-3.48c-1.564,0.006-2.837,1.564-2.837,3.48v11.393c0,4.045-2.724,6.806-6.125,6.816v0
					c-0.003,0-0.006,0-0.009,0c-0.003,0-0.006,0-0.008,0v0c-3.401-0.01-6.165-3.064-6.165-6.816l-0.02-10.339
					c0-0.922,0.746-1.668,1.668-1.668c0.922,0,1.668,0.747,1.668,1.668l0.02,10.339c0,1.916,1.273,3.474,2.836,3.48
					c1.564-0.006,2.797-1.341,2.797-3.48V54.18z"/>
			</g>
			<circle fill="#37BDEF" cx="632.651" cy="49.142" r="1.844"/>
		</g>
	</g>
	<g>
		<g>
			<path fill="#23B3E8" d="M1302.814,98.263c-9.223,0-16.726-7.503-16.726-16.726s7.503-16.726,16.726-16.726
				c9.222,0,16.725,7.503,16.725,16.726S1312.037,98.263,1302.814,98.263z"/>
		</g>
		<g>
			<g>
				<path fill="#37BDEF" d="M1301.989,78.625c0-1.929,1.421-3.499,3.169-3.504v0c0.001,0,0.003,0,0.004,0s0.003,0,0.004,0v0
					c1.749,0.005,3.169,1.575,3.169,3.504l0.01,8.504c0,0.474-0.383,0.858-0.858,0.858s-0.858-0.384-0.858-0.858l-0.01-8.504
					c0-0.985-0.654-1.786-1.458-1.789c-0.804,0.003-1.458,0.804-1.458,1.789v5.857c0,2.079-1.401,3.499-3.149,3.504v0
					c-0.001,0-0.003,0-0.004,0s-0.003,0-0.004,0v0c-1.749-0.005-3.169-1.575-3.169-3.504l-0.01-5.316
					c0-0.474,0.383-0.858,0.858-0.858s0.858,0.384,0.858,0.858l0.01,5.316c0,0.985,0.654,1.786,1.458,1.789
					c0.804-0.003,1.438-0.689,1.438-1.789V78.625z"/>
			</g>
			<circle fill="#37BDEF" cx="1298.23" cy="76.035" r="0.948"/>
		</g>
	</g>
	<g>
		<g>
			<path fill="#23B3E8" d="M312.312,398.868c-17.939,0-32.533-14.594-32.533-32.532s14.594-32.532,32.533-32.532
				c17.938,0,32.532,14.594,32.532,32.532S330.25,398.868,312.312,398.868z"/>
		</g>
		<g>
			<g>
				<path fill="#37BDEF" d="M310.706,360.672c0-3.753,2.764-6.806,6.165-6.816v0c0.003,0,0.006,0,0.008,0c0.003,0,0.006,0,0.008,0v0
					c3.401,0.01,6.165,3.064,6.165,6.816l0.02,16.542c0,0.922-0.746,1.668-1.668,1.668c-0.922,0-1.668-0.747-1.668-1.668
					l-0.02-16.542c0-1.916-1.273-3.474-2.837-3.48c-1.564,0.006-2.837,1.564-2.837,3.48v11.393c0,4.045-2.724,6.806-6.125,6.816v0
					c-0.003,0-0.006,0-0.008,0c-0.003,0-0.006,0-0.008,0v0c-3.401-0.01-6.165-3.064-6.165-6.816l-0.02-10.339
					c0-0.922,0.746-1.668,1.668-1.668c0.922,0,1.668,0.747,1.668,1.668l0.02,10.339c0,1.916,1.273,3.474,2.837,3.48
					c1.564-0.006,2.797-1.341,2.797-3.48V360.672z"/>
			</g>
			<circle fill="#37BDEF" cx="303.395" cy="355.634" r="1.844"/>
		</g>
	</g>
	<g>
		<g>
			<g>
				<path fill="#23B3E8" d="M1103.799,273.096c-13.195,0-23.929-10.734-23.929-23.929s10.735-23.929,23.929-23.929
					c13.195,0,23.929,10.734,23.929,23.929S1116.994,273.096,1103.799,273.096z"/>
			</g>
		</g>
		<g>
			<g>
				<g>
					<path fill="#37BDEF" d="M1102.618,245.001c0-2.76,2.033-5.006,4.534-5.014v0c0.002,0,0.004,0,0.006,0s0.004,0,0.006,0v0
						c2.502,0.008,4.534,2.253,4.534,5.014l0.015,12.167c0,0.678-0.549,1.227-1.227,1.227c-0.679,0-1.227-0.549-1.227-1.227
						l-0.015-12.167c0-1.409-0.936-2.555-2.086-2.559c-1.15,0.004-2.086,1.15-2.086,2.559v8.38c0,2.975-2.004,5.006-4.505,5.014v0
						c-0.002,0-0.004,0-0.006,0s-0.004,0-0.006,0v0c-2.502-0.008-4.534-2.253-4.534-5.014l-0.015-7.605
						c0-0.678,0.549-1.227,1.227-1.227c0.679,0,1.227,0.549,1.227,1.227l0.015,7.605c0,1.409,0.936,2.555,2.086,2.559
						c1.15-0.004,2.057-0.986,2.057-2.559V245.001z"/>
				</g>
			</g>
			<circle fill="#37BDEF" cx="1097.241" cy="241.295" r="1.356"/>
		</g>
	</g>
	<g>
		<g>
			<path fill="#23B3E8" d="M1428.814,396.263c-9.223,0-16.726-7.503-16.726-16.726c0-9.223,7.503-16.726,16.726-16.726
				c9.222,0,16.725,7.503,16.725,16.726C1445.54,388.76,1438.037,396.263,1428.814,396.263z"/>
		</g>
		<g>
			<g>
				<path fill="#37BDEF" d="M1427.989,376.625c0-1.929,1.421-3.499,3.169-3.504v0c0.001,0,0.003,0,0.004,0s0.003,0,0.004,0v0
					c1.749,0.005,3.169,1.575,3.169,3.504l0.01,8.504c0,0.474-0.383,0.858-0.858,0.858s-0.858-0.384-0.858-0.858l-0.01-8.504
					c0-0.985-0.654-1.786-1.458-1.789c-0.804,0.003-1.458,0.804-1.458,1.789v5.857c0,2.079-1.401,3.499-3.149,3.504v0
					c-0.001,0-0.003,0-0.004,0s-0.003,0-0.004,0v0c-1.749-0.005-3.169-1.575-3.169-3.504l-0.01-5.316
					c0-0.474,0.383-0.858,0.858-0.858s0.858,0.384,0.858,0.858l0.01,5.316c0,0.985,0.654,1.786,1.458,1.789
					c0.804-0.003,1.438-0.689,1.438-1.789V376.625z"/>
			</g>
			<circle fill="#37BDEF" cx="1424.23" cy="374.035" r="0.948"/>
		</g>
	</g>
	<g>
		<g>
			<path fill="#23B3E8" d="M950.091,405.435c-9.223,0-16.726-7.503-16.726-16.726c0-9.223,7.503-16.726,16.726-16.726
				c9.222,0,16.726,7.503,16.726,16.726C966.817,397.932,959.314,405.435,950.091,405.435z"/>
		</g>
		<g>
			<g>
				<path fill="#37BDEF" d="M949.266,385.797c0-1.929,1.421-3.499,3.169-3.504v0c0.001,0,0.003,0,0.004,0c0.001,0,0.003,0,0.004,0v0
					c1.749,0.005,3.169,1.575,3.169,3.504l0.01,8.504c0,0.474-0.383,0.858-0.858,0.858s-0.858-0.384-0.858-0.858l-0.01-8.504
					c0-0.985-0.654-1.786-1.458-1.789c-0.804,0.003-1.458,0.804-1.458,1.789v5.857c0,2.079-1.401,3.499-3.149,3.504v0
					c-0.001,0-0.003,0-0.004,0c-0.001,0-0.003,0-0.004,0v0c-1.748-0.005-3.169-1.575-3.169-3.504l-0.01-5.316
					c0-0.474,0.383-0.858,0.858-0.858c0.474,0,0.858,0.384,0.858,0.858l0.01,5.316c0,0.985,0.654,1.786,1.458,1.789
					c0.804-0.003,1.438-0.689,1.438-1.789V385.797z"/>
			</g>
			<circle fill="#37BDEF" cx="945.507" cy="383.207" r="0.948"/>
		</g>
	</g>
</g>
</svg>
