<?xml version="1.0" encoding="utf-8"?>
<!-- Generator: Adobe Illustrator 17.0.0, SVG Export Plug-In . SVG Version: 6.00 Build 0)  -->
<!DOCTYPE svg PUBLIC "-//W3C//DTD SVG 1.1//EN" "http://www.w3.org/Graphics/SVG/1.1/DTD/svg11.dtd">
<svg version="1.1" id="Layer_1" xmlns="http://www.w3.org/2000/svg" xmlns:xlink="http://www.w3.org/1999/xlink" x="0px" y="0px"
	 width="116px" height="107px" viewBox="0 0 116 107" enable-background="new 0 0 116 107" xml:space="preserve">
<g>
	<path fill="#FFFFFF" d="M88.909,72.342c-1.335,0-2.414-1.08-2.414-2.414v-22.52c0-1.335,1.079-2.414,2.414-2.414
		s2.414,1.079,2.414,2.414v22.52C91.323,71.262,90.244,72.342,88.909,72.342"/>
	<path fill="#FFFFFF" d="M71.049,36.187c-4.932,0-8.944,4.424-8.944,9.863v16.338c0,5.439,4.012,9.863,8.949,9.863
		c4.932,0,8.944-4.424,8.944-9.863V46.051C79.998,40.612,75.986,36.187,71.049,36.187z M75.17,62.388
		c0,2.777-1.848,5.035-4.116,5.035c-2.273,0-4.121-2.258-4.121-5.035V46.051c0-2.777,1.848-5.036,4.117-5.036
		c2.273,0,4.121,2.259,4.121,5.036V62.388z"/>
	<path fill="#FFFFFF" d="M53.319,50.302c1.32,0,2.381-1.053,2.423-2.362v-1.889c0-5.439-4.012-9.863-8.949-9.863
		c-4.932,0-8.944,4.424-8.944,9.863v16.338c0,5.439,4.012,9.863,8.949,9.863c4.932,0,8.944-4.424,8.944-9.863v-2.374
		c-0.043-1.309-1.103-2.362-2.423-2.362c-1.286,0-2.312,1.005-2.404,2.269v2.467c0,2.777-1.848,5.035-4.117,5.035
		c-2.273,0-4.121-2.258-4.121-5.035V46.051c0-2.777,1.848-5.036,4.116-5.036c2.273,0,4.121,2.259,4.121,5.036v1.983
		C51.006,49.296,52.032,50.302,53.319,50.302z"/>
	<path fill="#FFFFFF" d="M115.471,45.933c0-5.43-3.999-9.848-8.92-9.863V36.07l-0.012,0l-0.012,0v0.001
		c-4.921,0.015-8.92,4.433-8.92,9.863l-0.029,23.934c0,1.334,1.079,2.414,2.414,2.414c1.335,0,2.414-1.08,2.414-2.414l0.029-23.934
		c0-2.772,1.842-5.027,4.104-5.035c2.263,0.008,4.104,2.263,4.104,5.035l0.029,23.934c0,1.334,1.079,2.414,2.414,2.414
		c1.335,0,2.414-1.08,2.414-2.414L115.471,45.933z"/>
	<g>
		<path fill="#FFFFFF" d="M13.606,46.135c0-5.372,3.956-9.743,8.825-9.758v-0.001l0.012,0l0.012,0v0.001
			c4.869,0.015,8.825,4.386,8.825,9.758l0.029,23.68c0,1.32-1.068,2.388-2.388,2.388s-2.388-1.069-2.388-2.388l-0.029-23.68
			c0-2.743-1.822-4.973-4.061-4.981c-2.239,0.008-4.061,2.239-4.061,4.981v16.31c0,5.79-3.9,9.743-8.769,9.758v0.001
			c0,0-0.008,0-0.012,0l-0.012,0v-0.001c-4.869-0.015-8.825-4.386-8.825-9.758L0.735,47.643c0-1.32,1.068-2.388,2.388-2.388
			c1.321,0,2.388,1.069,2.388,2.388l0.029,14.802c0,2.743,1.822,4.973,4.061,4.981c2.239-0.008,4.004-1.919,4.004-4.981V46.135z"/>
	</g>
	<g>
		<path fill="#FFFFFF" d="M13.088,29.919c-0.408,0-0.82-0.107-1.196-0.33c-1.11-0.662-1.473-2.098-0.811-3.207
			c4.62-7.749,11.186-14.238,18.987-18.767c8.042-4.669,17.234-7.136,26.584-7.136c9.28,0,18.413,2.433,26.411,7.036
			c7.756,4.464,14.311,10.869,18.954,18.524c0.67,1.104,0.318,2.543-0.787,3.213c-1.105,0.67-2.543,0.318-3.213-0.787
			c-4.235-6.982-10.213-12.824-17.287-16.896C73.44,7.374,65.114,5.157,56.652,5.157c-8.526,0-16.906,2.249-24.235,6.504
			c-7.115,4.13-13.103,10.049-17.317,17.117C14.662,29.512,13.885,29.919,13.088,29.919z"/>
	</g>
	<g>
		<path fill="#FFFFFF" d="M56.652,106.522c-16.526,0-31.814-7.503-41.944-20.584c-0.791-1.022-0.604-2.491,0.417-3.282
			c1.021-0.792,2.491-0.604,3.282,0.417c9.238,11.929,23.178,18.77,38.245,18.77c15.091,0,29.045-6.859,38.282-18.817
			c0.79-1.022,2.259-1.211,3.281-0.421c1.023,0.79,1.211,2.259,0.421,3.281C88.506,99,73.203,106.522,56.652,106.522z"/>
	</g>
	<circle fill="#FFFFFF" cx="3.14" cy="38.922" r="2.64"/>
	<circle fill="#FFFFFF" cx="88.85" cy="39.712" r="2.64"/>
</g>
</svg>
