<?xml version="1.0" encoding="utf-8"?>
<!-- Generator: Adobe Illustrator 17.0.0, SVG Export Plug-In . SVG Version: 6.00 Build 0)  -->
<!DOCTYPE svg PUBLIC "-//W3C//DTD SVG 1.1//EN" "http://www.w3.org/Graphics/SVG/1.1/DTD/svg11.dtd">
<svg version="1.1" id="Layer_1" xmlns="http://www.w3.org/2000/svg" xmlns:xlink="http://www.w3.org/1999/xlink" x="0px" y="0px"
	 width="71px" height="65px" viewBox="0 0 71 65" enable-background="new 0 0 71 65" xml:space="preserve">
<g>
	<path fill="#3F47E1" d="M54.315,43.97c-0.812,0-1.469-0.658-1.469-1.469V28.792c0-0.812,0.657-1.469,1.469-1.469
		c0.812,0,1.469,0.657,1.469,1.469V42.5C55.784,43.312,55.127,43.97,54.315,43.97"/>
	<path fill="#3F47E1" d="M43.443,21.962c-3.002,0-5.444,2.693-5.444,6.004v9.945c0,3.311,2.442,6.004,5.447,6.004
		c3.002,0,5.444-2.693,5.444-6.004v-9.945C48.891,24.655,46.448,21.962,43.443,21.962z M45.952,37.91
		c0,1.691-1.125,3.065-2.506,3.065c-1.383,0-2.508-1.374-2.508-3.065v-9.945c0-1.69,1.125-3.065,2.506-3.065
		c1.383,0,2.508,1.375,2.508,3.065V37.91z"/>
	<path fill="#3F47E1" d="M32.651,30.553c0.803,0,1.449-0.641,1.475-1.438v-1.15c0-3.311-2.442-6.004-5.447-6.004
		c-3.002,0-5.444,2.693-5.444,6.004v9.945c0,3.311,2.442,6.004,5.447,6.004c3.002,0,5.444-2.693,5.444-6.004v-1.445
		c-0.026-0.797-0.672-1.438-1.475-1.438c-0.783,0-1.408,0.612-1.464,1.381v1.502c0,1.691-1.125,3.065-2.506,3.065
		c-1.383,0-2.508-1.374-2.508-3.065v-9.945c0-1.69,1.125-3.065,2.506-3.065c1.383,0,2.508,1.375,2.508,3.065v1.207
		C31.243,29.941,31.867,30.553,32.651,30.553z"/>
	<path fill="#3F47E1" d="M70.484,27.894c0-3.305-2.434-5.994-5.43-6.003v0c-0.002,0-0.005,0-0.007,0c-0.003,0-0.005,0-0.007,0v0
		c-2.995,0.009-5.43,2.698-5.43,6.003l-0.018,14.569c0,0.812,0.657,1.469,1.469,1.469c0.812,0,1.469-0.658,1.469-1.469l0.018-14.569
		c0-1.687,1.121-3.06,2.498-3.065c1.377,0.005,2.498,1.377,2.498,3.065l0.018,14.569c0,0.812,0.657,1.469,1.469,1.469
		s1.469-0.658,1.469-1.469L70.484,27.894z"/>
	<g>
		<path fill="#3F47E1" d="M8.477,28.017c0-3.27,2.408-5.931,5.372-5.94v0c0.002,0,0.005,0,0.007,0c0.002,0,0.005,0,0.007,0v0
			c2.964,0.009,5.372,2.67,5.372,5.94l0.017,14.415c0,0.803-0.65,1.454-1.454,1.454c-0.804,0-1.454-0.651-1.454-1.454l-0.017-14.415
			c0-1.67-1.109-3.027-2.472-3.032c-1.363,0.005-2.472,1.363-2.472,3.032v9.928c0,3.524-2.374,5.931-5.338,5.94v0
			c-0.002,0-0.005,0-0.007,0s-0.005,0-0.007,0v0c-2.964-0.009-5.372-2.67-5.372-5.94l-0.017-9.01c0-0.803,0.65-1.454,1.454-1.454
			c0.804,0,1.454,0.651,1.454,1.454l0.017,9.01c0,1.67,1.109,3.027,2.472,3.032c1.363-0.005,2.438-1.168,2.438-3.032V28.017z"/>
	</g>
	<g>
		<path fill="#3F47E1" d="M8.161,18.146c-0.248,0-0.499-0.065-0.728-0.201c-0.675-0.403-0.896-1.277-0.494-1.952
			c2.813-4.717,6.809-8.667,11.557-11.424c4.895-2.842,10.491-4.344,16.182-4.344c5.649,0,11.208,1.481,16.077,4.283
			c4.721,2.717,8.711,6.616,11.537,11.276c0.408,0.672,0.193,1.548-0.479,1.956c-0.672,0.408-1.548,0.194-1.956-0.479
			c-2.578-4.25-6.217-7.806-10.523-10.285c-4.437-2.554-9.505-3.903-14.656-3.903c-5.19,0-10.291,1.369-14.752,3.959
			c-4.331,2.514-7.976,6.117-10.541,10.419C9.119,17.898,8.646,18.146,8.161,18.146z"/>
	</g>
	<g>
		<path fill="#3F47E1" d="M34.679,64.775c-10.059,0-19.365-4.567-25.532-12.53c-0.481-0.622-0.368-1.516,0.254-1.998
			c0.622-0.482,1.516-0.368,1.998,0.254c5.623,7.261,14.109,11.426,23.28,11.426c9.186,0,17.68-4.175,23.303-11.454
			c0.481-0.622,1.375-0.737,1.997-0.256c0.622,0.481,0.737,1.375,0.256,1.997C54.07,60.197,44.755,64.775,34.679,64.775z"/>
	</g>
	<circle fill="#3F47E1" cx="2.106" cy="23.626" r="1.607"/>
	<circle fill="#3F47E1" cx="54.279" cy="24.107" r="1.607"/>
</g>
</svg>
