<?xml version="1.0" encoding="utf-8"?>
<!-- Generator: Adobe Illustrator 17.0.0, SVG Export Plug-In . SVG Version: 6.00 Build 0)  -->
<!DOCTYPE svg PUBLIC "-//W3C//DTD SVG 1.1//EN" "http://www.w3.org/Graphics/SVG/1.1/DTD/svg11.dtd">
<svg version="1.1" id="Layer_1" xmlns="http://www.w3.org/2000/svg" xmlns:xlink="http://www.w3.org/1999/xlink" x="0px" y="0px"
	 width="67px" height="66.137px" viewBox="0 0 67 66.137" enable-background="new 0 0 67 66.137" xml:space="preserve">
<g>
	<g>
		<g>
			<path fill="#969696" d="M33.5,66.137c-18.234,0-33.069-14.834-33.069-33.068S15.266,0,33.5,0
				c18.234,0,33.068,14.834,33.068,33.068S51.734,66.137,33.5,66.137z M33.5,1C15.817,1,1.431,15.386,1.431,33.069
				S15.817,65.137,33.5,65.137c17.682,0,32.068-14.386,32.068-32.068S51.183,1,33.5,1z"/>
		</g>
		<g>
			<g>
				<g>
					<path fill="#969696" d="M31.893,27.398c0-3.757,2.767-6.814,6.171-6.824v0c0.003,0,0.006,0,0.006,0c0.006,0,0.008,0,0.008,0
						l0.003,0c3.405,0.01,6.172,3.067,6.172,6.824l0.02,16.56c0,0.923-0.747,1.67-1.67,1.67s-1.67-0.747-1.67-1.67l-0.02-16.56
						c0-1.918-1.274-3.478-2.84-3.483c-1.565,0.006-2.84,1.565-2.84,3.483v11.406c0,4.049-2.728,6.814-6.132,6.824v0
						c0,0-0.006,0-0.008,0c0,0-0.006,0-0.008,0v0c-3.405-0.01-6.171-3.067-6.171-6.824l-0.02-10.351c0-0.923,0.747-1.67,1.67-1.67
						c0.923,0,1.67,0.747,1.67,1.67l0.02,10.351c0,1.918,1.274,3.478,2.84,3.484c1.565-0.006,2.8-1.342,2.8-3.484V27.398z"/>
				</g>
			</g>
			<g>
				<circle fill="#969696" cx="24.574" cy="22.355" r="1.846"/>
			</g>
		</g>
	</g>
</g>
</svg>
