<?xml version="1.0" encoding="utf-8"?>
<!-- Generator: Adobe Illustrator 17.0.0, SVG Export Plug-In . SVG Version: 6.00 Build 0)  -->
<!DOCTYPE svg PUBLIC "-//W3C//DTD SVG 1.1//EN" "http://www.w3.org/Graphics/SVG/1.1/DTD/svg11.dtd">
<svg version="1.1" id="Layer_1" xmlns="http://www.w3.org/2000/svg" xmlns:xlink="http://www.w3.org/1999/xlink" x="0px" y="0px"
	 width="88px" height="119px" viewBox="0 0 88 119" enable-background="new 0 0 88 119" xml:space="preserve">
<g>
	<g>
		<g>
			<path fill="#F7F5EF" d="M85.301,0.439C85.301,0.439,85.301,0.44,85.301,0.439c0,1.16-0.94,2.099-2.099,2.099
				s-2.099-0.94-2.099-2.099c0,0,0,0,0-0.001H77.46c0,0,0,0,0,0.001c0,1.159-0.94,2.099-2.099,2.099s-2.099-0.94-2.099-2.099
				c0,0,0,0,0-0.001h-3.643c0,0,0,0,0,0.001c0,1.159-0.94,2.099-2.099,2.099s-2.099-0.94-2.099-2.099c0,0,0,0,0-0.001h-3.643
				c0,0,0,0,0,0.001c0,1.159-0.94,2.099-2.099,2.099s-2.099-0.94-2.099-2.099c0,0,0,0,0-0.001h-3.643c0,0,0,0,0,0.001
				c0,1.159-0.94,2.099-2.099,2.099s-2.099-0.94-2.099-2.099c0,0,0,0,0-0.001h-3.643c0,0,0,0,0,0.001
				c0,1.159-0.94,2.099-2.099,2.099s-2.099-0.94-2.099-2.099c0,0,0,0,0-0.001h-3.643c0,0,0,0,0,0.001
				c0,1.159-0.94,2.099-2.099,2.099s-2.099-0.94-2.099-2.099c0,0,0,0,0-0.001h-3.643c0,0,0,0,0,0.001
				c0,1.159-0.94,2.099-2.099,2.099s-2.099-0.94-2.099-2.099c0,0,0,0,0-0.001h-3.643c0,0,0,0,0,0.001
				c0,1.159-0.939,2.099-2.099,2.099s-2.099-0.94-2.099-2.099c0,0,0,0,0-0.001h-3.643c0,0,0,0,0,0.001
				c0,1.159-0.939,2.099-2.099,2.099s-2.099-0.94-2.099-2.099c0,0,0,0,0-0.001H6.891c0,0,0,0,0,0.001
				c0,1.159-0.939,2.099-2.099,2.099c-1.159,0-2.099-0.94-2.099-2.099c0,0,0,0,0-0.001H0.656v29.679v53.656H87.33V30.119V0.439
				H85.301z"/>
		</g>
		<polygon fill="#F2EDDF" points="86.818,0.439 86.818,83.255 1.182,83.255 1.182,0.439 0.144,0.439 0.144,84.293 87.856,84.293 
			87.856,0.439 		"/>
		<path fill="#FFD349" d="M0.173,83.241v30.141c0,2.861,2.319,5.179,5.179,5.179h59.746h17.551c2.86,0,5.179-2.319,5.179-5.179
			V98.394V83.241H0.173z"/>
		<path fill="#FFD349" d="M56.501,39.083H37.152c-0.472,0-0.854-0.383-0.854-0.854s0.382-0.854,0.854-0.854h19.349
			c0.472,0,0.854,0.383,0.854,0.854S56.972,39.083,56.501,39.083z"/>
		<path fill="#FFD349" d="M49.333,43.946H37.152c-0.472,0-0.854-0.383-0.854-0.854s0.382-0.854,0.854-0.854h12.181
			c0.472,0,0.854,0.383,0.854,0.854S49.804,43.946,49.333,43.946z"/>
		<path fill="#FFD349" d="M74.967,38.729h-10.22c-0.472,0-0.854-0.383-0.854-0.854s0.382-0.854,0.854-0.854h10.22
			c0.472,0,0.854,0.383,0.854,0.854S75.439,38.729,74.967,38.729z"/>
		<path fill="#FFD349" d="M56.501,63.106H37.152c-0.472,0-0.854-0.383-0.854-0.854s0.382-0.854,0.854-0.854h19.349
			c0.472,0,0.854,0.383,0.854,0.854S56.972,63.106,56.501,63.106z"/>
		<path fill="#FFD349" d="M49.333,67.97H37.152c-0.472,0-0.854-0.383-0.854-0.854s0.382-0.854,0.854-0.854h12.181
			c0.472,0,0.854,0.383,0.854,0.854S49.804,67.97,49.333,67.97z"/>
		<path fill="#FFD349" d="M74.967,62.752h-10.22c-0.472,0-0.854-0.383-0.854-0.854s0.382-0.854,0.854-0.854h10.22
			c0.472,0,0.854,0.383,0.854,0.854S75.439,62.752,74.967,62.752z"/>
		<g>
			<path fill="#F2EDDF" d="M41.784,25.428c-1.553,0-2.835-1.263-2.859-2.815v-10.25c0-0.621,0.535-1.126,1.194-1.126h8.053
				c0.658,0,1.194,0.505,1.194,1.126v8.276c0,0.276-0.224,0.5-0.5,0.5s-0.5-0.224-0.5-0.5v-8.276c0-0.06-0.083-0.126-0.194-0.126
				h-8.053c-0.111,0-0.194,0.067-0.194,0.126v10.242c0.015,1.002,0.849,1.823,1.859,1.823c1.025,0,1.859-0.834,1.859-1.859
				c0-0.276,0.224-0.5,0.5-0.5h8.454c0.276,0,0.5,0.224,0.5,0.5s-0.224,0.5-0.5,0.5h-7.998
				C44.363,24.408,43.19,25.428,41.784,25.428z"/>
			<path fill="#F2EDDF" d="M46.749,14.353h-5.206c-0.276,0-0.5-0.224-0.5-0.5s0.224-0.5,0.5-0.5h5.206c0.276,0,0.5,0.224,0.5,0.5
				S47.025,14.353,46.749,14.353z"/>
			<path fill="#F2EDDF" d="M46.749,16.701h-5.206c-0.276,0-0.5-0.224-0.5-0.5c0-0.276,0.224-0.5,0.5-0.5h5.206
				c0.276,0,0.5,0.224,0.5,0.5C47.249,16.477,47.025,16.701,46.749,16.701z"/>
			<path fill="#F2EDDF" d="M46.749,19.048h-5.206c-0.276,0-0.5-0.224-0.5-0.5s0.224-0.5,0.5-0.5h5.206c0.276,0,0.5,0.224,0.5,0.5
				S47.025,19.048,46.749,19.048z"/>
		</g>
		<g>
			<g>
				<path fill="#F7F5EF" d="M29.754,36.073l-6.286-3.57c-0.27-0.153-0.58-0.23-0.89-0.23s-0.62,0.077-0.89,0.23l-6.287,3.57
					c-0.549,0.312-0.89,0.892-0.89,1.515v7.139c0,0.623,0.341,1.204,0.89,1.515l6.286,3.57c0.27,0.153,0.578,0.235,0.89,0.235
					s0.62-0.081,0.89-0.235l6.286-3.57c0.549-0.312,0.89-0.892,0.89-1.515v-7.139C30.644,36.965,30.303,36.384,29.754,36.073z"/>
			</g>
			<g>
				<path fill="#FFD349" d="M29.97,35.919l-6.476-3.677c-0.278-0.158-0.597-0.237-0.917-0.237s-0.638,0.079-0.916,0.237
					l-6.476,3.677c-0.565,0.321-0.916,0.919-0.916,1.561v7.354c0,0.642,0.351,1.24,0.916,1.561l6.476,3.677
					c0.278,0.158,0.595,0.242,0.917,0.242s0.639-0.083,0.917-0.242l6.476-3.677c0.565-0.321,0.916-0.919,0.916-1.561V37.48
					C30.887,36.838,30.535,36.24,29.97,35.919z M23.274,49.685c-0.211,0.12-0.451,0.183-0.696,0.183s-0.485-0.063-0.696-0.183
					l-4.343-2.466c0.205-2.587,2.44-4.612,5.093-4.612c2.633,0,4.852,1.996,5.086,4.555L23.274,49.685z M22.632,42.161
					c-1.457,0-2.642-1.185-2.642-2.642c0-1.457,1.185-2.642,2.642-2.642c1.457,0,2.642,1.185,2.642,2.642
					S24.089,42.161,22.632,42.161z"/>
			</g>
			<g>
				<path fill="none" d="M29.97,35.919l-6.476-3.677c-0.278-0.158-0.597-0.237-0.917-0.237s-0.638,0.079-0.916,0.237l-6.476,3.677
					c-0.565,0.321-0.916,0.919-0.916,1.561v7.354c0,0.642,0.351,1.24,0.916,1.561l6.476,3.677c0.278,0.158,0.595,0.242,0.917,0.242
					s0.639-0.083,0.917-0.242l6.476-3.677c0.565-0.321,0.916-0.919,0.916-1.561V37.48C30.887,36.838,30.535,36.24,29.97,35.919z"/>
			</g>
		</g>
		<g>
			<g>
				<path fill="#F7F5EF" d="M29.754,59.104l-6.286-3.57c-0.27-0.153-0.58-0.23-0.89-0.23s-0.62,0.077-0.89,0.23l-6.287,3.57
					c-0.549,0.312-0.89,0.892-0.89,1.515v7.139c0,0.623,0.341,1.204,0.89,1.515l6.286,3.57c0.27,0.153,0.578,0.235,0.89,0.235
					s0.62-0.081,0.89-0.235l6.286-3.57c0.549-0.312,0.89-0.892,0.89-1.515V60.62C30.644,59.997,30.303,59.417,29.754,59.104z"/>
			</g>
			<g>
				<path fill="#FFD349" d="M29.97,58.951l-6.476-3.677c-0.278-0.158-0.597-0.237-0.917-0.237s-0.638,0.079-0.916,0.237
					l-6.476,3.677c-0.565,0.321-0.916,0.919-0.916,1.561v7.354c0,0.642,0.351,1.24,0.916,1.561l6.476,3.677
					c0.278,0.158,0.595,0.242,0.917,0.242s0.639-0.083,0.917-0.242l6.476-3.677c0.565-0.321,0.916-0.919,0.916-1.561v-7.354
					C30.887,59.87,30.535,59.272,29.97,58.951z M23.274,72.717c-0.211,0.12-0.451,0.183-0.696,0.183s-0.485-0.063-0.696-0.183
					l-4.343-2.466c0.205-2.587,2.44-4.612,5.093-4.612c2.633,0,4.852,1.996,5.086,4.555L23.274,72.717z M22.632,65.193
					c-1.457,0-2.642-1.185-2.642-2.642c0-1.457,1.185-2.642,2.642-2.642c1.457,0,2.642,1.185,2.642,2.642
					C25.274,64.007,24.089,65.193,22.632,65.193z"/>
			</g>
			<g>
				<path fill="none" d="M29.97,58.951l-6.476-3.677c-0.278-0.158-0.597-0.237-0.917-0.237s-0.638,0.079-0.916,0.237l-6.476,3.677
					c-0.565,0.321-0.916,0.919-0.916,1.561v7.354c0,0.642,0.351,1.24,0.916,1.561l6.476,3.677c0.278,0.158,0.595,0.242,0.917,0.242
					s0.639-0.083,0.917-0.242l6.476-3.677c0.565-0.321,0.916-0.919,0.916-1.561v-7.354C30.887,59.87,30.535,59.272,29.97,58.951z"/>
			</g>
		</g>
		<g>
			<circle fill="#379FEF" cx="22.243" cy="100.942" r="8.971"/>
			<g>
				<g>
					<path fill="#F7F5EF" d="M22.243,97.696c-0.356,0-0.645-0.289-0.645-0.645V95.84c0-0.356,0.289-0.645,0.645-0.645
						s0.645,0.289,0.645,0.645v1.212C22.888,97.408,22.599,97.696,22.243,97.696z"/>
					<path fill="#F7F5EF" d="M22.243,106.689c-0.356,0-0.645-0.289-0.645-0.645v-1.245c0-0.356,0.289-0.645,0.645-0.645
						s0.645,0.289,0.645,0.645v1.245C22.888,106.401,22.599,106.689,22.243,106.689z"/>
					<g>
						<path fill="#F7F5EF" d="M22.243,101.57c-0.057,0-0.115-0.007-0.173-0.023c-1.802-0.502-2.983-0.951-2.983-2.559
							c0-1.424,1.416-2.582,3.156-2.582c1.213,0,2.297,0.549,2.83,1.433c0.184,0.305,0.086,0.702-0.219,0.885
							c-0.306,0.184-0.702,0.085-0.885-0.219c-0.296-0.491-0.974-0.809-1.725-0.809c-1.011,0-1.866,0.592-1.866,1.292
							c0,0.532,0.078,0.77,2.039,1.315c0.343,0.096,0.544,0.452,0.448,0.795C22.785,101.384,22.526,101.57,22.243,101.57z"/>
						<path fill="#F7F5EF" d="M22.267,105.429c-1.204,0-2.28-0.547-2.809-1.43c-0.183-0.304-0.084-0.699,0.218-0.882
							c0.304-0.183,0.697-0.085,0.878,0.219c0.294,0.49,0.966,0.807,1.712,0.807c1.003,0,1.852-0.59,1.852-1.288
							c0-0.53-0.077-0.768-2.023-1.311c-0.34-0.096-0.54-0.451-0.445-0.793c0.094-0.342,0.448-0.542,0.788-0.447
							c1.788,0.5,2.96,0.949,2.96,2.551C25.399,104.274,23.994,105.429,22.267,105.429z"/>
					</g>
				</g>
			</g>
		</g>
		<path fill="#379FEF" d="M76.112,101.796H37.151c-0.472,0-0.854-0.383-0.854-0.854s0.382-0.854,0.854-0.854h38.961
			c0.472,0,0.854,0.383,0.854,0.854S76.584,101.796,76.112,101.796z"/>
		<path fill="none" d="M0.173,0.439v27.227V83.24l0,0v30.141c0,2.861,2.319,5.179,5.179,5.179h59.746h17.551
			c2.86,0,5.179-2.318,5.179-5.179V98.394V83.24V27.666V0.439H0.173z"/>
	</g>
	<g>
		<path fill="#EBE6D7" d="M86.847,38.143L41.748,83.242h45.099V38.143z M74.996,62.753h-10.22c-0.472,0-0.854-0.383-0.854-0.854
			c0-0.471,0.382-0.854,0.854-0.854h10.22c0.472,0,0.854,0.383,0.854,0.854S75.468,62.753,74.996,62.753z"/>
		<polygon fill="#E6E1D3" points="87.359,37.632 87.359,83.242 87.856,83.242 87.856,37.134 		"/>
		<polygon fill="#E6E1D3" points="87.359,83.242 87.359,37.632 86.847,38.143 86.847,83.242 		"/>
		<path fill="#F7CD47" d="M29.434,95.556c1.131,1.501,1.809,3.362,1.809,5.387c0,4.955-4.016,8.971-8.971,8.971
			c-2.024,0-3.885-0.679-5.387-1.809L6.429,118.562h58.698h17.532c0.354-0.001,0.7-0.036,1.034-0.104
			c0.115-0.023,0.219-0.072,0.331-0.103c0.874-0.242,1.664-0.686,2.287-1.309c0.082-0.082,0.145-0.181,0.221-0.268
			c0.797-0.911,1.296-2.089,1.296-3.394V98.397V91.22h0.028v-6.925h-47.16L29.434,95.556z M76.995,100.943
			c0,0.471-0.382,0.854-0.854,0.854H37.18c-0.472,0-0.854-0.383-0.854-0.854c0-0.471,0.382-0.854,0.854-0.854h38.961
			C76.613,100.089,76.995,100.472,76.995,100.943z"/>
		<polygon fill="#F7CD47" points="87.359,83.774 41.216,83.774 40.696,84.294 87.856,84.294 87.856,83.242 87.359,83.242 		"/>
		<polygon fill="#F7CD47" points="87.359,83.242 86.847,83.242 86.847,83.256 41.734,83.256 41.216,83.774 87.359,83.774 		"/>
		<path fill="#F7CD47" d="M74.996,61.045h-10.22c-0.472,0-0.854,0.383-0.854,0.854c0,0.471,0.382,0.854,0.854,0.854h10.22
			c0.472,0,0.854-0.383,0.854-0.854S75.468,61.045,74.996,61.045z"/>
		<path fill="#3495E0" d="M31.243,100.943c0-2.024-0.679-3.885-1.809-5.387l-5.325,5.325c0.827,0.398,1.319,0.951,1.319,1.983
			c0.001,1.241-1.078,2.281-2.51,2.526v0.654c0,0.357-0.289,0.645-0.645,0.645s-0.645-0.289-0.645-0.645v-0.672
			c-0.538-0.091-1.021-0.292-1.426-0.584l-3.316,3.316c1.501,1.131,3.362,1.809,5.387,1.809
			C27.227,109.914,31.243,105.898,31.243,100.943z"/>
		<path fill="#3495E0" d="M22.272,104.155c0.001,0,0.002,0.001,0.003,0.001c1.009-0.002,1.862-0.593,1.862-1.292
			c0-0.415-0.061-0.653-1.015-0.996l-1.997,1.997c0.322,0.179,0.716,0.291,1.143,0.291C22.27,104.156,22.271,104.155,22.272,104.155
			z"/>
		<path fill="#EBE6D8" d="M21.627,105.373v0.672c0,0.356,0.289,0.645,0.645,0.645s0.645-0.288,0.645-0.645v-0.654
			c-0.208,0.036-0.424,0.055-0.645,0.055C22.05,105.446,21.838,105.409,21.627,105.373z"/>
		<path fill="#EBE6D8" d="M24.137,102.864c0,0.699-0.853,1.29-1.862,1.292c0.354,0.002,0.642,0.289,0.642,0.644v0.591
			c1.432-0.245,2.511-1.285,2.51-2.526c0-1.033-0.492-1.585-1.319-1.983l-0.986,0.986C24.076,102.211,24.137,102.449,24.137,102.864
			z"/>
		<path fill="#EBE6D8" d="M22.269,104.156c-0.427,0-0.821-0.112-1.143-0.291l-0.924,0.924c0.405,0.292,0.888,0.493,1.426,0.584
			V104.8C21.627,104.445,21.914,104.158,22.269,104.156z"/>
		<path fill="#EBE6D8" d="M22.275,104.156c-0.001,0-0.003,0-0.004,0c-0.001,0-0.002,0-0.003,0c-0.354,0.002-0.641,0.29-0.641,0.644
			v0.573c0.211,0.036,0.423,0.073,0.645,0.073c0.221,0,0.437-0.019,0.645-0.055V104.8C22.917,104.445,22.63,104.158,22.275,104.156z
			"/>
		<path fill="#3495E0" d="M37.18,100.089c-0.472,0-0.854,0.383-0.854,0.854c0,0.471,0.382,0.854,0.854,0.854h38.961
			c0.472,0,0.854-0.383,0.854-0.854c0-0.471-0.382-0.854-0.854-0.854H37.18z"/>
	</g>
</g>
</svg>
