<?xml version="1.0" encoding="utf-8"?>
<!-- Generator: Adobe Illustrator 17.0.0, SVG Export Plug-In . SVG Version: 6.00 Build 0)  -->
<!DOCTYPE svg PUBLIC "-//W3C//DTD SVG 1.1//EN" "http://www.w3.org/Graphics/SVG/1.1/DTD/svg11.dtd">
<svg version="1.1" id="Layer_1" xmlns="http://www.w3.org/2000/svg" xmlns:xlink="http://www.w3.org/1999/xlink" x="0px" y="0px"
	 width="134px" height="105px" viewBox="0 0 134 105" enable-background="new 0 0 134 105" xml:space="preserve">
<g>
	<g>
		<path fill="#F7F5EF" d="M0.349,84.666v13.553c0,3.575,3.048,6.473,6.808,6.473h119.687c3.76,0,6.808-2.898,6.808-6.473V6.779
			c0-3.575-3.048-6.473-6.808-6.473H7.157c-3.76-0.001-6.808,2.897-6.808,6.472v16.83V84.666z"/>
	</g>
	<g>
		<g>
			<g>
				<path fill="#FFD349" d="M112.146,81.418c0,5.743-4.657,10.398-10.402,10.398H32.925c-5.745,0-10.402-4.656-10.402-10.398l0,0
					c0-5.743,4.657-10.398,10.402-10.398h68.819C107.489,71.019,112.146,75.675,112.146,81.418L112.146,81.418z"/>
			</g>
		</g>
	</g>
	<g>
		<g>
			<rect x="12.317" y="12.484" fill="#FFFFFF" width="110.035" height="21.708"/>
			<path fill="#F2EDDF" d="M121.535,13.301v20.073h-108.4V13.301H121.535 M122.352,12.483H12.317v21.708h110.035L122.352,12.483
				L122.352,12.483z"/>
		</g>
		<g>
			<rect x="17.018" y="17.175" fill="#F2EDDF" width="12.349" height="12.325"/>
		</g>
		<path fill="#999999" d="M62.653,24.125H39.83c-0.435,0-0.787-0.353-0.787-0.788s0.353-0.788,0.787-0.788h22.824
			c0.435,0,0.787,0.353,0.787,0.788S63.088,24.125,62.653,24.125z"/>
		<path fill="#999999" d="M97.616,24.125H73.11c-0.435,0-0.787-0.353-0.787-0.788s0.353-0.788,0.787-0.788h24.507
			c0.435,0,0.787,0.353,0.787,0.788S98.051,24.125,97.616,24.125z"/>
		<path fill="#999999" d="M108.77,24.125h-7.062c-0.435,0-0.787-0.353-0.787-0.788s0.353-0.788,0.787-0.788h7.062
			c0.435,0,0.787,0.353,0.787,0.788S109.205,24.125,108.77,24.125z"/>
		<path fill="#999999" d="M69.514,27.72c-2.417,0-4.383-1.966-4.383-4.383s1.966-4.383,4.383-4.383s4.383,1.966,4.383,4.383
			c0,0.435-0.353,0.788-0.787,0.788s-0.787-0.353-0.787-0.788c0-1.548-1.26-2.808-2.808-2.808s-2.808,1.259-2.808,2.808
			s1.26,2.808,2.808,2.808c0.435,0,0.787,0.353,0.787,0.788S69.949,27.72,69.514,27.72z"/>
	</g>
	<g>
		<g>
			<rect x="12.317" y="38.517" fill="#FFFFFF" width="110.035" height="21.708"/>
			<path fill="#F2EDDF" d="M121.535,39.334v20.073h-108.4V39.334H121.535 M122.352,38.517H12.317v21.708h110.035L122.352,38.517
				L122.352,38.517z"/>
		</g>
		<g>
			<rect x="17.018" y="43.208" fill="#F2EDDF" width="12.349" height="12.325"/>
		</g>
		<g>
			<path fill="#999999" d="M41.263,51.233c-1.022,0-1.871-0.849-1.871-1.854c0-1.022,0.849-1.871,1.871-1.871
				s1.871,0.849,1.871,1.871C43.134,50.384,42.285,51.233,41.263,51.233z"/>
			<path fill="#999999" d="M52.426,51.233c-1.022,0-1.871-0.849-1.871-1.854c0-1.022,0.849-1.871,1.871-1.871
				s1.871,0.849,1.871,1.871C54.298,50.384,53.449,51.233,52.426,51.233z"/>
			<path fill="#999999" d="M63.59,51.233c-1.022,0-1.871-0.849-1.871-1.854c0-1.022,0.849-1.871,1.871-1.871
				s1.871,0.849,1.871,1.871C65.461,50.384,64.612,51.233,63.59,51.233z"/>
			<path fill="#999999" d="M74.753,51.233c-1.022,0-1.871-0.849-1.871-1.854c0-1.022,0.849-1.871,1.871-1.871
				s1.871,0.849,1.871,1.871C76.625,50.384,75.776,51.233,74.753,51.233z"/>
			<path fill="#999999" d="M85.917,51.233c-1.022,0-1.871-0.849-1.871-1.854c0-1.022,0.849-1.871,1.871-1.871
				s1.871,0.849,1.871,1.871C87.788,50.384,86.938,51.233,85.917,51.233z"/>
			<path fill="#999999" d="M97.081,51.233c-1.022,0-1.871-0.849-1.871-1.854c0-1.022,0.849-1.871,1.871-1.871
				s1.871,0.849,1.871,1.871C98.951,50.384,98.103,51.233,97.081,51.233z"/>
			<path fill="#999999" d="M108.243,51.233c-1.022,0-1.871-0.849-1.871-1.854c0-1.022,0.849-1.871,1.871-1.871
				s1.871,0.849,1.871,1.871C110.116,50.384,109.267,51.233,108.243,51.233z"/>
		</g>
	</g>
	<g>
		<path fill="#F0EEE8" d="M112.146,81.418c0,5.743-4.657,10.398-10.402,10.398H32.925c-5.745,0-10.402-4.656-10.402-10.398
			c0-0.049,0.007-0.096,0.007-0.145H0.349v3.392v0.001v13.553c0,0.223,0.012,0.444,0.035,0.662c0.046,0.435,0.138,0.858,0.271,1.263
			s0.306,0.794,0.516,1.161c1.153,2.018,3.401,3.388,5.986,3.388h119.687c2.585,0,4.833-1.37,5.986-3.388
			c0.21-0.367,0.383-0.755,0.516-1.161c0.133-0.405,0.224-0.828,0.271-1.263c0.023-0.218,0.035-0.438,0.035-0.662V81.273h-21.513
			C112.139,81.322,112.146,81.369,112.146,81.418z"/>
		<path fill="#FACE48" d="M32.925,91.816h68.819c5.745,0,10.402-4.655,10.402-10.398c0-0.049-0.007-0.096-0.007-0.145H22.53
			c-0.001,0.049-0.007,0.096-0.007,0.145C22.523,87.16,27.18,91.816,32.925,91.816z"/>
	</g>
	<g>
		<path fill="none" d="M0.349,84.666v13.553c0,3.575,3.048,6.473,6.808,6.473h119.687c3.76,0,6.808-2.898,6.808-6.473V6.779
			c0-3.575-3.048-6.473-6.808-6.473H7.157c-3.76-0.001-6.808,2.897-6.808,6.472v16.83V84.666z"/>
	</g>
	<path fill="#379FEF" d="M94.43,88.281l-9.274-8.238c-0.118-0.104-0.286-0.128-0.43-0.064c-0.144,0.066-0.234,0.21-0.231,0.368
		l0.206,12.403c0.003,0.157,0.098,0.298,0.243,0.359c0.05,0.021,0.102,0.031,0.154,0.031c0.099,0,0.197-0.037,0.272-0.108
		l2.823-2.666l1.98,4.328c0.201,0.437,0.633,0.695,1.084,0.695c0.167,0,0.336-0.035,0.497-0.109c0.598-0.275,0.86-0.983,0.585-1.581
		l-1.982-4.331l3.85-0.396c0.156-0.017,0.288-0.124,0.336-0.274C94.591,88.549,94.547,88.385,94.43,88.281z"/>
</g>
</svg>
