<?xml version="1.0" encoding="utf-8"?>
<!-- Generator: Adobe Illustrator 17.0.0, SVG Export Plug-In . SVG Version: 6.00 Build 0)  -->
<!DOCTYPE svg PUBLIC "-//W3C//DTD SVG 1.1//EN" "http://www.w3.org/Graphics/SVG/1.1/DTD/svg11.dtd">
<svg version="1.1" id="Layer_1" xmlns="http://www.w3.org/2000/svg" xmlns:xlink="http://www.w3.org/1999/xlink" x="0px" y="0px"
	 width="97px" height="105px" viewBox="0 0 97 105" enable-background="new 0 0 97 105" xml:space="preserve">
<g>
	<path fill="#379FEF" d="M48.5,104.676c37.262-13.52,48.263-37.383,48.263-53.116c0-10.615,0-34.785,0-34.785
		C66.164,10.343,52.151,2.678,48.5,0.324c-3.651,2.354-17.664,10.019-48.263,16.45c0,0,0,24.17,0,34.785
		C0.236,67.292,11.238,91.156,48.5,104.676z"/>
	<g>
		<g>
			<path fill="#FFD349" d="M61.855,49.117c-1.145,0-2.072-0.928-2.072-2.072v-5.134c0-6.222-5.062-11.284-11.283-11.284
				s-11.283,5.062-11.283,11.284v5.051c0,1.145-0.928,2.072-2.072,2.072s-2.072-0.928-2.072-2.072v-5.051
				c0-8.507,6.921-15.428,15.428-15.428s15.428,6.921,15.428,15.428v5.134C63.927,48.19,62.999,49.117,61.855,49.117z"/>
			<g>
				<g>
					<path fill="#F7F5EF" d="M28.96,49.304c0-1.722,1.468-3.118,3.279-3.118h32.53c1.811,0,3.279,1.396,3.279,3.118v23.741
						c0,1.722-1.468,3.118-3.279,3.118h-32.53c-1.811,0-3.279-1.396-3.279-3.118V49.304z"/>
				</g>
			</g>
		</g>
	</g>
	<g>
		<path fill="#3599E6" d="M68.048,49.304v23.741c0,1.722-1.468,3.118-3.279,3.118H37.477L22.652,90.987
			c1.675,1.277,3.461,2.528,5.363,3.747c0.02,0.013,0.041,0.025,0.06,0.038c0.88,0.563,1.788,1.117,2.718,1.666
			c0.198,0.116,0.402,0.231,0.602,0.347c0.765,0.443,1.545,0.881,2.344,1.313c0.283,0.153,0.57,0.305,0.857,0.456
			c0.742,0.392,1.499,0.778,2.269,1.161c0.332,0.164,0.664,0.329,1.001,0.491c0.765,0.369,1.549,0.732,2.343,1.091
			c0.348,0.158,0.692,0.317,1.045,0.472c0.858,0.378,1.74,0.747,2.631,1.112c0.302,0.124,0.595,0.251,0.9,0.373
			c1.209,0.484,2.444,0.959,3.714,1.42C85.76,91.156,96.762,67.292,96.762,51.559c0-10.231,0-33.043,0-34.682L66.78,46.859
			C67.547,47.43,68.048,48.307,68.048,49.304z"/>
		<path fill="#F0EEE8" d="M68.048,73.044V49.304c0-0.997-0.501-1.874-1.267-2.445L37.477,76.163h27.292
			C66.58,76.163,68.048,74.766,68.048,73.044z"/>
	</g>
	<path fill="none" d="M48.5,104.676c37.262-13.52,48.263-37.383,48.263-53.116c0-10.615,0-34.785,0-34.785
		C66.164,10.343,52.151,2.678,48.5,0.324c-3.651,2.354-17.664,10.019-48.263,16.45c0,0,0,24.17,0,34.785
		C0.236,67.292,11.238,91.156,48.5,104.676z"/>
</g>
</svg>
