<?xml version="1.0" encoding="utf-8"?>
<!-- Generator: Adobe Illustrator 17.0.0, SVG Export Plug-In . SVG Version: 6.00 Build 0)  -->
<!DOCTYPE svg PUBLIC "-//W3C//DTD SVG 1.1//EN" "http://www.w3.org/Graphics/SVG/1.1/DTD/svg11.dtd">
<svg version="1.1" id="Layer_1" xmlns="http://www.w3.org/2000/svg" xmlns:xlink="http://www.w3.org/1999/xlink" x="0px" y="0px"
	 width="104px" height="110px" viewBox="0 0 104 110" enable-background="new 0 0 104 110" xml:space="preserve">
<g>
	<g>
		<g>
			<g>
				<path fill="#379FEF" d="M103.913,12.833c0-3.946-3.542-7.145-7.91-7.145H7.996c-4.369,0-7.91,3.199-7.91,7.145v14.638h103.827
					L103.913,12.833L103.913,12.833z"/>
			</g>
			<g>
				<path fill="#F2EDDF" d="M0.086,27.471v75.069c0,3.946,3.542,7.145,7.91,7.145h88.006c4.369,0,7.91-3.199,7.91-7.145V27.471
					H0.086z"/>
			</g>
		</g>
		<path fill="#198DE6" d="M28.373,17.598c-1.018,0-1.843-0.825-1.843-1.842V2.155c0-1.018,0.825-1.842,1.843-1.842
			s1.843,0.825,1.843,1.842v13.601C30.216,16.773,29.391,17.598,28.373,17.598z"/>
		<g>
			<circle fill="#D9D4C8" cx="18.704" cy="43.711" r="2.843"/>
		</g>
		<g>
			<circle fill="#198DE6" cx="28.373" cy="15.756" r="4.367"/>
		</g>
		<path fill="#198DE6" d="M75.902,17.598c-1.018,0-1.843-0.825-1.843-1.842V2.155c0-1.018,0.825-1.842,1.843-1.842
			s1.843,0.825,1.843,1.842v13.601C77.745,16.773,76.92,17.598,75.902,17.598z"/>
		<g>
			<circle fill="#198DE6" cx="75.902" cy="15.756" r="4.367"/>
		</g>
		<g>
			<circle fill="#379FEF" cx="51.99" cy="43.711" r="2.608"/>
			<circle fill="#379FEF" cx="68.634" cy="43.711" r="2.608"/>
			<path fill="#FFD349" d="M35.347,38.748c-2.736,0-4.962,2.226-4.962,4.962s2.226,4.962,4.962,4.962s4.962-2.226,4.962-4.962
				S38.084,38.748,35.347,38.748z"/>
			<circle fill="#379FEF" cx="18.704" cy="59.828" r="2.608"/>
			<circle fill="#379FEF" cx="35.347" cy="59.828" r="2.608"/>
			<circle fill="#379FEF" cx="51.99" cy="59.828" r="2.608"/>
			<circle fill="#379FEF" cx="68.634" cy="59.828" r="2.608"/>
			<circle fill="#379FEF" cx="85.277" cy="43.711" r="2.608"/>
			<circle fill="#379FEF" cx="85.277" cy="59.828" r="2.608"/>
			<circle fill="#379FEF" cx="18.704" cy="75.945" r="2.608"/>
			<circle fill="#379FEF" cx="35.347" cy="75.945" r="2.608"/>
			<circle fill="#379FEF" cx="18.704" cy="92.063" r="2.608"/>
			<circle fill="#379FEF" cx="35.347" cy="92.063" r="2.608"/>
			<circle fill="#379FEF" cx="51.99" cy="75.945" r="2.608"/>
			<circle fill="#379FEF" cx="68.634" cy="75.945" r="2.608"/>
			<circle fill="#379FEF" cx="85.277" cy="75.945" r="2.608"/>
			<circle fill="#379FEF" cx="51.99" cy="92.063" r="2.608"/>
		</g>
		<g>
			<g>
				<path fill="#E8E3D6" d="M15.25,59.065h-3.355c-0.415,0-0.75,0.336-0.75,0.75s0.335,0.75,0.75,0.75h3.347
					c-0.05-0.238-0.079-0.484-0.079-0.737C15.163,59.567,15.196,59.311,15.25,59.065z"/>
				<path fill="#E8E3D6" d="M48.543,59.065h-9.741c0.054,0.246,0.087,0.5,0.087,0.763c0,0.253-0.029,0.499-0.079,0.737h9.729
					c-0.051-0.239-0.09-0.483-0.09-0.737C48.449,59.565,48.488,59.312,48.543,59.065z"/>
				<path fill="#E8E3D6" d="M65.179,59.065h-9.734c0.004,0.017,0.011,0.032,0.015,0.049c0.047,0.23,0.072,0.469,0.072,0.714
					c0,0.253-0.029,0.499-0.079,0.737h9.719c-0.05-0.238-0.079-0.484-0.079-0.737C65.092,59.567,65.126,59.311,65.179,59.065z"/>
				<path fill="#E8E3D6" d="M81.823,59.065h-9.735c0.055,0.246,0.087,0.5,0.087,0.763c0,0.253-0.029,0.499-0.079,0.737h9.719
					c-0.05-0.238-0.079-0.484-0.079-0.737C81.736,59.567,81.769,59.311,81.823,59.065z"/>
				<path fill="#E8E3D6" d="M92.497,59.065h-3.768c0.055,0.246,0.089,0.5,0.089,0.763c0,0.254-0.033,0.499-0.084,0.737h3.763
					c0.414,0,0.75-0.336,0.75-0.75S92.911,59.065,92.497,59.065z"/>
				<path fill="#E8E3D6" d="M31.893,59.065h-9.741c0.055,0.246,0.093,0.5,0.093,0.763c0,0.254-0.039,0.499-0.09,0.737h9.729
					c-0.05-0.238-0.079-0.484-0.079-0.737C31.806,59.567,31.839,59.311,31.893,59.065z"/>
				<path fill="#E8E3D6" d="M81.85,75.095h-9.789c0.011,0.047,0.033,0.089,0.042,0.136c0.047,0.23,0.072,0.469,0.072,0.714
					c0,0.223-0.028,0.439-0.068,0.65h9.694c-0.039-0.211-0.065-0.427-0.065-0.65C81.736,75.651,81.782,75.369,81.85,75.095z"/>
				<path fill="#E8E3D6" d="M92.497,75.095h-3.793c0.012,0.047,0.033,0.089,0.042,0.136c0.047,0.23,0.072,0.469,0.072,0.714
					c0,0.223-0.026,0.439-0.065,0.65h3.744c0.414,0,0.75-0.336,0.75-0.75S92.911,75.095,92.497,75.095z"/>
				<path fill="#E8E3D6" d="M15.277,75.095h-3.382c-0.415,0-0.75,0.336-0.75,0.75s0.335,0.75,0.75,0.75h3.333
					c-0.039-0.211-0.065-0.427-0.065-0.65C15.163,75.651,15.209,75.369,15.277,75.095z"/>
				<path fill="#E8E3D6" d="M65.164,75.232c0.01-0.047,0.031-0.09,0.042-0.136h-9.795c0.07,0.273,0.121,0.555,0.121,0.85
					c0,0.223-0.026,0.439-0.065,0.65h9.691c-0.039-0.211-0.065-0.427-0.065-0.65C65.092,75.701,65.117,75.462,65.164,75.232z"/>
				<path fill="#E8E3D6" d="M31.834,75.494c0.017-0.136,0.044-0.268,0.077-0.399h-9.78c0.011,0.047,0.033,0.089,0.042,0.136
					c0.047,0.23,0.072,0.469,0.072,0.714c0,0.183-0.014,0.364-0.041,0.539c-0.006,0.038-0.019,0.073-0.026,0.111h9.692
					c-0.04-0.211-0.065-0.427-0.065-0.65C31.806,75.792,31.816,75.642,31.834,75.494z"/>
				<path fill="#E8E3D6" d="M48.521,75.232c0.01-0.047,0.031-0.09,0.042-0.136h-9.78c0.032,0.131,0.059,0.263,0.077,0.399
					c0.019,0.148,0.028,0.298,0.028,0.451c0,0.223-0.025,0.439-0.064,0.65h9.691c-0.04-0.211-0.066-0.427-0.066-0.65
					C48.449,75.701,48.474,75.462,48.521,75.232z"/>
				<g opacity="0.9">
					<path fill="#E8E3D6" d="M59.267,91.213h-3.84c0.067,0.272,0.104,0.556,0.104,0.85c0,0.224-0.033,0.439-0.076,0.65h3.84
						c-0.067-0.272-0.104-0.556-0.104-0.85C59.191,91.639,59.224,91.424,59.267,91.213z"/>
				</g>
				<path fill="#E8E3D6" d="M15.279,91.213h-3.384c-0.415,0-0.75,0.336-0.75,0.75s0.335,0.75,0.75,0.75h3.333
					c-0.039-0.211-0.065-0.428-0.065-0.65C15.163,91.767,15.211,91.486,15.279,91.213z"/>
				<path fill="#E8E3D6" d="M48.482,91.581c0.018-0.125,0.046-0.247,0.077-0.368h-9.784c0.068,0.273,0.114,0.555,0.114,0.85
					c0,0.223-0.026,0.439-0.065,0.65h9.707c-0.04-0.213-0.081-0.426-0.081-0.65C48.449,91.899,48.461,91.738,48.482,91.581z"/>
				<path fill="#E8E3D6" d="M31.92,91.213h-9.784c0.03,0.121,0.059,0.242,0.077,0.368c0.021,0.157,0.033,0.318,0.033,0.482
					c0,0.225-0.041,0.438-0.081,0.65h9.707c-0.039-0.211-0.065-0.428-0.065-0.65C31.806,91.768,31.852,91.486,31.92,91.213z"/>
				<path fill="#E8E3D6" d="M42.046,43.711c0,0.254-0.017,0.504-0.044,0.75h6.532c-0.053-0.242-0.083-0.492-0.083-0.75
					c0-0.259,0.037-0.507,0.089-0.75h-6.538c0.002,0.022,0.007,0.043,0.01,0.065C42.034,43.251,42.046,43.479,42.046,43.711z"/>
				<path fill="#E8E3D6" d="M55.532,43.711c0,0.26-0.042,0.508-0.099,0.75h9.743c-0.003-0.013-0.009-0.024-0.012-0.037
					c-0.047-0.23-0.072-0.469-0.072-0.714s0.025-0.483,0.072-0.714c0.003-0.013,0.009-0.024,0.011-0.036h-9.727
					c0.003,0.012,0.009,0.024,0.011,0.036C55.507,43.227,55.532,43.466,55.532,43.711z"/>
				<path fill="#E8E3D6" d="M72.092,44.461h9.736c-0.054-0.242-0.092-0.491-0.092-0.75s0.039-0.507,0.092-0.75h-9.742
					c0.053,0.242,0.089,0.491,0.089,0.75C72.175,43.969,72.144,44.219,72.092,44.461z"/>
				<path fill="#E8E3D6" d="M88.735,44.461h3.762c0.414,0,0.75-0.336,0.75-0.75s-0.336-0.75-0.75-0.75h-3.762
					c0.052,0.242,0.083,0.492,0.083,0.75S88.787,44.219,88.735,44.461z"/>
			</g>
		</g>
		<path fill="none" d="M0.086,27.471v75.069c0,3.946,3.542,7.145,7.91,7.145h88.006c4.369,0,7.91-3.199,7.91-7.145V27.471H0.086z"/>
	</g>
	<g>
		<path fill="#EBE6D7" d="M103.913,102.541V27.472h-0.498L87.802,43.085c0.05,0.202,0.084,0.409,0.084,0.627
			c0,1.44-1.168,2.608-2.608,2.608c-0.217,0-0.425-0.034-0.627-0.084L71.227,59.661c0.004,0.057,0.017,0.11,0.017,0.168
			c0,1.44-1.168,2.608-2.608,2.608c-0.057,0-0.111-0.013-0.168-0.017L55.791,75.097h9.417c-0.011,0.046-0.032,0.089-0.042,0.136
			c-0.047,0.23-0.072,0.469-0.071,0.714c0,0.223,0.026,0.439,0.065,0.65h-9.691c0.039-0.211,0.065-0.427,0.065-0.65
			c0-0.184-0.024-0.362-0.056-0.537l-0.917,0.917c-0.167,1.133-1.056,2.021-2.189,2.189L39.674,91.214h8.886
			c-0.031,0.121-0.059,0.243-0.077,0.368c-0.021,0.157-0.033,0.318-0.032,0.482c0,0.224,0.041,0.437,0.081,0.65h-9.707
			c0.039-0.211,0.065-0.427,0.065-0.65c0-0.021-0.004-0.041-0.005-0.062l-1.203,1.203c-0.255,0.52-0.674,0.939-1.194,1.194
			l-15.287,15.287h74.801C100.372,109.686,103.913,106.487,103.913,102.541z M81.824,59.067c-0.054,0.246-0.087,0.501-0.087,0.763
			c0,0.253,0.029,0.499,0.079,0.737h-9.719c0.05-0.238,0.079-0.484,0.079-0.737c0-0.263-0.032-0.517-0.087-0.763H81.824z
			 M68.635,73.338c1.44,0,2.608,1.168,2.608,2.608s-1.168,2.608-2.608,2.608s-2.608-1.168-2.608-2.608S67.195,73.338,68.635,73.338z
			 M51.991,94.672c-1.44,0-2.608-1.168-2.608-2.608s1.168-2.608,2.608-2.608s2.608,1.168,2.608,2.608S53.431,94.672,51.991,94.672z
			 M55.456,92.714c0.043-0.211,0.076-0.426,0.076-0.65c0-0.294-0.037-0.578-0.104-0.85h3.84c-0.043,0.211-0.076,0.426-0.076,0.65
			c0,0.294,0.037,0.578,0.104,0.85H55.456z M72.599,98.786c-0.129,0.074-0.261,0.142-0.394,0.209
			c-1.045,0.523-2.22,0.824-3.468,0.824c-0.805,0-1.582-0.123-2.312-0.35c-0.243-0.075-0.482-0.163-0.714-0.261
			c-0.466-0.197-0.907-0.438-1.321-0.717c-0.828-0.559-1.541-1.273-2.1-2.1c-0.279-0.414-0.52-0.856-0.717-1.321
			c-0.098-0.232-0.185-0.471-0.261-0.714c-0.227-0.73-0.35-1.507-0.35-2.312c0-0.268,0.014-0.534,0.04-0.795
			c0.054-0.523,0.159-1.03,0.31-1.517c0.984-3.164,3.936-5.462,7.424-5.462c1.927,0,3.687,0.705,5.045,1.866
			c1.668,1.426,2.729,3.541,2.729,5.907C76.51,94.929,74.934,97.442,72.599,98.786z M81.802,76.596h-9.694
			c0.04-0.211,0.068-0.427,0.068-0.65c0-0.245-0.025-0.484-0.072-0.714c-0.009-0.047-0.031-0.089-0.042-0.136h9.789
			c-0.068,0.274-0.114,0.556-0.114,0.85C81.737,76.169,81.763,76.385,81.802,76.596z M85.278,78.554
			c-1.44,0-2.608-1.168-2.608-2.608s1.168-2.608,2.608-2.608s2.608,1.168,2.608,2.608S86.718,78.554,85.278,78.554z M85.278,62.437
			c-1.44,0-2.608-1.168-2.608-2.608s1.168-2.608,2.608-2.608s2.608,1.168,2.608,2.608S86.718,62.437,85.278,62.437z M92.498,76.596
			h-3.744c0.039-0.211,0.065-0.427,0.065-0.65c0-0.245-0.025-0.484-0.072-0.714c-0.009-0.047-0.03-0.089-0.042-0.136h3.793
			c0.414,0,0.75,0.336,0.75,0.75S92.912,76.596,92.498,76.596z M92.498,60.567h-3.763c0.051-0.238,0.084-0.483,0.084-0.737
			c0-0.263-0.034-0.517-0.089-0.763h3.768c0.414,0,0.75,0.336,0.75,0.75S92.912,60.567,92.498,60.567z M92.498,44.462h-3.762
			c0.052-0.242,0.083-0.492,0.083-0.75s-0.031-0.508-0.083-0.75h3.762c0.414,0,0.75,0.336,0.75,0.75S92.912,44.462,92.498,44.462z"
			/>
		<path fill="#3495E0" d="M68.635,62.437c1.44,0,2.608-1.168,2.608-2.608c0-0.057-0.013-0.111-0.017-0.168l-2.759,2.759
			C68.524,62.424,68.578,62.437,68.635,62.437z"/>
		<path fill="#3495E0" d="M85.278,46.32c1.44,0,2.608-1.168,2.608-2.608c0-0.217-0.034-0.425-0.084-0.627l-3.15,3.15
			C84.853,46.286,85.061,46.32,85.278,46.32z"/>
		<circle fill="#3495E0" cx="85.278" cy="59.829" r="2.608"/>
		<path fill="#3495E0" d="M54.561,76.327l-2.189,2.189C53.505,78.348,54.393,77.46,54.561,76.327z"/>
		<circle fill="#3495E0" cx="68.635" cy="75.946" r="2.608"/>
		<circle fill="#3495E0" cx="85.278" cy="75.946" r="2.608"/>
		<circle fill="#3495E0" cx="51.991" cy="92.064" r="2.608"/>
		<path fill="#DEDACD" d="M72.097,60.567h9.719c-0.05-0.238-0.079-0.484-0.079-0.737c0-0.262,0.033-0.517,0.087-0.763h-9.735
			c0.055,0.246,0.087,0.5,0.087,0.763C72.176,60.083,72.147,60.328,72.097,60.567z"/>
		<path fill="#DEDACD" d="M92.498,59.067H88.73c0.055,0.246,0.089,0.5,0.089,0.763c0,0.254-0.033,0.499-0.084,0.737h3.763
			c0.414,0,0.75-0.336,0.75-0.75S92.912,59.067,92.498,59.067z"/>
		<path fill="#DEDACD" d="M72.062,75.096c0.011,0.047,0.033,0.089,0.042,0.136c0.047,0.23,0.072,0.469,0.072,0.714
			c0,0.223-0.028,0.439-0.068,0.65h9.694c-0.039-0.211-0.065-0.427-0.065-0.65c0-0.294,0.046-0.576,0.114-0.85H72.062z"/>
		<path fill="#DEDACD" d="M92.498,75.096h-3.793c0.012,0.047,0.033,0.089,0.042,0.136c0.047,0.23,0.072,0.469,0.072,0.714
			c0,0.223-0.026,0.439-0.065,0.65h3.744c0.414,0,0.75-0.336,0.75-0.75S92.912,75.096,92.498,75.096z"/>
		<path fill="#DEDACD" d="M55.533,75.947c0,0.223-0.026,0.439-0.065,0.65h9.691c-0.039-0.211-0.065-0.427-0.065-0.65
			c-0.001-0.245,0.024-0.484,0.071-0.714c0.01-0.047,0.031-0.09,0.042-0.136H55.79l-0.313,0.313
			C55.509,75.585,55.533,75.763,55.533,75.947z"/>
		<path fill="#DEDACD" d="M59.268,91.214h-3.84c0.067,0.272,0.104,0.556,0.104,0.85c0,0.224-0.033,0.439-0.076,0.65h3.84
			c-0.067-0.272-0.104-0.556-0.104-0.85C59.192,91.64,59.225,91.425,59.268,91.214z"/>
		<path fill="#DEDACD" d="M38.89,92.064c0,0.223-0.026,0.439-0.065,0.65h9.707c-0.04-0.213-0.081-0.426-0.081-0.65
			c-0.001-0.164,0.011-0.325,0.032-0.482c0.018-0.125,0.046-0.247,0.077-0.368h-8.886l-0.788,0.788
			C38.886,92.023,38.89,92.043,38.89,92.064z"/>
		<path fill="#DEDACD" d="M92.498,42.962h-3.762c0.052,0.242,0.083,0.492,0.083,0.75s-0.031,0.508-0.083,0.75h3.762
			c0.414,0,0.75-0.336,0.75-0.75S92.912,42.962,92.498,42.962z"/>
		<path fill="#FFD349" d="M73.781,86.136c-1.358-1.161-3.118-1.866-5.045-1.866c-3.488,0-6.44,2.298-7.424,5.462
			c-0.151,0.487-0.256,0.994-0.31,1.517c-0.026,0.261-0.04,0.527-0.04,0.795c0,0.805,0.123,1.582,0.35,2.312
			c0.076,0.243,0.163,0.482,0.261,0.714c0.197,0.465,0.438,0.907,0.717,1.321c0.559,0.827,1.272,1.541,2.1,2.1
			c0.414,0.279,0.855,0.52,1.321,0.717c0.232,0.098,0.471,0.186,0.714,0.261c0.73,0.227,1.507,0.35,2.312,0.35
			c1.248,0,2.423-0.301,3.468-0.824c0.133-0.067,0.265-0.135,0.394-0.209c2.335-1.344,3.911-3.857,3.911-6.743
			C76.51,89.677,75.449,87.562,73.781,86.136z M69.229,95.445v0.5c0,0.272-0.221,0.493-0.494,0.493s-0.494-0.221-0.494-0.493v-0.514
			c-0.719-0.122-1.338-0.488-1.671-1.041c-0.141-0.233-0.065-0.536,0.168-0.677c0.233-0.141,0.536-0.066,0.677,0.168
			c0.227,0.376,0.745,0.619,1.32,0.619c0.774,0,1.427-0.452,1.427-0.988c0-0.406-0.059-0.588-1.559-1.006
			c-1.378-0.385-2.281-0.728-2.281-1.957c0-0.951,0.825-1.746,1.92-1.933v-0.476c0-0.272,0.221-0.493,0.494-0.493
			s0.494,0.221,0.494,0.493v0.49c0.719,0.122,1.338,0.488,1.671,1.041c0.141,0.233,0.065,0.536-0.168,0.677
			c-0.233,0.14-0.537,0.065-0.677-0.168c-0.226-0.376-0.744-0.619-1.319-0.619c-0.774,0-1.427,0.453-1.427,0.989
			c0,0.406,0.06,0.588,1.559,1.006c1.378,0.383,2.281,0.727,2.281,1.956C71.15,94.463,70.326,95.258,69.229,95.445z"/>
		<path fill="#379FEF" d="M68.869,91.556c-1.499-0.418-1.559-0.6-1.559-1.006c0-0.536,0.653-0.989,1.427-0.989
			c0.575,0,1.093,0.243,1.319,0.619c0.14,0.233,0.444,0.308,0.677,0.168c0.233-0.141,0.309-0.444,0.168-0.677
			c-0.333-0.553-0.952-0.919-1.671-1.041v-0.49c0-0.272-0.221-0.493-0.494-0.493s-0.494,0.221-0.494,0.493v0.476
			c-1.095,0.187-1.92,0.982-1.92,1.933c0,1.229,0.903,1.572,2.281,1.957c1.5,0.418,1.559,0.6,1.559,1.006
			c0,0.536-0.653,0.988-1.427,0.988c-0.575,0-1.093-0.243-1.32-0.619c-0.141-0.234-0.444-0.309-0.677-0.168
			c-0.233,0.141-0.309,0.444-0.168,0.677c0.333,0.553,0.952,0.919,1.671,1.041v0.514c0,0.272,0.221,0.493,0.494,0.493
			s0.494-0.221,0.494-0.493v-0.5c1.096-0.187,1.921-0.982,1.921-1.933C71.15,92.283,70.247,91.939,68.869,91.556z"/>
	</g>
</g>
</svg>
