<?xml version="1.0" encoding="utf-8"?>
<!-- Generator: Adobe Illustrator 17.0.0, SVG Export Plug-In . SVG Version: 6.00 Build 0)  -->
<!DOCTYPE svg PUBLIC "-//W3C//DTD SVG 1.1//EN" "http://www.w3.org/Graphics/SVG/1.1/DTD/svg11.dtd">
<svg version="1.1" id="Layer_1" xmlns="http://www.w3.org/2000/svg" xmlns:xlink="http://www.w3.org/1999/xlink" x="0px" y="0px"
	 width="128px" height="128px" viewBox="0 0 128 128" enable-background="new 0 0 128 128" xml:space="preserve">
<g>
	<g>
		<circle fill="#379FEF" cx="63.999" cy="64.162" r="35.967"/>
	</g>
	<g>
		<circle fill="#F7F5EF" cx="63.999" cy="53.58" r="8.183"/>
		<g>
			<path fill="#F7F5EF" d="M63.999,64.294c-8.027,0-14.59,6.079-15.186,13.789c3.959,3.68,9.296,5.953,15.186,5.953
				s11.227-2.273,15.186-5.953C78.589,70.373,72.026,64.294,63.999,64.294z"/>
		</g>
	</g>
	<path fill="#F7F5EF" d="M63.999,113.955c27.545,0,49.955-22.41,49.955-49.955c0-25.935-19.868-47.31-45.181-49.721
		c0.406,0.759,0.637,1.624,0.637,2.542c0,1.11-0.337,2.142-0.913,3.002c22.38,2.261,39.906,21.21,39.906,44.177
		c0,24.484-19.919,44.404-44.404,44.404S19.595,88.485,19.595,64c0-9.459,2.982-18.229,8.042-25.44
		c-1.072-0.124-2.091-0.547-2.915-1.258c-0.691-0.596-1.17-1.337-1.48-2.133C17.459,43.321,14.044,53.266,14.044,64
		C14.044,91.546,36.454,113.955,63.999,113.955z"/>
	<path fill="#FFD349" d="M66.717,16.262c-0.074-0.361-0.218-0.697-0.417-0.992c-0.1-0.148-0.213-0.285-0.339-0.411
		c-0.502-0.502-1.196-0.813-1.962-0.813c-0.891,0-1.779,0.025-2.664,0.072c-0.19,0.01-0.378,0.031-0.567,0.043
		c-0.696,0.045-1.39,0.096-2.08,0.169c-0.215,0.023-0.427,0.056-0.641,0.082c-0.59,0.071-1.179,0.149-1.765,0.24
		c-0.071,0.011-0.142,0.018-0.212,0.029c-0.219,0.035-0.436,0.079-0.655,0.117c-0.007,0.001-0.014,0.003-0.021,0.004
		c-0.635,0.111-1.269,0.228-1.898,0.363c-0.244,0.052-0.485,0.113-0.729,0.168c-0.598,0.138-1.193,0.283-1.785,0.442
		c-0.273,0.074-0.544,0.154-0.816,0.232c-0.544,0.157-1.086,0.321-1.624,0.496c-0.134,0.043-0.271,0.079-0.405,0.123
		c-0.179,0.06-0.354,0.132-0.532,0.194c-0.475,0.165-0.947,0.337-1.416,0.516c-0.365,0.14-0.728,0.282-1.089,0.43
		c-0.39,0.159-0.776,0.326-1.162,0.496c-0.427,0.188-0.853,0.377-1.273,0.576c-0.284,0.134-0.564,0.275-0.845,0.415
		c-0.342,0.169-0.689,0.327-1.026,0.504c-0.164,0.086-0.321,0.183-0.484,0.271c-0.135,0.073-0.267,0.15-0.401,0.224
		c-5.15,2.837-9.825,6.578-13.758,11.139c-0.08,0.093-0.14,0.195-0.206,0.294c-0.224,0.34-0.369,0.712-0.428,1.097
		c-0.032,0.208-0.047,0.417-0.032,0.626c0.052,0.708,0.375,1.396,0.955,1.897c0.037,0.032,0.079,0.054,0.118,0.084
		c0.502,0.39,1.097,0.589,1.693,0.589c0.584,0,1.167-0.184,1.652-0.544c0.162-0.12,0.313-0.26,0.451-0.419
		c1.056-1.225,2.172-2.385,3.342-3.476c1.169-1.092,2.392-2.115,3.662-3.068c1.666-1.249,3.419-2.364,5.234-3.362
		c0.116-0.064,0.231-0.131,0.348-0.194c0.445-0.24,0.896-0.467,1.348-0.692c0.248-0.123,0.495-0.248,0.745-0.366
		c0.376-0.178,0.756-0.348,1.137-0.515c0.341-0.149,0.682-0.297,1.027-0.438c0.16-0.065,0.316-0.14,0.477-0.203
		c0.164-0.065,0.332-0.118,0.496-0.181c0.415-0.158,0.832-0.311,1.252-0.457c0.28-0.097,0.559-0.193,0.84-0.285
		c0.474-0.154,0.952-0.299,1.431-0.437c0.246-0.071,0.492-0.144,0.739-0.21c0.52-0.14,1.044-0.267,1.57-0.389
		c0.158-0.036,0.313-0.082,0.472-0.117c0.063-0.014,0.128-0.023,0.192-0.037c0.553-0.119,1.11-0.221,1.668-0.319
		c0.207-0.036,0.412-0.077,0.619-0.111c0.574-0.092,1.152-0.166,1.731-0.235c0.199-0.024,0.397-0.055,0.596-0.076
		c0.597-0.064,1.198-0.107,1.8-0.147c0.185-0.012,0.368-0.032,0.553-0.042c0.784-0.042,1.571-0.064,2.361-0.064
		c0.001,0,0.001,0,0.002,0c0.251,0,0.49-0.044,0.721-0.106c0.298-0.081,0.581-0.199,0.831-0.368c0.295-0.199,0.55-0.454,0.75-0.75
		c0.199-0.295,0.344-0.631,0.417-0.992c0.037-0.181,0.056-0.368,0.056-0.559S66.755,16.443,66.717,16.262z"/>
	<path fill="#F7F5EF" d="M21.149,24.55C30.848,14.023,44.365,7.08,59.48,5.914c-0.562-0.853-0.892-1.872-0.892-2.968
		c0-0.933,0.238-1.812,0.656-2.579C42.549,1.604,27.618,9.274,16.945,20.922c0.876,0.155,1.711,0.522,2.415,1.076
		C20.207,22.664,20.82,23.548,21.149,24.55z"/>
	<path fill="#37B5EF" d="M29.226,110.778c-3.364-2.506-6.427-5.354-9.149-8.482c-1.361-1.564-2.637-3.198-3.823-4.894
		c-0.169-0.241-0.328-0.489-0.493-0.733c-0.053-0.078-0.106-0.156-0.158-0.235c-0.439-0.656-0.866-1.319-1.279-1.992
		c-0.07-0.114-0.143-0.226-0.212-0.34c-0.391-0.648-0.773-1.303-1.139-1.966c-0.026-0.048-0.05-0.097-0.076-0.144
		c-0.166-0.303-0.324-0.611-0.485-0.917c-0.209-0.397-0.415-0.796-0.615-1.198c-0.198-0.398-0.393-0.798-0.582-1.202
		c-0.037-0.078-0.077-0.155-0.113-0.234c-0.098-0.211-0.187-0.426-0.281-0.638c-0.434-0.968-0.845-1.946-1.226-2.937
		c-0.036-0.094-0.075-0.187-0.111-0.281c-0.201-0.532-0.391-1.069-0.577-1.607c-0.072-0.21-0.144-0.42-0.214-0.631
		c-0.181-0.544-0.358-1.089-0.523-1.639c-0.029-0.096-0.054-0.193-0.082-0.29c-0.307-1.044-0.583-2.101-0.833-3.169
		c-0.066-0.283-0.135-0.565-0.197-0.85c-0.103-0.472-0.198-0.947-0.29-1.423c-0.075-0.392-0.144-0.786-0.211-1.18
		c-0.071-0.413-0.145-0.826-0.206-1.241c-0.003-0.022-0.008-0.044-0.011-0.066c-0.11-0.749-0.204-1.503-0.285-2.259
		c-0.032-0.299-0.055-0.6-0.083-0.9c-0.032-0.351-0.071-0.7-0.097-1.052c-0.019-0.261-0.028-0.524-0.043-0.786
		c-0.017-0.28-0.034-0.561-0.047-0.842c-0.04-0.879-0.067-1.76-0.067-2.646l0,0c0,0,0,0,0-0.001c0-0.939,0.028-1.874,0.071-2.806
		c0.01-0.218,0.028-0.434,0.04-0.652c0.043-0.755,0.1-1.507,0.172-2.256c0.016-0.166,0.034-0.332,0.052-0.498
		c0.494-4.722,1.551-9.314,3.15-13.712c0.464-1.275,0.965-2.537,1.519-3.778c0.721-1.614,1.524-3.194,2.396-4.744
		c0.522-0.928,1.073-1.843,1.649-2.746c1.056-1.657,2.191-3.277,3.425-4.843c0.469-0.595,0.653-1.323,0.576-2.021
		c-0.008-0.071-0.028-0.139-0.041-0.209c-0.12-0.636-0.45-1.236-0.998-1.667c-0.001-0.001-0.002-0.001-0.003-0.002
		c-0.139-0.109-0.287-0.2-0.438-0.279c-0.049-0.026-0.101-0.044-0.151-0.066c-0.106-0.047-0.213-0.091-0.322-0.124
		c-0.061-0.018-0.122-0.032-0.184-0.046c-0.103-0.023-0.207-0.042-0.312-0.053c-0.063-0.007-0.126-0.013-0.19-0.016
		c-0.084-0.003-0.167,0.002-0.251,0.006c-0.119,0.006-0.237,0.018-0.354,0.039c-0.075,0.013-0.149,0.029-0.222,0.048
		c-0.116,0.031-0.229,0.072-0.341,0.117c-0.068,0.028-0.137,0.054-0.204,0.088c-0.117,0.06-0.228,0.133-0.337,0.21
		c-0.052,0.037-0.108,0.068-0.158,0.109c-0.054,0.044-0.098,0.102-0.149,0.15c-0.095,0.091-0.196,0.175-0.28,0.281
		c-1.913,2.428-3.621,4.968-5.143,7.593c-3.188,5.498-5.491,11.399-6.896,17.562c-0.063,0.276-0.125,0.552-0.186,0.829
		c-0.097,0.455-0.194,0.91-0.281,1.368c-0.154,0.797-0.297,1.598-0.421,2.406c-0.001,0.006-0.001,0.011-0.002,0.017
		c-0.146,0.953-0.264,1.914-0.367,2.88c-0.02,0.19-0.041,0.379-0.059,0.569c-0.079,0.808-0.137,1.621-0.186,2.437
		c-0.014,0.249-0.034,0.497-0.046,0.747c-0.047,0.995-0.075,1.995-0.076,3.001c0,0.021-0.001,0.042-0.001,0.063
		c0,0.014,0.001,0.029,0.001,0.043c0.001,0.953,0.03,1.9,0.072,2.843c0.014,0.318,0.033,0.634,0.052,0.951
		c0.039,0.663,0.091,1.322,0.151,1.979c0.031,0.337,0.057,0.676,0.093,1.012c0.091,0.849,0.199,1.692,0.323,2.531
		c0.069,0.465,0.152,0.927,0.231,1.39c0.072,0.42,0.145,0.84,0.225,1.257c0.102,0.53,0.208,1.058,0.322,1.584
		c0.064,0.296,0.136,0.589,0.204,0.883c0.28,1.201,0.59,2.392,0.938,3.57c0.021,0.071,0.039,0.143,0.06,0.214
		c0.003,0.01,0.006,0.02,0.009,0.03c0.183,0.611,0.38,1.217,0.581,1.821c0.073,0.219,0.147,0.437,0.222,0.655
		c0.207,0.6,0.418,1.198,0.642,1.791c0.026,0.068,0.054,0.134,0.08,0.201c0.14,0.365,0.289,0.727,0.435,1.089
		c0.239,0.591,0.486,1.178,0.742,1.761c0.073,0.167,0.146,0.333,0.22,0.499c0.136,0.302,0.269,0.605,0.41,0.905
		c0.211,0.452,0.43,0.899,0.652,1.345c0.075,0.151,0.144,0.304,0.22,0.454c0.139,0.275,0.289,0.544,0.432,0.817
		c0.182,0.347,0.361,0.696,0.55,1.039C8.217,95,8.408,95.325,8.595,95.653c0.25,0.438,0.501,0.877,0.761,1.309
		c0.083,0.137,0.17,0.271,0.254,0.408c0.444,0.721,0.9,1.435,1.372,2.137c0.065,0.097,0.13,0.194,0.196,0.291
		c0.039,0.057,0.077,0.115,0.115,0.172c0.565,0.828,1.142,1.648,1.745,2.449c0.527,0.7,1.074,1.387,1.63,2.066
		c0.298,0.364,0.621,0.707,0.927,1.064c0.173,0.202,0.348,0.402,0.524,0.602c0.71,0.809,1.44,1.599,2.191,2.373
		c0.09,0.093,0.181,0.185,0.272,0.277c0.838,0.852,1.699,1.681,2.586,2.487c0.014,0.012,0.028,0.025,0.042,0.037
		c1.507,1.367,3.062,2.686,4.704,3.909c1.228,0.915,2.493,1.788,3.792,2.618c1.016,0.648,2.06,1.261,3.118,1.854
		c0.277,0.156,0.55,0.316,0.83,0.468c0-0.009-0.002-0.018-0.003-0.027c-0.066-0.869,0.077-1.767,0.458-2.616
		c0.438-0.977,1.147-1.779,2.014-2.335C33.705,113.873,31.401,112.398,29.226,110.778z"/>
	<path fill="#379FEF" d="M58.588,125.057c0-1.095,0.329-2.114,0.891-2.966c-0.341-0.026-0.683-0.048-1.023-0.08
		c-0.14-0.013-0.282-0.019-0.422-0.033c-0.968-0.098-1.93-0.223-2.888-0.368c-0.004,0-0.008-0.001-0.012-0.001
		c-1.12-0.17-2.236-0.366-3.341-0.601c-0.778-0.166-1.548-0.361-2.318-0.559c-0.01-0.002-0.02-0.004-0.029-0.007
		c-0.886-0.228-1.766-0.481-2.641-0.752c-0.052-0.016-0.104-0.03-0.155-0.046c-0.248-0.077-0.5-0.142-0.747-0.223
		c-0.511-0.167-1.014-0.361-1.521-0.542c-0.076-0.027-0.152-0.054-0.228-0.082c-0.083-0.03-0.167-0.059-0.251-0.089
		c-0.807-0.297-1.608-0.616-2.405-0.95c-0.088-0.037-0.176-0.073-0.263-0.11c-0.35-0.149-0.705-0.283-1.053-0.439h-0.001
		c-0.18-0.081-0.364-0.139-0.549-0.179c-0.061-0.013-0.121-0.013-0.182-0.022c-0.125-0.018-0.25-0.038-0.375-0.039
		c-0.158-0.002-0.315,0.011-0.469,0.036c-0.04,0.007-0.079,0.017-0.118,0.026c-0.12,0.025-0.238,0.057-0.353,0.097
		c-0.046,0.016-0.091,0.032-0.136,0.05c-0.127,0.052-0.25,0.112-0.369,0.182c-0.02,0.012-0.041,0.02-0.06,0.032
		c-0.134,0.084-0.26,0.183-0.379,0.29c-0.033,0.03-0.063,0.063-0.095,0.094c-0.087,0.086-0.168,0.178-0.244,0.277
		c-0.03,0.038-0.06,0.076-0.087,0.116c-0.094,0.137-0.181,0.281-0.252,0.438l0,0c-0.549,1.224-0.138,2.634,0.91,3.388
		c0.051,0.036,0.111,0.062,0.165,0.095c0.105,0.065,0.207,0.133,0.322,0.185l0,0c0.367,0.164,0.74,0.306,1.109,0.463
		c0.137,0.058,0.274,0.114,0.411,0.171c0.097,0.041,0.194,0.082,0.292,0.122c0.736,0.303,1.476,0.596,2.22,0.871
		c0.124,0.046,0.248,0.088,0.372,0.133c0.016,0.006,0.033,0.012,0.049,0.018c0.857,0.31,1.72,0.606,2.594,0.88
		c0.11,0.034,0.22,0.065,0.33,0.098c0.905,0.278,1.817,0.541,2.739,0.78c0.072,0.019,0.144,0.034,0.215,0.052
		c0.956,0.243,1.919,0.469,2.891,0.669c0.049,0.01,0.098,0.017,0.147,0.027c0.99,0.201,1.987,0.381,2.993,0.536
		c0.08,0.012,0.161,0.02,0.241,0.031c0.974,0.146,1.954,0.274,2.942,0.375c0.25,0.025,0.502,0.036,0.752,0.059
		c0.345,0.031,0.691,0.056,1.037,0.081c0-0.001-0.001-0.001-0.001-0.002C58.826,126.869,58.588,125.99,58.588,125.057z"/>
	<path fill="#198DE6" d="M127.818,63.517c-0.007-0.923-0.024-1.844-0.07-2.758c-0.011-0.218-0.035-0.432-0.048-0.65
		c-0.053-0.873-0.111-1.744-0.199-2.607c-0.007-0.069-0.018-0.136-0.025-0.205c-0.092-0.886-0.208-1.766-0.336-2.643
		c-0.018-0.119-0.037-0.237-0.055-0.356c-1.555-10.261-5.559-19.916-11.749-28.251c-0.624-0.84-1.27-1.667-1.938-2.48
		c-1.335-1.625-2.758-3.194-4.265-4.701C98.649,8.382,85.158,2,70.606,0.512c-0.034-0.003-0.067-0.009-0.101-0.012
		c-0.92-0.094-1.848-0.158-2.78-0.212c-0.159-0.009-0.317-0.027-0.476-0.035C66.173,0.199,65.09,0.17,64,0.17
		c-0.001,0-0.002,0-0.003,0c-0.575,0-1.109,0.175-1.552,0.474c-0.147,0.1-0.285,0.213-0.411,0.339
		c-0.502,0.502-0.813,1.196-0.813,1.962c0,0.323,0.066,0.629,0.168,0.918c0.052,0.146,0.115,0.284,0.189,0.417
		c0.126,0.228,0.273,0.443,0.456,0.626c0.125,0.126,0.263,0.239,0.411,0.339c0.443,0.299,0.977,0.474,1.552,0.474
		c16.068,0,30.638,6.536,41.191,17.089c0.66,0.66,1.304,1.335,1.931,2.025c0.588,0.647,1.162,1.308,1.722,1.981
		c8.387,10.098,13.437,23.063,13.437,37.185l0,0c0,30.614-23.731,55.772-53.761,58.088c-1.493,0.115-2.997,0.192-4.519,0.192
		c-0.575,0-1.109,0.175-1.552,0.474c-0.147,0.1-0.285,0.213-0.411,0.339c-0.183,0.183-0.33,0.398-0.456,0.626
		c-0.074,0.134-0.137,0.272-0.189,0.417c-0.102,0.289-0.168,0.595-0.168,0.918c0,0.68,0.254,1.294,0.66,1.777
		c0.166,0.197,0.35,0.38,0.564,0.524c0.443,0.299,0.977,0.474,1.552,0.474c0.001,0,0.002,0,0.003,0c1.09,0,2.173-0.028,3.249-0.083
		c0.158-0.008,0.315-0.026,0.474-0.035c0.344-0.02,0.685-0.05,1.027-0.075c0.586-0.043,1.173-0.079,1.756-0.137
		c0.029-0.003,0.058-0.008,0.087-0.011c14.557-1.485,28.052-7.868,38.54-18.355c1.507-1.507,2.929-3.076,4.265-4.701
		c2.003-2.438,3.81-5.003,5.414-7.675c3.251-5.418,5.638-11.285,7.143-17.423c0.059-0.239,0.118-0.477,0.175-0.717
		c0.15-0.646,0.293-1.293,0.423-1.944c0.094-0.462,0.177-0.928,0.26-1.394c0.09-0.51,0.185-1.019,0.264-1.533
		c0.156-1.012,0.293-2.03,0.4-3.057c0.007-0.065,0.017-0.128,0.024-0.193c0.088-0.867,0.147-1.742,0.2-2.619
		c0.013-0.213,0.036-0.425,0.047-0.638c0.046-0.917,0.063-1.842,0.07-2.77c0.001-0.158,0.011-0.314,0.011-0.472
		C127.829,63.839,127.819,63.679,127.818,63.517z"/>
	<g>
		<g>
			<path fill="#3290D9" d="M93.331,43.36L70.816,65.875c4.661,2.291,7.955,6.854,8.369,12.208c-3.959,3.68-9.296,5.953-15.186,5.953
				c-3.33,0-6.472-0.748-9.3-2.044L43.197,93.494c5.874,4.173,13.048,6.635,20.802,6.635c19.864,0,35.967-16.103,35.967-35.967
				C99.966,56.408,97.504,49.234,93.331,43.36z"/>
			<path fill="#F0EEE8" d="M79.185,78.083c-0.414-5.354-3.708-9.916-8.369-12.208L54.7,81.991c2.828,1.297,5.969,2.044,9.3,2.044
				C69.889,84.036,75.226,81.763,79.185,78.083z"/>
		</g>
		<path fill="#F0EEE8" d="M113.953,64.001c0-11.563-3.957-22.213-10.577-30.687l-3.949,3.949c5.631,7.443,8.975,16.707,8.975,26.738
			c0,24.484-19.919,44.404-44.404,44.404c-10.031,0-19.292-3.347-26.735-8.978l-3.95,3.95c8.475,6.619,19.124,10.579,30.686,10.579
			C91.544,113.955,113.953,91.546,113.953,64.001z"/>
		<path fill="#32A6DB" d="M29.705,117.848c1.016,0.648,2.06,1.261,3.118,1.854c0.277,0.156,0.55,0.316,0.83,0.468
			c0-0.009-0.002-0.018-0.003-0.027c-0.066-0.869,0.077-1.767,0.458-2.616c0.438-0.977,1.147-1.779,2.014-2.335
			c-2.416-1.318-4.72-2.792-6.896-4.413c-0.632-0.471-1.243-0.965-1.853-1.46l-3.942,3.942c0.808,0.677,1.633,1.337,2.482,1.97
			C27.14,116.145,28.405,117.019,29.705,117.848z"/>
		<path fill="#318FD6" d="M58.456,122.01c-0.14-0.013-0.282-0.019-0.422-0.033c-0.968-0.098-1.93-0.223-2.888-0.368
			c-0.004,0-0.008-0.001-0.012-0.001c-1.12-0.17-2.236-0.366-3.341-0.601c-0.778-0.166-1.548-0.361-2.318-0.559
			c-0.01-0.002-0.02-0.004-0.029-0.007c-0.886-0.228-1.766-0.481-2.641-0.752c-0.052-0.016-0.104-0.03-0.155-0.046
			c-0.248-0.077-0.5-0.142-0.747-0.223c-0.511-0.167-1.014-0.361-1.521-0.542c-0.076-0.027-0.152-0.054-0.228-0.082
			c-0.083-0.03-0.167-0.059-0.251-0.089c-0.807-0.297-1.608-0.616-2.405-0.95c-0.088-0.037-0.176-0.073-0.263-0.11
			c-0.35-0.149-0.705-0.283-1.053-0.439h-0.001c-0.18-0.081-0.364-0.139-0.549-0.179c-0.061-0.013-0.121-0.013-0.182-0.022
			c-0.125-0.018-0.25-0.038-0.375-0.039c-0.158-0.002-0.315,0.011-0.469,0.036c-0.04,0.007-0.079,0.017-0.118,0.026
			c-0.12,0.025-0.238,0.057-0.353,0.097c-0.046,0.016-0.091,0.032-0.136,0.05c-0.127,0.052-0.25,0.112-0.369,0.182
			c-0.02,0.012-0.041,0.02-0.06,0.032c-0.134,0.084-0.26,0.183-0.379,0.29c-0.033,0.03-0.063,0.063-0.095,0.094
			c-0.087,0.086-0.168,0.178-0.244,0.277c-0.03,0.038-0.06,0.076-0.087,0.116c-0.094,0.137-0.181,0.281-0.252,0.438l0,0
			c-0.549,1.224-0.138,2.634,0.91,3.388c0.051,0.036,0.111,0.062,0.165,0.095c0.105,0.065,0.207,0.133,0.322,0.185l0,0
			c0.367,0.164,0.74,0.306,1.109,0.463c0.137,0.058,0.274,0.114,0.411,0.171c0.097,0.041,0.194,0.082,0.292,0.122
			c0.736,0.303,1.476,0.596,2.22,0.871c0.124,0.046,0.248,0.088,0.372,0.133c0.016,0.006,0.033,0.012,0.049,0.018
			c0.857,0.31,1.72,0.606,2.594,0.88c0.11,0.034,0.22,0.065,0.33,0.098c0.905,0.278,1.817,0.541,2.739,0.78
			c0.072,0.019,0.144,0.034,0.215,0.052c0.956,0.243,1.919,0.469,2.891,0.669c0.049,0.01,0.098,0.017,0.147,0.027
			c0.99,0.201,1.987,0.381,2.993,0.536c0.08,0.012,0.161,0.02,0.241,0.031c0.974,0.146,1.954,0.274,2.942,0.375
			c0.25,0.025,0.502,0.036,0.752,0.059c0.345,0.031,0.691,0.056,1.037,0.081c0-0.001-0.001-0.001-0.001-0.002
			c-0.418-0.767-0.656-1.646-0.656-2.579c0-1.095,0.329-2.114,0.891-2.966C59.138,122.064,58.796,122.042,58.456,122.01z"/>
		<path fill="#308BD1" d="M122.279,64.001c0,30.614-23.731,55.772-53.761,58.088c-1.493,0.115-2.997,0.192-4.519,0.192
			c-0.575,0-1.109,0.175-1.552,0.474c-0.147,0.1-0.285,0.213-0.411,0.339c-0.183,0.183-0.33,0.398-0.456,0.626
			c-0.074,0.134-0.137,0.272-0.189,0.417c-0.102,0.289-0.168,0.595-0.168,0.918c0,0.68,0.254,1.294,0.66,1.777
			c0.166,0.197,0.35,0.38,0.564,0.524c0.443,0.299,0.977,0.474,1.552,0.474c0.001,0,0.002,0,0.003,0c1.09,0,2.173-0.028,3.249-0.083
			c0.158-0.008,0.315-0.026,0.474-0.035c0.344-0.02,0.685-0.05,1.027-0.075c0.586-0.043,1.173-0.079,1.756-0.137
			c0.029-0.003,0.058-0.008,0.087-0.011c14.557-1.485,28.052-7.868,38.54-18.355c1.507-1.507,2.929-3.076,4.265-4.701
			c2.003-2.438,3.81-5.003,5.414-7.675c3.251-5.418,5.638-11.285,7.143-17.423c0.059-0.239,0.118-0.477,0.175-0.717
			c0.15-0.646,0.293-1.293,0.423-1.944c0.094-0.462,0.177-0.928,0.26-1.394c0.09-0.51,0.185-1.019,0.264-1.533
			c0.156-1.012,0.293-2.03,0.4-3.057c0.007-0.065,0.017-0.128,0.024-0.193c0.088-0.867,0.147-1.742,0.2-2.619
			c0.013-0.213,0.036-0.425,0.047-0.638c0.046-0.917,0.063-1.842,0.07-2.77c0.001-0.158,0.011-0.314,0.011-0.472
			c0-0.162-0.01-0.322-0.012-0.484c-0.007-0.923-0.024-1.844-0.07-2.758c-0.011-0.218-0.035-0.432-0.048-0.65
			c-0.053-0.873-0.111-1.744-0.199-2.607c-0.007-0.069-0.018-0.136-0.025-0.205c-0.092-0.886-0.208-1.766-0.336-2.643
			c-0.018-0.119-0.037-0.237-0.055-0.356c-1.555-10.261-5.559-19.916-11.749-28.251c-0.624-0.84-1.27-1.667-1.938-2.48
			c-0.041-0.05-0.086-0.098-0.128-0.148l-3.971,3.971C117.408,37.404,122.279,50.142,122.279,64.001L122.279,64.001z"/>
	</g>
</g>
</svg>
