<?xml version="1.0" encoding="utf-8"?>
<!-- Generator: Adobe Illustrator 17.0.0, SVG Export Plug-In . SVG Version: 6.00 Build 0)  -->
<!DOCTYPE svg PUBLIC "-//W3C//DTD SVG 1.1//EN" "http://www.w3.org/Graphics/SVG/1.1/DTD/svg11.dtd">
<svg version="1.1" id="Layer_1" xmlns="http://www.w3.org/2000/svg" xmlns:xlink="http://www.w3.org/1999/xlink" x="0px" y="0px"
	 width="79px" height="119px" viewBox="0 0 79 119" enable-background="new 0 0 79 119" xml:space="preserve">
<g>
	<g>
		<g>
			<g>
				<g>
					<path fill="#FFD349" d="M47.916,9.685h21.375c4.54,0,8.221,3.871,8.221,8.646v91.011c0,4.775-3.681,8.646-8.221,8.646H9.711
						c-4.54,0-8.221-3.871-8.221-8.646V18.331c0-4.775,3.681-8.646,8.221-8.646h20.786"/>
					<path fill="#F2EDDF" d="M69.289,118.988H9.709c-5.085,0-9.221-4.327-9.221-9.646V18.331c0-5.319,4.137-9.646,9.221-9.646
						h20.786c0.552,0,1,0.448,1,1s-0.448,1-1,1H9.71c-3.982,0-7.221,3.43-7.221,7.646v91.011c0,4.216,3.24,7.646,7.221,7.646h59.58
						c3.982,0,7.221-3.43,7.221-7.646V18.331c0-4.216-3.24-7.646-7.221-7.646H47.915c-0.552,0-1-0.448-1-1s0.448-1,1-1H69.29
						c5.084,0,9.221,4.328,9.221,9.646v91.011C78.512,114.661,74.375,118.988,69.289,118.988z"/>
				</g>
			</g>
			<g>
				<g>
					<circle fill="#F7F5EF" cx="39.424" cy="42.996" r="9.761"/>
				</g>
				<g>
					<g>
						<path fill="#F7F5EF" d="M39.424,54.69c-9.575,0-17.403,7.251-18.114,16.448c4.722,4.39,11.089,7.101,18.114,7.101
							s13.392-2.711,18.114-7.101C56.826,61.941,48.997,54.69,39.424,54.69z"/>
					</g>
				</g>
			</g>
			<path fill="#FFFFFF" d="M64.456,94.384H13.643c-0.741,0-1.342-0.601-1.342-1.341s0.601-1.341,1.342-1.341h50.812
				c0.741,0,1.342,0.601,1.342,1.341S65.197,94.384,64.456,94.384z"/>
			<path fill="#FFFFFF" d="M30.434,106.319H13.911c-0.741,0-1.342-0.601-1.342-1.341s0.601-1.341,1.342-1.341h16.523
				c0.741,0,1.342,0.601,1.342,1.341S31.174,106.319,30.434,106.319z"/>
			<path fill="#379FEF" d="M64.737,106.319H39.88c-0.741,0-1.342-0.601-1.342-1.341s0.601-1.341,1.342-1.341h24.857
				c0.741,0,1.342,0.601,1.342,1.341S65.477,106.319,64.737,106.319z"/>
			<g>
				<circle fill="#FFFFFF" cx="39.315" cy="16.037" r="4.42"/>
			</g>
			<path fill="#F2EDDF" d="M39.315,18.06c-1.043,0-1.889-0.846-1.889-1.889V1.899c0-1.043,0.846-1.889,1.889-1.889
				s1.889,0.846,1.889,1.889V16.17C41.205,17.214,40.359,18.06,39.315,18.06z"/>
		</g>
	</g>
	<g>
		<path fill="#FACF48" d="M9.711,116.988h59.58c3.982,0,7.221-3.43,7.221-7.646V33.415L51.073,58.854
			c3.645,2.995,6.085,7.353,6.466,12.284c-4.722,4.39-11.089,7.101-18.114,7.101c-2.37,0-4.662-0.315-6.844-0.893L18.224,91.702
			h46.232c0.741,0,1.342,0.601,1.342,1.341c0,0.74-0.601,1.341-1.342,1.341H15.542L2.49,107.437v1.905
			C2.49,113.558,5.729,116.988,9.711,116.988z M39.88,103.637h24.857c0.741,0,1.342,0.601,1.342,1.341
			c0,0.74-0.601,1.341-1.342,1.341H39.88c-0.741,0-1.342-0.601-1.342-1.341S39.14,103.637,39.88,103.637z M13.911,103.637h16.523
			c0.741,0,1.342,0.601,1.342,1.341c0,0.74-0.601,1.341-1.342,1.341H13.911c-0.741,0-1.342-0.601-1.342-1.341
			S13.171,103.637,13.911,103.637z"/>
		<path fill="#F0EEE8" d="M78.512,109.342V31.415l-0.999,0.999v76.928c0,4.775-3.681,8.646-8.221,8.646H9.711
			c-4.54,0-8.221-3.871-8.221-8.646v-0.906l-0.996,0.996c0.026,2.968,1.339,5.621,3.383,7.373c0.002,0.002,0.004,0.003,0.006,0.005
			c0.225,0.193,0.458,0.374,0.7,0.544c0.023,0.016,0.048,0.029,0.071,0.045c0.223,0.154,0.45,0.3,0.685,0.433
			c0.048,0.027,0.099,0.048,0.148,0.075c0.214,0.116,0.43,0.229,0.653,0.328c0.084,0.037,0.173,0.064,0.258,0.099
			c0.193,0.078,0.385,0.158,0.585,0.223c0.114,0.037,0.234,0.062,0.35,0.094c0.176,0.049,0.35,0.104,0.529,0.142
			c0.164,0.035,0.333,0.054,0.499,0.08c0.137,0.021,0.272,0.051,0.411,0.066c0.305,0.032,0.614,0.049,0.927,0.049
			c0.004,0,0.008,0.001,0.012,0.001h59.58C74.375,118.988,78.513,114.661,78.512,109.342z"/>
		<path fill="#F0EEE8" d="M76.512,109.342c0,4.216-3.239,7.646-7.221,7.646H9.711c-3.981,0-7.221-3.43-7.221-7.646v-1.905
			l-0.999,0.999v0.906c0,4.775,3.681,8.646,8.221,8.646h59.58c4.54,0,8.221-3.871,8.221-8.646V32.414l-1.001,1.001V109.342z"/>
		<path fill="#F0EEE8" d="M57.539,71.138c-0.381-4.931-2.821-9.289-6.466-12.284L32.581,77.346c2.182,0.577,4.474,0.893,6.844,0.893
			C46.45,78.239,52.817,75.528,57.539,71.138z"/>
		<path fill="#F0EEE8" d="M65.799,93.043c0-0.74-0.601-1.341-1.342-1.341H18.225l-2.682,2.682h48.914
			C65.198,94.384,65.799,93.783,65.799,93.043z"/>
		<path fill="#F0EEE8" d="M13.911,106.319h16.523c0.741,0,1.342-0.601,1.342-1.341c0-0.74-0.601-1.341-1.342-1.341H13.911
			c-0.741,0-1.342,0.601-1.342,1.341C12.57,105.718,13.171,106.319,13.911,106.319z"/>
		<path fill="#359AE8" d="M39.88,106.319h24.857c0.741,0,1.342-0.601,1.342-1.341c0-0.74-0.601-1.341-1.342-1.341H39.88
			c-0.741,0-1.342,0.601-1.342,1.341C38.539,105.718,39.14,106.319,39.88,106.319z"/>
	</g>
</g>
</svg>
